<svg xmlns="http://www.w3.org/2000/svg">
<defs>
<font id="462fb4dc1aa31889c2dc9982c86dc445" horiz-adv-x='1024' >
  <font-face 
    font-family="PTSans-NarrowBold"
    font-weight="700"
    font-stretch="condensed"
    units-per-em="2048"
    panose-1="2 11 7 6 2 2 3 2 2 4"
    ascent="1536"
    descent="-512"
    x-height="1024"
    cap-height="1434"
    bbox="-864 -559 2085 2081"
    underline-thickness="102"
    underline-position="-102"
    unicode-range="U+0020-FB02"
  />
<missing-glyph horiz-adv-x="1536" 
d="M1249.5 100q12.5 0 10.5 -12h-23q0 12 12.5 12zM1274 90q0 23 -27 23t-27 -30t29 -30q11 0 23 6l-6 11q-4 -4 -16 -4t-15 12h39v12zM1174 90q0 10 11 10t11 -17t-14 -17q-4 0 -8 4v20zM1157 33h17v24q2 -4 10 -4q28 0 28 30t-22 30q-10 0 -19 -9h-2l-2 7h-10v-78z
M1112 33q8 0 18 26l21 52h-16l-11 -31v-10h-2l-2 10l-12 31h-16l24 -56q-2 -10 -10 -10l-2 2l-4 -12q4 -2 12 -2zM1092 129h-64v-12h23v-62h16v62h25v12zM1005.5 66q-8.5 0 -8.5 8t11 8l10 -2v-6q-4 -8 -12.5 -8zM981 72q0 -18 18 -19q14 0 19 10h2l2 -8h12q-2 4 -2 15v22
q0 20 -20 21q-16 0 -25 -7l2 -10q13 4 21 4t8 -8v-4l-10 2q-27 0 -27 -18zM970 113q-7 0 -12 -11h-2l-2 9h-12v-56h16v35q0 8 13 8h2q2 0 2 -1t2 -1l2 15q-2 2 -9 2zM901 66q-8 0 -8 8t10 8l10 -2v-6q-4 -8 -12 -8zM928 70v22q0 20 -21 21q-17 0 -26 -7l4 -10q8 4 18 4
t10 -8v-4l-10 2q-27 0 -26 -20q0 -16 18 -17q12 0 18 10l5 -8h12q-2 4 -2 15zM842 117q16 0 16 -10.5t-5 -11.5t-13 -1h-6v23h8zM842 80q32 0 32 24t-34 25h-23v-74h17v25h8zM735 76q-6 0 -6 9t8 9h6l5 8q-8 4 -15 4q-18 0 -18 -22t18 -21q10 0 15 5l-3 10q-4 -2 -10 -2z
M705 86q0 31 28.5 31t28.5 -31t-28.5 -31t-28.5 31zM692 86q0 -43 41 -43t41 42t-41 42q-16 0 -28.5 -11.5t-12.5 -29.5zM629 53q23 0 22 19q0 10 -13 15t-13 9t7 4t15 -4l4 13q-8 4 -24 4q-17 -1 -17 -15t6.5 -17t13.5 -4t7 -6t-8 -5t-17 4l-4 -13q8 -4 21 -4zM598 55v33
q0 25 -16 25t-23 -11l-4 9h-10v-56h14v35q4 8 13 8t10 -12v-31h16zM502 66q-8 0 -8 8t10 8l10 -2v-6q-4 -8 -12 -8zM479 72q0 -18 17 -19q12 0 18 10l4 -8h12q-2 4 -2 15v22q0 20 -20 21q-18 0 -27 -7l4 -10q8 4 18.5 4t10.5 -8v-4l-10 2q-25 0 -25 -18zM471 78

<glyph glyph-name="fi" unicode="fi" horiz-adv-x="942" 
d="M766 1184q-104 53 -238 53t-144.5 -82t-10.5 -131h473v-1024h-244v807h-229v-807h-244v807h-111v217h111v57q0 195 85 284t249 89q233 0 366 -70z" />
    <glyph glyph-name="fl" unicode="fl" horiz-adv-x="1007" 
d="M473 1243q-62 0 -81 -53t-19 -166h116v-217h-116v-807h-244v807h-111v217h111v57q0 199 80.5 289t271.5 90q116 0 226 -15t135 -22v-1093q0 -135 61 -135q37 0 82 20l27 -195q-89 -49 -200 -49t-162.5 52.5t-51.5 175.5v1030q-63 14 -125 14z" />
    <glyph glyph-name=".notdef" horiz-adv-x="1536" 
d="M1249.5 100q12.5 0 10.5 -12h-23q0 12 12.5 12zM1274 90q0 23 -27 23t-27 -30t29 -30q11 0 23 6l-6 11q-4 -4 -16 -4t-15 12h39v12zM1174 90q0 10 11 10t11 -17t-14 -17q-4 0 -8 4v20zM1157 33h17v24q2 -4 10 -4q28 0 28 30t-22 30q-10 0 -19 -9h-2l-2 7h-10v-78z
M1112 33q8 0 18 26l21 52h-16l-11 -31v-10h-2l-2 10l-12 31h-16l24 -56q-2 -10 -10 -10l-2 2l-4 -12q4 -2 12 -2zM1092 129h-64v-12h23v-62h16v62h25v12zM1005.5 66q-8.5 0 -8.5 8t11 8l10 -2v-6q-4 -8 -12.5 -8zM981 72q0 -18 18 -19q14 0 19 10h2l2 -8h12q-2 4 -2 15v22
q0 20 -20 21q-16 0 -25 -7l2 -10q13 4 21 4t8 -8v-4l-10 2q-27 0 -27 -18zM970 113q-7 0 -12 -11h-2l-2 9h-12v-56h16v35q0 8 13 8h2q2 0 2 -1t2 -1l2 15q-2 2 -9 2zM901 66q-8 0 -8 8t10 8l10 -2v-6q-4 -8 -12 -8zM928 70v22q0 20 -21 21q-17 0 -26 -7l4 -10q8 4 18 4
t10 -8v-4l-10 2q-27 0 -26 -20q0 -16 18 -17q12 0 18 10l5 -8h12q-2 4 -2 15zM842 117q16 0 16 -10.5t-5 -11.5t-13 -1h-6v23h8zM842 80q32 0 32 24t-34 25h-23v-74h17v25h8zM735 76q-6 0 -6 9t8 9h6l5 8q-8 4 -15 4q-18 0 -18 -22t18 -21q10 0 15 5l-3 10q-4 -2 -10 -2z
M705 86q0 31 28.5 31t28.5 -31t-28.5 -31t-28.5 31zM692 86q0 -43 41 -43t41 42t-41 42q-16 0 -28.5 -11.5t-12.5 -29.5zM629 53q23 0 22 19q0 10 -13 15t-13 9t7 4t15 -4l4 13q-8 4 -24 4q-17 -1 -17 -15t6.5 -17t13.5 -4t7 -6t-8 -5t-17 4l-4 -13q8 -4 21 -4zM598 55v33
q0 25 -16 25t-23 -11l-4 9h-10v-56h14v35q4 8 13 8t10 -12v-31h16zM502 66q-8 0 -8 8t10 8l10 -2v-6q-4 -8 -12 -8zM479 72q0 -18 17 -19q12 0 18 10l4 -8h12q-2 4 -2 15v22q0 20 -20 21q-18 0 -27 -7l4 -10q8 4 18.5 4t10.5 -8v-4l-10 2q-25 0 -25 -18zM471 78
q0 18 -18.5 20t-18.5 13q0 6 11 6t20 -4l4 14q-12 4 -23 4q-29 0 -28 -22q0 -18 18.5 -23.5t18.5 -11.5t-14.5 -6t-18.5 4l-6 -15l26 -4q29 0 29 25zM387 129h-63v-12h24v-62h14v62h25v12zM289 117q16 0 16 -10.5t-5 -11.5t-13 -1h-6v23h8zM289 80q33 0 33 24t-35 25h-23
v-74h17v25h8zM1167 1270l-399 -445l-399 445l-103 -103l404 -450l-404 -451l103 -102l399 444l399 -444l103 102l-406 451l406 450zM102 1434h1332v-1434h-1332v1434z" />
    <glyph glyph-name=".null" horiz-adv-x="0" 
 />
    <glyph glyph-name="nonmarkingreturn" horiz-adv-x="419" 
 />
    <glyph glyph-name="space" unicode=" " horiz-adv-x="419" 
 />
    <glyph glyph-name="exclam" unicode="!" horiz-adv-x="514" 
d="M147 134q0 75 40 114t109 39t107.5 -39t38.5 -114t-40 -116t-108 -41t-107.5 41t-39.5 116zM170 1434h252v-674l-49 -334h-154l-49 334v674z" />
    <glyph glyph-name="quotedbl" unicode="&#x22;" horiz-adv-x="718" 
d="M424 1434h211l-64 -443h-147v443zM150 1434h210l-63 -443h-147v443z" />
    <glyph glyph-name="numbersign" unicode="#" 
d="M393 614h142l43 226h-142zM496 420h-142l-61 -316h-199l62 316h-125l43 194h119l45 226h-123l43 194h116l60 295h201l-60 -295h141l60 295h198l-59 -295h121l-45 -194h-113l-45 -226h119l-45 -194h-111l-61 -316h-201z" />
    <glyph glyph-name="dollar" unicode="$" 
d="M354 1086q0 -57 37 -101.5t92 -83.5v338q-129 -14 -129 -153zM639 374.5q0 69.5 -37 116t-94 84.5v-378q66 12 98.5 60t32.5 117.5zM111 1075q0 160 77.5 253t208.5 122v188h195v-180q125 -7 231 -59l-67 -213q-75 38 -164 49v-404q142 -88 218.5 -181t76.5 -259
t-80 -268.5t-215 -134.5v-193h-195v178q-183 7 -278 70l67 219q69 -51 211 -67v450q-133 78 -184 141.5t-76.5 130t-25.5 158.5z" />
    <glyph glyph-name="percent" unicode="%" horiz-adv-x="1474" 
d="M301 1113q-1 -181 79 -181q36 0 53 7t33 36t17 134q0 105 -22 142q-23 37 -70 37t-69 -37t-21 -138zM84 1108q0 266 183 331q56 19 124 19q219 0 286 -183q23 -67 23 -165q-1 -272 -185 -331q-56 -17 -124 -17q-147 0 -227 81t-80 265zM1014 353q0 -181 79 -181
q36 0 53 7q18 7 34 36t16 134t-22 143q-23 36 -70 36t-69 -36q-21 -38 -21 -139zM1104 2q-307 0 -307 346q0 266 183 331q56 19 124 19q313 0 309 -348q0 -272 -185 -331q-56 -17 -124 -17zM1178 1462l143 -119l-1012 -1372l-145 121z" />
    <glyph glyph-name="ampersand" unicode="&#x26;" horiz-adv-x="1374" 
d="M745 1159q0 107 -88 107q-41 0 -62.5 -30t-21.5 -77q0 -90 60 -184q112 97 112 184zM387 410q0 -98 58.5 -156.5t138.5 -58.5t135 33.5t84 74.5q-177 236 -262 414q-72 -72 -113 -140.5t-41 -166.5zM571 -29q-189 0 -308.5 112t-119.5 323q0 210 113 323t172 154
q-98 155 -98 288q0 194 111.5 242.5t193.5 48.5q152 0 226.5 -73.5t74.5 -186.5q0 -193 -219 -354q127 -239 239 -381q60 79 115 268l182 -84q-28 -103 -82.5 -205t-74.5 -131q85 -98 182 -157l-125 -187q-109 53 -209 170q-148 -170 -373 -170z" />
    <glyph glyph-name="quotesingle" unicode="'" horiz-adv-x="444" 
d="M150 1434h210l-63 -443h-147v443z" />
    <glyph glyph-name="parenleft" unicode="(" horiz-adv-x="569" 
d="M168.5 1006.5q70.5 261.5 216.5 451.5l164 -92q-207 -361 -207 -868q0 -208 51.5 -446t157.5 -404l-170 -99q-141 177 -212 436t-71 510q0 250 70.5 511.5z" />
    <glyph glyph-name="parenright" unicode=")" horiz-adv-x="569" 
d="M227 510q0 343 -77.5 554.5t-131.5 299.5l170 94q143 -180 213 -437.5t70 -510.5q0 -396 -103.5 -626t-183.5 -335l-166 95q209 349 209 866z" />
    <glyph glyph-name="asterisk" unicode="*" horiz-adv-x="661" 
d="M602 1262v-144h-102l-107 33l92 -92l45 -82l-122 -72l-50 88l-32 125l-21 -112l-53 -97l-123 72l55 98l80 70l-96 -31h-109v146h111l102 -33l-92 84l-51 96l123 72l49 -88l27 -115l22 106l53 97l121 -70l-55 -100l-86 -82l113 31h106z" />
    <glyph glyph-name="plus" unicode="+" horiz-adv-x="909" 
d="M70 803h272v299h225v-299h273v-217h-273v-301h-225v301h-272v217z" />
    <glyph glyph-name="comma" unicode="," horiz-adv-x="401" 
d="M68 129q0 74 41 114t111 40t111.5 -55.5t41.5 -149.5q0 -164 -75 -254t-165 -125l-76 98q47 25 84 79t41 110q-43 -2 -78.5 33.5t-35.5 109.5z" />
    <glyph glyph-name="hyphen" unicode="-" horiz-adv-x="610" 
d="M92 705h426v-234h-426v234z" />
    <glyph glyph-name="period" unicode="." horiz-adv-x="393" 
d="M70 134q0 75 40 114t108 39t107.5 -39t39.5 -114t-40 -116t-109 -41t-107.5 41t-38.5 116z" />
    <glyph glyph-name="slash" unicode="/" horiz-adv-x="714" 
d="M565 1458l187 -72l-600 -1673l-189 72z" />
    <glyph glyph-name="zero" unicode="0" 
d="M315 652q0 -464 177 -464q93 0 133.5 125t40.5 402q0 276 -40 403t-135 127t-135.5 -125t-40.5 -468zM177 1286q105 176 317 176t313.5 -173.5t101.5 -569.5q0 -579 -159.5 -663.5t-263.5 -84.5t-182.5 42t-155 179.5t-76.5 527.5t105 566z" />
    <glyph glyph-name="one" unicode="1" 
d="M178 217h234v805l26 139l-84 -121l-135 -104l-113 137l396 385h143v-1241h229v-217h-696v217z" />
    <glyph glyph-name="two" unicode="2" 
d="M477 1462q239 0 292.5 -140t53.5 -239q0 -188 -101 -412t-226 -390l-90 -84v-11l122 31h318v-217h-719v141q163 201 308 457t145 449q0 86 -41 139t-111 53q-124 0 -213 -80l-92 178q145 125 354 125z" />
    <glyph glyph-name="three" unicode="3" 
d="M614 428q0 231 -229 231h-121v140l203 344l98 92l-135 -18h-280v217h655v-146l-238 -387l-75 -55v-10l75 12q125 -9 208 -111.5t83 -312.5t-121 -331.5t-311 -121.5q-76 0 -160 16.5t-133 47.5l66 205q97 -52 204 -52t159 68t52 172z" />
    <glyph glyph-name="four" unicode="4" 
d="M541 608v318l22 184h-8l-61 -166l-162 -274l-82 -78l104 16h187zM952 399h-180v-399h-231v399h-506v152l524 893h213v-836h180v-209z" />
    <glyph glyph-name="five" unicode="5" 
d="M371 195q115 0 172 71.5t57 192.5q0 235 -262 235l-133 -8v748h596v-238h-387v-293l67 8q166 -6 264.5 -122.5t98.5 -338.5t-126 -350.5t-331 -128.5q-165 0 -270 56l63 206q76 -38 191 -38z" />
    <glyph glyph-name="six" unicode="6" 
d="M662 434q0 121 -42 177.5t-116 56.5t-117 -35t-61 -82q-2 -23 -2 -29v-63q0 -182 63.5 -226.5t108.5 -44.5q74 0 120 62.5t46 183.5zM502 -29q-414 0 -414 577q0 175 50 340t177 341.5t383 232.5l62 -198q-156 -39 -271.5 -171t-152.5 -319q79 111 226 111t241 -112.5
t94 -327.5t-110 -344.5t-285 -129.5z" />
    <glyph glyph-name="seven" unicode="7" 
d="M106 1200v234h777v-78l-465 -1356h-238l387 1120l74 101l-102 -21h-433z" />
    <glyph glyph-name="eight" unicode="8" 
d="M625 1069q0 84 -38.5 130t-98.5 46t-90.5 -50.5t-30.5 -106.5q0 -94 42.5 -148.5t120.5 -103.5q95 111 95 233zM326 391q0 -86 43 -144.5t117 -58.5t114.5 45t40.5 115t-16.5 111t-44 72.5t-61.5 58t-66 51.5q-127 -97 -127 -250zM672 756q205 -144 205 -366
q0 -204 -109.5 -311.5t-280.5 -107.5t-278 99t-107 267q0 146 57 236.5t146 157.5q-80 63 -126 146.5t-46 205.5q0 174 97.5 276.5t260.5 102.5t259 -90t96 -256q0 -121 -45 -205t-129 -155z" />
    <glyph glyph-name="nine" unicode="9" 
d="M311 998q0 -116 50.5 -176t118.5 -60q127 0 173 82q6 34 6 96q0 138 -46 221.5t-131 83.5t-128 -65.5t-43 -181.5zM475 1462q192 0 306 -135t114 -389q0 -464 -176.5 -699t-444.5 -268l-57 205q184 37 286.5 161t131.5 300q-39 -51 -84 -71.5t-113 -20.5
q-148 0 -255 113.5t-107 328.5t103.5 345t295.5 130z" />
    <glyph glyph-name="colon" unicode=":" horiz-adv-x="514" 
d="M453 875q0 -75 -40 -115t-109 -41q-70 1 -108 41t-38 115t40 114t108 39t108 -39q39 -39 39 -114zM304 -23q-70 0 -108 41t-38 116t40 114t108 39t108 -39q39 -39 39 -114t-40 -116t-109 -41z" />
    <glyph glyph-name="semicolon" unicode=";" horiz-adv-x="514" 
d="M147 129q0 74 41 114t111 40q70 1 112 -55t42 -150q0 -164 -88 -269q-64 -76 -152 -110l-76 98q47 25 84 79t41 110q-43 -2 -79 34t-36 109zM296 719q-68 1 -108 41q-38 40 -38 115t39 114q40 39 109 39t108 -39q38 -39 38 -114t-40 -115t-108 -41z" />
    <glyph glyph-name="less" unicode="&#x3c;" horiz-adv-x="909" 
d="M72 584v143l637 455l122 -166l-380 -285l-154 -72l152 -63l391 -281l-123 -165z" />
    <glyph glyph-name="equal" unicode="=" horiz-adv-x="909" 
d="M78 1001h753v-217h-753v217zM78 610h753v-217h-753v217z" />
    <glyph glyph-name="greater" unicode="&#x3e;" horiz-adv-x="909" 
d="M838 748v-144l-633 -450l-127 163l383 283l151 74l-151 61l-391 283l127 162z" />
    <glyph glyph-name="question" unicode="?" horiz-adv-x="782" 
d="M199 134q0 75 40.5 114t108.5 39t107 -39t39 -114t-40 -116t-109 -41t-107.5 41t-38.5 116zM375 1462q186 0 279.5 -89t93.5 -251t-57.5 -245.5t-97.5 -124.5t-97.5 -117t-57.5 -209h-207q-19 226 98 362t142 190t25 112q0 155 -146 155q-53 0 -112.5 -21.5t-102.5 -58.5
l-96 185q150 112 336 112z" />
    <glyph glyph-name="at" unicode="@" horiz-adv-x="1804" 
d="M819 246q45 0 91 50t77 112l47 348q-37 43 -90 43q-97 0 -159 -123t-62 -277q0 -153 96 -153zM985 233q-116 -192 -272 -192q-92 0 -153.5 78t-61.5 216t33.5 259t91 212t133.5 144.5t168 53.5t168 -76l51 63h135l-80 -559q-25 -186 59 -186q90 0 157 106.5t67 315.5
q0 272 -146 403t-402 131t-432.5 -201t-176.5 -514t155.5 -477t435.5 -164q128 0 234 56l59 -178q-132 -70 -306 -70t-315 49t-245 150.5t-164.5 258t-60.5 371.5t68.5 385t183 287t264 178.5t309.5 61.5q332 0 539 -190.5t207 -536.5q0 -269 -107.5 -401t-199 -179
t-184.5 -47t-151.5 43t-54.5 149h-6z" />
    <glyph glyph-name="A" unicode="A" horiz-adv-x="1026" 
d="M389 537h238l-82 333l-33 226h-8l-35 -228zM672 324h-338l-84 -324h-256l416 1444h202l418 -1444h-270z" />
    <glyph glyph-name="B" unicode="B" horiz-adv-x="1003" 
d="M653 1042q0 189 -184 189q-84 0 -119 -8v-398h60q60 0 100 11q59 23 101 74t42 132zM474 203q92 0 147 54.5t55 142.5t-18.5 127.5t-58 67.5t-144.5 28h-105v-408q32 -12 124 -12zM705 752q241 -60 241 -364q0 -96 -38 -176.5t-133.5 -156t-301.5 -75.5h-131
q-132 0 -250 30v1413q176 31 315 31q140 0 322 -32t182 -320q0 -188 -75.5 -254t-130.5 -84v-12z" />
    <glyph glyph-name="C" unicode="C" horiz-adv-x="935" 
d="M905 57q-101 -86 -331 -86q-227 0 -371 176t-144 573t151 569.5t382 172.5q178 0 297 -53l-51 -227q-84 43 -215 43q-293 0 -293 -508q0 -364 113.5 -436t210.5 -72t200 65z" />
    <glyph glyph-name="D" unicode="D" horiz-adv-x="1095" 
d="M462 215q302 0 302 518q0 222 -62 353t-233 131q-86 0 -119 -7v-987q23 -8 112 -8zM1034 729q0 -752 -612 -752q-50 0 -177.5 8.5t-152.5 12.5v1436q123 20 322 20q198 0 312 -52t211 -187t97 -486z" />
    <glyph glyph-name="E" unicode="E" horiz-adv-x="880" 
d="M92 1434h717v-238h-459v-352h416v-238h-416v-368h467v-238h-725v1434z" />
    <glyph glyph-name="F" unicode="F" horiz-adv-x="858" 
d="M92 1434h717v-238h-459v-373h422v-237h-422v-586h-258v1434z" />
    <glyph glyph-name="G" unicode="G" horiz-adv-x="1028" 
d="M616 209q91 0 146 51v293l-236 33v155h443v-635q-142 -135 -379 -135q-382 0 -456.5 274.5t-74.5 475.5q0 374 153.5 557.5t395.5 183.5q174 0 314 -57l-54 -223q-98 43 -227 43q-311 0 -311 -510q0 -260 78.5 -383t207.5 -123z" />
    <glyph glyph-name="H" unicode="H" horiz-adv-x="1091" 
d="M741 606h-391v-606h-258v1434h258v-590h391v590h258v-1434h-258v606z" />
    <glyph glyph-name="I" unicode="I" horiz-adv-x="487" 
d="M115 1434h258v-1434h-258v1434z" />
    <glyph glyph-name="J" unicode="J" horiz-adv-x="591" 
d="M231 1434h258v-1043q0 -304 -107.5 -360t-179.5 -56q-138 0 -237 48l60 217q43 -27 107 -27t81.5 60.5t17.5 172.5v988z" />
    <glyph glyph-name="K" unicode="K" horiz-adv-x="1062" 
d="M350 614v-614h-258v1434h258v-637l51 24l301 613h291l-327 -605l-97 -75l99 -78l379 -676h-316l-325 614h-56z" />
    <glyph glyph-name="L" unicode="L" horiz-adv-x="868" 
d="M854 0h-762v1434h258v-1196h504v-238z" />
    <glyph glyph-name="M" unicode="M" horiz-adv-x="1359" 
d="M336 0h-244v1434h248l299 -621l49 -178h8l47 182l281 617h244v-1434h-258v739l28 275h-10l-76 -246l-233 -504h-86l-248 506l-76 248h-12l39 -277v-741z" />
    <glyph glyph-name="N" unicode="N" horiz-adv-x="1105" 
d="M336 0h-244v1444h199l411 -721l89 -248h12l-33 244v715h244v-1444h-199l-407 715l-95 251h-10l33 -247v-709z" />
    <glyph glyph-name="O" unicode="O" horiz-adv-x="1132" 
d="M330 717q0 -357 85 -432.5t150 -75.5q119 0 178.5 121t59.5 387q0 357 -85 432.5t-153 75.5q-235 0 -235 -508zM59 717q0 745 506 745q385 0 446.5 -287.5t61.5 -457.5q0 -365 -128 -555.5t-383 -190.5t-379 195t-124 551z" />
    <glyph glyph-name="P" unicode="P" horiz-adv-x="976" 
d="M670 983q0 242 -225 242q-53 0 -95 -11v-489q30 -10 92 -10q228 0 228 268zM389 1454q135 0 226.5 -17.5t208 -100.5t116.5 -346t-130.5 -384t-326.5 -121h-49q-48 0 -84 9v-494h-258v1419q162 35 297 35z" />
    <glyph glyph-name="Q" unicode="Q" horiz-adv-x="1132" 
d="M330 717q0 -357 85 -432.5t150 -75.5q119 0 178.5 121t59.5 387q0 357 -85 432.5t-153 75.5q-235 0 -235 -508zM59 717q0 745 506 745q385 0 446.5 -287.5t61.5 -457.5q0 -365 -128 -555.5t-383 -190.5t-379 195t-124 551zM424 -295q-56 0 -86 -10v229q115 28 212 0
t170 -52t149.5 -44.5t157.5 -20.5t159 23v-231q-79 -27 -166 -27q-86 0 -167 20.5t-156.5 46t-146 46t-126.5 20.5z" />
    <glyph glyph-name="R" unicode="R" horiz-adv-x="1030" 
d="M468 1217q-83 0 -118 -11v-438h88q195 0 195 240q0 92 -41 150.5t-124 58.5zM391 1454q135 0 219 -17.5t188.5 -92t104.5 -295.5q0 -174 -64.5 -284t-176.5 -151l81 -65l265 -549h-297l-250 565l-111 27v-592h-258v1419q164 35 299 35z" />
    <glyph glyph-name="S" unicode="S" horiz-adv-x="899" 
d="M389 209q205 0 205 160q0 66 -39 111.5t-97.5 86.5t-224 145t-165.5 365q0 198 113 291.5t313 93.5q201 0 329 -76l-80 -227q-35 25 -103.5 45.5t-148 20.5t-122.5 -33t-43 -93t38.5 -104.5t97 -85.5t127 -85t127 -102t97.5 -137t39 -239t-120 -267.5t-324 -107.5
q-127 0 -222.5 24.5t-146.5 55.5l84 232q121 -74 266 -74z" />
    <glyph glyph-name="T" unicode="T" horiz-adv-x="968" 
d="M952 1196h-338v-1196h-258v1196h-340v238h936v-238z" />
    <glyph glyph-name="U" unicode="U" horiz-adv-x="1054" 
d="M725 1434h244v-930q0 -279 -114 -404t-332 -125q-437 0 -437 494v965h258v-920q0 -168 45 -234.5t147 -66.5t145.5 70.5t43.5 230.5v920z" />
    <glyph glyph-name="V" unicode="V" horiz-adv-x="1030" 
d="M498 592l28 -246h9l32 248l209 840h273l-435 -1444h-196l-438 1444h305z" />
    <glyph glyph-name="W" unicode="W" horiz-adv-x="1468" 
d="M420 645l20 -258h9l22 262l193 785h180l186 -789l23 -258h8l22 262l127 785h263l-322 -1444h-182l-201 790l-27 224h-10l-24 -226l-201 -788h-191l-319 1444h285z" />
    <glyph glyph-name="X" unicode="X" horiz-adv-x="1081" 
d="M362 729l-317 705h311l166 -410l39 -156l37 156l174 410h279l-328 -691l344 -743h-301l-193 440l-43 160l-41 -160l-192 -440h-285z" />
    <glyph glyph-name="Y" unicode="Y" horiz-adv-x="1013" 
d="M635 0h-258v532l-385 902h307l199 -543l20 -156h10l23 160l194 539h277l-387 -899v-535z" />
    <glyph glyph-name="Z" unicode="Z" horiz-adv-x="911" 
d="M43 1196v238h825v-238l-481 -881l-84 -77h565v-238h-825v238l479 874l86 84h-565z" />
    <glyph glyph-name="bracketleft" unicode="[" horiz-adv-x="565" 
d="M92 1434h426v-211h-190v-1483h190v-211h-426v1905z" />
    <glyph glyph-name="backslash" unicode="\" horiz-adv-x="741" 
d="M764 -211l-191 -76l-610 1671l193 72z" />
    <glyph glyph-name="bracketright" unicode="]" horiz-adv-x="563" 
d="M471 -471h-424v211h189v1483h-189v211h424v-1905z" />
    <glyph glyph-name="asciicircum" unicode="^" horiz-adv-x="876" 
d="M371 1444h139l317 -598h-243l-115 250l-35 149l-43 -151l-121 -248h-233z" />
    <glyph glyph-name="underscore" unicode="_" horiz-adv-x="765" 
d="M0 -250h766v-209h-766v209z" />
    <glyph glyph-name="grave" unicode="`" horiz-adv-x="593" 
d="M123 1475h248l100 -316h-135l-213 254v62z" />
    <glyph glyph-name="a" unicode="a" horiz-adv-x="845" 
d="M287 324q0 -129 101 -129q50 0 85 27.5t51 60.5v170q-161 21 -199 -32.5t-38 -96.5zM453 1044q174 0 242.5 -90t68.5 -256q0 -96 -12.5 -326t30.5 -374h-198l-39 125h-8q-77 -137 -242 -137q-121 0 -190.5 80.5t-69.5 216.5q0 184 131 262t354 65q10 119 -15.5 172.5
t-109.5 53.5q-137 0 -243 -56l-62 183q134 81 363 81z" />
    <glyph glyph-name="b" unicode="b" horiz-adv-x="907" 
d="M604 514q0 166 -32.5 238.5t-102.5 72.5q-102 0 -137 -106v-498q43 -23 112 -22q160 0 160 315zM88 1434h244v-476h6q74 90 215 90t222 -120t81 -400t-114.5 -416.5t-313.5 -136.5q-109 0 -200 20.5t-140 45.5v1393z" />
    <glyph glyph-name="c" unicode="c" horiz-adv-x="716" 
d="M426 -27q-293 0 -334 208t-41 331q0 268 96.5 403.5t282.5 135.5q150 0 254 -58l-57 -202q-74 36 -156 36q-168 0 -168 -315q0 -139 44 -227t134 -88t160 47l51 -189q-102 -82 -266 -82z" />
    <glyph glyph-name="d" unicode="d" horiz-adv-x="911" 
d="M303 487q0 -290 139 -290q103 0 138 108v483q-39 35 -117 35t-119 -73.5t-41 -262.5zM434 1047q86 0 146 -27v414h243v-1074q0 -230 19 -362h-172l-33 119h-8q-70 -143 -235 -143t-254 122t-89 396t96.5 414.5t286.5 140.5z" />
    <glyph glyph-name="e" unicode="e" horiz-adv-x="876" 
d="M582 606q12 238 -121 238q-149 0 -162 -238h283zM809 663q0 -105 -21 -219h-497q4 -127 53 -194.5t158 -67.5q66 0 120 20.5t83 43.5l75 -170q-51 -45 -139 -74t-189 -29q-401 0 -401 547q0 268 109.5 400.5t304.5 132.5q235 0 289.5 -142.5t54.5 -247.5z" />
    <glyph glyph-name="f" unicode="f" horiz-adv-x="546" 
d="M468 1227q-64 0 -80.5 -46t-16.5 -157h174v-217h-174v-807h-244v807h-111v217h111v57q0 369 208 369t298 -37l-45 -207q-56 21 -120 21z" />
    <glyph glyph-name="g" unicode="g" horiz-adv-x="907" 
d="M457 829q-154 0 -154 -318t139 -318q101 0 136 102v512q-51 22 -121 22zM51 492q0 555 433 555q210 0 337 -60v-987q0 -223 -102.5 -328.5t-293.5 -105.5t-300 61l51 207q45 -18 97.5 -34.5t140.5 -16.5t128 56.5t40 170.5v56h-7q-58 -82 -210 -82q-314 0 -314 508z" />
    <glyph glyph-name="h" unicode="h" horiz-adv-x="919" 
d="M338 932q92 119 233 119t205 -83t64 -296v-672h-244v618q0 111 -26 160t-84 49t-99 -34.5t-55 -87.5v-705h-244v1434h244v-502h6z" />
    <glyph glyph-name="i" unicode="i" horiz-adv-x="460" 
d="M109 1024h243v-1024h-243v1024zM80 1313q0 61 39 101t111 40t114 -39q43 -39 43 -102t-43 -101t-115 -36q-73 0 -111 38t-38 99z" />
    <glyph glyph-name="j" unicode="j" horiz-adv-x="460" 
d="M111 1024h243v-1067q0 -186 -64 -285q-65 -98 -206 -98q-57 0 -117 14v217q88 -7 116 51t28 173v995zM80 1313q0 61 39 101t111 40t114 -39q43 -39 43 -102t-43 -101t-115 -36q-73 0 -111 38t-38 99z" />
    <glyph glyph-name="k" unicode="k" horiz-adv-x="843" 
d="M332 424v-424h-244v1434h244v-846l49 28l170 408h264l-188 -406l-88 -69l96 -70l209 -479h-275l-180 424h-57z" />
    <glyph glyph-name="l" unicode="l" horiz-adv-x="497" 
d="M502 20q-70 -45 -226 -45q-82 0 -133 51.5t-51 174.5v1233h244v-1102q0 -72 14.5 -102.5t49.5 -30.5t79 18z" />
    <glyph glyph-name="m" unicode="m" horiz-adv-x="1357" 
d="M313 901q92 148 244 148q88 0 138 -35t79 -123q83 158 252 158q140 0 196 -81.5t56 -303.5v-664h-244v623q0 104 -18.5 153t-81.5 49q-99 0 -129 -110v-715h-244v596q0 129 -20.5 179t-74.5 50q-96 0 -134 -108v-717h-244v1024h188l31 -123h6z" />
    <glyph glyph-name="n" unicode="n" horiz-adv-x="919" 
d="M584 1049q128 0 192 -81.5t64 -285.5v-682h-244v623q0 113 -27 157.5t-85 44.5t-97 -32.5t-55 -81.5v-711h-244v1024h195l28 -119h6q90 144 267 144z" />
    <glyph glyph-name="o" unicode="o" horiz-adv-x="911" 
d="M303 512q0 -322 150 -322q80 0 117.5 73t37.5 240t-34.5 249t-118.5 82q-152 0 -152 -322zM455 1051q405 0 405 -539q0 -274 -106.5 -406.5t-298.5 -132.5q-404 0 -404 539q0 272 106.5 405.5t297.5 133.5z" />
    <glyph glyph-name="p" unicode="p" horiz-adv-x="915" 
d="M450 188q162 0 162 357q0 145 -32.5 215.5t-108.5 70.5q-102 0 -139 -120v-482q42 -41 118 -41zM481 -29q-91 0 -149 35v-416h-244v1434h182l25 -117h6q47 74 105.5 108t144.5 34q156 0 234.5 -118t78.5 -392.5t-98 -421t-285 -146.5z" />
    <glyph glyph-name="q" unicode="q" horiz-adv-x="907" 
d="M303 509q0 -320 139 -321q100 0 136 107v510q-43 25 -119 25q-156 0 -156 -321zM51 498q0 268 117 408.5t332 140.5q92 0 181 -18.5t140 -41.5v-1397h-243v482h-9q-65 -101 -208 -101q-142 0 -226 129.5t-84 397.5z" />
    <glyph glyph-name="r" unicode="r" horiz-adv-x="600" 
d="M332 0h-244v1024h186l29 -123h8q27 68 77 105.5t108 37.5t104 -20l-29 -242q-115 42 -170 -0.5t-69 -97.5v-684z" />
    <glyph glyph-name="s" unicode="s" horiz-adv-x="716" 
d="M432 272q0 70 -70.5 112t-189.5 107.5t-119 259.5q0 144 78 222t247 78t279 -68l-57 -188q-115 47 -209 47t-94 -84q0 -39 27.5 -64.5t70.5 -50.5t162 -90t119 -263q0 -144 -86 -230.5t-256 -86.5q-84 0 -165 20.5t-130 53.5l67 197q107 -62 216 -62q110 0 110 90z" />
    <glyph glyph-name="t" unicode="t" horiz-adv-x="595" 
d="M121 270v537h-113v217h113v193l244 75v-268h198v-217h-198v-447q0 -88 17 -124.5t65 -36.5t106 24l31 -194q-106 -54 -226 -54q-121 0 -179 68t-58 227z" />
    <glyph glyph-name="u" unicode="u" horiz-adv-x="913" 
d="M80 358v666h244v-612q0 -121 22.5 -168t80.5 -47t97 42t56 101v684h243v-713q0 -191 29 -311h-184l-43 139h-7q-90 -166 -270 -166q-134 0 -201 83.5t-67 301.5z" />
    <glyph glyph-name="v" unicode="v" horiz-adv-x="817" 
d="M399 489l25 -161h8l23 164l127 532h262l-344 -1034h-164l-363 1034h285z" />
    <glyph glyph-name="w" unicode="w" horiz-adv-x="1220" 
d="M721 1024l143 -524l25 -170h8l21 172l96 522h221l-252 -1034h-192l-154 571l-16 131h-13l-14 -135l-148 -567h-198l-262 1034h264l110 -514l19 -182h8l27 184l125 512h182z" />
    <glyph glyph-name="x" unicode="x" horiz-adv-x="899" 
d="M272 524l-243 500h286l105 -242l39 -131l43 131l106 242h264l-245 -492l262 -532h-277l-125 266l-45 146l-47 -146l-125 -266h-262z" />
    <glyph glyph-name="y" unicode="y" horiz-adv-x="819" 
d="M275 -420q-107 0 -158 31l41 209q99 -37 132.5 37.5t45.5 142.5l-356 1024h292l144 -575l26 -160h11l18 162l119 573h250l-256 -924q-82 -284 -142 -402t-167 -118z" />
    <glyph glyph-name="z" unicode="z" horiz-adv-x="780" 
d="M49 807v217h678v-217l-328 -510l-88 -80h416v-217h-678v217l332 502l90 88h-422z" />
    <glyph glyph-name="braceleft" unicode="{" horiz-adv-x="641" 
d="M201 1192q0 244 186 244h219v-209h-84q-47 0 -67.5 -29t-20.5 -94v-416q0 -90 -34.5 -136t-82.5 -56v-21q47 -8 82 -61.5t35 -139.5v-413q0 -63 19.5 -93t70.5 -30h82v-209h-219q-186 0 -186 242v430q0 104 -35 143t-100 39v197q135 0 135 174v438z" />
    <glyph glyph-name="bar" unicode="|" horiz-adv-x="385" 
d="M92 1434h201v-1700h-201v1700z" />
    <glyph glyph-name="braceright" unicode="}" horiz-adv-x="641" 
d="M575 385q-135 0 -135 -174v-440q0 -111 -44 -176.5t-148 -65.5h-213v209h84q47 0 67.5 28.5t20.5 94.5v415q0 90 34.5 136.5t82.5 56.5v20q-47 8 -82 61.5t-35 139.5v414q0 63 -19.5 93t-70.5 30h-82v209h219q186 0 186 -240v-432q0 -104 35 -143t100 -39v-197z" />
    <glyph glyph-name="asciitilde" unicode="~" horiz-adv-x="909" 
d="M313 911q76 0 175.5 -53t159.5 -53t124 57l90 -211q-109 -98 -209 -98q-66 0 -138.5 39t-112.5 57.5t-83 18.5q-91 0 -188 -99l-84 205q141 137 266 137z" />
    <glyph glyph-name="uni00A0" unicode="&#xa0;" horiz-adv-x="419" 
 />
    <glyph glyph-name="exclamdown" unicode="&#xa1;" horiz-adv-x="512" 
d="M70 890q0 75 40 113.5t108 38.5t107.5 -38.5t39.5 -113.5t-40 -116t-109 -41t-107.5 41t-38.5 116zM342 -410h-252v674l47 332h156l49 -332v-674z" />
    <glyph glyph-name="cent" unicode="&#xa2;" 
d="M516 821q-133 -46 -133 -305q0 -258 133 -311v616zM694 -205h-229v185q-322 51 -322 532q0 225 83 361.5t239 168.5v187h229v-187q88 -14 144 -49l-52 -196q-47 19 -112 28v-628q72 11 125 45l49 -185q-57 -46 -154 -67v-195z" />
    <glyph glyph-name="sterling" unicode="&#xa3;" 
d="M553 508q0 -50 -18.5 -120.5t-53.5 -113.5l-92 -71v-13l135 33h375v-223h-809v223h4q102 4 158.5 81.5t56.5 184.5q0 59 -12 109h-207v205h123q-61 129 -61 253q0 214 102.5 310t289.5 96t328 -76l-77 -210q-96 55 -199.5 55t-148 -46.5t-44.5 -132.5t21.5 -140
t50.5 -109h240v-205h-170q8 -40 8 -90z" />
    <glyph glyph-name="currency" unicode="&#xa4;" 
d="M336 730q0 -67 42 -112t109.5 -45t109.5 45.5t42 111.5t-42 113.5t-109.5 47.5t-109.5 -47t-42 -114zM483 1087q120 0 199 -53l35 66l143 143l146 -149l-144 -144l-69 -30q51 -76 51 -189t-51 -188l69 -29l144 -145l-146 -148l-143 141l-33 68q-74 -53 -196 -53t-195 53
l-35 -68l-145 -141l-142 148l142 145l67 33q-47 76 -47 181t51 192l-71 30l-142 144l142 149l145 -143l35 -68q70 55 190 55z" />
    <glyph glyph-name="yen" unicode="&#xa5;" 
d="M135 688h158l-318 746h308l198 -543l21 -156h10l23 160l194 539h277l-322 -746h160v-162h-226v-118h226v-162h-226v-246h-258v246h-225v162h225v118h-225v162z" />
    <glyph glyph-name="brokenbar" unicode="&#xa6;" horiz-adv-x="385" 
d="M293 731h-201v703h201v-703zM92 436h201v-702h-201v702z" />
    <glyph glyph-name="section" unicode="&#xa7;" horiz-adv-x="909" 
d="M588 707q0 70 -50.5 103.5t-138.5 68.5q-77 -55 -77 -152q0 -68 50 -105.5t136 -70.5q80 57 80 156zM524 272q0 39 -32.5 60.5t-83 41t-190.5 75t-140 274.5q0 135 98 233l72 29q-47 35 -78 84t-31 147t75 172t235 74q98 0 190 -19.5t137 -43.5l-61 -203q-105 49 -193 49
q-87 0 -113 -23.5t-26 -58.5t33 -57.5t83 -40.5t191 -70t141 -284q0 -136 -96 -236l-76 -29q109 -77 109 -209q0 -133 -84 -199.5t-216 -66.5q-222 0 -347 78l63 197q103 -58 222 -58q118 0 118 84z" />
    <glyph glyph-name="dieresis" unicode="&#xa8;" horiz-adv-x="884" 
d="M504 1336q0 64 34.5 100.5t94 36.5t94.5 -36.5t35 -100.5t-35 -100t-94.5 -36t-94 36t-34.5 100zM123 1336q0 64 36 100.5t94 36.5t93 -36.5t35 -100.5t-35 -100t-93 -36t-94 36t-36 100z" />
    <glyph glyph-name="copyright" unicode="&#xa9;" horiz-adv-x="1484" 
d="M738 274q-140 0 -216 92t-76 248t80 244t201 88t225 -57l-57 -158q-52 27 -107 27q-106 0 -106 -148t119 -147q59 0 110 26l54 -159q-87 -56 -227 -56zM281 610.5q0 -217.5 127.5 -345.5t333.5 -128t334 128t128 345.5t-128 345t-334 127.5t-333.5 -127.5t-127.5 -345z
M285 1072q181 175 457 175t457 -174.5t181 -462.5t-180.5 -462.5t-467.5 -174.5t-457.5 172t-170.5 462t181 465z" />
    <glyph glyph-name="ordfeminine" unicode="&#xaa;" horiz-adv-x="710" 
d="M332 928q70 0 98 57v92q-68 8 -114 -7t-46 -71q0 -33 17.5 -52t44.5 -19zM436 868q-56 -98 -187 -98q-83 0 -136.5 56.5t-53.5 135.5q0 136 102.5 190.5t268.5 45.5q4 53 -11.5 77.5t-99.5 24.5t-182 -45l-45 127q106 68 314 68q135 0 185 -56.5t50 -172.5l-4 -265
q0 -116 12 -178h-180l-27 90h-6z" />
    <glyph glyph-name="guillemotleft" unicode="&#xab;" horiz-adv-x="829" 
d="M45 530l268 471l156 -104l-156 -281l-80 -84l80 -73l164 -277l-153 -104zM377 535l256 442l139 -92l-141 -273l-78 -80l78 -71l151 -268l-139 -95z" />
    <glyph glyph-name="logicalnot" unicode="&#xac;" horiz-adv-x="909" 
d="M82 838h754v-457h-230v240h-524v217z" />
    <glyph glyph-name="uni00AD" unicode="&#xad;" horiz-adv-x="610" 
d="M92 705h426v-234h-426v234z" />
    <glyph glyph-name="registered" unicode="&#xae;" horiz-adv-x="1218" 
d="M586 1157q-53 0 -66 -8v-123h60q53 0 79.5 15.5t26.5 54.5q0 61 -100 61zM586 1237q198 -1 198 -127q0 -66 -35.5 -96.5t-89.5 -34.5l50 -25l114 -192h-108l-111 184l-84 27v-211h-92v457q66 18 158 18zM279 987q0 -162 95 -249t238 -87q144 0 236 84t92 251t-94.5 255
t-240.5 88q-145 0 -235.5 -90t-90.5 -252zM255.5 1354q144.5 133 356.5 133q213 0 354.5 -133t141.5 -364t-142 -364.5t-357 -133.5t-356.5 132t-141.5 364.5t144.5 365.5z" />
    <glyph glyph-name="macron" unicode="&#xaf;" horiz-adv-x="802" 
d="M123 1348h557v-187h-557v187z" />
    <glyph glyph-name="degree" unicode="&#xb0;" horiz-adv-x="745" 
d="M274 1124q0 -70 29 -115.5t77 -45.5t77.5 46.5t29.5 114.5t-29.5 115t-77.5 47t-77 -46t-29 -116zM381 1462q129 0 210 -88t81 -250t-81 -250t-211 -88t-210 88t-80 245t81 250t210 93z" />
    <glyph glyph-name="plusminus" unicode="&#xb1;" horiz-adv-x="909" 
d="M78 516h753v-217h-753v217zM78 1024h264v293h225v-293h264v-217h-264v-193h-225v193h-264v217z" />
    <glyph glyph-name="twosuperior" unicode="&#xb2;" horiz-adv-x="722" 
d="M544 1588q70 -64 70 -205q0 -173 -180 -373l-80 -52v-8l101 23h182v-195h-543v137q198 156 278 319q30 60 29 118q0 104 -94 104q-85 0 -151 -45l-62 170q100 69 258 72q122 -1 192 -65z" />
    <glyph glyph-name="threesuperior" unicode="&#xb3;" horiz-adv-x="722" 
d="M430 1061q0 104 -145 102h-80v78l123 166l78 57l-103 -12h-190v186h491v-122l-143 -193l-62 -39v-8l56 6q86 -4 136 -64t50 -152t-26 -146q-77 -156 -283 -156q-136 0 -230 49l43 176q76 -39 152 -39q133 0 133 111z" />
    <glyph glyph-name="acute" unicode="&#xb4;" horiz-adv-x="575" 
d="M453 1475v-62l-193 -254h-137l86 316h244z" />
    <glyph glyph-name="mu" unicode="&#xb5;" horiz-adv-x="974" 
d="M891 334q0 -207 27 -334h-183l-57 131h-8q-25 -66 -76.5 -111t-123.5 -45t-107 27t-64 68h-8l35 -207v-273h-244v1434h244v-588q0 -123 34.5 -183t112.5 -60q131 0 174 133v698h244v-690z" />
    <glyph glyph-name="mu" unicode="&#x3bc;" horiz-adv-x="974" 
d="M891 334q0 -207 27 -334h-183l-57 131h-8q-25 -66 -76.5 -111t-123.5 -45t-107 27t-64 68h-8l35 -207v-273h-244v1434h244v-588q0 -123 34.5 -183t112.5 -60q131 0 174 133v698h244v-690z" />
    <glyph glyph-name="paragraph" unicode="&#xb6;" horiz-adv-x="917" 
d="M301 602q-115 0 -186.5 117.5t-71.5 299.5t89 298.5t230 116.5h138v-1700h-199v868zM627 1434h198v-1700h-198v1700z" />
    <glyph glyph-name="periodcentered" unicode="&#xb7;" horiz-adv-x="434" 
d="M216 489q-70 0 -108 41t-38 116t40 114t108 39t108 -39q39 -39 39 -114t-40 -116t-109 -41z" />
    <glyph glyph-name="cedilla" unicode="&#xb8;" horiz-adv-x="624" 
d="M502 -242q0 -110 -116.5 -159.5t-262.5 -16.5l14 115q142 -23 142 43q0 57 -144 65l101 195h155l-41 -88q152 -17 152 -154z" />
    <glyph glyph-name="onesuperior" unicode="&#xb9;" horiz-adv-x="722" 
d="M133 973h160v344l18 94l-53 -65l-94 -64l-90 141l268 230h168v-680h143v-195h-520v195z" />
    <glyph glyph-name="ordmasculine" unicode="&#xba;" horiz-adv-x="716" 
d="M268 1113q0 -181 79 -181q36 0 53.5 7t34 38t16.5 134t-22.5 140t-70 37t-69 -37t-21.5 -138zM668 1110q0 -348 -308.5 -348t-308.5 348q0 265 120 306.5t308.5 41.5t188.5 -348z" />
    <glyph glyph-name="guillemotright" unicode="&#xbb;" horiz-adv-x="827" 
d="M784 549l-268 -471l-156 100l152 285l82 84l-82 74l-162 276l154 104zM451 545l-256 -443l-140 88l144 277l75 80l-75 71l-152 271l137 92z" />
    <glyph glyph-name="onequarter" unicode="&#xbc;" horiz-adv-x="1533" 
d="M1139 340v172l14 113h-10l-37 -105l-78 -133l-63 -61l88 14h86zM1458 164h-125v-164h-194v164h-351v131l363 575h182v-530h125v-176zM1030 1464l166 -80l-700 -1413l-170 84zM500 1448v-875h-215v541l18 94l-53 -67l-92 -64l-92 144l268 227h166z" />
    <glyph glyph-name="onehalf" unicode="&#xbd;" horiz-adv-x="1576" 
d="M1030 1464l166 -80l-700 -1413l-170 84zM1477 623q0 -158 -113 -310q-33 -43 -68 -82l-79 -51v-8l100 23h182v-195h-543v137q198 156 278 319q30 60 30 117q0 104 -95 105q-85 0 -151 -45l-62 170q102 71 242 71q279 0 279 -251zM498 1448v-875h-215v541l18 94l-53 -67
l-92 -64l-93 144l269 227h166z" />
    <glyph glyph-name="threequarters" unicode="&#xbe;" horiz-adv-x="1568" 
d="M1067 1464l166 -80l-701 -1413l-170 84zM406 856q0 104 -146 102h-80v78l123 166l78 58l-102 -13h-191v187h492v-123l-144 -193l-61 -39v-8l55 6q86 -4 136 -64q50 -61 50 -153t-26 -145q-75 -156 -283 -156q-137 0 -229 49l43 176q75 -39 151 -39q134 0 134 111z
M1174 340v172l14 113h-10l-37 -105l-78 -133l-64 -61l88 14h87zM1493 164h-125v-164h-194v164h-351v131l363 575h182v-530h125v-176z" />
    <glyph glyph-name="questiondown" unicode="&#xbf;" horiz-adv-x="784" 
d="M297 890q0 75 40.5 113.5t108.5 38.5t107 -38.5t39 -113.5t-40 -116t-109 -41t-107.5 41t-38.5 116zM37 -92q0 213 122 334t153.5 197.5t31.5 160.5h211q19 -243 -99.5 -377.5t-142.5 -181.5t-24 -109t33.5 -106.5t99.5 -44.5q136 0 231 78l92 -187q-142 -106 -356 -106
q-164 0 -258 92t-94 250z" />
    <glyph glyph-name="Agrave" unicode="&#xc0;" horiz-adv-x="1026" 
d="M389 537h238l-82 333l-33 226h-8l-35 -228zM672 324h-338l-84 -324h-256l416 1444h202l418 -1444h-270zM225 1782h291l168 -242h-192l-267 180v62z" />
    <glyph glyph-name="Aacute" unicode="&#xc1;" horiz-adv-x="1026" 
d="M389 537h238l-82 333l-33 226h-8l-35 -228zM672 324h-338l-84 -324h-256l416 1444h202l418 -1444h-270zM803 1782v-62l-271 -180h-190l168 242h293z" />
    <glyph glyph-name="Acircumflex" unicode="&#xc2;" horiz-adv-x="1026" 
d="M389 537h238l-82 333l-33 226h-8l-35 -228zM672 324h-338l-84 -324h-256l416 1444h202l418 -1444h-270zM819 1511h-174l-96 84l-35 70l-37 -68l-102 -86h-170v82l223 189h178l213 -191v-80z" />
    <glyph glyph-name="Atilde" unicode="&#xc3;" horiz-adv-x="1026" 
d="M389 537h238l-82 333l-33 226h-8l-35 -228zM672 324h-338l-84 -324h-256l416 1444h202l418 -1444h-270zM682 1692q64 0 106 51l56 -129q-93 -103 -197 -103q-48 -1 -117 23t-104 36t-70 11q-77 0 -135 -70l-53 119q103 133 223 131q54 1 123 -23q68 -24 102 -35t66 -11z
" />
    <glyph glyph-name="Adieresis" unicode="&#xc4;" horiz-adv-x="1026" 
d="M389 537h238l-82 333l-33 226h-8l-35 -228zM672 324h-338l-84 -324h-256l416 1444h202l418 -1444h-270zM842 1634q0 -118 -138 -117t-139 117q0 53 32 86q33 33 107 33t106 -33t32 -86zM193 1636q0 118 141 117q72 0 104 -33t31 -86q0 -53 -32 -85t-103 -31
q-141 0 -141 118z" />
    <glyph glyph-name="Aring" unicode="&#xc5;" horiz-adv-x="1026" 
d="M588 1579q0 70 -75 70t-75 -70q0 -63 74 -63q43 0 59.5 15t16.5 48zM389 537h238l-82 333l-33 226h-8l-35 -228zM285 1579q0 184 228 184t228 -184q0 -127 -120 -166l409 -1413h-270l-88 324h-338l-84 -324h-256l407 1415q-116 37 -116 164z" />
    <glyph glyph-name="AE" unicode="&#xc6;" horiz-adv-x="1468" 
d="M678 354h-295l-162 -354h-270l717 1434h727v-238h-459v-352h416v-238h-416v-368h467v-238h-725v354zM678 567v502h-10l-54 -199l-133 -303h197z" />
    <glyph glyph-name="Ccedilla" unicode="&#xc7;" horiz-adv-x="935" 
d="M776 -242q0 -88 -77 -138t-191 -50q-55 0 -111 12l15 99q141 -13 141 59q0 57 -143 65l88 172q-310 40 -374.5 296.5t-64.5 459.5q0 384 151 556.5t382 172.5q178 0 297 -53l-51 -227q-84 43 -215 43q-293 0 -293 -508q0 -364 113.5 -436t210.5 -72t200 65l51 -217
q-79 -65 -252 -82l-28 -63q151 -17 151 -154z" />
    <glyph glyph-name="Egrave" unicode="&#xc8;" horiz-adv-x="880" 
d="M92 1434h717v-238h-459v-352h416v-238h-416v-368h467v-238h-725v1434zM150 1782h290l168 -242h-192l-266 180v62z" />
    <glyph glyph-name="Eacute" unicode="&#xc9;" horiz-adv-x="880" 
d="M92 1434h717v-238h-459v-352h416v-238h-416v-368h467v-238h-725v1434zM772 1782v-62l-270 -180h-191l168 242h293z" />
    <glyph glyph-name="Ecircumflex" unicode="&#xca;" horiz-adv-x="880" 
d="M92 1434h717v-238h-459v-352h416v-238h-416v-368h467v-238h-725v1434zM752 1511h-174l-97 84l-35 70l-36 -68l-103 -86h-170v82l223 189h179l213 -191v-80z" />
    <glyph glyph-name="Edieresis" unicode="&#xcb;" horiz-adv-x="880" 
d="M92 1434h717v-238h-459v-352h416v-238h-416v-368h467v-238h-725v1434zM496 1636q0 118 138 117q138 0 138 -118t-138 -118q-138 1 -138 119zM123 1636q0 118 141 117q72 0 104 -33t31 -86q0 -118 -138 -117t-138 119z" />
    <glyph glyph-name="Igrave" unicode="&#xcc;" horiz-adv-x="487" 
d="M115 1434h258v-1434h-258v1434zM-43 1782h291l168 -242h-193l-266 180v62z" />
    <glyph glyph-name="Iacute" unicode="&#xcd;" horiz-adv-x="487" 
d="M115 1434h258v-1434h-258v1434zM537 1782v-62l-271 -180h-190l168 242h293z" />
    <glyph glyph-name="Icircumflex" unicode="&#xce;" horiz-adv-x="487" 
d="M115 1434h258v-1434h-258v1434zM553 1511h-174l-96 84l-35 70l-37 -68l-102 -86h-170v82l223 189h178l213 -191v-80z" />
    <glyph glyph-name="Idieresis" unicode="&#xcf;" horiz-adv-x="487" 
d="M115 1434h258v-1434h-258v1434zM295 1634q0 53 32 86q33 33 107 33t106 -33t31 -86q0 -118 -138 -117t-138 117zM-78 1636q0 118 141 117q72 0 104 -33t32 -86t-32 -85t-104 -31q-141 0 -141 118z" />
    <glyph glyph-name="Eth" unicode="&#xd0;" horiz-adv-x="1136" 
d="M504 215q302 0 301 518q0 222 -62 353t-230 131q-89 0 -122 -7v-389h221v-162h-221v-436q24 -8 113 -8zM1075 729q0 -752 -612 -752q-50 0 -177.5 8.5t-152.5 12.5v661h-139v162h139v613q123 20 322 20q198 0 312 -52t211 -187t97 -486z" />
    <glyph glyph-name="Ntilde" unicode="&#xd1;" horiz-adv-x="1105" 
d="M336 0h-244v1444h199l411 -721l89 -248h12l-33 244v715h244v-1444h-199l-407 715l-95 251h-10l33 -247v-709zM727 1692q63 0 107 51l55 -129q-93 -103 -197 -103q-48 -1 -117 23t-104 36t-70 11q-77 0 -135 -70l-53 119q103 133 223 131q54 1 123 -23q67 -24 101 -35
t67 -11z" />
    <glyph glyph-name="Ograve" unicode="&#xd2;" horiz-adv-x="1132" 
d="M330 717q0 -360 126 -469q44 -39 109 -39q119 0 178 121t60 387q0 357 -125 468q-45 40 -113 40q-235 0 -235 -508zM59 717q0 745 506 745q384 0 478 -437q30 -138 30 -308q0 -365 -128 -555t-383 -190t-379 195t-124 550zM246 1782h291l168 -242h-193l-266 180v62z" />
    <glyph glyph-name="Oacute" unicode="&#xd3;" horiz-adv-x="1132" 
d="M330 717q0 -360 126 -469q44 -39 109 -39q119 0 178 121t60 387q0 357 -125 468q-45 40 -113 40q-235 0 -235 -508zM59 717q0 745 506 745q384 0 478 -437q30 -138 30 -308q0 -365 -128 -555t-383 -190t-379 195t-124 550zM909 1782v-62l-270 -180h-190l167 242h293z" />
    <glyph glyph-name="Ocircumflex" unicode="&#xd4;" horiz-adv-x="1132" 
d="M330 717q0 -360 126 -469q44 -39 109 -39q119 0 178 121t60 387q0 357 -125 468q-45 40 -113 40q-235 0 -235 -508zM59 717q0 745 506 745q384 0 478 -437q30 -138 30 -308q0 -365 -128 -555t-383 -190t-379 195t-124 550zM870 1511h-174l-96 84l-35 70l-37 -68l-102 -86
h-170v82l223 189h178l213 -191v-80z" />
    <glyph glyph-name="Otilde" unicode="&#xd5;" horiz-adv-x="1132" 
d="M330 717q0 -360 126 -469q44 -39 109 -39q119 0 178 121t60 387q0 357 -125 468q-45 40 -113 40q-235 0 -235 -508zM59 717q0 745 506 745q384 0 478 -437q30 -138 30 -308q0 -365 -128 -555t-383 -190t-379 195t-124 550zM739 1692q65 0 107 51l55 -129
q-93 -103 -196 -103q-46 -1 -116 23q-71 24 -106 36t-69 11q-78 0 -135 -70l-54 119q103 133 224 131q53 1 122 -23q68 -24 102 -35t66 -11z" />
    <glyph glyph-name="Odieresis" unicode="&#xd6;" horiz-adv-x="1132" 
d="M330 717q0 -360 126 -469q44 -39 109 -39q119 0 178 121t60 387q0 357 -125 468q-45 40 -113 40q-235 0 -235 -508zM59 717q0 745 506 745q384 0 478 -437q30 -138 30 -308q0 -365 -128 -555t-383 -190t-379 195t-124 550zM889 1634q-1 -118 -139 -117t-138 117
q0 53 32 86t107 33t107 -33t31 -86zM240 1636q0 118 141 117q71 0 103 -33t32 -86t-32 -85t-103 -31q-141 0 -141 118z" />
    <glyph glyph-name="multiply" unicode="&#xd7;" horiz-adv-x="909" 
d="M229 1108l228 -254l227 254l156 -150l-236 -264l236 -268l-156 -150l-227 254l-230 -256l-157 148l241 272l-237 264z" />
    <glyph glyph-name="Oslash" unicode="&#xd8;" horiz-adv-x="1132" 
d="M565 209q119 0 178.5 121t59.5 387q0 123 -17 219l-350 -672q51 -55 129 -55zM700 1161q-53 63 -135 64q-236 0 -235 -508q0 -124 16 -232zM59 717q0 745 506 745q147 0 256 -67l37 69l162 -84l-66 -125q119 -191 119 -547t-128 -546.5t-380 -190.5q-137 0 -248 62
l-32 -62l-162 88l57 111q-121 188 -121 547z" />
    <glyph glyph-name="Ugrave" unicode="&#xd9;" horiz-adv-x="1054" 
d="M725 1434h244v-930q0 -279 -114 -404t-332 -125q-437 0 -437 494v965h258v-920q0 -168 45 -234t147 -67q102 0 146 71q43 71 43 230v920zM209 1782h291l168 -242h-193l-266 180v62z" />
    <glyph glyph-name="Uacute" unicode="&#xda;" horiz-adv-x="1054" 
d="M725 1434h244v-930q0 -279 -114 -404t-332 -125q-437 0 -437 494v965h258v-920q0 -168 45 -234t147 -67q102 0 146 71q43 71 43 230v920zM899 1782v-62l-270 -180h-191l168 242h293z" />
    <glyph glyph-name="Ucircumflex" unicode="&#xdb;" horiz-adv-x="1054" 
d="M725 1434h244v-930q0 -279 -114 -404t-332 -125q-437 0 -437 494v965h258v-920q0 -168 45 -234t147 -67q102 0 146 71q43 71 43 230v920zM842 1511h-174l-97 84l-34 70l-37 -68l-103 -86h-170v82l224 189h178l213 -191v-80z" />
    <glyph glyph-name="Udieresis" unicode="&#xdc;" horiz-adv-x="1054" 
d="M725 1434h244v-930q0 -279 -114 -404t-332 -125q-437 0 -437 494v965h258v-920q0 -168 45 -234t147 -67q102 0 146 71q43 71 43 230v920zM580 1636q0 118 138 117q138 0 138 -118t-138 -118q-138 1 -138 119zM207 1636q0 118 141 117q72 0 104 -33t31 -86
q0 -118 -138 -117t-138 119z" />
    <glyph glyph-name="Yacute" unicode="&#xdd;" horiz-adv-x="1013" 
d="M635 0h-258v532l-385 902h307l199 -543l20 -156h10l23 160l194 539h277l-387 -899v-535zM836 1782v-62l-271 -180h-190l168 242h293z" />
    <glyph glyph-name="Thorn" unicode="&#xde;" horiz-adv-x="976" 
d="M668 815q0 242 -223 242q-53 0 -95 -10v-488q30 -10 83 -10q114 0 174.5 60.5t60.5 205.5zM457 317q-71 0 -107 9v-326h-258v1434h258v-150q38 2 106 2q484 0 484 -473q0 -250 -131.5 -373t-325.5 -123h-26z" />
    <glyph glyph-name="germandbls" unicode="&#xdf;" horiz-adv-x="1095" 
d="M514 236q96 -54 164 -54q67 0 100 37t33 87t-24.5 81t-62.5 57.5t-82 52t-106.5 81.5t-62.5 182q0 74 31 121t67.5 83.5t67.5 70.5t31 83t-45 83t-109 34t-103.5 -46t-39.5 -175v-1014h-244v807h-111v217h111v23q0 311 149.5 357t234.5 46q179 0 290.5 -82t111.5 -231
q0 -72 -30.5 -120t-68.5 -87t-68.5 -74t-30.5 -76t24.5 -67.5t62.5 -51t144.5 -88.5t106.5 -256q0 -228 -125 -286t-206 -58q-162 0 -273 70z" />
    <glyph glyph-name="agrave" unicode="&#xe0;" horiz-adv-x="845" 
d="M287 324q0 -129 96 -129q55 -1 90 27t51 61v170q-164 21 -218 -59q-19 -28 -19 -70zM764 698q0 -96 -5 -189q-20 -367 23 -511h-198l-39 125h-8q-77 -137 -242 -137q-121 0 -191 81t-69 216q0 184 131 262t354 65q10 119 -15 172q-26 53 -110 54q-139 0 -243 -56l-62 183
q137 83 363 81q175 0 243 -90t68 -256zM182 1475h248l100 -316h-135l-213 254v62z" />
    <glyph glyph-name="aacute" unicode="&#xe1;" horiz-adv-x="845" 
d="M287 324q0 -129 96 -129q55 -1 90 27t51 61v170q-164 21 -218 -59q-19 -28 -19 -70zM764 698q0 -96 -5 -189q-20 -367 23 -511h-198l-39 125h-8q-77 -137 -242 -137q-121 0 -191 81t-69 216q0 184 131 262t354 65q10 119 -15 172q-26 53 -110 54q-139 0 -243 -56l-62 183
q137 83 363 81q175 0 243 -90t68 -256zM645 1475v-62l-192 -254h-138l86 316h244z" />
    <glyph glyph-name="acircumflex" unicode="&#xe2;" horiz-adv-x="845" 
d="M287 324q0 -129 96 -129q55 -1 90 27t51 61v170q-164 21 -218 -59q-19 -28 -19 -70zM764 698q0 -96 -5 -189q-20 -367 23 -511h-198l-39 125h-8q-77 -137 -242 -137q-121 0 -191 81t-69 216q0 184 131 262t354 65q10 119 -15 172q-26 53 -110 54q-139 0 -243 -56l-62 183
q137 83 363 81q175 0 243 -90t68 -256zM356 1499h174l187 -373h-191l-65 136l-27 100l-26 -100l-76 -136h-182z" />
    <glyph glyph-name="atilde" unicode="&#xe3;" horiz-adv-x="845" 
d="M287 324q0 -129 96 -129q55 -1 90 27t51 61v170q-164 21 -218 -59q-19 -28 -19 -70zM764 698q0 -96 -5 -189q-20 -367 23 -511h-198l-39 125h-8q-77 -137 -242 -137q-121 0 -191 81t-69 216q0 184 131 262t354 65q10 119 -15 172q-26 53 -110 54q-139 0 -243 -56l-62 183
q137 83 363 81q175 0 243 -90t68 -256zM328 1475q51 -1 106 -31q56 -30 86 -44t72 -14q41 0 90 48l45 -125q-96 -115 -192 -115q-54 0 -109 28q-54 28 -84 40q-30 14 -61 14q-60 0 -109 -51l-49 118q102 132 205 132z" />
    <glyph glyph-name="adieresis" unicode="&#xe4;" horiz-adv-x="845" 
d="M287 324q0 -129 96 -129q55 -1 90 27t51 61v170q-164 21 -218 -59q-19 -28 -19 -70zM764 698q0 -96 -5 -189q-20 -367 23 -511h-198l-39 125h-8q-77 -137 -242 -137q-121 0 -191 81t-69 216q0 184 131 262t354 65q10 119 -15 172q-26 53 -110 54q-139 0 -243 -56l-62 183
q137 83 363 81q175 0 243 -90t68 -256zM496 1336q0 64 34 100q34 37 94 37t95 -37q35 -36 35 -100t-35 -100t-94 -36t-95 36q-34 36 -34 100zM115 1336q0 64 36 100q36 37 94 37t93 -37q35 -36 35 -100t-35 -100t-93 -36t-94 36t-36 100z" />
    <glyph glyph-name="aring" unicode="&#xe5;" horiz-adv-x="845" 
d="M287 324q0 -129 96 -129q55 -1 90 27t51 61v170q-164 21 -218 -59q-19 -28 -19 -70zM764 698q0 -96 -5 -189q-20 -367 23 -511h-198l-39 125h-8q-77 -137 -242 -137q-121 0 -191 81t-69 216q0 184 131 262t354 65q10 119 -15 172q-26 53 -110 54q-139 0 -243 -56l-62 183
q137 83 363 81q175 0 243 -90t68 -256zM371 1328q0 -71 61 -73q64 0 64 71t-64 73q-61 0 -61 -71zM432 1135q-96 0 -148 51t-51 141t51 141q50 52 146 52t150 -48t53 -141q0 -92 -52 -144q-53 -52 -149 -52z" />
    <glyph glyph-name="ae" unicode="&#xe6;" horiz-adv-x="1337" 
d="M1044 604q12 240 -128 240t-152 -240h280zM520 648v32q0 80 -26 116q-27 36 -97 35q-133 0 -245 -65l-64 184q147 96 356 94q162 0 230 -110q83 119 254 119q237 0 315 -211q29 -78 29 -184t-21 -216h-493q4 -135 51 -197t154 -63q63 0 117 20t83 42l80 -170
q-51 -41 -137 -71t-191 -30q-223 0 -317 166h-10q-95 -155 -289 -155q-123 0 -194 84t-71 198t35 178q100 189 449 170q2 18 2 34zM287 324q0 -125 96 -123q103 0 143 92v164q-239 20 -239 -133z" />
    <glyph glyph-name="ccedilla" unicode="&#xe7;" horiz-adv-x="716" 
d="M629 -242q0 -88 -77 -138t-192 -50q-55 0 -110 12l14 99q142 -13 142 59q0 57 -144 65l88 175q-164 27 -231.5 167.5t-67.5 386.5t96.5 381.5t282.5 135.5q150 0 254 -58l-57 -202q-74 36 -156 36q-168 0 -168 -315q0 -139 44 -227t134 -88t160 47l51 -189
q-62 -52 -184 -75l-31 -68q152 -17 152 -154z" />
    <glyph glyph-name="egrave" unicode="&#xe8;" horiz-adv-x="876" 
d="M582 606q12 238 -121 238q-149 0 -162 -238h283zM809 663q0 -105 -21 -219h-497q4 -126 53 -194t158 -68q66 0 120 20t83 44l75 -170q-51 -45 -139 -74t-184 -29q-406 0 -406 539q0 276 110 408t304 133q233 0 314 -208q30 -77 30 -182zM207 1475h248l100 -316h-135
l-213 254v62z" />
    <glyph glyph-name="eacute" unicode="&#xe9;" horiz-adv-x="876" 
d="M582 606q12 238 -121 238q-149 0 -162 -238h283zM809 663q0 -105 -21 -219h-497q4 -126 53 -194t158 -68q66 0 120 20t83 44l75 -170q-51 -45 -139 -74t-184 -29q-406 0 -406 539q0 276 110 408t304 133q233 0 314 -208q30 -77 30 -182zM700 1475v-62l-192 -254h-137
l86 316h243z" />
    <glyph glyph-name="ecircumflex" unicode="&#xea;" horiz-adv-x="876" 
d="M582 606q12 238 -121 238q-149 0 -162 -238h283zM809 663q0 -105 -21 -219h-497q4 -126 53 -194t158 -68q66 0 120 20t83 44l75 -170q-51 -45 -139 -74t-184 -29q-406 0 -406 539q0 276 110 408t304 133q233 0 314 -208q30 -77 30 -182zM367 1499h174l186 -373h-190
l-66 136l-27 100l-26 -100l-76 -136h-182z" />
    <glyph glyph-name="edieresis" unicode="&#xeb;" horiz-adv-x="876" 
d="M582 606q12 238 -121 238q-149 0 -162 -238h283zM809 663q0 -105 -21 -219h-497q4 -126 53 -194t158 -68q66 0 120 20t83 44l75 -170q-51 -45 -139 -74t-184 -29q-406 0 -406 539q0 276 110 408t304 133q233 0 314 -208q30 -77 30 -182zM514 1336q0 64 35 100
q35 37 94 37t94 -37q35 -36 35 -100t-35 -100t-94 -36t-94 36t-35 100zM133 1336q0 64 36 100q36 37 94 37t93 -37q35 -36 35 -100t-35 -100t-93 -36t-94 36t-36 100z" />
    <glyph glyph-name="igrave" unicode="&#xec;" horiz-adv-x="460" 
d="M109 1024h243v-1024h-243v1024zM-10 1475h248l100 -316h-135l-213 254v62z" />
    <glyph glyph-name="iacute" unicode="&#xed;" horiz-adv-x="460" 
d="M109 1024h243v-1024h-243v1024zM451 1475v-62l-193 -254h-137l86 316h244z" />
    <glyph glyph-name="icircumflex" unicode="&#xee;" horiz-adv-x="460" 
d="M109 1024h243v-1024h-243v1024zM152 1499h174l186 -373h-190l-66 136l-27 100l-26 -100l-76 -136h-182z" />
    <glyph glyph-name="idieresis" unicode="&#xef;" horiz-adv-x="460" 
d="M109 1024h243v-1024h-243v1024zM293 1336q0 64 35 100q35 37 94 37t94 -37q35 -36 35 -100t-35 -100t-94 -36t-94 36t-35 100zM-88 1336q0 64 36 100q36 37 94 37t93 -37q35 -36 35 -100t-35 -100t-93 -36t-94 36t-36 100z" />
    <glyph glyph-name="eth" unicode="&#xf0;" horiz-adv-x="937" 
d="M883 631q0 -660 -426 -660q-199 0 -300.5 138.5t-101.5 386.5t107 387t278 139q133 0 197 -76q-37 143 -129 234l-119 -93l-84 101l98 76q-61 37 -127 59l99 139q100 -32 178 -84l96 74l82 -102l-76 -60q228 -228 228 -659zM473 188q176 0 176 385q0 100 -10 160
q-53 72 -154 72q-194 0 -194 -305q0 -166 50 -239t132 -73z" />
    <glyph glyph-name="ntilde" unicode="&#xf1;" horiz-adv-x="919" 
d="M584 1049q128 0 191 -80t65 -287v-682h-244v623q0 113 -27 157t-85 45q-58 -1 -97 -33t-55 -81v-711h-244v1024h195l28 -119h6q90 144 267 144zM362 1475q52 0 132 -44t126 -44q47 -1 97 47l45 -125q-96 -115 -193 -115q-54 0 -108 28q-55 28 -85 40q-30 14 -61 14
q-59 0 -108 -51l-49 118q102 132 204 132z" />
    <glyph glyph-name="ograve" unicode="&#xf2;" horiz-adv-x="911" 
d="M303 512q0 -322 150 -322q79 0 117 73t38 240t-35 249t-118 82q-152 0 -152 -322zM455 1051q405 0 405 -539q0 -274 -106 -406t-299 -133q-404 0 -404 539q1 272 107 406t297 133zM207 1475h248l100 -316h-135l-213 254v62z" />
    <glyph glyph-name="oacute" unicode="&#xf3;" horiz-adv-x="911" 
d="M303 512q0 -322 150 -322q79 0 117 73t38 240t-35 249t-118 82q-152 0 -152 -322zM455 1051q405 0 405 -539q0 -274 -106 -406t-299 -133q-404 0 -404 539q1 272 107 406t297 133zM702 1475v-62l-192 -254h-137l86 316h243z" />
    <glyph glyph-name="ocircumflex" unicode="&#xf4;" horiz-adv-x="911" 
d="M303 512q0 -322 150 -322q79 0 117 73t38 240t-35 249t-118 82q-152 0 -152 -322zM455 1051q405 0 405 -539q0 -274 -106 -406t-299 -133q-404 0 -404 539q1 272 107 406t297 133zM381 1499h174l186 -373h-190l-66 136l-26 100l-27 -100l-76 -136h-182z" />
    <glyph glyph-name="otilde" unicode="&#xf5;" horiz-adv-x="911" 
d="M303 512q0 -322 150 -322q79 0 117 73t38 240t-35 249t-118 82q-152 0 -152 -322zM455 1051q405 0 405 -539q0 -274 -106 -406t-299 -133q-404 0 -404 539q1 272 107 406t297 133zM354 1475q53 0 131 -44t125 -44q47 -1 99 47l45 -125q-96 -115 -193 -115q-53 0 -108 28
t-85 40q-30 14 -61 14q-59 0 -108 -51l-49 118q102 132 204 132z" />
    <glyph glyph-name="odieresis" unicode="&#xf6;" horiz-adv-x="911" 
d="M303 512q0 -322 150 -322q79 0 117 73t38 240t-35 249t-118 82q-152 0 -152 -322zM455 1051q405 0 405 -539q0 -274 -106 -406t-299 -133q-404 0 -404 539q1 272 107 406t297 133zM512 1336q0 64 35 100q35 37 94 37t94 -37q35 -36 35 -100t-35 -100t-94 -36t-94 36
t-35 100zM131 1336q0 64 36 100q36 37 94 37t93 -37q35 -36 35 -100t-35 -100t-93 -36t-94 36t-36 100z" />
    <glyph glyph-name="divide" unicode="&#xf7;" horiz-adv-x="909" 
d="M309 323q0 75 40 113.5t109 38.5t107.5 -39.5t38.5 -113.5t-40 -115t-108 -41t-107.5 41t-39.5 116zM309 1072q0 75 40 114t109 39t107.5 -39t38.5 -114t-40 -116t-108 -41t-107.5 41t-39.5 116zM78 805h753v-219h-753v219z" />
    <glyph glyph-name="oslash" unicode="&#xf8;" horiz-adv-x="917" 
d="M463 836q-76 0 -117 -74t-41 -250q0 -68 6 -123l240 410q-35 37 -88 37zM472 188q68 0 107 72t39 252q0 75 -8 137l-243 -416q37 -45 105 -45zM463 -29q-105 0 -193 43l-39 -63l-165 104l61 105q-70 130 -70 378t106.5 381.5t299.5 133.5q100 0 178 -37l37 61l162 -100
l-56 -94q82 -133 82 -389t-105.5 -389.5t-297.5 -133.5z" />
    <glyph glyph-name="ugrave" unicode="&#xf9;" horiz-adv-x="913" 
d="M80 358v666h244v-612q0 -121 22 -168t81 -47q58 0 97 42t56 101v684h243v-713q0 -200 29 -311h-184l-43 139h-7q-90 -166 -270 -166q-133 0 -200 83q-68 83 -68 302zM195 1475h247l101 -316h-135l-213 254v62z" />
    <glyph glyph-name="uacute" unicode="&#xfa;" horiz-adv-x="913" 
d="M80 358v666h244v-612q0 -121 22 -168t81 -47q58 0 97 42t56 101v684h243v-713q0 -200 29 -311h-184l-43 139h-7q-90 -166 -270 -166q-133 0 -200 83q-68 83 -68 302zM678 1475v-62l-193 -254h-137l86 316h244z" />
    <glyph glyph-name="ucircumflex" unicode="&#xfb;" horiz-adv-x="913" 
d="M80 358v666h244v-612q0 -121 22 -168t81 -47q58 0 97 42t56 101v684h243v-713q0 -200 29 -311h-184l-43 139h-7q-90 -166 -270 -166q-133 0 -200 83q-68 83 -68 302zM377 1499h174l186 -373h-190l-66 136l-26 100l-27 -100l-76 -136h-182z" />
    <glyph glyph-name="udieresis" unicode="&#xfc;" horiz-adv-x="913" 
d="M80 358v666h244v-612q0 -121 22 -168t81 -47q58 0 97 42t56 101v684h243v-713q0 -200 29 -311h-184l-43 139h-7q-90 -166 -270 -166q-133 0 -200 83q-68 83 -68 302zM510 1336q0 64 35 100q35 37 94 37t94 -37q35 -36 35 -100t-35 -100t-94 -36t-94 36t-35 100zM129 1336
q0 64 36 100q36 37 94 37t93 -37q35 -36 35 -100t-35 -100t-93 -36t-94 36t-36 100z" />
    <glyph glyph-name="yacute" unicode="&#xfd;" horiz-adv-x="819" 
d="M453 -281q-72 -139 -178 -139q-107 0 -158 31l41 209q100 -37 147 71q18 41 31 109l-356 1024h292l144 -575l26 -160h11l18 162l119 573h250l-256 -924q-82 -282 -131 -381zM664 1475v-62l-193 -254h-137l86 316h244z" />
    <glyph glyph-name="thorn" unicode="&#xfe;" horiz-adv-x="913" 
d="M610 519q0 169 -31.5 243t-107.5 74q-101 0 -139 -117v-492q43 -39 120 -39q76 0 117 81t41 250zM332 -410h-244v1844h244v-486h6q78 105 224 105q300 0 300 -514q0 -266 -98 -417t-283 -151q-92 0 -149 33v-414z" />
    <glyph glyph-name="ydieresis" unicode="&#xff;" horiz-adv-x="819" 
d="M453 -281q-72 -139 -178 -139q-107 0 -158 31l41 209q100 -37 147 71q18 41 31 109l-356 1024h292l144 -575l26 -160h11l18 162l119 573h250l-256 -924q-82 -282 -131 -381zM479 1336q0 64 35 100q35 37 94 37t94 -37q35 -36 35 -100t-35 -100t-94 -36t-94 36t-35 100z
M98 1336q0 64 36 100q36 37 94 37t94 -37q36 -36 34 -100q0 -64 -34 -100t-94 -36q-58 0 -94 36t-36 100z" />
    <glyph glyph-name="Amacron" unicode="&#x100;" horiz-adv-x="1026" 
d="M389 537h238l-82 333l-33 226h-8l-35 -228zM672 324h-338l-84 -324h-256l416 1444h202l418 -1444h-270zM215 1753h592v-182h-592v182z" />
    <glyph glyph-name="amacron" unicode="&#x101;" horiz-adv-x="845" 
d="M287 324q0 -129 96 -129q55 -1 90 27t51 61v170q-164 21 -218 -59q-19 -28 -19 -70zM764 698q0 -96 -5 -189q-20 -367 23 -511h-198l-39 125h-8q-77 -137 -242 -137q-121 0 -191 81t-69 216q0 184 131 262t354 65q10 119 -15 172q-26 53 -110 54q-139 0 -243 -56l-62 183
q137 83 363 81q175 0 243 -90t68 -256zM147 1348h558v-187h-558v187z" />
    <glyph glyph-name="Abreve" unicode="&#x102;" horiz-adv-x="1026" 
d="M389 537h238l-82 333l-33 226h-8l-35 -228zM672 324h-338l-84 -324h-256l416 1444h202l418 -1444h-270zM520 1679q154 0 234 113l90 -63q-67 -178 -229 -221q-48 -13 -95 -13q-102 0 -197 56t-141 169l94 72q35 -53 101 -83t143 -30z" />
    <glyph glyph-name="abreve" unicode="&#x103;" horiz-adv-x="845" 
d="M287 324q0 -129 96 -129q55 -1 90 27t51 61v170q-164 21 -218 -59q-19 -28 -19 -70zM764 698q0 -96 -5 -189q-20 -367 23 -511h-198l-39 125h-8q-77 -137 -242 -137q-121 0 -191 81t-69 216q0 184 131 262t354 65q10 119 -15 172q-26 53 -110 54q-139 0 -243 -56l-62 183
q137 83 363 81q175 0 243 -90t68 -256zM431 1155q-118 0 -200 68t-104 188l115 62q29 -61 80 -93t110 -30q132 0 176 123l113 -54q-8 -103 -89 -184q-83 -80 -201 -80z" />
    <glyph glyph-name="Aogonek" unicode="&#x104;" horiz-adv-x="1026" 
d="M657 -227q0 145 156 227h-53l-88 324h-338l-84 -324h-256l416 1444h202l418 -1444h-39q-96 -47 -96 -150q0 -51 36 -76.5t101 5.5l37 -119q-42 -42 -106 -57t-95 -15q-104 0 -157.5 51.5t-53.5 133.5zM389 537h238l-82 333l-33 226h-8l-35 -228z" />
    <glyph glyph-name="aogonek" unicode="&#x105;" horiz-adv-x="845" 
d="M287 324q0 -129 101 -129q50 0 85 27.5t51 60.5v170q-161 21 -199 -32.5t-38 -96.5zM453 1044q174 0 242.5 -90t68.5 -256q0 -96 -12.5 -326t30.5 -374h-41q-92 -49 -92 -148q0 -51 36 -76.5t101 5.5l37 -119q-42 -42 -106 -57t-94 -15q-104 0 -157.5 51.5t-53.5 169.5
t168 197l-35 117h-8q-77 -137 -242 -137q-121 0 -190.5 80.5t-69.5 216.5q0 184 131 262t354 65q10 119 -15.5 172.5t-109.5 53.5q-137 0 -243 -56l-62 183q134 81 363 81z" />
    <glyph glyph-name="Cacute" unicode="&#x106;" horiz-adv-x="935" 
d="M59 723q0 394 167 585q136 154 366 154q178 0 297 -53l-51 -227q-80 41 -215 43q-293 0 -293 -508q0 -368 169 -471q58 -37 157 -37t198 65l51 -217q-98 -83 -319 -86q-373 0 -486 396q-41 143 -41 356zM918 1782v-62l-271 -180h-190l168 242h293z" />
    <glyph glyph-name="cacute" unicode="&#x107;" horiz-adv-x="716" 
d="M471 827q-168 0 -168 -315q0 -139 44 -227t134 -88t160 47l51 -189q-99 -80 -281 -81q-355 -2 -360 538q0 537 379 539q150 0 254 -58l-57 -202q-74 36 -156 36zM662 1475v-62l-193 -254h-137l86 316h244z" />
    <glyph glyph-name="Ccircumflex" unicode="&#x108;" horiz-adv-x="935" 
d="M59 723q0 394 167 585q136 154 366 154q178 0 297 -53l-51 -227q-80 41 -215 43q-293 0 -293 -508q0 -368 169 -471q58 -37 157 -37t198 65l51 -217q-98 -83 -319 -86q-373 0 -486 396q-41 143 -41 356zM883 1511h-174l-97 84l-34 70l-37 -68l-103 -86h-170v82l224 189
h178l213 -191v-80z" />
    <glyph glyph-name="ccircumflex" unicode="&#x109;" horiz-adv-x="716" 
d="M471 827q-168 0 -168 -315q0 -139 44 -227t134 -88t160 47l51 -189q-99 -80 -281 -81q-355 -2 -360 538q0 537 379 539q150 0 254 -58l-57 -202q-74 36 -156 36zM285 1499h174l186 -373h-190l-66 136l-27 100l-26 -100l-76 -136h-182z" />
    <glyph glyph-name="Ccaron" unicode="&#x10c;" horiz-adv-x="935" 
d="M59 723q0 394 167 585q136 154 366 154q178 0 297 -53l-51 -227q-80 41 -215 43q-293 0 -293 -508q0 -368 169 -471q58 -37 157 -37t198 65l51 -217q-98 -83 -319 -86q-373 0 -486 396q-41 143 -41 356zM268 1782h187l86 -92l34 -62l35 60l92 94h181v-82l-224 -191h-178
l-213 193v80z" />
    <glyph glyph-name="ccaron" unicode="&#x10d;" horiz-adv-x="716" 
d="M471 827q-168 0 -168 -315q0 -139 44 -227t134 -88t160 47l51 -189q-99 -80 -281 -81q-355 -2 -360 538q0 537 379 539q150 0 254 -58l-57 -202q-74 36 -156 36zM498 1126h-181l-194 373h201l65 -135l27 -100l26 100l76 135h187z" />
    <glyph glyph-name="Dcaron" unicode="&#x10e;" horiz-adv-x="1095" 
d="M764 733q0 224 -54 337q-70 147 -241 147q-87 0 -119 -7v-987q24 -8 112 -8q89 0 148 43q154 112 154 475zM1034 729q0 -749 -612 -752q-50 1 -178 9q-127 8 -152 12v1436q123 20 322 20q198 0 312 -52t182 -148q128 -178 126 -525zM162 1782h186l86 -92l35 -62l35 60
l92 94h180v-82l-223 -191h-178l-213 193v80z" />
    <glyph glyph-name="dcaron" unicode="&#x10f;" horiz-adv-x="911" 
d="M303 487q0 -290 139 -290q103 0 138 108v483q-39 35 -117 35q-78 1 -119 -73t-41 -263zM580 1434h243v-1074q0 -230 19 -362h-172l-33 119h-8q-70 -143 -235 -143t-254 122q-89 123 -89 400q0 549 383 551q86 0 146 -27v414zM866 1073q58 147 60 361h213
q-12 -171 -116 -349q-28 -45 -48 -65z" />
    <glyph glyph-name="Dcroat" unicode="&#x110;" horiz-adv-x="1136" 
d="M512 1217q-90 0 -121 -7v-389h221v-162h-221v-436q25 -8 113 -8t147 43q154 112 154 475q0 224 -54 337q-70 147 -239 147zM1075 729q0 -749 -612 -752q-49 1 -177 9t-153 12v661h-139v162h139v613q123 20 322 20q198 0 312 -52q115 -52 183 -148q128 -178 125 -525z" />
    <glyph glyph-name="dcroat" unicode="&#x111;" horiz-adv-x="925" 
d="M303 487q0 -290 139 -290q103 0 138 108v483q-39 35 -117 35t-119 -73.5t-41 -262.5zM434 1047q86 0 146 -27v131h-246v162h246v121h243v-121h125v-162h-125v-791q0 -230 19 -362h-172l-33 119h-8q-70 -143 -235 -143t-254 122t-89 396t96.5 414.5t286.5 140.5z" />
    <glyph glyph-name="Emacron" unicode="&#x112;" horiz-adv-x="880" 
d="M92 1434h717v-238h-459v-352h416v-238h-416v-368h467v-238h-725v1434zM152 1753h591v-182h-591v182z" />
    <glyph glyph-name="emacron" unicode="&#x113;" horiz-adv-x="876" 
d="M582 606q12 238 -121 238q-149 0 -162 -238h283zM809 663q0 -105 -21 -219h-497q4 -126 53 -194t158 -68q66 0 120 20t83 44l75 -170q-51 -45 -139 -74t-184 -29q-406 0 -406 539q0 276 110 408t304 133q233 0 314 -208q30 -77 30 -182zM162 1348h557v-187h-557v187z" />
    <glyph glyph-name="Edotaccent" unicode="&#x116;" horiz-adv-x="880" 
d="M92 1434h717v-238h-459v-352h416v-238h-416v-368h467v-238h-725v1434zM305 1635q0 52 40 89t119 37t120 -37t41 -89t-41 -89t-120 -37t-119 37t-40 89z" />
    <glyph glyph-name="edotaccent" unicode="&#x117;" horiz-adv-x="876" 
d="M582 606q12 238 -121 238q-149 0 -162 -238h283zM809 663q0 -105 -21 -219h-497q4 -126 53 -194t158 -68q66 0 120 20t83 44l75 -170q-51 -45 -139 -74t-184 -29q-406 0 -406 539q0 276 110 408t304 133q233 0 314 -208q30 -77 30 -182zM299 1313q0 61 39 101t111 40
q73 0 115 -39t42 -102t-43 -101t-115 -36q-72 0 -110 38q-39 38 -39 99z" />
    <glyph glyph-name="Eogonek" unicode="&#x118;" horiz-adv-x="880" 
d="M434 -227q0 149 156 227h-498v1434h717v-238h-459v-352h416v-238h-416v-368h467v-238h-49q-96 -45 -96 -150q0 -51 35.5 -76.5t101.5 5.5l37 -119q-41 -41 -105.5 -56.5t-95.5 -15.5q-104 0 -157.5 51.5t-53.5 133.5z" />
    <glyph glyph-name="eogonek" unicode="&#x119;" horiz-adv-x="862" 
d="M809 663q0 -105 -21 -219h-497q4 -127 53 -194.5t158 -67.5q66 0 120 20.5t83 43.5l75 -170q-43 -39 -110 -64q-30 -20 -58 -59t-27 -80q2 -72 41 -97t105 11l37 -127q-25 -25 -83 -49.5t-140 -24.5t-134.5 56.5t-52.5 136.5q0 119 91 194q-398 8 -398 539
q0 276 109.5 408.5t304.5 132.5q235 0 289.5 -142.5t54.5 -247.5zM582 606q12 238 -121 238q-149 0 -162 -238h283z" />
    <glyph glyph-name="Ecaron" unicode="&#x11a;" horiz-adv-x="880" 
d="M92 1434h717v-238h-459v-352h416v-238h-416v-368h467v-238h-725v1434zM141 1782h187l86 -92l35 -62l34 60l92 94h181v-82l-224 -191h-178l-213 193v80z" />
    <glyph glyph-name="ecaron" unicode="&#x11b;" horiz-adv-x="876" 
d="M582 606q12 238 -121 238q-149 0 -162 -238h283zM809 663q0 -105 -21 -219h-497q4 -126 53 -194t158 -68q66 0 120 20t83 44l75 -170q-51 -45 -139 -74t-184 -29q-406 0 -406 539q0 276 110 408t304 133q233 0 314 -208q30 -77 30 -182zM532 1126h-180l-194 373h200
l66 -135l27 -100l26 100l76 135h186z" />
    <glyph glyph-name="Gcircumflex" unicode="&#x11c;" horiz-adv-x="1028" 
d="M616 209q91 0 146 51v293l-236 33v155h443v-635q-142 -135 -379 -135q-383 0 -493 409q-38 140 -38 341q0 376 165 572q142 169 384 169q180 0 314 -57l-54 -223q-94 41 -197 42q-102 1 -160 -28q-184 -92 -181 -481q0 -260 79 -383t207 -123zM850 1511h-174l-96 84
l-35 70l-37 -68l-102 -86h-170v82l223 189h178l213 -191v-80z" />
    <glyph glyph-name="gcircumflex" unicode="&#x11d;" horiz-adv-x="907" 
d="M457 829q-154 0 -154 -318t139 -318q101 0 136 102v512q-51 22 -121 22zM365 -16q-152 0 -233 122t-81 396q0 276 112 410t321 134t337 -59v-987q0 -222 -102 -328t-296 -106t-298 61l51 207q45 -18 97 -34t140 -17q88 0 129 56q40 56 40 171v56h-7q-58 -82 -210 -82z
M377 1499h174l186 -373h-190l-66 136l-26 100l-27 -100l-76 -136h-182z" />
    <glyph glyph-name="Gbreve" unicode="&#x11e;" horiz-adv-x="1028" 
d="M616 209q91 0 146 51v293l-236 33v155h443v-635q-142 -135 -379 -135q-383 0 -493 409q-38 140 -38 341q0 376 165 572q142 169 384 169q180 0 314 -57l-54 -223q-94 41 -197 42q-102 1 -160 -28q-184 -92 -181 -481q0 -260 79 -383t207 -123zM573 1679q156 0 234 113
l90 -63q-67 -177 -228 -221q-47 -13 -95 -13q-103 0 -198 56t-140 169l94 72q34 -53 100 -83t143 -30z" />
    <glyph glyph-name="gbreve" unicode="&#x11f;" horiz-adv-x="907" 
d="M457 829q-154 0 -154 -318t139 -318q101 0 136 102v512q-51 22 -121 22zM365 -16q-152 0 -233 122t-81 396q0 276 112 410t321 134t337 -59v-987q0 -222 -102 -328t-296 -106t-298 61l51 207q45 -18 97 -34t140 -17q88 0 129 56q40 56 40 171v56h-7q-58 -82 -210 -82z
M464 1155q-118 0 -200 68t-104 188l114 62q60 -125 190 -124q131 1 177 124l113 -54q-8 -103 -89 -184q-83 -80 -201 -80z" />
    <glyph glyph-name="Gcommaaccent" unicode="&#x122;" horiz-adv-x="1028" 
d="M616 209q91 0 146 51v293l-236 33v155h443v-635q-142 -135 -379 -135q-383 0 -493 409q-38 140 -38 341q0 376 165 572q142 169 384 169q180 0 314 -57l-54 -223q-94 41 -197 42q-102 1 -160 -28q-184 -92 -181 -481q0 -260 79 -383t207 -123zM485 -219q0 61 37 97t95 36
q59 0 99 -45t40 -125q0 -184 -132 -273q-32 -22 -57 -30l-67 94q28 16 52 48t28 77q-31 2 -63 31t-32 90z" />
    <glyph glyph-name="gcommaaccent" unicode="&#x123;" horiz-adv-x="907" 
d="M457 829q-154 0 -154 -318t139 -318q101 0 136 102v512q-51 22 -121 22zM365 -16q-152 0 -233 122t-81 396q0 276 112 410t321 134t337 -59v-987q0 -222 -102 -328t-296 -106t-298 61l51 207q45 -18 97 -34t140 -17q88 0 129 56q40 56 40 171v56h-7q-58 -82 -210 -82z
M621 1262q0 -62 -37 -98t-95 -36t-99 45q-40 45 -40 125q0 180 132 274q32 22 57 30l67 -95q-28 -16 -52 -48t-28 -77q31 -2 63 -30t32 -90z" />
    <glyph glyph-name="Hcircumflex" unicode="&#x124;" horiz-adv-x="1091" 
d="M741 606h-391v-606h-258v1434h258v-590h391v590h258v-1434h-258v606zM866 1511h-174l-96 84l-35 70l-37 -68l-102 -86h-170v82l223 189h178l213 -191v-80z" />
    <glyph glyph-name="hcircumflex" unicode="&#x125;" horiz-adv-x="919" 
d="M338 932q92 119 233 119t204 -82t65 -297v-672h-244v618q0 111 -26 160t-84 49q-58 -1 -99 -35t-55 -87v-705h-244v1434h244v-502h6zM770 1511h-174l-96 84l-35 70l-37 -68l-102 -86h-170v82l223 189h178l213 -191v-80z" />
    <glyph glyph-name="Hbar" unicode="&#x126;" horiz-adv-x="1161" 
d="M778 844v217h-391v-217h391zM4 1221h125v213h258v-213h391v213h258v-213h121v-160h-121v-1061h-258v606h-391v-606h-258v1061h-125v160z" />
    <glyph glyph-name="hbar" unicode="&#x127;" horiz-adv-x="933" 
d="M352 932q92 119 234 119t205 -83.5t63 -295.5v-672h-244v618q0 111 -25.5 160t-83.5 49t-99.5 -34.5t-55.5 -87.5v-705h-244v1151h-120v162h120v121h244v-121h272v-162h-272v-219h6z" />
    <glyph glyph-name="Imacron" unicode="&#x12a;" horiz-adv-x="487" 
d="M115 1434h258v-1434h-258v1434zM-45 1753h592v-182h-592v182z" />
    <glyph glyph-name="imacron" unicode="&#x12b;" horiz-adv-x="460" 
d="M109 1024h243v-1024h-243v1024zM-49 1348h557v-187h-557v187z" />
    <glyph glyph-name="Iogonek" unicode="&#x12e;" horiz-adv-x="487" 
d="M33 -227q0 151 149 227h-67v1434h258v-1434h-25q-78 -56 -78 -129.5t36 -99t102 7.5l36 -121q-25 -23 -82.5 -47.5t-139.5 -24.5t-135.5 51.5t-53.5 135.5z" />
    <glyph glyph-name="iogonek" unicode="&#x12f;" horiz-adv-x="456" 
d="M76 1312.5q0 61.5 39 101.5t110.5 40t114.5 -39t43 -102.5t-43 -100t-114.5 -36.5t-110.5 37.5t-39 99zM23 -225q0 152 147 225h-61v1024h243v-1024h-22q-84 -65 -80 -150q0 -53 41 -78.5t104 15.5l37 -127q-25 -25 -83 -49.5t-141 -24.5t-134 52.5t-51 136.5z" />
    <glyph glyph-name="Idotaccent" unicode="&#x130;" horiz-adv-x="487" 
d="M115 1434h258v-1434h-258v1434zM86 1635q0 52 40 89t119 37t120 -37t41 -89t-41 -89t-120 -37t-119 37t-40 89z" />
    <glyph glyph-name="dotlessi" unicode="&#x131;" horiz-adv-x="460" 
d="M109 1024h243v-1024h-243v1024z" />
    <glyph glyph-name="Jcircumflex" unicode="&#x134;" horiz-adv-x="591" 
d="M231 1434h258v-1043q0 -303 -157 -386q-57 -30 -162 -30t-205 48l60 217q43 -27 107 -27t82 60q17 60 17 173v988zM659 1511h-174l-96 84l-35 70l-37 -68l-102 -86h-170v82l223 189h178l213 -191v-80z" />
    <glyph glyph-name="jcircumflex" unicode="&#x135;" horiz-adv-x="460" 
d="M111 1024h243v-1067q0 -186 -64 -285q-65 -98 -206 -98q-57 0 -117 14v217q88 -7 116 51t28 173v995zM156 1499h174l186 -373h-190l-66 136l-27 100l-26 -100l-76 -136h-182z" />
    <glyph glyph-name="Kcommaaccent" unicode="&#x136;" horiz-adv-x="1062" 
d="M350 614v-614h-258v1434h258v-637l51 24l301 613h291l-327 -605l-97 -75l99 -78l379 -676h-316l-325 614h-56zM381 -219q0 61 37 97t95 36t98 -45t40 -125q0 -186 -132 -273q-32 -22 -56 -30l-68 94q27 16 51 48t29 77q-31 2 -63 31t-31 90z" />
    <glyph glyph-name="kcommaaccent" unicode="&#x137;" horiz-adv-x="843" 
d="M332 424v-424h-244v1434h244v-846l49 28l170 408h264l-188 -406l-88 -69l96 -70l209 -479h-275l-180 424h-57zM295 -219q0 61 37 97t95 36t98 -45t40 -125q0 -186 -132 -273q-32 -22 -56 -30l-68 94q27 16 51 48t29 77q-31 2 -63 31t-31 90z" />
    <glyph glyph-name="Lacute" unicode="&#x139;" horiz-adv-x="868" 
d="M854 0h-762v1434h258v-1196h504v-238zM614 1782v-62l-270 -180h-190l168 242h292z" />
    <glyph glyph-name="lacute" unicode="&#x13a;" horiz-adv-x="497" 
d="M92 201v1233h244v-1102q0 -72 14 -103q24 -54 129 -12l23 -197q-68 -44 -225 -44q-81 0 -133 50q-52 52 -52 175zM573 1782v-62l-270 -180h-190l168 242h292z" />
    <glyph glyph-name="Lcommaaccent" unicode="&#x13b;" horiz-adv-x="868" 
d="M854 0h-762v1434h258v-1196h504v-238zM307 -219q0 61 37 97t95 36q59 0 99 -45t40 -125q0 -186 -133 -273q-32 -22 -56 -30l-67 94q28 16 52 48t27 77q-31 2 -63 31t-31 90z" />
    <glyph glyph-name="lcommaaccent" unicode="&#x13c;" horiz-adv-x="497" 
d="M92 201v1233h244v-1102q0 -72 14 -103q24 -54 129 -12l23 -197q-68 -44 -225 -44q-81 0 -133 50q-52 52 -52 175zM156 -219q0 61 37 97t95 36t98 -45t40 -125q0 -184 -132 -273q-32 -22 -56 -30l-68 94q28 16 52 48t28 77q-31 2 -63 31q-31 29 -31 90z" />
    <glyph glyph-name="Lcaron" unicode="&#x13d;" horiz-adv-x="868" 
d="M854 0h-762v1434h258v-1196h504v-238zM600 1434h213q-12 -178 -116 -349q-28 -45 -48 -65l-108 53q59 151 59 361z" />
    <glyph glyph-name="lcaron" unicode="&#x13e;" horiz-adv-x="497" 
d="M92 201v1233h244v-1102q0 -72 14 -103q24 -54 129 -12l23 -197q-68 -44 -225 -44q-81 0 -133 50q-52 52 -52 175zM440 1434h213q-12 -173 -115 -349q-28 -45 -49 -65l-108 53q59 151 59 361z" />
    <glyph glyph-name="Lslash" unicode="&#x141;" horiz-adv-x="888" 
d="M113 1434h258v-498l172 133v-258l-172 -131v-442h503v-238h-761v483l-107 -80v252l107 82v697z" />
    <glyph glyph-name="lslash" unicode="&#x142;" horiz-adv-x="546" 
d="M541 20q-69 -45 -225 -45q-82 0 -133.5 51.5t-51.5 174.5v278l-129 -98v252l129 98v703h244v-514l164 127v-259l-164 -124v-332q0 -72 14 -102.5t50 -30.5t79 18z" />
    <glyph glyph-name="Nacute" unicode="&#x143;" horiz-adv-x="1105" 
d="M336 0h-244v1444h199l411 -721l89 -248h12l-33 244v715h244v-1444h-199l-407 715l-95 251h-10l33 -247v-709zM913 1782v-62l-270 -180h-190l168 242h292z" />
    <glyph glyph-name="nacute" unicode="&#x144;" horiz-adv-x="919" 
d="M584 1049q128 0 191 -80t65 -287v-682h-244v623q0 113 -27 157t-85 45q-58 -1 -97 -33t-55 -81v-711h-244v1024h195l28 -119h6q90 144 267 144zM707 1475v-62l-193 -254h-137l86 316h244z" />
    <glyph glyph-name="Ncommaaccent" unicode="&#x145;" horiz-adv-x="1105" 
d="M336 0h-244v1444h199l411 -721l89 -248h12l-33 244v715h244v-1444h-199l-407 715l-95 251h-10l33 -247v-709zM438 -219q0 61 37 97t95 36t98 -45t41 -125q0 -184 -132 -273q-32 -22 -57 -30l-67 94q27 16 51 48t28 77q-30 2 -62 31t-32 90z" />
    <glyph glyph-name="ncommaaccent" unicode="&#x146;" horiz-adv-x="919" 
d="M584 1049q128 0 191 -80t65 -287v-682h-244v623q0 113 -27 157t-85 45q-58 -1 -97 -33t-55 -81v-711h-244v1024h195l28 -119h6q90 144 267 144zM326 -219q0 61 36 97q38 36 96 36t98 -45t40 -125q0 -184 -132 -273q-32 -22 -56 -30l-68 94q28 16 52 48t28 77
q-31 2 -63 31q-31 29 -31 90z" />
    <glyph glyph-name="Ncaron" unicode="&#x147;" horiz-adv-x="1105" 
d="M336 0h-244v1444h199l411 -721l89 -248h12l-33 244v715h244v-1444h-199l-407 715l-95 251h-10l33 -247v-709zM256 1782h186l86 -92l35 -62l35 60l92 94h180v-82l-223 -191h-178l-213 193v80z" />
    <glyph glyph-name="ncaron" unicode="&#x148;" horiz-adv-x="919" 
d="M584 1049q128 0 191 -80t65 -287v-682h-244v623q0 113 -27 157t-85 45q-58 -1 -97 -33t-55 -81v-711h-244v1024h195l28 -119h6q90 144 267 144zM549 1126h-180l-195 373h201l65 -135l27 -100l27 100l75 135h187z" />
    <glyph glyph-name="Omacron" unicode="&#x14c;" horiz-adv-x="1132" 
d="M330 717q0 -360 126 -469q44 -39 109 -39q119 0 178 121t60 387q0 357 -125 468q-45 40 -113 40q-235 0 -235 -508zM59 717q0 745 506 745q384 0 478 -437q30 -138 30 -308q0 -365 -128 -555t-383 -190t-379 195t-124 550zM274 1753h592v-182h-592v182z" />
    <glyph glyph-name="omacron" unicode="&#x14d;" horiz-adv-x="911" 
d="M303 512q0 -322 150 -322q79 0 117 73t38 240t-35 249t-118 82q-152 0 -152 -322zM455 1051q405 0 405 -539q0 -274 -106 -406t-299 -133q-404 0 -404 539q1 272 107 406t297 133zM174 1348h557v-187h-557v187z" />
    <glyph glyph-name="Ohungarumlaut" unicode="&#x150;" horiz-adv-x="1132" 
d="M330 717q0 -360 126 -469q44 -39 109 -39q119 0 178 121t60 387q0 357 -125 468q-45 40 -113 40q-235 0 -235 -508zM59 717q0 745 506 745q384 0 478 -437q30 -138 30 -308q0 -365 -128 -555t-383 -190t-379 195t-124 550zM1012 1741v-33l-242 -190h-176l162 223h256z
M649 1741v-33l-168 -190h-176l98 223h246z" />
    <glyph glyph-name="ohungarumlaut" unicode="&#x151;" horiz-adv-x="911" 
d="M303 512q0 -322 150 -322q79 0 117 73t38 240t-35 249t-118 82q-152 0 -152 -322zM455 1051q405 0 405 -539q0 -274 -106 -406t-299 -133q-404 0 -404 539q1 272 107 406t297 133zM838 1434v-33l-203 -232h-154l123 265h234zM510 1434v-33l-131 -232h-150l60 265h221z
" />
    <glyph glyph-name="OE" unicode="&#x152;" horiz-adv-x="1542" 
d="M550 -29q-245 0 -368 197t-123 554t125 548.5t373 191.5q99 0 197 -28h714v-238h-456v-352h413v-238h-413v-368h465v-238h-723q-80 -29 -204 -29zM567 1225q-237 0 -237 -508q0 -359 90 -433.5t174 -74.5t160 39v926q-73 51 -187 51z" />
    <glyph glyph-name="oe" unicode="&#x153;" horiz-adv-x="1427" 
d="M1133 606q17 242 -127 242q-76 0 -113 -68.5t-43 -173.5h283zM51 512q0 266 105.5 403.5t298.5 137.5q115 0 180 -43t102 -97q39 53 104 96.5t153 43.5q171 0 268.5 -92.5t97.5 -309.5q0 -92 -21 -207h-495q4 -131 52 -199.5t153 -68.5q70 0 124 24.5t82 49.5l80 -170
q-51 -47 -142 -78t-186 -31t-167 38t-113 104q-88 -142 -276 -142q-400 0 -400 541zM455 836q-152 0 -152 -324t152 -324q78 0 114.5 76t36.5 239t-33.5 248t-117.5 85z" />
    <glyph glyph-name="Racute" unicode="&#x154;" horiz-adv-x="1030" 
d="M350 768h88q195 0 195 240q0 92 -41 150t-125 58t-117 -10v-438zM391 1454q135 0 219 -17q177 -36 253 -189q40 -79 40 -226q-1 -147 -65 -257t-176 -151l81 -65l265 -549h-297l-250 565l-111 27v-592h-258v1419q164 35 299 35zM778 1782v-62l-270 -180h-191l168 242h293
z" />
    <glyph glyph-name="racute" unicode="&#x155;" horiz-adv-x="600" 
d="M332 0h-244v1024h186l29 -123h8q27 68 77 106q90 69 212 17l-29 -242q-115 42 -185 -12q-40 -31 -54 -86v-684zM543 1475v-62l-193 -254h-137l86 316h244z" />
    <glyph glyph-name="Rcommaaccent" unicode="&#x156;" horiz-adv-x="1030" 
d="M350 768h88q195 0 195 240q0 92 -41 150t-125 58t-117 -10v-438zM391 1454q135 0 219 -17q177 -36 253 -189q40 -79 40 -226q-1 -147 -65 -257t-176 -151l81 -65l265 -549h-297l-250 565l-111 27v-592h-258v1419q164 35 299 35zM393 -219q0 61 37 97t95 36q59 0 99 -45
t40 -125q0 -186 -133 -273q-32 -22 -56 -30l-67 94q28 16 52 48t27 77q-31 2 -63 31t-31 90z" />
    <glyph glyph-name="rcommaaccent" unicode="&#x157;" horiz-adv-x="600" 
d="M332 0h-244v1024h186l29 -123h8q27 68 77 106q90 69 212 17l-29 -242q-115 42 -185 -12q-40 -31 -54 -86v-684zM125 -219q0 61 37 97t95 36t98 -45t40 -125q0 -186 -132 -273q-32 -22 -56 -30l-68 94q27 16 51 48t29 77q-31 2 -63 31t-31 90z" />
    <glyph glyph-name="Rcaron" unicode="&#x158;" horiz-adv-x="1030" 
d="M352 768h88q195 0 195 240q0 92 -41 150t-125 58t-117 -10v-438zM393 1454q135 0 219 -17q177 -36 253 -189q40 -79 40 -226q-1 -147 -65 -257t-176 -151l81 -65l265 -549h-297l-250 565l-111 27v-592h-258v1419q164 35 299 35zM137 1782h187l86 -92l34 -62l35 60l92 94
h181v-82l-224 -191h-178l-213 193v80z" />
    <glyph glyph-name="rcaron" unicode="&#x159;" horiz-adv-x="600" 
d="M332 0h-244v1024h186l29 -123h8q27 68 77 106q90 69 212 17l-29 -242q-115 42 -185 -12q-40 -31 -54 -86v-684zM416 1126h-180l-195 373h201l65 -135l27 -100l26 100l76 135h187z" />
    <glyph glyph-name="Sacute" unicode="&#x15a;" horiz-adv-x="899" 
d="M594 369q0 65 -39 111q-57 66 -224 171q-265 165 -263 426q0 197 113 292t316 94q202 -1 326 -77l-80 -227q-35 25 -103 45t-148 20t-123 -32q-43 -33 -43 -93q0 -61 39 -105t97 -85t127 -85t127 -102t97 -137t39 -188q0 -211 -120 -318q-120 -108 -324 -108
q-126 0 -222 25t-147 55l84 232q41 -25 113 -50t153 -24q205 0 205 160zM801 1782v-62l-271 -180h-190l168 242h293z" />
    <glyph glyph-name="sacute" unicode="&#x15b;" horiz-adv-x="716" 
d="M432 272q0 70 -98 128q-43 26 -91 53q-190 107 -190 298q0 144 78 222t247 78t279 -68l-57 -188q-110 45 -207 46q-96 1 -96 -83q0 -39 32 -69t118 -77q87 -47 131 -87q98 -91 98 -235t-86 -230t-256 -87q-84 1 -165 21t-130 53l67 197q103 -60 215 -61q111 -1 111 89z
M600 1475v-62l-192 -254h-138l86 316h244z" />
    <glyph glyph-name="Scircumflex" unicode="&#x15c;" horiz-adv-x="899" 
d="M594 369q0 65 -39 111q-57 66 -224 171q-265 165 -263 426q0 197 113 292t316 94q202 -1 326 -77l-80 -227q-35 25 -103 45t-148 20t-123 -32q-43 -33 -43 -93q0 -61 39 -105t97 -85t127 -85t127 -102t97 -137t39 -188q0 -211 -120 -318q-120 -108 -324 -108
q-126 0 -222 25t-147 55l84 232q41 -25 113 -50t153 -24q205 0 205 160zM786 1511h-174l-96 84l-35 70l-37 -68l-102 -86h-170v82l223 189h178l213 -191v-80z" />
    <glyph glyph-name="scircumflex" unicode="&#x15d;" horiz-adv-x="716" 
d="M432 272q0 70 -98 128q-43 26 -91 53q-190 107 -190 298q0 144 78 222t247 78t279 -68l-57 -188q-110 45 -207 46q-96 1 -96 -83q0 -39 32 -69t118 -77q87 -47 131 -87q98 -91 98 -235t-86 -230t-256 -87q-84 1 -165 21t-130 53l67 197q103 -60 215 -61q111 -1 111 89z
M285 1499h174l186 -373h-190l-66 136l-27 100l-26 -100l-76 -136h-182z" />
    <glyph glyph-name="Scedilla" unicode="&#x15e;" horiz-adv-x="899" 
d="M389 211q205 0 205 158q0 66 -39 111.5t-97.5 86.5t-224 145t-165.5 365q0 198 113 291.5t313 93.5q201 0 329 -76l-80 -227q-35 25 -103.5 45.5t-148 20.5t-122.5 -33t-43 -93t38.5 -104.5t97 -85.5t224.5 -147.5t166 -363.5q0 -189 -92 -292.5t-250 -125.5l-31 -68
q152 -17 152 -154q0 -88 -77 -138t-192 -50q-55 0 -110 12l14 99q142 -13 142 59q0 57 -144 65l86 168q-198 7 -311 78l84 234q121 -74 266 -74z" />
    <glyph glyph-name="scedilla" unicode="&#x15f;" horiz-adv-x="716" 
d="M432 272q0 70 -70.5 112t-189.5 107.5t-119 259.5q0 144 78 222t247 78t279 -68l-57 -188q-115 47 -209 47t-94 -84q0 -39 27.5 -64.5t70.5 -50.5t162 -90t119 -253q0 -272 -244 -316l-33 -72q152 -17 152 -154q0 -88 -77 -138t-191 -50q-55 0 -111 12l14 99
q142 -13 142 59q0 57 -144 65l88 172q-146 12 -233 70l67 197q107 -62 216 -62q110 0 110 90z" />
    <glyph glyph-name="Scaron" unicode="&#x160;" horiz-adv-x="899" 
d="M594 369q0 65 -39 111q-57 66 -224 171q-265 165 -263 426q0 197 113 292t316 94q202 -1 326 -77l-80 -227q-35 25 -103 45t-148 20t-123 -32q-43 -33 -43 -93q0 -61 39 -105t97 -85t127 -85t127 -102t97 -137t39 -188q0 -211 -120 -318q-120 -108 -324 -108
q-126 0 -222 25t-147 55l84 232q41 -25 113 -50t153 -24q205 0 205 160zM172 1782h186l86 -92l35 -62l35 60l92 94h180v-82l-223 -191h-178l-213 193v80z" />
    <glyph glyph-name="scaron" unicode="&#x161;" horiz-adv-x="716" 
d="M432 272q0 70 -98 128q-43 26 -91 53q-190 107 -190 298q0 144 78 222t247 78t279 -68l-57 -188q-110 45 -207 46q-96 1 -96 -83q0 -39 32 -69t118 -77q87 -47 131 -87q98 -91 98 -235t-86 -230t-256 -87q-84 1 -165 21t-130 53l67 197q103 -60 215 -61q111 -1 111 89z
M446 1126h-180l-194 373h200l66 -135l27 -100l26 100l76 135h186z" />
    <glyph glyph-name="Tcommaaccent" unicode="&#x162;" horiz-adv-x="968" 
d="M952 1196h-338v-1196h-258v1196h-340v238h936v-238zM346 -219q0 61 37 97t95 36t98 -45t40 -125q-1 -187 -132 -273q-32 -22 -56 -30l-68 94q27 16 52 48t28 77q-30 2 -62 31t-32 90z" />
    <glyph glyph-name="Tcommaaccent" unicode="&#x21a;" horiz-adv-x="968" 
d="M952 1196h-338v-1196h-258v1196h-340v238h936v-238zM346 -219q0 61 37 97t95 36t98 -45t40 -125q-1 -187 -132 -273q-32 -22 -56 -30l-68 94q27 16 52 48t28 77q-30 2 -62 31t-32 90z" />
    <glyph glyph-name="tcommaaccent" unicode="&#x163;" horiz-adv-x="595" 
d="M121 270v537h-113v217h113v193l244 75v-268h198v-217h-198v-447q0 -88 17 -124t66 -37q49 0 105 24l31 -194q-102 -52 -224 -53q-123 -1 -181 67t-58 227zM182 -219q0 61 37 97t95 36t98 -45t41 -125q0 -184 -132 -273q-32 -22 -57 -30l-67 94q27 16 51 48t28 77
q-30 2 -62 31t-32 90z" />
    <glyph glyph-name="tcommaaccent" unicode="&#x21b;" horiz-adv-x="595" 
d="M121 270v537h-113v217h113v193l244 75v-268h198v-217h-198v-447q0 -88 17 -124t66 -37q49 0 105 24l31 -194q-102 -52 -224 -53q-123 -1 -181 67t-58 227zM182 -219q0 61 37 97t95 36t98 -45t41 -125q0 -184 -132 -273q-32 -22 -57 -30l-67 94q27 16 51 48t28 77
q-30 2 -62 31t-32 90z" />
    <glyph glyph-name="Tcaron" unicode="&#x164;" horiz-adv-x="968" 
d="M952 1196h-338v-1196h-258v1196h-340v238h936v-238zM176 1782h186l87 -92l34 -62l35 60l92 94h181v-82l-224 -191h-178l-213 193v80z" />
    <glyph glyph-name="tcaron" unicode="&#x165;" horiz-adv-x="608" 
d="M121 270v537h-113v217h113v193l244 75v-268h198v-217h-198v-447q0 -88 17 -124t66 -37q49 0 105 24l31 -194q-102 -52 -224 -53q-123 -1 -181 67t-58 227zM469 1481h213q-12 -174 -116 -348q-28 -45 -48 -66l-108 53q59 151 59 361z" />
    <glyph glyph-name="Umacron" unicode="&#x16a;" horiz-adv-x="1054" 
d="M725 1434h244v-930q0 -279 -114 -404t-332 -125q-437 0 -437 494v965h258v-920q0 -168 45 -234t147 -67q102 0 146 71q43 71 43 230v920zM236 1753h591v-182h-591v182z" />
    <glyph glyph-name="umacron" unicode="&#x16b;" horiz-adv-x="913" 
d="M80 358v666h244v-612q0 -121 22 -168t81 -47q58 0 97 42t56 101v684h243v-713q0 -200 29 -311h-184l-43 139h-7q-90 -166 -270 -166q-133 0 -200 83q-68 83 -68 302zM176 1348h557v-187h-557v187z" />
    <glyph glyph-name="Ubreve" unicode="&#x16c;" horiz-adv-x="1054" 
d="M725 1434h244v-930q0 -279 -114 -404t-332 -125q-437 0 -437 494v965h258v-920q0 -168 45 -234t147 -67q102 0 146 71q43 71 43 230v920zM535 1679q155 0 233 113l90 -63q-67 -177 -228 -221q-48 -13 -96 -13q-103 0 -197 56q-95 56 -140 169l94 72q35 -53 101 -83
t143 -30z" />
    <glyph glyph-name="ubreve" unicode="&#x16d;" horiz-adv-x="913" 
d="M80 358v666h244v-612q0 -121 22 -168t81 -47q58 0 97 42t56 101v684h243v-713q0 -200 29 -311h-184l-43 139h-7q-90 -166 -270 -166q-133 0 -200 83q-68 83 -68 302zM464 1155q-118 0 -200 68t-104 188l114 62q60 -125 190 -124q131 1 177 124l113 -54q-8 -103 -89 -184
q-83 -80 -201 -80z" />
    <glyph glyph-name="Uring" unicode="&#x16e;" horiz-adv-x="1054" 
d="M725 1434h244v-930q0 -279 -114 -404t-332 -125q-437 0 -437 494v965h258v-920q0 -168 45 -234t147 -67q102 0 146 71q43 71 43 230v920zM463 1581q0 -63 74 -63q43 0 59 15t16 49q0 67 -74 68t-75 -69zM766 1581q0 -178 -229 -178q-127 0 -178 50q-50 50 -50 128
q1 184 229 184t228 -184z" />
    <glyph glyph-name="uring" unicode="&#x16f;" horiz-adv-x="913" 
d="M80 358v666h244v-612q0 -121 22 -168t81 -47q58 0 97 42t56 101v684h243v-713q0 -200 29 -311h-184l-43 139h-7q-90 -166 -270 -166q-133 0 -200 83q-68 83 -68 302zM387 1328q0 -71 62 -73q63 0 63 71t-63 73q-62 0 -62 -71zM250 1327q0 90 50 141q50 52 146 52t150 -48
q53 -48 53 -141q0 -92 -52 -144t-148 -52t-148 51q-51 51 -51 141z" />
    <glyph glyph-name="Uhungarumlaut" unicode="&#x170;" horiz-adv-x="1054" 
d="M725 1434h244v-930q0 -279 -114 -404t-332 -125q-437 0 -437 494v965h258v-920q0 -168 45 -234t147 -67q102 0 146 71q43 71 43 230v920zM971 1741v-33l-242 -190h-176l162 223h256zM608 1741v-33l-168 -190h-176l98 223h246z" />
    <glyph glyph-name="uhungarumlaut" unicode="&#x171;" horiz-adv-x="913" 
d="M80 358v666h244v-612q0 -121 22 -168t81 -47q58 0 97 42t56 101v684h243v-713q0 -200 29 -311h-184l-43 139h-7q-90 -166 -270 -166q-133 0 -200 83q-68 83 -68 302zM825 1434v-33l-202 -232h-154l123 265h233zM498 1434v-33l-131 -232h-150l59 265h222z" />
    <glyph glyph-name="Uogonek" unicode="&#x172;" horiz-adv-x="1054" 
d="M418 -219q0 111 96 194q-216 6 -322 125t-106 369v965h258v-920q0 -168 45 -234.5t147 -66.5t145.5 70.5t43.5 230.5v920h244v-930q0 -381 -228 -488q-86 -66 -86 -157q0 -55 39.5 -83t100.5 3l36 -121q-27 -23 -84 -47.5t-141 -24.5t-136 56.5t-52 138.5z" />
    <glyph glyph-name="uogonek" unicode="&#x173;" horiz-adv-x="913" 
d="M80 358v666h244v-612q0 -121 22.5 -168t80.5 -47t97 42t56 101v684h243v-713q0 -191 29 -311h-33q-102 -43 -102 -152q0 -56 40 -77.5t107 14.5l37 -127q-27 -25 -84 -49.5t-140 -24.5t-135.5 52.5t-52.5 174.5t175 199l-39 129h-7q-90 -166 -270 -166q-134 0 -201 83.5
t-67 301.5z" />
    <glyph glyph-name="Ydieresis" unicode="&#x178;" horiz-adv-x="1013" 
d="M635 0h-258v532l-385 902h307l199 -543l20 -156h10l23 160l194 539h277l-387 -899v-535zM840 1634q0 -118 -138 -117t-139 117q0 53 32 86q33 33 107 33t106 -33t32 -86zM190 1636q0 118 142 117q72 0 104 -33t31 -86q0 -53 -32 -85t-103 -31q-142 0 -142 118z" />
    <glyph glyph-name="Zacute" unicode="&#x179;" horiz-adv-x="911" 
d="M43 1196v238h825v-238l-481 -881l-84 -77h565v-238h-825v238l479 874l86 84h-565zM788 1782v-62l-270 -180h-190l168 242h292z" />
    <glyph glyph-name="zacute" unicode="&#x17a;" horiz-adv-x="780" 
d="M49 807v217h678v-217l-328 -510l-88 -80h416v-217h-678v217l332 502l90 88h-422zM623 1475v-62l-193 -254h-137l86 316h244z" />
    <glyph glyph-name="Zdotaccent" unicode="&#x17b;" horiz-adv-x="911" 
d="M43 1196v238h825v-238l-481 -881l-84 -77h565v-238h-825v238l479 874l86 84h-565zM303 1635q0 52 40 89t119 37t120 -37t41 -89t-41 -89t-120 -37t-119 37t-40 89z" />
    <glyph glyph-name="zdotaccent" unicode="&#x17c;" horiz-adv-x="780" 
d="M49 807v217h678v-217l-328 -510l-88 -80h416v-217h-678v217l332 502l90 88h-422zM242 1313q0 61 39 101t111 40t114 -39q43 -39 43 -102t-43 -101t-115 -36q-73 0 -111 38t-38 99z" />
    <glyph glyph-name="Zcaron" unicode="&#x17d;" horiz-adv-x="911" 
d="M43 1196v238h825v-238l-481 -881l-84 -77h565v-238h-825v238l479 874l86 84h-565zM143 1782h187l86 -92l35 -62l34 60l93 94h180v-82l-223 -191h-179l-213 193v80z" />
    <glyph glyph-name="zcaron" unicode="&#x17e;" horiz-adv-x="780" 
d="M49 807v217h678v-217l-328 -510l-88 -80h416v-217h-678v217l332 502l90 88h-422zM477 1126h-180l-195 373h201l66 -135l26 -100l27 100l76 135h186z" />
    <glyph glyph-name="longs" unicode="&#x17f;" horiz-adv-x="448" 
d="M465 1233q-59 0 -75.5 -47t-16.5 -158v-1028h-244v807h-111v217h111v57q0 369 270 369q140 0 240 -47l-49 -195q-66 25 -125 25z" />
    <glyph glyph-name="florin" unicode="&#x192;" 
d="M196 -426q-203 0 -296 47l45 205q72 -35 155 -35q115 0 142 225l98 791h-127v217h162l18 137q21 162 82.5 231.5t212.5 69.5q152 0 266 -57l-59 -193q-75 33 -141 33t-88.5 -35.5t-32.5 -117.5l-8 -68h202v-217h-235l-119 -877q-34 -258 -128.5 -307t-148.5 -49z" />
    <glyph glyph-name="uni01F4" unicode="&#x1f4;" horiz-adv-x="1028" 
d="M616 209q91 0 146 51v293l-236 33v155h443v-635q-142 -135 -379 -135q-383 0 -493 409q-38 140 -38 341q0 376 165 572q142 169 384 169q180 0 314 -57l-54 -223q-94 41 -197 42q-102 1 -160 -28q-184 -92 -181 -481q0 -260 79 -383t207 -123zM944 1782v-62l-270 -180
h-191l168 242h293z" />
    <glyph glyph-name="uni01F5" unicode="&#x1f5;" horiz-adv-x="907" 
d="M457 829q-154 0 -154 -318t139 -318q101 0 136 102v512q-51 22 -121 22zM365 -16q-152 0 -233 122t-81 396q0 276 112 410t321 134t337 -59v-987q0 -222 -102 -328t-296 -106t-298 61l51 207q45 -18 97 -34t140 -17q88 0 129 56q40 56 40 171v56h-7q-58 -82 -210 -82z
M723 1475v-62l-193 -254h-137l86 316h244z" />
    <glyph glyph-name="Scommaaccent" unicode="&#x218;" horiz-adv-x="899" 
d="M594 369q0 65 -39 111q-57 66 -224 171q-265 165 -263 426q0 197 113 292t316 94q202 -1 326 -77l-80 -227q-35 25 -103 45t-148 20t-123 -32q-43 -33 -43 -93q0 -61 39 -105t97 -85t127 -85t127 -102t97 -137t39 -188q0 -211 -120 -318q-120 -108 -324 -108
q-126 0 -222 25t-147 55l84 232q41 -25 113 -50t153 -24q205 0 205 160zM305 -219q0 61 37 97t95 36q59 0 99 -45t40 -125q-1 -187 -133 -273q-32 -22 -56 -30l-68 94q27 16 52 48t28 77q-31 2 -63 31t-31 90z" />
    <glyph glyph-name="scommaaccent" unicode="&#x219;" horiz-adv-x="716" 
d="M432 272q0 70 -98 128q-43 26 -91 53q-190 107 -190 298q0 144 78 222t247 78t279 -68l-57 -188q-110 45 -207 46q-96 1 -96 -83q0 -39 32 -69t118 -77q87 -47 131 -87q98 -91 98 -235t-86 -230t-256 -87q-84 1 -165 21t-130 53l67 197q103 -60 215 -61q111 -1 111 89z
M223 -219q0 61 37 97t95 36q59 0 99 -45t40 -125q0 -186 -133 -273q-32 -22 -56 -30l-67 94q28 16 52 48t27 77q-31 2 -63 31t-31 90z" />
    <glyph glyph-name="uni0237" unicode="&#x237;" horiz-adv-x="460" 
d="M111 1024h243v-1067q0 -186 -64.5 -284.5t-205.5 -98.5q-57 0 -117 14v217q88 -8 116 50.5t28 173.5v995z" />
    <glyph glyph-name="afii57929" unicode="&#x2bc;" horiz-adv-x="385" 
d="M59 1316q0 62 36 99q35 37 95 37t98 -46t38 -127q0 -135 -77 -229q-54 -64 -126 -94l-62 103q35 16 62 49t31 80q-35 2 -65 34t-30 94z" />
    <glyph glyph-name="circumflex" unicode="&#x2c6;" horiz-adv-x="813" 
d="M330 1499h174l186 -373h-190l-66 136l-26 100l-27 -100l-76 -136h-182z" />
    <glyph glyph-name="caron" unicode="&#x2c7;" horiz-adv-x="827" 
d="M498 1126h-181l-194 373h201l65 -135l27 -100l26 100l76 135h187z" />
    <glyph glyph-name="breve" unicode="&#x2d8;" horiz-adv-x="839" 
d="M428 1350q59 0 106.5 30.5t69.5 92.5l113 -54q-8 -105 -89.5 -184.5t-200.5 -79.5q-118 0 -200 67.5t-104 188.5l115 62q29 -61 80 -92t110 -31z" />
    <glyph glyph-name="dotaccent" unicode="&#x2d9;" horiz-adv-x="552" 
d="M123 1312.5q0 61.5 39 101.5t110.5 40t114.5 -39t43 -102.5t-43 -100t-114.5 -36.5t-110.5 37.5t-39 99z" />
    <glyph glyph-name="ring" unicode="&#x2da;" horiz-adv-x="645" 
d="M322 1255q63 0 63 72q-1 72 -63 72t-62 -74q0 -35 17.5 -52.5t44.5 -17.5zM123 1327q0 90 50.5 141.5t146.5 51.5q202 0 202 -195q0 -86 -52 -138t-148.5 -52t-147.5 51t-51 141z" />
    <glyph glyph-name="ogonek" unicode="&#x2db;" horiz-adv-x="657" 
d="M360 -141q0 -51 36 -77t102 5l37 -119q-43 -43 -106.5 -57t-94.5 -14q-104 0 -157.5 51t-53.5 135t51 143.5t131 93.5h182q-127 -45 -127 -161z" />
    <glyph glyph-name="tilde" unicode="&#x2dc;" horiz-adv-x="849" 
d="M328 1475q53 0 107 -31t85 -44.5t71 -13.5t91 48l45 -125q-96 -115 -192 -115q-50 0 -106 27.5t-87 41t-74 13.5t-96 -51l-49 118q102 132 205 132z" />
    <glyph glyph-name="hungarumlaut" unicode="&#x2dd;" horiz-adv-x="854" 
d="M731 1434v-33l-203 -232h-153l123 265h233zM403 1434v-33l-131 -232h-149l59 265h221z" />
    <glyph glyph-name="acutecomb" unicode="&#x301;" horiz-adv-x="4" 
d="M-379 1475v-62l-192 -254h-138l86 316h244z" />
    <glyph glyph-name="uni0394" unicode="&#x394;" horiz-adv-x="995" 
d="M287 221h424l-176 610l-35 230h-11l-36 -232zM20 0v145l400 1299h155l404 -1299v-145h-959z" />
    <glyph glyph-name="uni0394" unicode="&#x2206;" horiz-adv-x="995" 
d="M287 221h424l-176 610l-35 230h-11l-36 -232zM20 0v145l400 1299h155l404 -1299v-145h-959z" />
    <glyph glyph-name="uni03A9" unicode="&#x3a9;" horiz-adv-x="1296" 
d="M88 217h172l143 -24v47l-79 22q-96 57 -165 197.5t-69 326.5q0 339 151 507.5t409 168.5t407 -174.5t149 -479.5t-92 -410t-137 -134l-84 -24v-47l143 24h172v-217h-512v385q92 22 166 132.5t74 285.5q0 296 -104.5 362t-184.5 66q-137 0 -212 -105.5t-75 -304.5
t71.5 -308.5t166.5 -127.5v-385h-510v217z" />
    <glyph glyph-name="uni03A9" unicode="&#x2126;" horiz-adv-x="1296" 
d="M88 217h172l143 -24v47l-79 22q-96 57 -165 197.5t-69 326.5q0 339 151 507.5t409 168.5t407 -174.5t149 -479.5t-92 -410t-137 -134l-84 -24v-47l143 24h172v-217h-512v385q92 22 166 132.5t74 285.5q0 296 -104.5 362t-184.5 66q-137 0 -212 -105.5t-75 -304.5
t71.5 -308.5t166.5 -127.5v-385h-510v217z" />
    <glyph glyph-name="pi" unicode="&#x3c0;" horiz-adv-x="1183" 
d="M287 1024h825v-217h-139v-496q0 -106 53 -106q23 0 74 12l37 -180q-113 -49 -222 -49q-108 0 -147 61.5t-39 167.5v590h-213v-807h-244v807h-22q-68 0 -103 -76l-124 121q70 172 264 172z" />
    <glyph glyph-name="afii10023" unicode="&#x401;" horiz-adv-x="880" 
d="M92 1434h717v-238h-459v-352h416v-238h-416v-368h467v-238h-725v1434zM496 1636q0 118 138 117q138 0 138 -118t-138 -118q-138 1 -138 119zM123 1636q0 118 141 117q72 0 104 -33t31 -86q0 -118 -138 -117t-138 119z" />
    <glyph glyph-name="afii10051" unicode="&#x402;" horiz-adv-x="1259" 
d="M733 698q-55 0 -121 -41v-657h-258v1196h-338v238h934v-238h-338v-307q97 47 236 47q244 0 297 -162t53 -290q0 -253 -92 -375.5t-311 -122.5q-84 0 -107 8v225q28 -4 96 -4q144 0 144 246q0 196 -70 216.5t-125 20.5z" />
    <glyph glyph-name="afii10052" unicode="&#x403;" horiz-adv-x="780" 
d="M795 1196h-445v-1196h-258v1434h703v-238zM778 1782v-62l-270 -180h-191l168 242h293z" />
    <glyph glyph-name="afii10053" unicode="&#x404;" horiz-adv-x="972" 
d="M913 57q-101 -86 -361 -86q-77 0 -172 38t-208 176t-113 535t151 569.5t382 172.5q186 0 305 -53l-51 -227q-84 43 -215 43q-264 0 -299 -381h456v-213h-458q19 -301 128 -361.5t205 -60.5t199 65z" />
    <glyph glyph-name="afii10054" unicode="&#x405;" horiz-adv-x="899" 
d="M594 369q0 65 -39 111q-57 66 -224 171q-265 165 -263 426q0 197 113 292t316 94q202 -1 326 -77l-80 -227q-35 25 -103 45t-148 20t-123 -32q-43 -33 -43 -93q0 -61 39 -105t97 -85t127 -85t127 -102t97 -137t39 -188q0 -211 -120 -318q-120 -108 -324 -108
q-126 0 -222 25t-147 55l84 232q41 -25 113 -50t153 -24q205 0 205 160z" />
    <glyph glyph-name="afii10055" unicode="&#x406;" horiz-adv-x="487" 
d="M115 1434h258v-1434h-258v1434z" />
    <glyph glyph-name="afii10056" unicode="&#x407;" horiz-adv-x="501" 
d="M121 1434h258v-1434h-258v1434zM270 1624q0 129 108 129t108 -129t-108 -129t-108 129zM124.5 1495q-108.5 0 -108.5 129t108.5 129t108.5 -129t-108.5 -129z" />
    <glyph glyph-name="afii10057" unicode="&#x408;" horiz-adv-x="591" 
d="M231 1434h258v-1043q0 -303 -157 -386q-57 -30 -162 -30t-205 48l60 217q43 -27 107 -27t82 60q17 60 17 173v988z" />
    <glyph glyph-name="afii10058" unicode="&#x409;" horiz-adv-x="1587" 
d="M1280 465q0 194 -82 213.5t-140 19.5t-93 -18v-451q36 -12 119 -12t139.5 55.5t56.5 192.5zM1550 477q0 -497 -471 -497q-234 0 -372 32v1184h-218q-14 -389 -43.5 -701t-117 -399.5t-138.5 -98.5t-104 -11t-111 28l29 234q37 -14 74 -1t61 66q74 133 88.5 502t18.5 619
h719v-516q108 18 178 18q407 0 407 -459z" />
    <glyph glyph-name="afii10059" unicode="&#x40a;" horiz-adv-x="1619" 
d="M1122 217q84 0 138.5 52.5t54.5 179.5q0 173 -80 193t-135 20t-101 -17v-418q39 -10 123 -10zM1585 461q0 -481 -477 -481q-233 0 -367 26v625h-391v-631h-258v1434h258v-566h391v566h258v-551q64 16 155 16q202 0 316.5 -94t114.5 -344z" />
    <glyph glyph-name="afii10060" unicode="&#x40b;" horiz-adv-x="1292" 
d="M807 674q-127 0 -195 -68v-606h-258v1196h-338v238h934v-238h-338v-373q122 82 293 82q320 0 320 -395v-510h-258v432q0 127 -37 184.5t-123 57.5z" />
    <glyph glyph-name="afii10061" unicode="&#x40c;" horiz-adv-x="1062" 
d="M350 614v-614h-258v1434h258v-637l51 24l301 613h291l-327 -605l-97 -75l99 -78l379 -676h-316l-325 614h-56zM831 1782v-62l-270 -180h-190l168 242h292z" />
    <glyph glyph-name="afii10062" unicode="&#x40e;" horiz-adv-x="972" 
d="M219 252q44 -25 98 -29q76 0 105 156l-442 1055h305l219 -625l31 -191h10l26 197l162 619h266l-319 -992q-79 -249 -129 -325q-51 -76 -99 -104q-48 -27 -110 -27t-103 10q-40 10 -83 39zM524 1665q102 0 115 123l209 -31q-16 -133 -100 -192t-226 -60q-318 0 -346 248
l234 37q12 -125 114 -125z" />
    <glyph glyph-name="afii10145" unicode="&#x40f;" horiz-adv-x="1073" 
d="M92 0v1434h258v-1196h373v1196h258v-1434h-334l-24 -358h-168l-33 358h-330z" />
    <glyph glyph-name="afii10017" unicode="&#x410;" horiz-adv-x="1026" 
d="M389 537h238l-82 333l-33 226h-8l-35 -228zM672 324h-338l-84 -324h-256l416 1444h202l418 -1444h-270z" />
    <glyph glyph-name="afii10018" unicode="&#x411;" horiz-adv-x="974" 
d="M476 209q81 0 133.5 53t52.5 180q0 195 -82 213.5t-138 18.5t-92 -15v-440q45 -10 126 -10zM453 -20q-236 0 -361 32v1422h752v-238h-494v-311q92 18 174 18q188 0 298 -104t110 -336q0 -483 -479 -483z" />
    <glyph glyph-name="afii10019" unicode="&#x412;" horiz-adv-x="1003" 
d="M653 1042q0 189 -184 189q-84 0 -119 -8v-398h60q60 0 100 11q59 24 101 74t42 132zM474 203q92 0 147 55q55 54 55 142t-18 128q-36 78 -120 88q-40 6 -83 7h-105v-408q32 -12 124 -12zM705 752q241 -59 241 -363q0 -97 -38 -177t-102 -132q-129 -102 -333 -100h-74
q-187 0 -307 30v1413q176 31 315 31q140 0 223 -14t145 -54q136 -87 136 -278q0 -192 -111 -291q-40 -35 -95 -53v-12z" />
    <glyph glyph-name="afii10020" unicode="&#x413;" horiz-adv-x="780" 
d="M795 1196h-445v-1196h-258v1434h703v-238z" />
    <glyph glyph-name="afii10021" unicode="&#x414;" horiz-adv-x="1179" 
d="M745 238v958h-227q-10 -362 -48 -608t-77 -350h352zM1151 -256h-182l-25 256h-737l-25 -256h-182v494h125q45 87 99 376t50 820h730v-1196h147v-494z" />
    <glyph glyph-name="afii10022" unicode="&#x415;" horiz-adv-x="880" 
d="M92 1434h717v-238h-459v-352h416v-238h-416v-368h467v-238h-725v1434z" />
    <glyph glyph-name="afii10024" unicode="&#x416;" horiz-adv-x="1435" 
d="M588 1434h243v-641l60 28l215 613h289l-256 -631l-82 -68l100 -84l289 -651h-311l-240 625h-64v-625h-243v649l-58 -28l-241 -621h-299l286 631l95 78l-92 73l-267 652h299l213 -617h64v617z" />
    <glyph glyph-name="afii10025" unicode="&#x417;" horiz-adv-x="890" 
d="M414 1458q388 0 387 -358q0 -104 -44 -194.5t-143 -133.5v-12q224 -61 224 -348q0 -222 -132 -331.5t-347 -109.5q-214 0 -334 72l67 229q107 -63 268 -63q84 0 145.5 54.5t61.5 162.5t-56 158.5t-198 54.5l-65 2h-47v209h49q111 0 156 15q46 15 85 60t39 131
q0 164 -182 165q-125 0 -225 -66l-66 223q134 80 357 80z" />
    <glyph glyph-name="afii10026" unicode="&#x418;" horiz-adv-x="1120" 
d="M92 0v1434h258v-750l-22 -209h10l82 223l407 736h201v-1434h-258v764l21 203h-11l-78 -217l-407 -750h-203z" />
    <glyph glyph-name="afii10027" unicode="&#x419;" horiz-adv-x="1120" 
d="M92 0v1434h258v-750l-22 -209h10l82 223l407 736h201v-1434h-258v764l21 203h-11l-78 -217l-407 -750h-203zM590 1665q102 0 115 123l208 -31q-16 -133 -100 -192t-225 -60q-318 0 -346 248l233 37q13 -125 115 -125z" />
    <glyph glyph-name="afii10028" unicode="&#x41a;" horiz-adv-x="1062" 
d="M350 614v-614h-258v1434h258v-637l51 24l301 613h291l-327 -605l-97 -75l99 -78l379 -676h-316l-325 614h-56z" />
    <glyph glyph-name="afii10029" unicode="&#x41b;" horiz-adv-x="1058" 
d="M707 1196h-218q-14 -389 -43.5 -701t-117 -399.5t-138.5 -98.5t-104 -11t-111 28l29 234q37 -14 74 -1t61 66q74 133 88.5 502t18.5 619h719v-1434h-258v1196z" />
    <glyph glyph-name="afii10030" unicode="&#x41c;" horiz-adv-x="1359" 
d="M336 0h-244v1434h248l299 -621l49 -178h8l47 182l281 617h244v-1434h-258v739l28 275h-10l-76 -246l-233 -504h-86l-248 506l-76 248h-12l39 -277v-741z" />
    <glyph glyph-name="afii10031" unicode="&#x41d;" horiz-adv-x="1091" 
d="M741 606h-391v-606h-258v1434h258v-590h391v590h258v-1434h-258v606z" />
    <glyph glyph-name="afii10032" unicode="&#x41e;" horiz-adv-x="1132" 
d="M330 717q0 -360 126 -469q44 -39 109 -39q119 0 178 121t60 387q0 357 -125 468q-45 40 -113 40q-235 0 -235 -508zM59 717q0 745 506 745q384 0 478 -437q30 -138 30 -308q0 -365 -128 -555t-383 -190t-379 195t-124 550z" />
    <glyph glyph-name="afii10033" unicode="&#x41f;" horiz-adv-x="1073" 
d="M723 1196h-373v-1196h-258v1434h889v-1434h-258v1196z" />
    <glyph glyph-name="afii10034" unicode="&#x420;" horiz-adv-x="976" 
d="M442 715q225 0 228 268q0 237 -215 242q-63 0 -105 -11v-489q30 -10 92 -10zM389 1454q135 0 226 -17t163 -69q162 -116 162 -376q0 -261 -139 -394q-121 -113 -318 -113h-26q-80 0 -107 9v-494h-258v1419q162 35 297 35z" />
    <glyph glyph-name="afii10035" unicode="&#x421;" horiz-adv-x="935" 
d="M59 723q0 394 167 585q136 154 366 154q178 0 297 -53l-51 -227q-80 41 -215 43q-293 0 -293 -508q0 -368 169 -471q58 -37 157 -37t198 65l51 -217q-98 -83 -319 -86q-373 0 -486 396q-41 143 -41 356z" />
    <glyph glyph-name="afii10036" unicode="&#x422;" horiz-adv-x="968" 
d="M952 1196h-338v-1196h-258v1196h-340v238h936v-238z" />
    <glyph glyph-name="afii10037" unicode="&#x423;" horiz-adv-x="972" 
d="M341 -14q-62 0 -102 10t-83 39l63 217q44 -25 98 -29q76 0 105 156l-442 1055h305l219 -625l31 -191h10l26 197l162 619h266l-319 -992q-80 -254 -130 -327.5t-98.5 -101t-110.5 -27.5z" />
    <glyph glyph-name="afii10038" unicode="&#x424;" horiz-adv-x="1372" 
d="M494 1087q-88 0 -142.5 -87t-54.5 -269t49 -272t139 -90q60 0 84 8v706q-32 4 -75 4zM893 1087q-63 0 -90 -10v-704q12 -4 17 -4h57q88 0 143 87t55 266q0 365 -182 365zM415 145q-170 0 -273 141.5t-103 429.5t110.5 441.5t299.5 153.5q77 0 108 -11v175h258v-181
q53 17 139 17q175 0 277 -144.5t102 -428.5t-111.5 -438.5t-287.5 -154.5q-72 0 -119 15v-201h-258v197q-61 -11 -142 -11z" />
    <glyph glyph-name="afii10039" unicode="&#x425;" horiz-adv-x="1081" 
d="M362 729l-317 705h311l166 -410l39 -156l37 156l174 410h279l-328 -691l344 -743h-301l-193 440l-43 160l-41 -160l-192 -440h-285z" />
    <glyph glyph-name="afii10040" unicode="&#x426;" horiz-adv-x="1153" 
d="M1126 -256h-182l-26 256h-826v1434h258v-1196h369v1196h258v-1196h149v-494z" />
    <glyph glyph-name="afii10041" unicode="&#x427;" horiz-adv-x="1030" 
d="M395 498q-229 0 -277 136t-48 245v555h258v-471q0 -127 36.5 -181.5t120.5 -54.5q131 0 195 72v635h258v-1434h-258v578q-113 -80 -285 -80z" />
    <glyph glyph-name="afii10042" unicode="&#x428;" horiz-adv-x="1445" 
d="M92 0v1434h258v-1196h244v1196h258v-1196h244v1196h258v-1434h-1262z" />
    <glyph glyph-name="afii10043" unicode="&#x429;" horiz-adv-x="1540" 
d="M92 0v1434h258v-1196h246v1196h258v-1196h246v1196h258v-1196h155v-494h-182l-26 256h-1213z" />
    <glyph glyph-name="afii10044" unicode="&#x42a;" horiz-adv-x="1138" 
d="M634 217q84 0 142 54.5t58 193.5q0 193 -83 213t-140 20t-93 -18v-451q32 -12 116 -12zM1104 481q0 -501 -473 -501q-233 0 -371 32v1184h-268v238h526v-516q69 18 160 18q196 0 311 -101.5t115 -353.5z" />
    <glyph glyph-name="afii10045" unicode="&#x42b;" horiz-adv-x="1368" 
d="M458 217q76 0 127.5 56.5t51.5 193.5q0 194 -75.5 212.5t-125.5 18.5t-86 -18v-451q32 -12 108 -12zM424 -20q-201 0 -332 32v1422h258v-514q72 16 152 16q187 0 296 -100.5t109 -354.5t-114.5 -377.5t-368.5 -123.5zM1018 1434h258v-1434h-258v1434z" />
    <glyph glyph-name="afii10046" unicode="&#x42c;" horiz-adv-x="972" 
d="M666 465q0 194 -82 213.5t-140 19.5t-94 -18v-451q36 -12 119 -12q84 0 140.5 55.5t56.5 192.5zM936 482q0 -502 -472 -502q-234 0 -372 32v1422h258v-516q108 18 179 18q179 0 293 -101.5t114 -352.5z" />
    <glyph glyph-name="afii10047" unicode="&#x42d;" horiz-adv-x="976" 
d="M373 1462q545 0 545 -746t-572 -745q-100 0 -185 20.5t-132 45.5l67 229q117 -57 256 -57t213 99.5t84 312.5h-434v213h432q-13 279 -114 335t-175 56q-151 0 -268 -72l-59 223q66 39 160 62.5t182 23.5z" />
    <glyph glyph-name="afii10048" unicode="&#x42e;" horiz-adv-x="1521" 
d="M754 717q0 -368 77.5 -438t141.5 -70q119 0 169 120t50 376t-48 388t-168 132t-171 -124t-51 -384zM1462 716q0 -746 -489 -745q-442 0 -477 635h-146v-606h-258v1434h258v-590h146q34 618 479 618q487 0 487 -746z" />
    <glyph glyph-name="afii10049" unicode="&#x42f;" horiz-adv-x="995" 
d="M563 1217q-198 0 -198 -236q0 -129 56 -185.5t146 -56.5h78v467q-33 11 -82 11zM630 1454q138 0 273 -35v-1419h-258v571l-110 -39l-228 -532h-297l234 487l102 82q-109 31 -180.5 135t-71.5 262t37 246t104.5 141.5t162 77t232.5 23.5z" />
    <glyph glyph-name="afii10065" unicode="&#x430;" horiz-adv-x="845" 
d="M287 324q0 -129 96 -129q55 -1 90 27t51 61v170q-164 21 -218 -59q-19 -28 -19 -70zM764 698q0 -96 -5 -189q-20 -367 23 -511h-198l-39 125h-8q-77 -137 -242 -137q-121 0 -191 81t-69 216q0 184 131 262t354 65q10 119 -15 172q-26 53 -110 54q-139 0 -243 -56l-62 183
q137 83 363 81q175 0 243 -90t68 -256z" />
    <glyph glyph-name="afii10066" unicode="&#x431;" horiz-adv-x="911" 
d="M465 788q-162 0 -162 -300t152 -300q82 0 117.5 74t35.5 226t-32.5 226t-110.5 74zM524 1006q152 0 244 -112t92 -379t-103.5 -405.5t-295.5 -138.5q-308 0 -359 239t-51 413t17.5 299t62 244.5t141 173t223.5 68.5q128 15 195.5 30.5t97.5 50.5l5 -229q-54 -57 -246 -73
q-84 -7 -132 -24.5t-99 -74.5t-70 -248h6q89 166 272 166z" />
    <glyph glyph-name="afii10067" unicode="&#x432;" horiz-adv-x="856" 
d="M539 723q-1 111 -113 111q-60 0 -100 -5v-223h100q49 0 81 31t32 86zM426 190q136 0 135 132q0 122 -135 122h-100v-247q35 -7 100 -7zM427 1038q186 0 265.5 -63.5t79.5 -192.5q0 -74 -35 -140.5t-106 -96.5v-8q174 -47 174 -246q0 -154 -98.5 -229.5t-301.5 -75.5
t-317 16v1020q153 16 339 16z" />
    <glyph glyph-name="afii10068" unicode="&#x433;" horiz-adv-x="632" 
d="M643 801h-311v-801h-244v1024h555v-223z" />
    <glyph glyph-name="afii10069" unicode="&#x434;" horiz-adv-x="974" 
d="M588 211v596h-156q-15 -279 -44.5 -415t-49.5 -181h250zM954 -233h-180l-26 233h-547l-27 -233h-178v456h98q73 139 97 375t24 426h616v-801h123v-456z" />
    <glyph glyph-name="afii10070" unicode="&#x435;" horiz-adv-x="876" 
d="M582 606q12 238 -121 238q-149 0 -162 -238h283zM809 663q0 -105 -21 -219h-497q4 -126 53 -194t158 -68q66 0 120 20t83 44l75 -170q-51 -45 -139 -74t-184 -29q-406 0 -406 539q0 276 110 408t304 133q233 0 314 -208q30 -77 30 -182z" />
    <glyph glyph-name="afii10072" unicode="&#x436;" horiz-adv-x="1191" 
d="M475 608v416h232v-436l61 28l137 408h258l-170 -416l-67 -65l86 -82l188 -461h-276l-150 424h-67v-424h-232v444l-63 -28l-150 -416h-270l205 469l59 61l-86 78l-160 416h258l138 -416h69z" />
    <glyph glyph-name="afii10073" unicode="&#x437;" horiz-adv-x="724" 
d="M510 541q164 -48 164 -233q0 -158 -93.5 -243t-268.5 -85t-283 67l49 199q83 -49 203 -49q150 0 149 120q0 51 -38 80t-140 29h-78v182h98q55 0 90 33t35 80q0 102 -127 102q-106 0 -184 -51l-55 195q53 31 139 52t178 21q293 0 293 -254q0 -76 -33 -142t-98 -95v-8z" />
    <glyph glyph-name="afii10074" unicode="&#x438;" horiz-adv-x="921" 
d="M88 0v1024h244v-465l-19 -160h6l74 170l277 455h164v-1024h-244v446l18 166h-6l-76 -174l-274 -438h-164z" />
    <glyph glyph-name="afii10075" unicode="&#x439;" horiz-adv-x="921" 
d="M88 0v1024h244v-465l-19 -160h6l74 170l277 455h164v-1024h-244v446l18 166h-6l-76 -174l-274 -438h-164zM475 1126q-186 0 -265 144q-28 51 -36 127l207 45q11 -148 100 -148q86 0 105 146l184 -45q-24 -139 -104 -204t-191 -65z" />
    <glyph glyph-name="afii10076" unicode="&#x43a;" horiz-adv-x="837" 
d="M332 424v-424h-244v1024h244v-436l49 28l172 408h262l-186 -393l-90 -80l98 -80l207 -471h-275l-182 424h-55z" />
    <glyph glyph-name="afii10077" unicode="&#x43b;" horiz-adv-x="886" 
d="M555 801h-147q-19 -413 -59 -552.5t-92 -200t-145 -60.5t-143 30l29 213q49 -16 83 2.5t66.5 137.5t45.5 653h606v-1024h-244v801z" />
    <glyph glyph-name="afii10078" unicode="&#x43c;" horiz-adv-x="1136" 
d="M305 0h-217v1024h256l186 -377l41 -137h9l43 141l172 373h254v-1024h-232v471l14 211h-10l-61 -190l-150 -308h-92l-164 308l-63 190h-12l26 -211v-471z" />
    <glyph glyph-name="afii10079" unicode="&#x43d;" horiz-adv-x="909" 
d="M578 408h-246v-408h-244v1024h244v-393h246v393h243v-1024h-243v408z" />
    <glyph glyph-name="afii10080" unicode="&#x43e;" horiz-adv-x="911" 
d="M303 512q0 -322 150 -322q79 0 117 73t38 240t-35 249t-118 82q-152 0 -152 -322zM455 1051q405 0 405 -539q0 -274 -106 -406t-299 -133q-404 0 -404 539q1 272 107 406t297 133z" />
    <glyph glyph-name="afii10081" unicode="&#x43f;" horiz-adv-x="901" 
d="M569 801h-237v-801h-244v1024h725v-1024h-244v801z" />
    <glyph glyph-name="afii10082" unicode="&#x440;" horiz-adv-x="915" 
d="M612 545q0 145 -32 216q-33 71 -109 70q-102 0 -139 -120v-482q39 -39 117 -40q163 -2 163 356zM332 -410h-244v1434h182l25 -117h6q47 74 105 108t145 34q157 0 235 -118t78 -392q0 -275 -98 -421t-285 -147q-91 0 -149 35v-416z" />
    <glyph glyph-name="afii10083" unicode="&#x441;" horiz-adv-x="716" 
d="M471 827q-168 0 -168 -315q0 -139 44 -227t134 -88t160 47l51 -189q-99 -80 -281 -81q-355 -2 -360 538q0 537 379 539q150 0 254 -58l-57 -202q-74 36 -156 36z" />
    <glyph glyph-name="afii10084" unicode="&#x442;" horiz-adv-x="704" 
d="M702 801h-223v-801h-243v801h-234v223h700v-223z" />
    <glyph glyph-name="afii10085" unicode="&#x443;" horiz-adv-x="819" 
d="M453 -281q-72 -139 -178 -139q-107 0 -158 31l41 209q100 -37 147 71q18 41 31 109l-356 1024h292l144 -575l26 -160h11l18 162l119 573h250l-256 -924q-82 -282 -131 -381z" />
    <glyph glyph-name="afii10086" unicode="&#x444;" horiz-adv-x="1198" 
d="M426 176q21 0 61 10v645q-117 35 -158.5 -50t-41.5 -264t33.5 -260t105.5 -81zM774 840q-29 0 -65 -11v-647q25 -6 61 -6q140 0 141 300q0 142 -8 201.5t-26.5 95.5t-46 51.5t-56.5 15.5zM43 512q0 268 90 400t262 132q46 0 82 -8v398h244v-400q52 10 117 10
q317 0 317 -510q0 -270 -88 -416.5t-254 -146.5q-65 0 -92 15v-396h-244v398q-41 -17 -117 -17q-317 0 -317 541z" />
    <glyph glyph-name="afii10087" unicode="&#x445;" horiz-adv-x="899" 
d="M272 524l-243 500h286l105 -242l39 -131l43 131l106 242h264l-245 -492l262 -532h-277l-125 266l-45 146l-47 -146l-125 -266h-262z" />
    <glyph glyph-name="afii10088" unicode="&#x446;" horiz-adv-x="950" 
d="M930 -233h-178l-27 233h-637v1024h244v-801h231v801h244v-801h123v-456z" />
    <glyph glyph-name="afii10089" unicode="&#x447;" horiz-adv-x="858" 
d="M526 397q-86 -69 -216 -69t-195.5 75t-65.5 256v365h244v-274q0 -109 19.5 -157t91.5 -48t122 43v436h244v-1024h-244v397z" />
    <glyph glyph-name="afii10090" unicode="&#x448;" horiz-adv-x="1284" 
d="M88 0v1024h244v-801h188v801h244v-801h188v801h244v-1024h-1108z" />
    <glyph glyph-name="afii10091" unicode="&#x449;" horiz-adv-x="1337" 
d="M1317 -266h-180l-25 266h-1024v1024h244v-801h188v801h244v-801h188v801h244v-801h121v-489z" />
    <glyph glyph-name="afii10092" unicode="&#x44a;" horiz-adv-x="929" 
d="M578 674q162 0 240.5 -84.5t78.5 -254.5t-95.5 -259.5t-326.5 -89.5q-163 0 -301 14v801h-184v223h428v-365q77 15 160 15zM520 203q124 0 125 143q0 143 -135 143q-49 0 -92 -12v-262q42 -12 102 -12z" />
    <glyph glyph-name="afii10093" unicode="&#x44b;" horiz-adv-x="1210" 
d="M881 1024h243v-1024h-243v1024zM494 674q299 0 299 -318q0 -191 -92.5 -280.5t-285.5 -89.5q-194 0 -327 14v1024h244v-365q77 15 162 15zM430 203q110 0 111 143q0 143 -110 143q-56 0 -99 -12v-262q42 -12 98 -12z" />
    <glyph glyph-name="afii10094" unicode="&#x44c;" horiz-adv-x="841" 
d="M494 674q164 0 239.5 -85t75.5 -254q0 -168 -92.5 -258.5t-294.5 -90.5q-201 0 -334 14v1024h244v-365q76 15 162 15zM434 203q122 0 123 143q-1 143 -123 143q-62 0 -102 -14v-260q42 -12 102 -12z" />
    <glyph glyph-name="afii10095" unicode="&#x44d;" horiz-adv-x="772" 
d="M340 1053q381 0 381 -407.5t-105.5 -540t-294.5 -132.5t-290 60l57 203q84 -46 188 -46t146.5 56.5t46.5 179.5h-295v184h295q-6 111 -46 168.5t-143 57.5t-180 -50l-65 185q111 82 305 82z" />
    <glyph glyph-name="afii10096" unicode="&#x44e;" horiz-adv-x="1251" 
d="M680 522q0 -168 30.5 -248.5t104.5 -80.5t103.5 66.5t29.5 243.5t-28.5 252.5t-101.5 75.5t-105.5 -70.5t-32.5 -238.5zM823 1049q377 0 377 -537t-381 -537q-190 0 -273 115t-97 328h-117v-418h-244v1024h244v-389h119q18 205 105 309.5t267 104.5z" />
    <glyph glyph-name="afii10097" unicode="&#x44f;" horiz-adv-x="862" 
d="M537 524v295q-31 14 -76 15q-143 0 -144 -158q0 -152 162 -156zM780 0h-243v387l-93 -25l-145 -362h-285l156 330l80 65q-82 20 -133 98t-51 197q0 186 102 274.5t326 86.5q163 0 286 -29v-1022z" />
    <glyph glyph-name="afii10071" unicode="&#x451;" horiz-adv-x="876" 
d="M582 606q12 238 -121 238q-149 0 -162 -238h283zM809 663q0 -105 -21 -219h-497q4 -126 53 -194t158 -68q66 0 120 20t83 44l75 -170q-51 -45 -139 -74t-184 -29q-406 0 -406 539q0 276 110 408t304 133q233 0 314 -208q30 -77 30 -182zM512 1296q0 64 35 101t94 37
t94 -37t35 -101t-35 -99q-35 -36 -94 -36t-94 36q-35 35 -35 99zM131 1296q0 64 36 101t94 37t93 -37t35 -101t-35 -99q-35 -36 -93 -36t-94 36q-36 35 -36 99z" />
    <glyph glyph-name="afii10099" unicode="&#x452;" horiz-adv-x="935" 
d="M588 -422q-61 0 -119 14v209q88 -8 115.5 46.5t27.5 158.5v307q0 113 -25.5 157t-82.5 44t-98 -31.5t-58 -83.5v-399h-244v862h-120v162h120v410h244v-410h273v-162h-273v-254h8q81 129 248 129q128 0 190 -82.5t62 -279.5v-438q0 -172 -63.5 -265.5t-204.5 -93.5z" />
    <glyph glyph-name="afii10100" unicode="&#x453;" horiz-adv-x="632" 
d="M643 801h-311v-801h-244v1024h555v-223zM596 1475v-62l-193 -254h-137l86 316h244z" />
    <glyph glyph-name="afii10101" unicode="&#x454;" horiz-adv-x="759" 
d="M729 51q-97 -76 -291 -76q-185 0 -284 142.5t-99 398.5t109.5 394.5t284.5 138.5t272 -54l-59 -207q-72 37 -153 37q-168 0 -200 -219h309v-176h-311q12 -104 62.5 -167.5t144.5 -63.5t164 45z" />
    <glyph glyph-name="afii10102" unicode="&#x455;" horiz-adv-x="716" 
d="M432 272q0 70 -98 128q-43 26 -91 53q-190 107 -190 298q0 144 78 222t247 78t279 -68l-57 -188q-110 45 -207 46q-96 1 -96 -83q0 -39 32 -69t118 -77q87 -47 131 -87q98 -91 98 -235t-86 -230t-256 -87q-84 1 -165 21t-130 53l67 197q103 -60 215 -61q111 -1 111 89z
" />
    <glyph glyph-name="afii10103" unicode="&#x456;" horiz-adv-x="460" 
d="M109 1024h243v-1024h-243v1024zM78 1313q0 61 39 101t111 40t114 -39q43 -39 43 -102t-43 -101t-115 -36q-73 0 -111 38t-38 99z" />
    <glyph glyph-name="afii10104" unicode="&#x457;" horiz-adv-x="561" 
d="M154 1024h243v-1024h-243v1024zM416 1427q114 0 114 -139q0 -59 -27.5 -97t-87.5 -38q-114 0 -114 137q1 137 115 137zM33 1288q0 139 113.5 139t113.5 -137t-86 -137t-113.5 38t-27.5 97z" />
    <glyph glyph-name="afii10105" unicode="&#x458;" horiz-adv-x="460" 
d="M111 1024h243v-1067q0 -186 -64 -285q-65 -98 -206 -98q-57 0 -117 14v217q88 -7 116 51t28 173v995zM78 1313q0 61 39 101t111 40t114 -39q43 -39 43 -102t-43 -101t-115 -36q-73 0 -111 38t-38 99z" />
    <glyph glyph-name="afii10106" unicode="&#x459;" horiz-adv-x="1333" 
d="M1049 346q0 143 -131 143q-53 0 -95 -14v-260q43 -12 103 -12q124 0 123 143zM860 -14q-148 0 -280 14v801h-146q-19 -414 -59.5 -553t-93 -199.5t-145.5 -60.5t-142 30l29 213q49 -16 82.5 2.5t67 141.5t44.5 649h606v-365q77 15 162 15q315 0 315 -318
q0 -189 -68.5 -256t-146 -90.5t-225.5 -23.5z" />
    <glyph glyph-name="afii10107" unicode="&#x45a;" horiz-adv-x="1333" 
d="M989 668q157 0 234 -83t77 -251t-94 -258t-295 -90q-200 0 -333 14v416h-246v-416h-244v1024h244v-385h246v385h243v-369q88 13 168 13zM924 203q126 0 125 139t-125 139q-60 0 -103 -12v-254q43 -12 103 -12z" />
    <glyph glyph-name="afii10108" unicode="&#x45b;" horiz-adv-x="935" 
d="M604 737q129 0 190.5 -84t61.5 -280v-373h-244v317q0 104 -25.5 150.5t-82.5 46.5t-98 -32.5t-58 -86.5v-395h-244v862h-120v162h120v410h244v-410h273v-162h-273v-250h8q84 125 248 125z" />
    <glyph glyph-name="afii10109" unicode="&#x45c;" horiz-adv-x="837" 
d="M332 424v-424h-244v1024h244v-436l49 28l172 408h262l-186 -393l-90 -80l98 -80l207 -471h-275l-182 424h-55zM655 1475v-62l-192 -254h-137l86 316h243z" />
    <glyph glyph-name="afii10110" unicode="&#x45e;" horiz-adv-x="819" 
d="M453 -281q-72 -139 -178 -139q-107 0 -158 31l41 209q100 -37 147 71q18 41 31 109l-356 1024h292l144 -575l26 -160h11l18 162l119 573h250l-256 -924q-82 -282 -131 -381zM428 1126q-189 0 -265 144q-28 51 -36 127l207 45q11 -148 100 -148q86 0 105 146l184 -45
q-23 -139 -103 -204t-192 -65z" />
    <glyph glyph-name="afii10193" unicode="&#x45f;" horiz-adv-x="897" 
d="M88 0v1024h244v-801h235v801h244v-1024h-250l-24 -358h-168l-33 358h-248z" />
    <glyph glyph-name="afii10146" unicode="&#x462;" horiz-adv-x="1116" 
d="M809 465q0 192 -82 211.5t-139 19.5t-94 -16v-451q36 -12 118 -12t139.5 55.5t57.5 192.5zM494 903q68 17 156 17q198 0 313.5 -97.5t115.5 -347.5q0 -495 -471 -495q-234 0 -372 32v1086h-236v223h236v164h258v-164h333v-223h-333v-195z" />
    <glyph glyph-name="afii10194" unicode="&#x463;" horiz-adv-x="929" 
d="M512 487q-51 0 -94 -12v-260q42 -12 102 -12q124 0 125 142q0 142 -133 142zM174 838h-184v186h184v410h244v-410h270v-186h-270v-179q77 15 162 15q164 0 240.5 -86.5t76.5 -231.5q0 -191 -95.5 -280.5t-348.5 -89.5q-141 0 -279 14v838z" />
    <glyph glyph-name="afii10147" unicode="&#x472;" horiz-adv-x="1130" 
d="M801 829q-28 396 -237 396q-210 0 -234 -396h471zM330 612q27 -403 235 -403q219 0 238 403h-473zM565 1462q506 0 506 -750q0 -360 -127 -550.5t-382 -190.5t-379 195t-124 551q0 745 506 745z" />
    <glyph glyph-name="afii10195" unicode="&#x473;" horiz-adv-x="911" 
d="M454.5 188q59.5 0 102.5 50.5t51 187.5h-305q6 -125 49 -181.5t102.5 -56.5zM608 592q-18 244 -149 244q-61 0 -104.5 -52.5t-51.5 -191.5h305zM156.5 914.5q105.5 138.5 301.5 138.5t299 -142.5t103 -403.5t-106.5 -398.5t-302.5 -137.5t-298 142.5t-102 402.5
t105.5 398.5z" />
    <glyph glyph-name="afii10148" unicode="&#x474;" horiz-adv-x="1081" 
d="M787.5 1371q65.5 81 180.5 81t199 -45l-53 -229q-47 26 -91 26t-68.5 -43t-45.5 -121l-301 -1050h-196l-437 1444h304l213 -842l28 -246h8l27 248l113 469q54 227 119.5 308z" />
    <glyph glyph-name="afii10196" unicode="&#x475;" horiz-adv-x="892" 
d="M834 811q-58 0 -105 -137l-225 -684h-156l-366 1034h284l140 -522l26 -172h8l21 174l37 145q53 223 110.5 308t156.5 85t161 -34l-35 -211q-33 14 -57 14z" />
    <glyph glyph-name="uni048A" unicode="&#x48a;" horiz-adv-x="1206" 
d="M567.5 1665q102.5 0 114.5 123l209 -31q-16 -133 -100 -192.5t-226 -59.5q-318 0 -346 248l234 37q12 -125 114.5 -125zM92 0v1434h258v-750l-22 -209h10l82 223l407 736h201v-1211h189v-63l-164 -426h-181l76 266h-178v764l21 203h-11l-78 -217l-407 -750h-203z" />
    <glyph glyph-name="uni048B" unicode="&#x48b;" horiz-adv-x="1005" 
d="M479 1126q-186 0 -239.5 97.5t-61.5 173.5l207 45q11 -148 100 -148q86 0 105 146l184 -45q-23 -139 -103.5 -204t-191.5 -65zM88 0v1024h244v-465l-19 -160h6l74 170l277 455h164v-801h176v-63l-164 -426h-180l75 266h-151v446l18 166h-6l-76 -174l-274 -438h-164z" />
    <glyph glyph-name="uni048C" unicode="&#x48c;" horiz-adv-x="1038" 
d="M531 217q83 0 141.5 55.5t58.5 194.5q0 193 -82.5 215.5t-138.5 22.5t-94 -19v-457q32 -12 115 -12zM1001 475q0 -495 -471 -495q-234 0 -372 32v1241h-158v174h158v170h258v-170h223v-174h-223v-335q60 18 152 18q202 0 317.5 -102.5t115.5 -358.5z" />
    <glyph glyph-name="uni048D" unicode="&#x48d;" horiz-adv-x="929" 
d="M520 203q124 0 125 143q0 143 -133 141q-51 0 -94 -12v-260q42 -12 102 -12zM580 674q317 0 317 -330q0 -179 -92 -265q-101 -93 -352 -93q-141 0 -279 14v838h-184v186h184v410h244v-410h270v-186h-270v-179q76 15 162 15z" />
    <glyph glyph-name="uni048E" unicode="&#x48e;" horiz-adv-x="976" 
d="M670 963q0 150 -61 206t-139 56t-120 -11v-489q30 -10 84 -10q55 0 98 12l-100 147l74 111l123 -180q41 70 41 158zM389 1454q135 0 226.5 -17.5t208 -100.5t116.5 -341t-135 -391l104 -153l-153 -129l-133 182q-72 -19 -154.5 -19t-118.5 9v-494h-258v1419
q162 35 297 35z" />
    <glyph glyph-name="uni048F" unicode="&#x48f;" horiz-adv-x="915" 
d="M612 533q0 157 -32.5 227.5t-108.5 70.5q-102 0 -139 -120v-482q41 -41 94 -41t82 13l-86 110l65 84l91 -110q34 91 34 248zM332 -410h-244v1434h182l25 -117h6q47 74 105.5 108t144.5 34q156 0 234.5 -117.5t78.5 -395.5t-102 -423l80 -107l-146 -133l-96 117
q-53 -18 -131 -18t-137 34v-416z" />
    <glyph glyph-name="afii10050" unicode="&#x490;" horiz-adv-x="780" 
d="M795 1196h-445v-1196h-258v1434h502l35 311h166v-549z" />
    <glyph glyph-name="afii10098" unicode="&#x491;" horiz-adv-x="632" 
d="M643 801h-311v-801h-244v1024h354l35 311h166v-534z" />
    <glyph glyph-name="uni0492" unicode="&#x492;" horiz-adv-x="868" 
d="M866 1196h-444v-410h371v-178h-371v-608h-258v608h-162v178h162v648h702v-238z" />
    <glyph glyph-name="uni0493" unicode="&#x493;" horiz-adv-x="692" 
d="M684 801h-311v-240h274v-162h-274v-399h-244v399h-129v162h129v463h555v-223z" />
    <glyph glyph-name="uni0494" unicode="&#x494;" horiz-adv-x="993" 
d="M514 -29q152 0 152 273q0 127 -12.5 183t-36 89t-56.5 46t-86 13t-125 -38v-537h-258v1434h703v-238h-445v-428q109 45 202 45t158.5 -22.5t145.5 -115t80 -377.5t-92 -421.5t-314 -136.5q-82 0 -104 8v227q12 -4 18 -4h70z" />
    <glyph glyph-name="uni0495" unicode="&#x495;" horiz-adv-x="907" 
d="M458 -209q140 0 140 252q0 187 -28.5 235t-56.5 60t-82 12t-99 -31v-319h-244v1024h549v-223h-305v-271q104 43 188 43t210 -45t126 -442q0 -267 -85.5 -392.5t-297.5 -125.5q-76 0 -106 10v217q20 -4 91 -4z" />
    <glyph glyph-name="uni0496" unicode="&#x496;" horiz-adv-x="1486" 
d="M588 1434h243v-641l60 28l215 613h289l-256 -631l-82 -68l100 -84l182 -413h142v-494h-183l-26 256h-137l-240 625h-64v-625h-243v649l-58 -28l-241 -621h-299l286 631l95 78l-92 73l-267 652h299l213 -617h64v617z" />
    <glyph glyph-name="uni0497" unicode="&#x497;" horiz-adv-x="1253" 
d="M707 424v-424h-232v444l-63 -28l-150 -416h-270l205 469l59 61l-86 78l-160 416h258l138 -416h69v416h232v-436l61 28l137 408h258l-170 -416l-67 -65l86 -82l96 -238h139v-456h-180l-27 233h-116l-150 424h-67z" />
    <glyph glyph-name="uni0498" unicode="&#x498;" horiz-adv-x="890" 
d="M414 1458q388 0 387 -358q0 -104 -44 -194.5t-143 -133.5v-12q224 -61 224 -348q0 -190 -101 -298t-260 -134l-22 -338h-168l-31 335q-151 21 -231 66l67 229q107 -63 268 -63q84 0 145.5 54.5t61.5 162.5t-56 158.5t-198 54.5l-65 2h-47v209h49q111 0 156 15
q46 15 85 60t39 131q0 164 -182 165q-125 0 -225 -66l-66 223q134 80 357 80z" />
    <glyph glyph-name="uni0499" unicode="&#x499;" horiz-adv-x="724" 
d="M281 197q150 0 149 120q0 51 -38 80t-140 29h-78v182h98q55 0 90 33t35 80q0 102 -127 102q-106 0 -184 -51l-55 195q53 31 139 52t178 21q293 0 293 -254q0 -76 -33 -142t-98 -95v-8q86 -25 125 -86.5t39 -166t-56.5 -185t-179.5 -109.5l-24 -352h-168l-33 344
q-114 15 -184 61l49 199q83 -49 203 -49z" />
    <glyph glyph-name="uni049A" unicode="&#x49a;" horiz-adv-x="1093" 
d="M350 614v-614h-258v1434h258v-637l51 24l301 613h291l-327 -605l-97 -75l99 -78l245 -438h170v-494h-182l-24 256h-146l-325 614h-56z" />
    <glyph glyph-name="uni049B" unicode="&#x49b;" horiz-adv-x="901" 
d="M332 424v-424h-244v1024h244v-436l49 28l172 408h262l-186 -393l-90 -80l98 -80l108 -248h144v-456h-180l-27 233h-113l-182 424h-55z" />
    <glyph glyph-name="uni049C" unicode="&#x49c;" horiz-adv-x="1236" 
d="M442 1079h170v-256l39 4l246 607h277l-267 -603l-96 -77l96 -80l314 -674h-297l-267 612h-45v-260h-170v260h-92v-612h-258v1434h258v-635l92 8v272z" />
    <glyph glyph-name="uni049D" unicode="&#x49d;" horiz-adv-x="1005" 
d="M399 842h133v-230l37 4l133 408h256l-147 -395l-92 -78l96 -78l170 -473h-266l-141 424h-46v-242h-133v242h-67v-424h-244v1024h244v-436l67 8v246z" />
    <glyph glyph-name="uni049E" unicode="&#x49e;" horiz-adv-x="1185" 
d="M2 1311h215v123h258v-123h150v-174h-150v-340l90 28l271 609h282l-295 -603l-118 -77l108 -80l356 -674h-313l-303 614h-78v-614h-258v1114h-215v197z" />
    <glyph glyph-name="uni049F" unicode="&#x49f;" horiz-adv-x="858" 
d="M-31 1282h135v152h244v-152h258v-162h-258v-532l49 28l170 408h264l-188 -406l-88 -69l96 -70l209 -479h-274l-180 424h-58v-424h-244v1120h-135v162z" />
    <glyph glyph-name="uni04A0" unicode="&#x4a0;" horiz-adv-x="1236" 
d="M268 1196h-268v238h526v-637l52 24l301 613h290l-327 -605l-97 -75l97 -78l379 -676h-314l-325 614h-56v-614h-258v1196z" />
    <glyph glyph-name="uni04A1" unicode="&#x4a1;" horiz-adv-x="927" 
d="M418 424v-424h-244v801h-184v223h428v-436l51 26l172 410h260l-184 -389l-92 -78l96 -80l209 -477h-275l-180 424h-57z" />
    <glyph glyph-name="uni04A2" unicode="&#x4a2;" horiz-adv-x="1177" 
d="M741 606h-391v-606h-258v1434h258v-590h391v590h258v-1196h150v-494h-182l-25 256h-201v606z" />
    <glyph glyph-name="uni04A3" unicode="&#x4a3;" horiz-adv-x="966" 
d="M578 408h-246v-408h-244v1024h244v-393h246v393h243v-801h131v-456h-180l-27 233h-167v408z" />
    <glyph glyph-name="uni04A4" unicode="&#x4a4;" horiz-adv-x="1427" 
d="M1444 1196h-445v-1196h-258v606h-391v-606h-258v1434h258v-590h391v590h703v-238z" />
    <glyph glyph-name="uni04A5" unicode="&#x4a5;" horiz-adv-x="1118" 
d="M1128 801h-307v-801h-243v408h-246v-408h-244v1024h244v-393h246v393h550v-223z" />
    <glyph glyph-name="uni04A6" unicode="&#x4a6;" horiz-adv-x="1619" 
d="M1182 813q92 0 157.5 -22.5t146.5 -115.5t81 -376t-92 -421t-314 -138q-84 0 -106 8v227q12 -4 19 -4h69q78 0 115.5 75t37.5 198t-12 179t-45 104t-123 48q-35 0 -76 -13t-59 -25v-537h-258v1196h-373v-1196h-258v1434h889v-666q109 45 201 45z" />
    <glyph glyph-name="uni04A7" unicode="&#x4a7;" horiz-adv-x="1386" 
d="M915 350q-52 0 -102 -31v-319h-244v801h-237v-801h-244v1024h725v-492q99 41 185 41q85 0 211 -45.5t126 -435.5q0 -274 -87 -399t-300 -125q-67 0 -102 10v217q24 -4 94 -4q143 0 143 291q0 213 -58 240.5t-110 27.5z" />
    <glyph glyph-name="uni04A8" unicode="&#x4a8;" horiz-adv-x="1519" 
d="M1141 803q0 257 -55.5 304.5t-100.5 47.5q-78 0 -123 -97t-45 -304t59.5 -311.5t100.5 -141.5q70 66 117 201t47 301zM59 726q0 364 133.5 550t411.5 186v-237q-131 0 -202.5 -120t-71.5 -368t94 -388t221 -140q58 0 78 10q-72 63 -124 202.5t-52 330.5q0 319 116.5 480
t329.5 161t315.5 -155.5t102.5 -396.5t-71.5 -405t-155.5 -225q10 -2 13 -2h32q98 0 166 57l80 -207q-88 -88 -258 -88q-70 0 -146 23.5t-123 75.5q-124 -99 -303 -99q-287 0 -436.5 195.5t-149.5 559.5z" />
    <glyph glyph-name="uni04A9" unicode="&#x4a9;" horiz-adv-x="1224" 
d="M903 584q0 223 -96 223q-66 0 -87.5 -69.5t-21.5 -175.5q0 -209 99 -312q49 43 77.5 133t28.5 201zM49 512q0 527 414 541v-217q-86 -8 -124 -86t-38 -231.5t56.5 -241t148.5 -87.5q46 0 63 17q-41 41 -73.5 134t-32.5 195q0 213 83.5 350.5t265.5 137.5t262.5 -117
t80.5 -309q0 -129 -48.5 -245.5t-111.5 -166.5q35 -16 80 -6t74 39l51 -176q-70 -70 -209 -70t-215 84q-98 -84 -274 -84q-221 0 -337 142.5t-116 396.5z" />
    <glyph glyph-name="uni04AA" unicode="&#x4aa;" horiz-adv-x="935" 
d="M654 209q97 0 200 65l51 -217q-70 -59 -211 -77l-22 -338h-168l-31 340q-414 74 -414 754q0 200 85 463t448 263q178 0 297 -53l-51 -227q-84 43 -215 43q-293 0 -293 -508q0 -364 113.5 -436t210.5 -72z" />
    <glyph glyph-name="uni04AB" unicode="&#x4ab;" horiz-adv-x="716" 
d="M481 197q90 0 160 47l51 -189q-61 -49 -149 -67l-23 -346h-168l-33 344q-145 37 -206.5 175.5t-61.5 378.5t96.5 375.5t282.5 135.5q150 0 254 -58l-57 -202q-74 36 -156 36q-168 0 -168 -315q0 -139 44 -227t134 -88z" />
    <glyph glyph-name="uni04AC" unicode="&#x4ac;" horiz-adv-x="968" 
d="M356 1196h-340v238h936v-238h-338v-958h150v-494h-182l-25 256h-201v1196z" />
    <glyph glyph-name="uni04AD" unicode="&#x4ad;" horiz-adv-x="710" 
d="M236 801h-234v223h700v-223h-223v-578h144v-456h-181l-26 233h-180v801z" />
    <glyph glyph-name="uni04AE" unicode="&#x4ae;" horiz-adv-x="1013" 
d="M635 0h-258v532l-385 902h307l199 -543l20 -156h10l23 160l194 539h277l-387 -899v-535z" />
    <glyph glyph-name="uni04AF" unicode="&#x4af;" horiz-adv-x="835" 
d="M551 -410h-244v408l-325 1026h284l142 -594l26 -205h8l21 207l127 592h264l-303 -1026v-408z" />
    <glyph glyph-name="uni04B0" unicode="&#x4b0;" horiz-adv-x="1013" 
d="M115 598h233l-356 836h307l199 -543l20 -156h10l23 160l194 539h277l-360 -836h235v-176h-262v-422h-258v422h-262v176z" />
    <glyph glyph-name="uni04B1" unicode="&#x4b1;" horiz-adv-x="835" 
d="M109 0h196l-323 1024h284l142 -594l26 -205h8l21 207l127 592h264l-303 -1024h194v-162h-194v-248h-244v248h-198v162z" />
    <glyph glyph-name="uni04B2" unicode="&#x4b2;" horiz-adv-x="1142" 
d="M1133 238v-494h-183l-24 256h-160l-193 440l-43 160l-41 -160l-192 -440h-285l350 729l-317 705h311l166 -410l39 -156l37 156l174 410h279l-328 -691l233 -505h177z" />
    <glyph glyph-name="uni04B3" unicode="&#x4b3;" horiz-adv-x="931" 
d="M922 223v-456h-181l-26 233h-103l-125 266l-45 146l-47 -146l-125 -266h-262l264 524l-243 500h286l105 -242l39 -131l43 131l106 242h264l-245 -492l151 -309h144z" />
    <glyph glyph-name="uni04B4" unicode="&#x4b4;" horiz-adv-x="1415" 
d="M1389 -256h-183l-26 256h-826v1196h-338v238h815v-238h-219v-958h369v1196h258v-1196h150v-494z" />
    <glyph glyph-name="uni04B5" unicode="&#x4b5;" horiz-adv-x="1105" 
d="M1083 -233h-180l-24 233h-643v801h-234v223h631v-223h-154v-578h238v801h244v-801h122v-456z" />
    <glyph glyph-name="uni04B6" unicode="&#x4b6;" horiz-adv-x="1116" 
d="M395 498q-229 0 -277 136t-48 245v555h258v-471q0 -127 36.5 -181.5t120.5 -54.5q131 0 195 72v635h258v-1196h149v-494h-182l-24 256h-201v578q-113 -80 -285 -80z" />
    <glyph glyph-name="uni04B7" unicode="&#x4b7;" horiz-adv-x="927" 
d="M526 397q-86 -69 -216 -69t-195.5 75t-65.5 256v365h244v-274q0 -109 19.5 -157t91.5 -48t122 43v436h244v-801h139v-456h-180l-27 233h-176v397z" />
    <glyph glyph-name="uni04B8" unicode="&#x4b8;" horiz-adv-x="1112" 
d="M635 250h-172v250q-14 -2 -17 -2h-34q-158 0 -250 88t-92 295v553h258v-469q0 -115 29.5 -170.5t105.5 -65.5v248h172v-234q80 18 127 54v637h258v-1434h-258v580q-59 -36 -127 -54v-276z" />
    <glyph glyph-name="uni04B9" unicode="&#x4b9;" horiz-adv-x="933" 
d="M368 324h-40q-144 0 -212.5 78t-68.5 274v348h244v-258q0 -104 20.5 -158.5t75.5 -66.5v250h135v-240q55 12 80 37v436h244v-1024h-244v397q-25 -18 -80 -41v-235h-135v205q-16 -2 -19 -2z" />
    <glyph glyph-name="uni04BA" unicode="&#x4ba;" horiz-adv-x="1036" 
d="M643 938q320 0 320 -393v-545h-258v465q0 123 -35 183.5t-123 60.5q-127 0 -197 -70v-639h-258v1434h258v-578q122 82 293 82z" />
    <glyph glyph-name="uni04BB" unicode="&#x4bb;" horiz-adv-x="919" 
d="M338 932q92 119 233 119t204 -82t65 -297v-672h-244v618q0 111 -26 160t-84 49q-58 -1 -99 -35t-55 -87v-705h-244v1434h244v-502h6z" />
    <glyph glyph-name="uni04BC" unicode="&#x4bc;" horiz-adv-x="1366" 
d="M1047 931q0 123 -50.5 215.5t-158.5 92.5q-109 0 -164.5 -110.5t-61.5 -299.5h430q5 57 5 102zM305 606q-311 0 -303 316q2 82 43 147h211q-37 -61 -37 -136t46 -89.5t91 -9.5q12 292 136 460t346 168q456 0 456 -600q0 -119 -18 -256h-662q17 -397 289 -397
q141 0 271 98l65 -223q-163 -113 -387 -113t-354.5 161t-141.5 474h-51z" />
    <glyph glyph-name="uni04BD" unicode="&#x4bd;" horiz-adv-x="1112" 
d="M831 606q12 238 -120 238q-149 0 -162 -238h282zM1059 663q0 -105 -21 -219h-497q4 -127 53 -194.5t158 -67.5q66 0 120 20.5t82 43.5l76 -170q-51 -45 -139 -74t-184 -29q-195 0 -292.5 127t-111.5 344h-16q-289 0 -281 261q0 93 57 169h203q-61 -56 -61 -165
q0 -39 21.5 -68t80.5 -27q23 217 128.5 328t279.5 111q233 0 288.5 -142.5t55.5 -247.5z" />
    <glyph glyph-name="uni04BE" unicode="&#x4be;" horiz-adv-x="1353" 
d="M1047 931q0 123 -50.5 215.5t-158.5 92.5q-109 0 -164.5 -110.5t-61.5 -299.5h430q5 57 5 102zM305 606q-311 0 -303 316q2 82 43 147h211q-37 -61 -37 -136t46 -89.5t91 -9.5q12 292 136 460t346 168q456 0 456 -600q0 -119 -18 -256h-662q17 -397 289 -397
q141 0 271 98l65 -223q-119 -82 -266 -104l-23 -338h-168l-30 340q-184 35 -284.5 192.5t-111.5 431.5h-51z" />
    <glyph glyph-name="uni04BF" unicode="&#x4bf;" horiz-adv-x="1112" 
d="M831 606q12 238 -120 238q-149 0 -162 -238h282zM1059 663q0 -105 -21 -219h-497q4 -127 53 -194.5t158 -67.5q66 0 120 20.5t82 43.5l76 -170q-79 -70 -211 -90l-22 -344h-168l-33 344q-272 68 -293 458h-16q-289 0 -281 261q0 93 57 169h203q-61 -56 -61 -165
q0 -39 21.5 -68t80.5 -27q23 217 128.5 328t279.5 111q233 0 288.5 -142.5t55.5 -247.5z" />
    <glyph glyph-name="uni04C0" unicode="&#x4c0;" horiz-adv-x="487" 
d="M115 1434h258v-1434h-258v1434z" />
    <glyph glyph-name="uni04C3" unicode="&#x4c3;" horiz-adv-x="1048" 
d="M584 -422q-59 0 -107 10v219q123 -10 171 73t48 296t-61.5 325.5t-222.5 112.5h-62v-614h-258v1434h258v-637l51 24l301 613h291l-315 -574l-105 -82h80q164 -51 232.5 -182t68.5 -401v-56q0 -289 -98 -425t-272 -136z" />
    <glyph glyph-name="uni04C4" unicode="&#x4c4;" horiz-adv-x="856" 
d="M805 57q0 -481 -307 -481q-59 0 -119 14v215q92 -16 137 47.5t45 225.5t-42 246t-132 94h-55v-418h-244v1024h244v-444l49 24l172 420h262l-188 -408l-82 -65l67 -6q162 -53 177.5 -215t15.5 -238v-35z" />
    <glyph glyph-name="uni04C5" unicode="&#x4c5;" horiz-adv-x="1120" 
d="M707 1196h-218q-14 -389 -43.5 -701t-117 -399.5t-138.5 -98.5t-104 -11t-111 28l29 234q37 -14 74 -1t61 66q74 133 88.5 502t18.5 619h719v-1211h165v-63l-163 -426h-181l76 266h-155v1196z" />
    <glyph glyph-name="uni04C6" unicode="&#x4c6;" horiz-adv-x="954" 
d="M555 801h-147q-19 -413 -59 -552.5t-92 -200t-145 -60.5t-143 30l29 213q49 -16 83 2.5t66.5 137.5t45.5 653h606v-801h159v-63l-163 -426h-181l76 266h-135v801z" />
    <glyph glyph-name="uni04C7" unicode="&#x4c7;" horiz-adv-x="1091" 
d="M999 1434v-1495q0 -362 -274 -363q-51 0 -113 12v217q81 -8 105 39t24 156v606h-391v-606h-258v1434h258v-590h391v590h258z" />
    <glyph glyph-name="uni04C8" unicode="&#x4c8;" horiz-adv-x="909" 
d="M553 -422q-61 0 -119 14v211q88 -8 116 42.5t28 154.5v408h-246v-408h-244v1024h244v-393h246v393h243v-1087q0 -172 -63.5 -265.5t-204.5 -93.5z" />
    <glyph glyph-name="uni04C9" unicode="&#x4c9;" horiz-adv-x="1161" 
d="M741 606h-391v-606h-258v1434h258v-590h391v590h258v-1211h172v-63l-163 -426h-181l76 266h-162v606z" />
    <glyph glyph-name="uni04CA" unicode="&#x4ca;" horiz-adv-x="987" 
d="M578 408h-246v-408h-244v1024h244v-393h246v393h243v-801h170v-63l-164 -426h-180l76 266h-145v408z" />
    <glyph glyph-name="uni04CB" unicode="&#x4cb;" horiz-adv-x="1030" 
d="M395 498q-229 0 -277 136t-48 245v555h258v-471q0 -127 36.5 -181.5t120.5 -54.5q131 0 195 72v635h258v-1434h-199l-24 -256h-183v494h148v340q-113 -80 -285 -80z" />
    <glyph glyph-name="uni04CC" unicode="&#x4cc;" horiz-adv-x="860" 
d="M320 360q-130 0 -200.5 77t-70.5 261v326h244v-225q0 -117 20.5 -169t93.5 -52t121 38v408h244v-1024h-205l-24 -233h-181v426h166v233q-78 -66 -208 -66z" />
    <glyph glyph-name="uni04CD" unicode="&#x4cd;" horiz-adv-x="1443" 
d="M336 0h-244v1434h248l299 -621l49 -178h8l47 182l281 617h244v-1211h188v-63l-164 -426h-180l76 266h-178v739l28 275h-10l-76 -246l-233 -504h-86l-248 506l-76 248h-12l39 -277v-741z" />
    <glyph glyph-name="uni04CE" unicode="&#x4ce;" horiz-adv-x="1214" 
d="M305 0h-217v1024h256l186 -377l41 -137h9l43 141l172 373h254v-801h170v-63l-164 -426h-181l76 266h-133v471l14 211h-10l-61 -190l-150 -308h-92l-164 308l-63 190h-12l26 -211v-471z" />
    <glyph glyph-name="uni04CF" unicode="&#x4cf;" horiz-adv-x="444" 
d="M100 1434h244v-1434h-244v1434z" />
    <glyph glyph-name="uni04D0" unicode="&#x4d0;" horiz-adv-x="1026" 
d="M389 537h238l-82 333l-33 226h-8l-35 -228zM672 324h-338l-84 -324h-256l416 1444h202l418 -1444h-270zM518 1665q102 0 115 123l209 -31q-16 -133 -100 -192t-226 -60q-318 0 -346 248l233 37q13 -125 115 -125z" />
    <glyph glyph-name="uni04D1" unicode="&#x4d1;" horiz-adv-x="845" 
d="M287 324q0 -129 96 -129q55 -1 90 27t51 61v170q-164 21 -218 -59q-19 -28 -19 -70zM764 698q0 -96 -5 -189q-20 -367 23 -511h-198l-39 125h-8q-77 -137 -242 -137q-121 0 -191 81t-69 216q0 184 131 262t354 65q10 119 -15 172q-26 53 -110 54q-139 0 -243 -56l-62 183
q137 83 363 81q175 0 243 -90t68 -256zM428 1126q-189 0 -265 144q-28 51 -36 127l207 45q11 -148 100 -148q86 0 105 146l184 -45q-23 -139 -103 -204t-192 -65z" />
    <glyph glyph-name="uni04D2" unicode="&#x4d2;" horiz-adv-x="1026" 
d="M389 537h238l-82 333l-33 226h-8l-35 -228zM672 324h-338l-84 -324h-256l416 1444h202l418 -1444h-270zM836 1634q0 -118 -138 -117t-139 117q0 53 32 86q33 33 107 33t106 -33t32 -86zM186 1636q0 118 142 117q72 0 104 -33t31 -86q0 -53 -32 -85t-103 -31
q-142 0 -142 118z" />
    <glyph glyph-name="uni04D3" unicode="&#x4d3;" horiz-adv-x="845" 
d="M287 324q0 -129 96 -129q55 -1 90 27t51 61v170q-164 21 -218 -59q-19 -28 -19 -70zM764 698q0 -96 -5 -189q-20 -367 23 -511h-198l-39 125h-8q-77 -137 -242 -137q-121 0 -191 81t-69 216q0 184 131 262t354 65q10 119 -15 172q-26 53 -110 54q-139 0 -243 -56l-62 183
q137 83 363 81q175 0 243 -90t68 -256zM487 1296q0 64 35 101t94 37q58 0 94 -37t36 -101t-36 -99q-34 -36 -94 -36t-94 36q-35 35 -35 99zM106 1296q0 64 36 101t94 37t94 -37q35 -37 35 -101t-35 -99q-35 -36 -93 -36t-95 36q-36 35 -36 99z" />
    <glyph glyph-name="uni04D4" unicode="&#x4d4;" horiz-adv-x="1468" 
d="M678 354h-295l-162 -354h-270l717 1434h727v-238h-459v-352h416v-238h-416v-368h467v-238h-725v354zM678 567v502h-10l-54 -199l-133 -303h197z" />
    <glyph glyph-name="uni04D5" unicode="&#x4d5;" horiz-adv-x="1337" 
d="M1044 604q12 240 -128 240t-152 -240h280zM1272 658q0 -106 -21 -216h-493q4 -135 51 -197.5t154 -62.5q63 0 117.5 19.5t82.5 42.5l80 -170q-51 -41 -137 -71t-191 -30q-223 0 -317 166h-10q-43 -70 -109.5 -112.5t-184.5 -42.5t-188.5 84t-70.5 198t67 242t416 106
q2 18 2 34v32q0 80 -26.5 115.5t-96.5 35.5q-131 0 -245 -65l-64 184q144 94 356 94q162 0 230 -110q83 119 254 119q237 0 290.5 -144.5t53.5 -250.5zM287 324q0 -123 101 -123q52 0 87 27.5t51 64.5v164q-239 20 -239 -133z" />
    <glyph glyph-name="uni04D6" unicode="&#x4d6;" horiz-adv-x="880" 
d="M92 1434h717v-238h-459v-352h416v-238h-416v-368h467v-238h-725v1434zM462 1665q102 0 116 123l208 -31q-16 -133 -100 -192t-225 -60q-318 0 -346 248l233 37q12 -125 114 -125z" />
    <glyph glyph-name="uni04D7" unicode="&#x4d7;" horiz-adv-x="876" 
d="M582 606q12 238 -121 238q-149 0 -162 -238h283zM809 663q0 -105 -21 -219h-497q4 -126 53 -194t158 -68q66 0 120 20t83 44l75 -170q-51 -45 -139 -74t-184 -29q-406 0 -406 539q0 276 110 408t304 133q233 0 314 -208q30 -77 30 -182zM444 1126q-186 0 -265 144
q-28 51 -36 127l207 45q11 -148 101 -148q85 0 104 146l184 -45q-23 -139 -103 -204t-192 -65z" />
    <glyph glyph-name="uni04D8" unicode="&#x4d8;" horiz-adv-x="1067" 
d="M1006 717q0 -746 -486 -746q-237 0 -349 161t-112 446q0 121 19 256h657q-13 288 -108 339.5t-170 51.5q-124 0 -260 -86l-58 225q158 98 361 98q254 0 380 -180.5t126 -564.5zM324 584v-66q0 -223 72.5 -273t125.5 -50q113 0 163 103t50 318h-407q-4 -25 -4 -32z" />
    <glyph glyph-name="afii10846" unicode="&#x4d9;" horiz-adv-x="860" 
d="M413 182q73 0 113.5 67.5t38.5 186.5h-286q-8 -113 26.5 -183.5t107.5 -70.5zM412 1051q397 0 397 -548q0 -263 -107.5 -396.5t-291.5 -133.5q-243 0 -300 150.5t-57 258.5t21 216h491q-8 129 -53 186.5t-154 57.5t-194 -68l-84 178q53 43 142 71t190 28z" />
    <glyph glyph-name="uni04DA" unicode="&#x4da;" horiz-adv-x="1067" 
d="M1006 717q0 -743 -486 -745q-237 -1 -349 160t-112 446q0 121 19 256h657q-9 192 -72 292q-64 99 -199 99t-267 -86l-58 225q158 98 361 98q254 0 380 -181q126 -180 126 -564zM324 566v-48q0 -220 108 -298q37 -26 90 -25q113 0 163 103t50 318h-407q-4 -24 -4 -50z
M842 1634q0 -118 -138 -117t-139 117q0 53 32 86q33 33 107 33t106 -33t32 -86zM193 1636q0 118 141 117q72 0 104 -33t31 -86q0 -53 -32 -85t-103 -31q-141 0 -141 118z" />
    <glyph glyph-name="uni04DB" unicode="&#x4db;" horiz-adv-x="860" 
d="M413 182q73 0 113 68t39 186h-286q-7 -114 27 -184t107 -70zM412 1051q397 0 397 -548q0 -263 -108 -397t-291 -133q-244 0 -327 222q-30 80 -30 186t21 217h491q-8 129 -53 186q-45 58 -152 58t-196 -68l-84 178q53 43 142 71t190 28zM481 1296q0 64 35 101t94 37
q58 0 94 -37t36 -101t-36 -99q-34 -36 -94 -36t-94 36q-35 35 -35 99zM100 1296q0 64 36 101t94 37t94 -37t34 -101q0 -64 -34 -99q-34 -36 -94 -36q-58 0 -94 36q-36 35 -36 99z" />
    <glyph glyph-name="uni04DC" unicode="&#x4dc;" horiz-adv-x="1435" 
d="M588 1434h243v-641l60 28l215 613h289l-256 -631l-82 -68l100 -84l289 -651h-311l-240 625h-64v-625h-243v649l-58 -28l-241 -621h-299l286 631l95 78l-92 73l-267 652h299l213 -617h64v617zM764 1634q0 53 32 86t106 33t107 -33q32 -33 31 -86q0 -118 -138 -117
t-138 117zM391 1636q0 118 141 117q72 0 104 -33t32 -86t-32 -85t-104 -31q-141 0 -141 118z" />
    <glyph glyph-name="uni04DD" unicode="&#x4dd;" horiz-adv-x="1191" 
d="M475 608v416h232v-436l61 28l137 408h258l-170 -416l-67 -65l86 -82l188 -461h-276l-150 424h-67v-424h-232v444l-63 -28l-150 -416h-270l205 469l59 61l-86 78l-160 416h258l138 -416h69zM655 1296q0 64 35 101t94 37q58 0 94 -37t36 -101t-36 -99q-34 -36 -94 -36
t-94 36q-35 35 -35 99zM274 1296q0 64 36 101t94 37t94 -37q34 -37 34 -101t-34 -99q-34 -36 -93 -36q-58 0 -95 36q-36 35 -36 99z" />
    <glyph glyph-name="uni04DE" unicode="&#x4de;" horiz-adv-x="890" 
d="M414 1458q388 0 387 -358q0 -104 -44 -194t-143 -134v-12q222 -61 224 -348q0 -223 -134 -332t-346 -109q-213 0 -333 72l67 229q107 -63 268 -63q84 0 146 54q61 55 61 163t-56 158t-198 55l-65 2h-47v209h49q111 0 156 15q46 15 86 61t38 130q-1 164 -182 165
q-120 0 -225 -66l-66 223q134 80 357 80zM459 1636q0 118 138 117q138 0 138 -118t-138 -118q-138 1 -138 119zM86 1636q0 118 141 117q72 0 104 -33t31 -86q0 -118 -138 -117t-138 119z" />
    <glyph glyph-name="uni04DF" unicode="&#x4df;" horiz-adv-x="724" 
d="M510 541q164 -49 164 -233q0 -156 -94 -243t-270 -86q-175 1 -281 68l49 199q83 -49 203 -49q150 0 149 120q0 51 -38 80t-140 29h-78v182h98q55 0 90 33t35 80q0 102 -127 102q-106 0 -184 -51l-55 195q53 31 139 53t178 20q293 0 293 -254q0 -76 -33 -142t-98 -95v-8z
M393 1296q0 64 35 101t94 37t94 -37t35 -101t-35 -99q-35 -36 -94 -36t-94 36q-35 35 -35 99zM12 1296q0 64 36 101t94 37t94 -37t34 -101q0 -64 -34 -99q-34 -36 -94 -36q-58 0 -94 36q-36 35 -36 99z" />
    <glyph glyph-name="uni04E0" unicode="&#x4e0;" horiz-adv-x="925" 
d="M592 446q0 112 -66.5 161.5t-208.5 49.5h-135v115l256 371l80 88l-102 -25h-338v228h733v-148l-276 -397l-82 -66v-10l82 25q144 -4 235.5 -104t91.5 -306q0 -207 -123 -332t-346 -125q-143 0 -226 28t-116 48l62 229q113 -67 237 -67q123 0 182.5 62.5t59.5 174.5z" />
    <glyph glyph-name="uni04E1" unicode="&#x4e1;" horiz-adv-x="825" 
d="M301 -215q110 0 173 61.5t63 167.5q0 236 -271 236h-102v104l196 369l95 98l-127 -14h-287v217h686v-137l-227 -385l-80 -60v-4l61 6q122 -9 210.5 -114.5t88.5 -282.5q0 -224 -127.5 -351.5t-326.5 -127.5t-310 74l82 202q93 -59 203 -59z" />
    <glyph glyph-name="uni04E2" unicode="&#x4e2;" horiz-adv-x="1120" 
d="M92 0v1434h258v-750l-22 -209h10l82 223l407 736h201v-1434h-258v764l21 203h-11l-78 -217l-407 -750h-203zM272 1753h592v-182h-592v182z" />
    <glyph glyph-name="uni04E3" unicode="&#x4e3;" horiz-adv-x="921" 
d="M88 0v1024h244v-465l-19 -160h6l74 170l277 455h164v-1024h-244v446l18 166h-6l-76 -174l-274 -438h-164zM186 1348h557v-187h-557v187z" />
    <glyph glyph-name="uni04E4" unicode="&#x4e4;" horiz-adv-x="1120" 
d="M92 0v1434h258v-750l-22 -209h10l82 223l407 736h201v-1434h-258v764l21 203h-11l-78 -217l-407 -750h-203zM889 1634q-1 -118 -139 -117t-138 117q0 53 32 86t107 33t107 -33t31 -86zM240 1636q0 118 141 117q71 0 103 -33t32 -86t-32 -85t-103 -31q-141 0 -141 118z
" />
    <glyph glyph-name="uni04E5" unicode="&#x4e5;" horiz-adv-x="921" 
d="M88 0v1024h244v-465l-19 -160h6l74 170l277 455h164v-1024h-244v446l18 166h-6l-76 -174l-274 -438h-164zM535 1296q0 64 34 101q35 37 95 37t94 -37q35 -37 35 -101t-35 -99q-35 -36 -94 -36t-95 36q-34 35 -34 99zM154 1296q0 64 35 101q37 37 95 37t93 -37t35 -101
t-35 -99q-35 -36 -93 -36t-95 36q-35 35 -35 99z" />
    <glyph glyph-name="uni04E6" unicode="&#x4e6;" horiz-adv-x="1132" 
d="M330 717q0 -360 126 -469q44 -39 109 -39q119 0 178 121t60 387q0 357 -125 468q-45 40 -113 40q-235 0 -235 -508zM59 717q0 745 506 745q384 0 478 -437q30 -138 30 -308q0 -365 -128 -555t-383 -190t-379 195t-124 550zM891 1634q-1 -118 -139 -117t-138 117
q0 53 32 86t107 33t107 -33t31 -86zM242 1636q0 118 141 117q71 0 103 -33t32 -86t-32 -85t-103 -31q-141 0 -141 118z" />
    <glyph glyph-name="uni04E7" unicode="&#x4e7;" horiz-adv-x="911" 
d="M303 512q0 -322 150 -322q79 0 117 73t38 240t-35 249t-118 82q-152 0 -152 -322zM455 1051q405 0 405 -539q0 -274 -106 -406t-299 -133q-404 0 -404 539q1 272 107 406t297 133zM518 1296q0 64 35 101t94 37t94 -37t35 -101t-35 -99q-35 -36 -94 -36t-94 36
q-35 35 -35 99zM137 1296q0 64 36 101t94 37t93 -37t35 -101t-35 -99q-35 -36 -93 -36t-94 36q-36 35 -36 99z" />
    <glyph glyph-name="uni04E8" unicode="&#x4e8;" horiz-adv-x="1130" 
d="M801 829q-28 396 -237 396q-210 0 -234 -396h471zM330 612q27 -403 235 -403q217 0 238 403h-473zM59 717q0 745 506 745t506 -745q0 -365 -127 -555t-382 -190t-379 195t-124 550z" />
    <glyph glyph-name="uni04E9" unicode="&#x4e9;" horiz-adv-x="911" 
d="M303 426q6 -125 49 -181q42 -57 102 -57t103 50t51 188h-305zM608 592q-18 242 -149 244q-61 0 -105 -52t-51 -192h305zM51 518q-1 258 105 396t302 138t300 -144q104 -145 103 -403q-1 -259 -107 -396t-304 -137t-298 144q-101 144 -101 402z" />
    <glyph glyph-name="uni04EA" unicode="&#x4ea;" horiz-adv-x="1130" 
d="M801 829q-28 396 -237 396q-210 0 -234 -396h471zM330 612q27 -403 235 -403q217 0 238 403h-473zM59 717q0 745 506 745t506 -745q0 -365 -127 -555t-382 -190t-379 195t-124 550zM891 1634q-1 -118 -139 -117t-138 117q0 53 32 86t107 33t107 -33t31 -86zM242 1636
q0 118 141 117q71 0 103 -33t32 -86t-32 -85t-103 -31q-141 0 -141 118z" />
    <glyph glyph-name="uni04EB" unicode="&#x4eb;" horiz-adv-x="911" 
d="M303 426q6 -125 49 -181q42 -57 102 -57t103 50t51 188h-305zM608 592q-18 242 -149 244q-61 0 -105 -52t-51 -192h305zM51 518q-1 258 105 396t302 138t300 -144q104 -145 103 -403q-1 -259 -107 -396t-304 -137t-298 144q-101 144 -101 402zM516 1296q0 64 35 101
t94 37t94 -37t35 -101t-35 -99q-35 -36 -94 -36t-94 36q-35 35 -35 99zM135 1296q0 64 36 101t94 37t93 -37t35 -101t-35 -99q-35 -36 -93 -36t-94 36q-36 35 -36 99z" />
    <glyph glyph-name="uni04EC" unicode="&#x4ec;" horiz-adv-x="976" 
d="M373 1462q545 0 545 -746t-572 -745q-100 1 -185 21t-132 45l67 229q117 -57 256 -57t213 99t84 313h-434v213h432q-13 278 -163 362q-52 29 -126 29q-147 0 -268 -72l-59 223q65 39 159 63t183 23zM723 1634q-1 -118 -139 -117t-138 117q0 53 32 86t107 33t107 -33
t31 -86zM74 1636q0 118 141 117q71 0 103 -33t32 -86t-32 -85t-103 -31q-141 0 -141 118z" />
    <glyph glyph-name="uni04ED" unicode="&#x4ed;" horiz-adv-x="772" 
d="M340 1053q381 0 381 -541q1 -274 -105 -406t-295 -133q-189 0 -290 60l57 203q84 -46 188 -46t147 56q42 56 46 180h-295v184h295q-6 111 -46 168q-40 58 -143 58t-180 -50l-65 185q111 82 305 82zM397 1296q0 64 35 101t94 37q58 0 94 -37t36 -101t-36 -99
q-34 -36 -94 -36t-94 36q-35 35 -35 99zM16 1296q0 64 36 101t94 37t94 -37t34 -101q0 -64 -34 -99q-34 -36 -94 -36q-58 0 -94 36q-36 35 -36 99z" />
    <glyph glyph-name="uni04EE" unicode="&#x4ee;" horiz-adv-x="972" 
d="M219 252q44 -25 98 -29q76 0 105 156l-442 1055h305l219 -625l31 -191h10l26 197l162 619h266l-319 -992q-79 -249 -129 -325q-51 -76 -99 -104q-48 -27 -110 -27t-103 10q-40 10 -83 39zM215 1753h592v-182h-592v182z" />
    <glyph glyph-name="uni04EF" unicode="&#x4ef;" horiz-adv-x="819" 
d="M453 -281q-72 -139 -178 -139q-107 0 -158 31l41 209q100 -37 147 71q18 41 31 109l-356 1024h292l144 -575l26 -160h11l18 162l119 573h250l-256 -924q-82 -282 -131 -381zM139 1348h557v-187h-557v187z" />
    <glyph glyph-name="uni04F0" unicode="&#x4f0;" horiz-adv-x="972" 
d="M219 252q44 -25 98 -29q76 0 105 156l-442 1055h305l219 -625l31 -191h10l26 197l162 619h266l-319 -992q-79 -249 -129 -325q-51 -76 -99 -104q-48 -27 -110 -27t-103 10q-40 10 -83 39zM846 1634q0 -118 -138 -117t-139 117q0 53 32 86t107 33q74 0 106 -33t32 -86z
M197 1636q0 118 141 117q72 0 104 -33t31 -86q0 -53 -32 -85t-103 -31q-141 0 -141 118z" />
    <glyph glyph-name="uni04F1" unicode="&#x4f1;" horiz-adv-x="819" 
d="M453 -281q-72 -139 -178 -139q-107 0 -158 31l41 209q100 -37 147 71q18 41 31 109l-356 1024h292l144 -575l26 -160h11l18 162l119 573h250l-256 -924q-82 -282 -131 -381zM489 1296q0 64 35 101t94 37q58 0 94 -37t36 -101t-35 -99q-35 -36 -95 -36t-94 36
q-35 35 -35 99zM109 1296q0 64 35 101q36 37 94 37t94 -37q35 -37 35 -101t-35 -99q-35 -36 -93 -36t-95 36q-35 35 -35 99z" />
    <glyph glyph-name="uni04F2" unicode="&#x4f2;" horiz-adv-x="972" 
d="M219 252q44 -25 98 -29q76 0 105 156l-442 1055h305l219 -625l31 -191h10l26 197l162 619h266l-319 -992q-79 -249 -129 -325q-51 -76 -99 -104q-48 -27 -110 -27t-103 10q-40 10 -83 39zM940 1741v-33l-242 -190h-176l162 223h256zM578 1741v-33l-168 -190h-177l99 223
h246z" />
    <glyph glyph-name="uni04F3" unicode="&#x4f3;" horiz-adv-x="819" 
d="M453 -281q-72 -139 -178 -139q-107 0 -158 31l41 209q100 -37 147 71q18 41 31 109l-356 1024h292l144 -575l26 -160h11l18 162l119 573h250l-256 -924q-82 -282 -131 -381zM813 1434v-33l-203 -232h-153l123 265h233zM485 1434v-33l-131 -232h-149l59 265h221z" />
    <glyph glyph-name="uni04F4" unicode="&#x4f4;" horiz-adv-x="1030" 
d="M70 1434h258v-471q0 -127 37 -181t120 -55q133 0 195 72v635h258v-1434h-258v578q-116 -82 -285 -80q-228 0 -300 199q-26 73 -25 182v555zM838 1634q0 -118 -138 -117t-139 117q0 53 32 86q33 33 107 33t106 -33t32 -86zM188 1636q0 118 142 117q72 0 104 -33t31 -86
q0 -53 -32 -85t-103 -31q-142 0 -142 118z" />
    <glyph glyph-name="uni04F5" unicode="&#x4f5;" horiz-adv-x="858" 
d="M49 1024h244v-274q0 -109 19 -157t91 -48t123 43v436h244v-1024h-244v397q-88 -70 -217 -70q-129 1 -193 75q-65 74 -67 257v365zM475 1296q0 64 35 101t94 37t94 -37t35 -101t-35 -99q-35 -36 -94 -36t-94 36q-35 35 -35 99zM94 1296q0 64 36 101t94 37t93 -37t35 -101
t-35 -99q-35 -36 -93 -36t-94 36q-36 35 -36 99z" />
    <glyph glyph-name="uni04F6" unicode="&#x4f6;" horiz-adv-x="780" 
d="M795 1196h-445v-958h156v-494h-182l-25 256h-207v1434h703v-238z" />
    <glyph glyph-name="uni04F7" unicode="&#x4f7;" horiz-adv-x="634" 
d="M88 1024h555v-223h-311v-578h153v-456h-180l-26 233h-191v1024z" />
    <glyph glyph-name="uni04F8" unicode="&#x4f8;" horiz-adv-x="1368" 
d="M458 217q76 0 128 56q51 56 51 194q0 194 -114 222q-37 9 -87 9t-86 -18v-451q32 -12 108 -12zM92 1434h258v-514q72 16 152 16q187 0 284 -90q121 -112 121 -366q-1 -253 -115 -377t-368 -123q-201 0 -332 32v1422zM1018 1434h258v-1434h-258v1434zM1004 1634
q0 -118 -138 -117t-139 117q0 53 32 86q33 33 107 33t106 -33t32 -86zM354 1636q0 118 142 117q72 0 104 -33t31 -86q0 -53 -32 -85t-103 -31q-142 0 -142 118z" />
    <glyph glyph-name="uni04F9" unicode="&#x4f9;" horiz-adv-x="1210" 
d="M881 1024h243v-1024h-243v1024zM494 674q294 0 299 -318q0 -191 -92 -281q-92 -91 -308 -89q-172 0 -305 14v1024h244v-365q77 15 162 15zM430 203q110 0 111 144q0 145 -110 143q-56 0 -99 -13v-262q42 -12 98 -12zM651 1296q0 64 35 101t94 37t94 -37t35 -101t-35 -99
q-35 -36 -94 -36t-94 36q-35 35 -35 99zM270 1296q0 64 36 101t94 37t94 -37t34 -101q0 -64 -34 -99q-34 -36 -94 -36q-58 0 -94 36q-36 35 -36 99z" />
    <glyph glyph-name="uni04FC" unicode="&#x4fc;" horiz-adv-x="1075" 
d="M1020 -47q0 -377 -293 -377q-59 0 -119 14v217q117 -10 131.5 52.5t14.5 132.5t-70 213l-109 235l-47 160l-39 -160l-192 -440h-285l350 729l-315 705h309l166 -410l39 -156l37 156l174 410h279l-328 -691l209 -436q88 -172 88 -354z" />
    <glyph glyph-name="uni04FD" unicode="&#x4fd;" horiz-adv-x="897" 
d="M856 -51q0 -371 -278 -371q-59 0 -119 14v209q88 -10 120.5 28t32.5 118t-61 194l-55 105l-52 155l-49 -153l-121 -248h-266l264 524l-243 500h290l99 -219l43 -158l45 158l104 219h267l-246 -492l141 -270q84 -158 84 -313z" />
    <glyph glyph-name="uni0510" unicode="&#x510;" horiz-adv-x="905" 
d="M367 1053q0 -205 284 -205h45v-207h-124q-123 0 -182.5 -59.5t-59.5 -161.5t59.5 -156.5t171.5 -54.5t236 67l69 -208q-49 -35 -146 -66t-214 -31q-209 0 -328 103.5t-119 326.5q0 150 58.5 238t163.5 117v12q-94 43 -139.5 133.5t-45.5 194.5q0 190 114.5 276t279.5 86
q164 0 246.5 -33.5t103.5 -46.5l-66 -215q-103 58 -208 58t-152 -39t-47 -129z" />
    <glyph glyph-name="uni0511" unicode="&#x511;" horiz-adv-x="727" 
d="M451 825q-123 0 -123 -108q0 -47 34.5 -78t90.5 -31h98v-178h-80q-102 0 -139 -29.5t-37 -83t37 -88t108 -34.5q125 0 203 51l49 -199q-104 -70 -280 -70q-269 0 -315 121t-46 207q0 177 164 234v8q-68 29 -100.5 94.5t-32.5 136.5q0 131 80 197.5t200 66.5
q212 0 330 -69l-53 -197q-95 49 -188 49z" />
    <glyph glyph-name="uni0512" unicode="&#x512;" horiz-adv-x="1071" 
d="M979 -61q0 -362 -274 -363q-51 0 -113 12v217q81 -7 105 37t24 158v1196h-221q-19 -630 -76 -872.5t-161 -298t-181.5 -39.5t-106.5 30l37 232q135 -46 179 168.5t54.5 491t14.5 526.5h719v-1495z" />
    <glyph glyph-name="uni0513" unicode="&#x513;" horiz-adv-x="886" 
d="M530 -422q-62 0 -118 14v211q88 -8 114 43q27 45 29 154v801h-147q-19 -413 -59 -552.5t-92 -200t-145 -60.5t-143 30l29 213q49 -16 83 2.5t66.5 137.5t45.5 653h606v-1087q0 -172 -63.5 -265.5t-205.5 -93.5z" />
    <glyph glyph-name="uni051C" unicode="&#x51c;" horiz-adv-x="1468" 
d="M420 645l20 -258h9l22 262l193 785h180l186 -789l23 -258h8l22 262l127 785h263l-322 -1444h-182l-201 790l-27 224h-10l-24 -226l-201 -788h-191l-319 1444h285z" />
    <glyph glyph-name="uni051D" unicode="&#x51d;" horiz-adv-x="1220" 
d="M721 1024l143 -524l25 -170h8l21 172l96 522h221l-252 -1034h-192l-154 571l-16 131h-13l-14 -135l-148 -567h-198l-262 1034h264l110 -514l19 -182h8l27 184l125 512h182z" />
    <glyph glyph-name="uni0524" unicode="&#x524;" horiz-adv-x="1159" 
d="M723 1196h-373v-1196h-258v1434h889v-1196h149v-494h-182l-24 256h-201v1196z" />
    <glyph glyph-name="uni0525" unicode="&#x525;" horiz-adv-x="972" 
d="M569 801h-237v-801h-244v1024h725v-801h137v-456h-180l-27 233h-174v801z" />
    <glyph glyph-name="uni0526" unicode="&#x526;" horiz-adv-x="1134" 
d="M643 938q320 0 320 -393v-307h149v-494h-182l-25 256h-200v465q0 123 -35 183.5t-123 60.5q-127 0 -197 -70v-639h-258v1434h258v-578q122 82 293 82z" />
    <glyph glyph-name="uni0527" unicode="&#x527;" horiz-adv-x="995" 
d="M338 932q92 119 233 119t204 -82t65 -297v-449h131v-456h-180l-27 233h-168v618q0 111 -26 160t-84 49q-58 -1 -99 -35t-55 -87v-705h-244v1434h244v-502h6z" />
    <glyph glyph-name="uni1E30" unicode="&#x1e30;" horiz-adv-x="1062" 
d="M350 614v-614h-258v1434h258v-637l51 24l301 613h291l-327 -605l-97 -75l99 -78l379 -676h-316l-325 614h-56zM825 1782v-62l-270 -180h-190l167 242h293z" />
    <glyph glyph-name="uni1E31" unicode="&#x1e31;" horiz-adv-x="843" 
d="M332 424v-424h-244v1434h244v-846l49 28l170 408h264l-188 -406l-88 -69l96 -70l209 -479h-275l-180 424h-57zM760 1475v-62l-193 -254h-137l86 316h244z" />
    <glyph glyph-name="uni1E3E" unicode="&#x1e3e;" horiz-adv-x="1359" 
d="M336 0h-244v1434h248l299 -621l49 -178h8l47 182l281 617h244v-1434h-258v739l28 275h-10l-76 -246l-233 -504h-86l-248 506l-76 248h-12l39 -277v-741zM1004 1782v-62l-271 -180h-190l168 242h293z" />
    <glyph glyph-name="uni1E3F" unicode="&#x1e3f;" horiz-adv-x="1357" 
d="M313 901q92 148 244 148q88 0 138 -35t79 -123q83 158 252 158q140 0 196 -81t56 -304v-664h-244v623q0 104 -18 153t-82 49q-99 0 -129 -110v-715h-244v596q0 129 -20 179t-80 50q-91 0 -129 -108v-717h-244v1024h188l31 -123h6zM918 1475v-62l-193 -254h-137l86 316
h244z" />
    <glyph glyph-name="uni1E54" unicode="&#x1e54;" horiz-adv-x="976" 
d="M442 715q225 0 228 268q0 237 -215 242q-63 0 -105 -11v-489q30 -10 92 -10zM389 1454q135 0 226 -17t163 -69q162 -116 162 -376q0 -261 -139 -394q-121 -113 -318 -113h-26q-80 0 -107 9v-494h-258v1419q162 35 297 35zM780 1782v-62l-270 -180h-191l168 242h293z" />
    <glyph glyph-name="uni1E55" unicode="&#x1e55;" horiz-adv-x="915" 
d="M612 545q0 145 -32 216q-33 71 -109 70q-102 0 -139 -120v-482q39 -39 117 -40q163 -2 163 356zM332 -410h-244v1434h182l25 -117h6q47 74 105 108t145 34q157 0 235 -118t78 -392q0 -275 -98 -421t-285 -147q-91 0 -149 35v-416zM678 1475v-62l-193 -254h-137l86 316
h244z" />
    <glyph glyph-name="uni1E9E" unicode="&#x1e9e;" horiz-adv-x="1155" 
d="M709 1186q-63 59 -177 59t-148 -73.5t-34 -231.5v-940h-258v1016q0 225 102.5 334.5t327.5 109.5q172 0 288 -51t208 -131l-217 -383l-62 -59v-11l62 15q131 -10 211 -108.5t80 -303.5t-104.5 -331t-311.5 -126q-90 0 -162 22.5t-86 33.5l47 219q72 -39 165 -39
q181 0 181 227q0 117 -59.5 172.5t-188.5 55.5h-77v157z" />
    <glyph glyph-name="uni2011" unicode="&#x2011;" horiz-adv-x="610" 
d="M92 705h426v-234h-426v234z" />
    <glyph glyph-name="endash" unicode="&#x2013;" horiz-adv-x="1112" 
d="M178 702h754v-223h-754v223z" />
    <glyph glyph-name="emdash" unicode="&#x2014;" horiz-adv-x="1384" 
d="M180 702h1022v-223h-1022v223z" />
    <glyph glyph-name="quoteleft" unicode="&#x2018;" horiz-adv-x="389" 
d="M326 1265.5q0 -59.5 -36 -95t-96 -35.5t-97.5 48t-37.5 127q0 140 66.5 218.5t136.5 107.5l66 -104q-35 -18 -62.5 -55t-32.5 -80q35 -4 64 -38t29 -93.5z" />
    <glyph glyph-name="quoteright" unicode="&#x2019;" horiz-adv-x="385" 
d="M59 1316q0 62 35.5 99t95.5 37t98 -46t38 -127q0 -230 -203 -323l-62 103q35 16 62 49t31 80q-35 2 -65 34t-30 94z" />
    <glyph glyph-name="quotesinglbase" unicode="&#x201a;" horiz-adv-x="385" 
d="M59 124q0 62 36 99q35 37 95 37t98 -46t38 -127q0 -135 -77 -229q-54 -64 -126 -94l-62 103q35 16 62 49t31 80q-35 2 -65 34t-30 94z" />
    <glyph glyph-name="quotedblleft" unicode="&#x201c;" horiz-adv-x="702" 
d="M639 1266q0 -60 -36 -96q-35 -36 -95 -36t-98 49q-38 48 -37 127q0 140 68 221t134 105l66 -104q-35 -18 -63 -55t-31 -80q35 -4 63 -38t29 -93zM326 1266q0 -60 -36 -96t-96 -36t-97 49q-38 48 -38 127q0 137 68 219t135 107l66 -104q-35 -18 -63 -55t-32 -80
q35 -4 64 -38t29 -93z" />
    <glyph glyph-name="quotedblright" unicode="&#x201d;" horiz-adv-x="698" 
d="M373 1316q0 62 36 99q35 37 95 37t98 -46t37 -127q0 -135 -77 -229q-55 -66 -126 -94l-61 103q35 16 61 49t31 80q-35 2 -65 34t-29 94zM59 1316q0 62 36 99q35 37 95 37t98 -46t38 -127q0 -135 -77 -229q-54 -64 -126 -94l-62 103q35 16 62 49t31 80q-35 2 -65 34
t-30 94z" />
    <glyph glyph-name="quotedblbase" unicode="&#x201e;" horiz-adv-x="698" 
d="M373 124q0 62 36 99q35 37 95 37t98 -46t37 -127q0 -135 -77 -229q-55 -66 -126 -94l-61 103q35 16 61 49t31 80q-35 2 -65 34t-29 94zM59 124q0 62 36 99q35 37 95 37t98 -46t38 -127q0 -135 -77 -229q-54 -64 -126 -94l-62 103q35 16 62 49t31 80q-35 2 -65 34t-30 94z
" />
    <glyph glyph-name="dagger" unicode="&#x2020;" horiz-adv-x="868" 
d="M68 1042h188l90 -30l-29 108v314h234v-314l-29 -108l90 30h189v-213h-191l-88 31l29 -100v-760l-29 -410h-176l-29 412v758l29 100l-90 -31h-188v213z" />
    <glyph glyph-name="daggerdbl" unicode="&#x2021;" horiz-adv-x="868" 
d="M68 829v213h188l90 -30l-29 102v320h234v-320l-29 -102l90 30h189v-213h-191l-88 31l29 -92v-188l-29 -93l88 31h191v-213h-189l-90 31l29 -103v-233l-31 -410h-172l-31 412v231l29 103l-90 -31h-188v213h188l90 -31l-29 93v188l29 92l-90 -31h-188z" />
    <glyph glyph-name="bullet" unicode="&#x2022;" horiz-adv-x="761" 
d="M379 950q117 0 191.5 -81t74.5 -231t-74.5 -231t-190.5 -81t-189.5 80.5t-73.5 225.5t72.5 231.5t189.5 86.5z" />
    <glyph glyph-name="ellipsis" unicode="&#x2026;" horiz-adv-x="1476" 
d="M92 134q0 75 40 114t109 39t107.5 -39t38.5 -114t-40.5 -116t-108.5 -41t-107 41t-39 116zM598 134q0 75 40 114t108 39t107.5 -39t39.5 -114t-40 -116t-109 -41t-107.5 41t-38.5 116zM1102 134q0 75 40 114t108 39t107.5 -39t39.5 -114t-40 -116t-109 -41t-107.5 41
t-38.5 116z" />
    <glyph glyph-name="perthousand" unicode="&#x2030;" horiz-adv-x="2158" 
d="M301 1113q-1 -181 79 -181q36 0 53 7t33 36t17 134q0 105 -22 142q-23 37 -70 37t-69 -37t-21 -138zM84 1108q0 266 183 331q56 19 124 19q219 0 286 -183q23 -67 23 -165q-1 -272 -185 -331q-56 -17 -124 -17q-147 0 -227 81t-80 265zM1010 353q0 -181 79 -181
q36 0 53 7q50 21 50 148t-23 165t-69 36q-46 0 -69 -36q-21 -38 -21 -139zM793 348q0 266 183 331q56 19 124 19t124 -17q116 -35 161 -166q24 -67 24 -165q0 -272 -185 -331q-56 -17 -124 -17q-147 0 -227 81t-80 265zM1686 353q0 -181 79 -181q36 0 53 7q50 21 50 148
t-23 165t-69 36q-46 0 -69 -36q-21 -38 -21 -139zM1652 19q-184 56 -184 326t184 334q56 19 124 19t124 -17q116 -35 161 -166q24 -67 24 -165q0 -272 -185 -331q-56 -17 -124 -17t-124 17zM1178 1462l143 -119l-1012 -1372l-145 121z" />
    <glyph glyph-name="guilsinglleft" unicode="&#x2039;" horiz-adv-x="524" 
d="M45 530l268 471l150 -96l-150 -289l-80 -84l80 -73l164 -277l-153 -104z" />
    <glyph glyph-name="guilsinglright" unicode="&#x203a;" horiz-adv-x="526" 
d="M481 549l-268 -471l-152 98l150 287l82 84l-82 74l-164 278l156 102z" />
    <glyph glyph-name="fraction" unicode="&#x2044;" horiz-adv-x="315" 
d="M428 1464l166 -80l-700 -1413l-170 84z" />
    <glyph glyph-name="uni2081" unicode="&#x2081;" horiz-adv-x="731" 
d="M135 -10h160v344l18 94l-53 -66l-94 -63l-90 141l268 230h168v-680h143v-195h-520v195z" />
    <glyph glyph-name="uni2082" unicode="&#x2082;" horiz-adv-x="731" 
d="M338 670q139 0 208.5 -64.5t69.5 -187.5q0 -163 -72.5 -257.5t-107.5 -133.5l-80 -52v-8l101 23h182v-195h-543v137q198 156 252.5 267.5t54.5 169.5q0 104 -94 104q-81 0 -151 -45l-62 170q103 72 242 72z" />
    <glyph glyph-name="uni2083" unicode="&#x2083;" horiz-adv-x="731" 
d="M432 78q0 102 -145 102h-80v78l123 166l78 57l-103 -12h-190v186h491v-123l-143 -192l-62 -39v-8l56 6q86 -4 136 -64.5t50 -152.5q0 -158 -89 -229.5t-224 -71.5t-226 49l43 176q76 -39 152 -39q133 0 133 111z" />
    <glyph glyph-name="uni2084" unicode="&#x2084;" horiz-adv-x="731" 
d="M391 135v172l15 113h-11l-37 -105l-77 -133l-64 -61l88 14h86zM711 -41h-125v-164h-195v164h-350v131l362 576h183v-531h125v-176z" />
    <glyph glyph-name="Euro" unicode="&#x20ac;" 
d="M147 666v118h-141l60 187h102q8 47 22 90q83 275 229 338t272 63t243 -47l-66 -205q-72 33 -200 33t-209 -125q-37 -57 -58 -147h426l-47 -187h-401v-118h366l-47 -187h-299q18 -90 56 -153q76 -133 237 -133q129 0 211 53l49 -197q-104 -76 -314 -76q-94 0 -235 65
t-219 343q-12 47 -20 98h-158l60 187h81z" />
    <glyph glyph-name="uni20B4" unicode="&#x20b4;" 
d="M799 1188q0 -116 -72 -225h135v-187h-778v187h418q61 81 61 172q0 120 -129 120q-109 0 -196 -53l-72 189q79 41 141 56t182 15q310 0 310 -274zM150 262q0 104 59 209h-125v186h778v-186h-416q-61 -81 -61 -152t36 -105t147 -34t202 56l55 -189q-105 -74 -340 -74
q-160 0 -247.5 73t-87.5 216z" />
    <glyph glyph-name="uni20B6" unicode="&#x20b6;" 
d="M517 1237q-79 0 -105 -10v-479h80q146 -7 176 86.5t30 164.5q0 127 -51 182.5t-130 55.5zM460 1454q124 0 206 -18.5t180 -97t98 -317.5t-120.5 -350.5t-307.5 -111.5h-104v-117h268v-186h-268v-256h-234v256h-137v186h137v117h-137v184h137v676q158 35 282 35z" />
    <glyph glyph-name="uni20B7" unicode="&#x20b7;" 
d="M698 999q0 127 -51 183t-130 55q-79 0 -105 -10v-479h80q145 -7 190 131q16 49 16 120zM460 1454q124 0 206 -18t143 -68q135 -110 135 -347q0 -238 -131 -361q-110 -101 -297 -101h-104v-117h268v-186h-268v-256h-234v256h-137v186h137v117h-137v184h137v676
q158 35 282 35z" />
    <glyph glyph-name="uni20B9" unicode="&#x20b9;" 
d="M698 999q0 127 -51 183t-130 55q-79 0 -105 -10v-479h80q145 -7 190 131q16 49 16 120zM460 1454q124 0 206 -18t143 -68q135 -110 135 -347q0 -238 -131 -361q-110 -101 -297 -101h-104v-117h268v-186h-268v-256h-234v256h-137v186h137v117h-137v184h137v676
q158 35 282 35z" />
    <glyph glyph-name="uni20BA" unicode="&#x20ba;" 
d="M698 999q0 127 -51 183t-130 55q-79 0 -105 -10v-479h80q145 -7 190 131q16 49 16 120zM460 1454q124 0 206 -18t143 -68q135 -110 135 -347q0 -238 -131 -361q-110 -101 -297 -101h-104v-117h268v-186h-268v-256h-234v256h-137v186h137v117h-137v184h137v676
q158 35 282 35z" />
    <glyph glyph-name="uni20BB" unicode="&#x20bb;" 
d="M698 999q0 127 -51 183t-130 55q-79 0 -105 -10v-479h80q145 -7 190 131q16 49 16 120zM460 1454q124 0 206 -18t143 -68q135 -110 135 -347q0 -238 -131 -361q-110 -101 -297 -101h-104v-117h268v-186h-268v-256h-234v256h-137v186h137v117h-137v184h137v676
q158 35 282 35z" />
    <glyph glyph-name="uni20BC" unicode="&#x20bc;" 
d="M698 999q0 127 -51 183t-130 55q-79 0 -105 -10v-479h80q145 -7 190 131q16 49 16 120zM460 1454q124 0 206 -18t143 -68q135 -110 135 -347q0 -238 -131 -361q-110 -101 -297 -101h-104v-117h268v-186h-268v-256h-234v256h-137v186h137v117h-137v184h137v676
q158 35 282 35z" />
    <glyph glyph-name="uni20BD" unicode="&#x20bd;" 
d="M698 999q0 127 -51 183t-130 55q-79 0 -105 -10v-479h80q145 -7 190 131q16 49 16 120zM460 1454q124 0 206 -18t143 -68q135 -110 135 -347q0 -238 -131 -361q-110 -101 -297 -101h-104v-117h268v-186h-268v-256h-234v256h-137v186h137v117h-137v184h137v676
q158 35 282 35z" />
    <glyph glyph-name="uni20BE" unicode="&#x20be;" 
d="M698 999q0 127 -51 183t-130 55q-79 0 -105 -10v-479h80q145 -7 190 131q16 49 16 120zM460 1454q124 0 206 -18t143 -68q135 -110 135 -347q0 -238 -131 -361q-110 -101 -297 -101h-104v-117h268v-186h-268v-256h-234v256h-137v186h137v117h-137v184h137v676
q158 35 282 35z" />
    <glyph glyph-name="uni20BF" unicode="&#x20bf;" 
d="M698 999q0 127 -51 183t-130 55q-79 0 -105 -10v-479h80q145 -7 190 131q16 49 16 120zM460 1454q124 0 206 -18t143 -68q135 -110 135 -347q0 -238 -131 -361q-110 -101 -297 -101h-104v-117h268v-186h-268v-256h-234v256h-137v186h137v117h-137v184h137v676
q158 35 282 35z" />
    <glyph glyph-name="uni20C0" unicode="&#x20c0;" 
d="M698 999q0 127 -51 183t-130 55q-79 0 -105 -10v-479h80q145 -7 190 131q16 49 16 120zM460 1454q124 0 206 -18t143 -68q135 -110 135 -347q0 -238 -131 -361q-110 -101 -297 -101h-104v-117h268v-186h-268v-256h-234v256h-137v186h137v117h-137v184h137v676
q158 35 282 35z" />
    <glyph glyph-name="uni20C1" unicode="&#x20c1;" 
d="M698 999q0 127 -51 183t-130 55q-79 0 -105 -10v-479h80q145 -7 190 131q16 49 16 120zM460 1454q124 0 206 -18t143 -68q135 -110 135 -347q0 -238 -131 -361q-110 -101 -297 -101h-104v-117h268v-186h-268v-256h-234v256h-137v186h137v117h-137v184h137v676
q158 35 282 35z" />
    <glyph glyph-name="uni20C2" unicode="&#x20c2;" 
d="M698 999q0 127 -51 183t-130 55q-79 0 -105 -10v-479h80q145 -7 190 131q16 49 16 120zM460 1454q124 0 206 -18t143 -68q135 -110 135 -347q0 -238 -131 -361q-110 -101 -297 -101h-104v-117h268v-186h-268v-256h-234v256h-137v186h137v117h-137v184h137v676
q158 35 282 35z" />
    <glyph glyph-name="uni20C3" unicode="&#x20c3;" 
d="M698 999q0 127 -51 183t-130 55q-79 0 -105 -10v-479h80q145 -7 190 131q16 49 16 120zM460 1454q124 0 206 -18t143 -68q135 -110 135 -347q0 -238 -131 -361q-110 -101 -297 -101h-104v-117h268v-186h-268v-256h-234v256h-137v186h137v117h-137v184h137v676
q158 35 282 35z" />
    <glyph glyph-name="uni20C4" unicode="&#x20c4;" 
d="M698 999q0 127 -51 183t-130 55q-79 0 -105 -10v-479h80q145 -7 190 131q16 49 16 120zM460 1454q124 0 206 -18t143 -68q135 -110 135 -347q0 -238 -131 -361q-110 -101 -297 -101h-104v-117h268v-186h-268v-256h-234v256h-137v186h137v117h-137v184h137v676
q158 35 282 35z" />
    <glyph glyph-name="uni20C5" unicode="&#x20c5;" 
d="M698 999q0 127 -51 183t-130 55q-79 0 -105 -10v-479h80q145 -7 190 131q16 49 16 120zM460 1454q124 0 206 -18t143 -68q135 -110 135 -347q0 -238 -131 -361q-110 -101 -297 -101h-104v-117h268v-186h-268v-256h-234v256h-137v186h137v117h-137v184h137v676
q158 35 282 35z" />
    <glyph glyph-name="uni20C6" unicode="&#x20c6;" 
d="M698 999q0 127 -51 183t-130 55q-79 0 -105 -10v-479h80q145 -7 190 131q16 49 16 120zM460 1454q124 0 206 -18t143 -68q135 -110 135 -347q0 -238 -131 -361q-110 -101 -297 -101h-104v-117h268v-186h-268v-256h-234v256h-137v186h137v117h-137v184h137v676
q158 35 282 35z" />
    <glyph glyph-name="uni20C7" unicode="&#x20c7;" 
d="M698 999q0 127 -51 183t-130 55q-79 0 -105 -10v-479h80q145 -7 190 131q16 49 16 120zM460 1454q124 0 206 -18t143 -68q135 -110 135 -347q0 -238 -131 -361q-110 -101 -297 -101h-104v-117h268v-186h-268v-256h-234v256h-137v186h137v117h-137v184h137v676
q158 35 282 35z" />
    <glyph glyph-name="uni20C8" unicode="&#x20c8;" 
d="M698 999q0 127 -51 183t-130 55q-79 0 -105 -10v-479h80q145 -7 190 131q16 49 16 120zM460 1454q124 0 206 -18t143 -68q135 -110 135 -347q0 -238 -131 -361q-110 -101 -297 -101h-104v-117h268v-186h-268v-256h-234v256h-137v186h137v117h-137v184h137v676
q158 35 282 35z" />
    <glyph glyph-name="uni20C9" unicode="&#x20c9;" 
d="M698 999q0 127 -51 183t-130 55q-79 0 -105 -10v-479h80q145 -7 190 131q16 49 16 120zM460 1454q124 0 206 -18t143 -68q135 -110 135 -347q0 -238 -131 -361q-110 -101 -297 -101h-104v-117h268v-186h-268v-256h-234v256h-137v186h137v117h-137v184h137v676
q158 35 282 35z" />
    <glyph glyph-name="uni20CA" unicode="&#x20ca;" 
d="M698 999q0 127 -51 183t-130 55q-79 0 -105 -10v-479h80q145 -7 190 131q16 49 16 120zM460 1454q124 0 206 -18t143 -68q135 -110 135 -347q0 -238 -131 -361q-110 -101 -297 -101h-104v-117h268v-186h-268v-256h-234v256h-137v186h137v117h-137v184h137v676
q158 35 282 35z" />
    <glyph glyph-name="uni20CB" unicode="&#x20cb;" 
d="M698 999q0 127 -51 183t-130 55q-79 0 -105 -10v-479h80q145 -7 190 131q16 49 16 120zM460 1454q124 0 206 -18t143 -68q135 -110 135 -347q0 -238 -131 -361q-110 -101 -297 -101h-104v-117h268v-186h-268v-256h-234v256h-137v186h137v117h-137v184h137v676
q158 35 282 35z" />
    <glyph glyph-name="uni20CC" unicode="&#x20cc;" 
d="M698 999q0 127 -51 183t-130 55q-79 0 -105 -10v-479h80q145 -7 190 131q16 49 16 120zM460 1454q124 0 206 -18t143 -68q135 -110 135 -347q0 -238 -131 -361q-110 -101 -297 -101h-104v-117h268v-186h-268v-256h-234v256h-137v186h137v117h-137v184h137v676
q158 35 282 35z" />
    <glyph glyph-name="uni20CD" unicode="&#x20cd;" 
d="M698 999q0 127 -51 183t-130 55q-79 0 -105 -10v-479h80q145 -7 190 131q16 49 16 120zM460 1454q124 0 206 -18t143 -68q135 -110 135 -347q0 -238 -131 -361q-110 -101 -297 -101h-104v-117h268v-186h-268v-256h-234v256h-137v186h137v117h-137v184h137v676
q158 35 282 35z" />
    <glyph glyph-name="uni20CE" unicode="&#x20ce;" 
d="M698 999q0 127 -51 183t-130 55q-79 0 -105 -10v-479h80q145 -7 190 131q16 49 16 120zM460 1454q124 0 206 -18t143 -68q135 -110 135 -347q0 -238 -131 -361q-110 -101 -297 -101h-104v-117h268v-186h-268v-256h-234v256h-137v186h137v117h-137v184h137v676
q158 35 282 35z" />
    <glyph glyph-name="uni20CF" unicode="&#x20cf;" 
d="M698 999q0 127 -51 183t-130 55q-79 0 -105 -10v-479h80q145 -7 190 131q16 49 16 120zM460 1454q124 0 206 -18t143 -68q135 -110 135 -347q0 -238 -131 -361q-110 -101 -297 -101h-104v-117h268v-186h-268v-256h-234v256h-137v186h137v117h-137v184h137v676
q158 35 282 35z" />
    <glyph glyph-name="afii61289" unicode="&#x2113;" horiz-adv-x="1024" 
d="M682 1204q0 70 -28.5 100.5t-59.5 30.5q-65 0 -98 -41t-33 -153v-434q219 253 219 497zM582 98q97 0 215 66l34 -103q-45 -29 -117.5 -57.5t-144.5 -28.5q-129 0 -187 62.5t-58 195.5v213l-103 -90l-71 90l174 152v520q0 256 104 298t160 42q98 0 161.5 -60.5
t63.5 -183.5q0 -332 -350 -671v-287q0 -90 34.5 -124t84.5 -34z" />
    <glyph glyph-name="afii61352" unicode="&#x2116;" horiz-adv-x="1755" 
d="M1286 1113q0 -181 81 -181q36 0 53.5 7t33.5 37t16 134t-22.5 141t-69.5 37t-69.5 -37t-22.5 -138zM1688 1110q0 -348 -308.5 -348t-308.5 348q0 265 120 306.5t308.5 41.5t188.5 -348zM336 0h-244v1444h201l387 -733l86 -254h12l-33 250v727h244v-1444h-201l-382 717
l-93 270h-10l33 -266v-711zM1104 662h555v-218h-555v218z" />
    <glyph glyph-name="trademark" unicode="&#x2122;" horiz-adv-x="1640" 
d="M936 696h-205v738h246l147 -293l37 -129h2l39 133l135 289h244v-738h-209v295l31 211h-10l-60 -174l-104 -240h-154l-106 234l-66 180h-10l43 -207v-299zM676 1217h-191v-521h-243v521h-191v217h625v-217z" />
    <glyph glyph-name="estimated" unicode="&#x212e;" horiz-adv-x="1228" 
d="M918 604v297q-130 123 -304 123t-292 -123v-297h596zM618 -35q-238 0 -383 161t-145 405t147 404.5t385 160.5q239 0 379 -159.5t148 -406.5h-827v-370q127 -121 296 -121q254 0 396 246l71 -43q-181 -277 -467 -277z" />
    <glyph glyph-name="partialdiff" unicode="&#x2202;" horiz-adv-x="923" 
d="M488 813q-89 0 -147 -100.5t-58 -298.5q0 -102 34.5 -163t100.5 -61t141.5 88t75.5 474q-58 61 -147 61zM461 1030q109 0 166 -49h10q-19 167 -135.5 230t-259.5 49l41 202q282 13 443 -129t161 -516q0 -639 -188.5 -741.5t-295.5 -102.5q-180 0 -276 114t-96 319
q0 265 110.5 444.5t319.5 179.5z" />
    <glyph glyph-name="product" unicode="&#x220f;" horiz-adv-x="1089" 
d="M748 1202h-406v-1612h-252v1844h909v-1844h-251v1612z" />
    <glyph glyph-name="summation" unicode="&#x2211;" horiz-adv-x="909" 
d="M866 -178v-232h-825v232l305 616l66 70l-74 76l-297 618v232h825v-232h-581l80 -84l278 -594l-309 -622l-74 -80h606z" />
    <glyph glyph-name="minus" unicode="&#x2212;" horiz-adv-x="909" 
d="M78 805h753v-217h-753v217z" />
    <glyph glyph-name="uni2215" unicode="&#x2215;" horiz-adv-x="909" 
d="M723 1464l166 -80l-701 -1413l-170 84z" />
    <glyph glyph-name="radical" unicode="&#x221a;" horiz-adv-x="909" 
d="M-6 756v217h332l125 -348l36 -269h9l26 273l201 805h225l-389 -1444h-131l-254 766h-180z" />
    <glyph glyph-name="infinity" unicode="&#x221e;" horiz-adv-x="1462" 
d="M283 716q0 -81 37.5 -137.5t93.5 -56.5t110 53.5t90 120.5q-84 222 -204 222q-59 0 -93 -60.5t-34 -141.5zM1055 522q59 0 92 57t33 119q0 219 -120 220q-109 0 -212 -168q65 -154 120.5 -191t86.5 -37zM750 918q142 212 332 212q153 0 239 -106.5t86 -303.5
q0 -196 -98.5 -303.5t-236.5 -107.5t-220 66t-141 166q-121 -232 -340 -232q-130 0 -223 109t-93 300t93 301.5t231 110.5q137 0 222 -60t149 -152z" />
    <glyph glyph-name="integral" unicode="&#x222b;" horiz-adv-x="628" 
d="M545 1245q-70 0 -91.5 -42t-21.5 -152v-1121q0 -197 -72.5 -276.5t-222.5 -79.5t-252 45l54 201q71 -29 137 -29t89 47t23 160v1104q0 197 64.5 278.5t212.5 81.5t254 -45l-39 -200q-65 28 -135 28z" />
    <glyph glyph-name="approxequal" unicode="&#x2248;" horiz-adv-x="909" 
d="M313 1106q78 0 177 -53t159 -53q59 -1 123 57l90 -211q-111 -100 -209 -98q-69 0 -171 56q-40 22 -80 40t-83 18q-90 0 -188 -98l-84 205q141 137 266 137zM313 711q76 0 176 -53q99 -53 160 -53q61 -1 123 57l90 -211q-110 -99 -209 -99q-67 0 -171 57q-40 22 -80 40
t-83 18q-88 0 -188 -98l-84 204q142 138 266 138z" />
    <glyph glyph-name="notequal" unicode="&#x2260;" horiz-adv-x="876" 
d="M61 1001h383l86 234h211l-86 -234h160v-217h-240l-65 -176h305v-217h-385l-100 -274h-209l100 274h-160v217h240l64 176h-304v217z" />
    <glyph glyph-name="lessequal" unicode="&#x2264;" horiz-adv-x="909" 
d="M76 846v143l637 455l123 -166l-381 -285l-154 -71l152 -64l391 -280l-123 -166zM844 164l-123 -174l-631 424l123 174z" />
    <glyph glyph-name="greaterequal" unicode="&#x2265;" horiz-adv-x="909" 
d="M834 1010v-144l-637 -454l-123 166l381 284l153 72l-151 63l-391 281l122 166zM831 420l-628 -430l-123 172l627 432z" />
    <glyph glyph-name="lozenge" unicode="&#x25ca;" horiz-adv-x="909" 
d="M510 416l127 268l-145 320l-43 174h-9l-45 -177l-123 -274l146 -315l43 -176h8zM524 -10h-147l-330 710l330 744h147l338 -733z" />
    <glyph glyph-name="uni2C67" unicode="&#x2c67;" horiz-adv-x="1177" 
d="M741 606h-391v-606h-258v1434h258v-590h391v590h258v-1196h150v-494h-182l-25 256h-201v606z" />
    <glyph glyph-name="uni2C68" unicode="&#x2c68;" horiz-adv-x="995" 
d="M338 932q92 119 233 119t205 -83t64 -296v-449h131v-456h-180l-27 233h-168v618q0 111 -26 160t-84 49t-99 -34.5t-55 -87.5v-705h-244v1434h244v-502h6z" />
    <glyph glyph-name="uniF401" unicode="&#xf401;" horiz-adv-x="4" 
d="M-403 1782v-62l-271 -180h-190l168 242h293z" />
    <glyph glyph-name="uniF406" unicode="&#xf406;" horiz-adv-x="907" 
d="M461 1679q155 0 233 113l90 -63q-66 -175 -171 -204.5t-152 -29.5q-101 0 -197 55.5t-141 169.5l94 72q35 -53 100.5 -83t143.5 -30z" />
    <glyph glyph-name="uniF407" unicode="&#xf407;" horiz-adv-x="624" 
d="M502 -242q0 -111 -121 -161q-112 -49 -258 -15l14 115q142 -23 142 43q0 57 -144 65l101 195h155l-41 -88q152 -17 152 -154z" />
    <glyph glyph-name="uniF408" unicode="&#xf408;" horiz-adv-x="860" 
d="M737 1511h-174l-96 84l-35 70l-37 -68l-102 -86h-170v82l223 189h178l213 -191v-80z" />
    <glyph glyph-name="uniF409" unicode="&#xf409;" horiz-adv-x="518" 
d="M125 -219q0 61 37 97t95 36t98 -45t40 -125q0 -186 -132 -273q-32 -22 -56 -30l-68 94q27 16 51 48t29 77q-31 2 -63 31t-31 90z" />
    <glyph glyph-name="uniF40A" unicode="&#xf40a;" horiz-adv-x="385" 
d="M59 1316q0 62 36 99q35 37 95 37t98 -46t38 -127q0 -135 -77 -229q-54 -64 -126 -94l-62 103q35 16 62 49t31 80q-35 2 -65 34t-30 94z" />
    <glyph glyph-name="uniF40B" unicode="&#xf40b;" horiz-adv-x="565" 
d="M123 1635q0 52 40 89t119 37t119.5 -36.5t40.5 -88.5t-41 -89.5t-119 -37.5t-118.5 37t-40.5 89z" />
    <glyph glyph-name="uniF40C" unicode="&#xf40c;" horiz-adv-x="702" 
d="M426 1581q0 70 -75 70t-75 -70q0 -63 74 -63q43 0 59.5 15t16.5 48zM580 1581q0 -178 -230 -178q-127 0 -177 50t-50 128q1 184 229 184t228 -184z" />
    <glyph glyph-name="uniF40D" unicode="&#xf40d;" horiz-adv-x="921" 
d="M346 1761q52 0 121.5 -23.5t103 -34.5t66.5 -11q64 0 106 51l56 -129q-93 -103 -197 -103q-50 0 -118 24t-103 35t-90 11t-115 -70l-53 119q102 131 223 131z" />
    <glyph glyph-name="uniF40E" unicode="&#xf40e;" horiz-adv-x="657" 
d="M123 -219q0 159 182 239h182q-127 -45 -127 -161q0 -51 36 -77t102 5l37 -119q-43 -43 -139 -64q-32 -7 -62 -7q-104 0 -158 51q-53 51 -53 133z" />
    <glyph glyph-name="uniF486" unicode="&#xf486;" horiz-adv-x="1003" 
d="M653 1042q0 189 -184 189q-84 0 -119 -8v-398h60q60 0 100 11q59 24 101 74t42 132zM474 203q92 0 147 55q55 54 55 142t-18 128q-36 78 -120 88q-40 6 -83 7h-105v-408q32 -12 124 -12zM705 752q241 -59 241 -363q0 -97 -38 -177t-102 -132q-129 -102 -333 -100h-74
q-187 0 -307 30v1413q176 31 315 31q140 0 223 -14t145 -54q136 -87 136 -278q0 -192 -111 -291q-40 -35 -95 -53v-12zM770 1782v-62l-270 -180h-191l168 242h293z" />
    <glyph glyph-name="uniF487" unicode="&#xf487;" horiz-adv-x="907" 
d="M604 513q0 314 -135 312q-102 0 -137 -106v-498q42 -23 116 -23q156 0 156 315zM88 1434h244v-476h6q74 90 215 90t222 -120t81 -400t-115 -416t-313 -137q-109 1 -200 21t-140 45v1393zM774 1475v-62l-192 -254h-138l86 316h244z" />
    <glyph glyph-name="uniF488" unicode="&#xf488;" horiz-adv-x="858" 
d="M92 1434h717v-238h-459v-373h422v-237h-422v-586h-258v1434zM762 1782v-62l-270 -180h-191l168 242h293z" />
    <glyph glyph-name="uniF489" unicode="&#xf489;" horiz-adv-x="546" 
d="M468 1227q-64 0 -80 -46t-17 -157h174v-217h-174v-807h-244v807h-111v217h111v57q0 369 281 369q135 0 225 -37l-45 -207q-56 21 -120 21zM725 1782v-62l-270 -180h-191l168 242h293z" />
    <glyph glyph-name="uniF49E" unicode="&#xf49e;" horiz-adv-x="1038" 
d="M553 709q-127 0 -197 -70v-639h-258v1055h-123v186h123v193h258v-193h375v-186h-375v-199q122 82 293 82q320 0 320 -393v-545h-258v465q0 123 -35 183.5t-123 60.5z" />
    <glyph glyph-name="uniF49F" unicode="&#xf49f;" horiz-adv-x="933" 
d="M352 932q92 119 234 119t205 -83t63 -296v-672h-244v618q0 111 -25 160q-26 49 -84 49t-100 -34q-41 -35 -55 -88v-705h-244v1151h-120v162h120v121h244v-121h272v-162h-272v-219h6z" />
    <glyph glyph-name="uniF4C6" unicode="&#xf4c6;" horiz-adv-x="1032" 
d="M395 498q-229 0 -277 136t-48 245v555h258v-471q0 -127 36.5 -181.5t120.5 -54.5q131 0 195 72v635h258v-1493q0 -365 -285 -365q-51 0 -112 12v217q88 -10 113.5 44.5t25.5 152.5v576q-113 -80 -285 -80z" />
    <glyph glyph-name="uniF4C7" unicode="&#xf4c7;" horiz-adv-x="858" 
d="M526 397q-86 -69 -216 -69t-195.5 75t-65.5 256v365h244v-274q0 -109 19.5 -157t91.5 -48t122 43v436h244v-1087q0 -172 -63.5 -265.5t-204.5 -93.5q-61 0 -119 14v211q88 -8 115.5 42.5t27.5 154.5v397z" />
    <glyph glyph-name="uniF4CC" unicode="&#xf4cc;" horiz-adv-x="972" 
d="M219 252q44 -25 98 -29q76 0 105 156l-442 1055h305l219 -625l31 -191h10l26 197l162 619h266l-319 -992q-79 -249 -129 -325q-51 -76 -99 -104q-48 -27 -110 -27t-103 10q-40 10 -83 39zM795 1782v-62l-271 -180h-190l168 242h293z" />
    <glyph glyph-name="uniF4CD" unicode="&#xf4cd;" horiz-adv-x="819" 
d="M453 -281q-72 -139 -178 -139q-107 0 -158 31l41 209q100 -37 147 71q18 41 31 109l-356 1024h292l144 -575l26 -160h11l18 162l119 573h250l-256 -924q-82 -282 -131 -381zM664 1475v-62l-193 -254h-137l86 316h244z" />
    <glyph glyph-name="uniF4D6" unicode="&#xf4d6;" horiz-adv-x="976" 
d="M373 1462q545 0 545 -746t-572 -745q-100 1 -185 21t-132 45l67 229q117 -57 256 -57t213 99t84 313h-434v213h432q-13 278 -163 362q-52 29 -126 29q-147 0 -268 -72l-59 223q65 39 159 63t183 23zM396 1509q-78 0 -118 37t-40 89t40 89t118 37t120 -37q41 -37 41 -89
t-41 -89t-120 -37z" />
    <glyph glyph-name="uniF4D7" unicode="&#xf4d7;" horiz-adv-x="772" 
d="M340 1053q381 0 381 -541q1 -274 -105 -406t-295 -133q-189 0 -290 60l57 203q84 -46 188 -46t147 56q42 56 46 180h-295v184h295q-6 111 -46 168q-40 58 -143 58t-180 -50l-65 185q111 82 305 82zM170 1313q0 61 39 101t111 40t114 -39q43 -39 43 -102t-43 -101
t-115 -36q-73 0 -111 38t-38 99z" />
    <glyph glyph-name="uni0498.alt" unicode="&#xf50a;" horiz-adv-x="890" 
d="M414 1458q388 0 387 -358q0 -104 -44 -194t-143 -134v-12q222 -61 223 -345t-221 -391q-66 -32 -139 -44l-22 -338h-168l-31 335q-151 21 -231 66l67 229q107 -63 268 -63q84 0 146 54q61 55 61 163t-56 158t-198 55l-65 2h-47v209h49q111 0 156 15q46 15 86 61t38 130
q-1 164 -182 165q-120 0 -225 -66l-66 223q134 80 357 80z" />
    <glyph glyph-name="uni0499.alt" unicode="&#xf50b;" horiz-adv-x="724" 
d="M281 197q150 0 149 120q0 51 -38 80t-140 29h-78v182h98q55 0 90 33t35 80q0 102 -127 102q-106 0 -184 -51l-55 195q53 31 139 53t178 20q293 0 293 -254q0 -76 -33 -142t-98 -95v-8q86 -25 125 -86t39 -165t-56 -186t-180 -110l-24 -352h-168l-33 344q-115 16 -184 61
l49 199q83 -49 203 -49z" />
    <glyph glyph-name="uni04AA.alt02" unicode="&#xf50c;" horiz-adv-x="935" 
d="M776 -211q0 -90 -77 -139t-191 -49q-55 0 -111 12l15 98q141 -13 141 60q0 57 -143 65l88 172q-310 40 -405 418q-34 135 -34 338q0 385 167 574q137 155 366 155q178 0 297 -53l-51 -228q-84 43 -215 43q-293 0 -293 -507q0 -366 169 -472q58 -36 157 -36t198 65
l51 -217q-79 -65 -252 -82l-28 -63q151 -17 151 -154z" />
    <glyph glyph-name="uni04AB.alt02" unicode="&#xf50d;" horiz-adv-x="716" 
d="M629 -242q0 -89 -77 -138q-77 -50 -192 -50q-55 0 -110 12l14 99q142 -13 142 59q0 57 -144 65l88 175q-164 28 -232 168t-67 364q0 537 379 539q150 0 254 -58l-57 -202q-74 36 -156 36q-168 0 -168 -315q0 -139 44 -227t134 -88t160 47l51 -189q-62 -52 -184 -75
l-31 -68q152 -17 152 -154z" />
    <glyph glyph-name="uniF50E" unicode="&#xf50e;" horiz-adv-x="1026" 
d="M389 537h238l-82 333l-33 226h-8l-35 -228zM672 324h-338l-84 -324h-256l416 1444h202l418 -1444h-270zM221 1753h592v-182h-592v182z" />
    <glyph glyph-name="uniF50F" unicode="&#xf50f;" horiz-adv-x="845" 
d="M287 324q0 -129 96 -129q55 -1 90 27t51 61v170q-164 21 -218 -59q-19 -28 -19 -70zM764 698q0 -96 -5 -189q-20 -367 23 -511h-198l-39 125h-8q-77 -137 -242 -137q-121 0 -191 81t-69 216q0 184 131 262t354 65q10 119 -15 172q-26 53 -110 54q-139 0 -243 -56l-62 183
q137 83 363 81q175 0 243 -90t68 -256zM147 1348h558v-187h-558v187z" />
    <glyph glyph-name="uniF510" unicode="&#xf510;" horiz-adv-x="880" 
d="M92 1434h717v-238h-459v-352h416v-238h-416v-368h467v-238h-725v1434zM156 1753h592v-182h-592v182z" />
    <glyph glyph-name="uniF511" unicode="&#xf511;" horiz-adv-x="876" 
d="M582 606q12 238 -121 238q-149 0 -162 -238h283zM809 663q0 -105 -21 -219h-497q4 -126 53 -194t158 -68q66 0 120 20t83 44l75 -170q-51 -45 -139 -74t-184 -29q-406 0 -406 539q0 276 110 408t304 133q233 0 314 -208q30 -77 30 -182zM164 1348h557v-187h-557v187z" />
    <glyph glyph-name="uniF512" unicode="&#xf512;" horiz-adv-x="880" 
d="M92 1434h717v-238h-459v-352h416v-238h-416v-368h467v-238h-725v1434zM494 1636q0 118 138 117q138 0 138 -118t-138 -118q-138 1 -138 119zM121 1636q0 118 141 117q72 0 104 -33t31 -86q0 -118 -138 -117t-138 119zM147 2032h592v-183h-592v183z" />
    <glyph glyph-name="uniF513" unicode="&#xf513;" horiz-adv-x="876" 
d="M582 606q12 238 -121 238q-149 0 -162 -238h283zM809 663q0 -105 -21 -219h-497q4 -126 53 -194t158 -68q66 0 120 20t83 44l75 -170q-51 -45 -139 -74t-184 -29q-406 0 -406 539q0 276 110 408t304 133q233 0 314 -208q30 -77 30 -182zM637 1130q-59 0 -94 36t-35 100
t35 100t94 37q59 0 94 -37t35 -100q0 -64 -35 -100t-94 -36zM385 1266q0 -64 -35 -100t-93 -36t-94 36t-36 100t36 100t94 37q58 0 93 -37t35 -100zM150 1718h591v-182h-591v182z" />
    <glyph glyph-name="uniF514" unicode="&#xf514;" horiz-adv-x="880" 
d="M92 1434h717v-238h-459v-352h416v-238h-416v-368h467v-238h-725v1434zM496 1636q0 118 138 117q138 0 138 -118t-138 -118q-138 1 -138 119zM123 1636q0 118 141 117q72 0 104 -33t31 -86q0 -118 -138 -117t-138 119zM460 1956q102 0 115 123l209 -31q-30 -252 -325 -252
q-318 0 -346 248l233 37q12 -125 114 -125z" />
    <glyph glyph-name="uniF515" unicode="&#xf515;" horiz-adv-x="876" 
d="M582 606q12 238 -121 238q-149 0 -162 -238h283zM809 663q0 -105 -21 -219h-497q4 -126 53 -194t158 -68q66 0 120 20t83 44l75 -170q-51 -45 -139 -74t-184 -29q-406 0 -406 539q0 276 110 408t304 133q233 0 314 -208q30 -77 30 -182zM637 1130q-59 0 -94 36t-35 100
t35 100t94 37q59 0 94 -37t35 -100q0 -64 -35 -100t-94 -36zM385 1266q0 -64 -35 -100t-93 -36t-94 36t-36 100t36 100t94 37q58 0 93 -37t35 -100zM460 1630q102 0 115 123l209 -31q-16 -133 -100 -192t-225 -60q-318 0 -346 248l233 37q12 -125 114 -125z" />
    <glyph glyph-name="uniF516" unicode="&#xf516;" horiz-adv-x="890" 
d="M414 1458q388 0 387 -358q0 -104 -44 -194t-143 -134v-12q222 -61 224 -348q0 -223 -134 -332t-346 -109q-213 0 -333 72l67 229q107 -63 268 -63q84 0 146 54q61 55 61 163t-56 158t-198 55l-65 2h-47v209h49q111 0 156 15q46 15 86 61t38 130q-1 164 -182 165
q-120 0 -225 -66l-66 223q134 80 357 80zM113 1782h186l86 -92l35 -62l35 60l92 94h180v-82l-223 -191h-178l-213 193v80z" />
    <glyph glyph-name="uniF517" unicode="&#xf517;" horiz-adv-x="724" 
d="M510 541q164 -49 164 -233q0 -156 -94 -243t-270 -86q-175 1 -281 68l49 199q83 -49 203 -49q150 0 149 120q0 51 -38 80t-140 29h-78v182h98q55 0 90 33t35 80q0 102 -127 102q-106 0 -184 -51l-55 195q53 31 139 53t178 20q293 0 293 -254q0 -76 -33 -142t-98 -95v-8z
M451 1126h-181l-194 373h200l66 -135l27 -100l26 100l76 135h186z" />
    <glyph glyph-name="uniF518" unicode="&#xf518;" horiz-adv-x="1132" 
d="M330 717q0 -360 126 -469q44 -39 109 -39q119 0 178 121t60 387q0 357 -125 468q-45 40 -113 40q-235 0 -235 -508zM59 717q0 745 506 745q384 0 478 -437q30 -138 30 -308q0 -365 -128 -555t-383 -190t-379 195t-124 550zM274 1753h592v-182h-592v182z" />
    <glyph glyph-name="uniF519" unicode="&#xf519;" horiz-adv-x="911" 
d="M303 512q0 -322 150 -322q79 0 117 73t38 240t-35 249t-118 82q-152 0 -152 -322zM455 1051q405 0 405 -539q0 -274 -106 -406t-299 -133q-404 0 -404 539q1 272 107 406t297 133zM178 1348h557v-187h-557v187z" />
    <glyph glyph-name="uniF51A" unicode="&#xf51a;" horiz-adv-x="1132" 
d="M330 717q0 -360 126 -469q44 -39 109 -39q119 0 178 121t60 387q0 357 -125 468q-45 40 -113 40q-235 0 -235 -508zM59 717q0 745 506 745q384 0 478 -437q30 -138 30 -308q0 -365 -128 -555t-383 -190t-379 195t-124 550zM575 1665q102 0 115 123l209 -31
q-16 -133 -100 -192t-226 -60q-318 0 -346 248l234 37q12 -125 114 -125z" />
    <glyph glyph-name="uniF51B" unicode="&#xf51b;" horiz-adv-x="911" 
d="M303 512q0 -322 150 -322q79 0 117 73t38 240t-35 249t-118 82q-152 0 -152 -322zM455 1051q405 0 405 -539q0 -274 -106 -406t-299 -133q-404 0 -404 539q1 272 107 406t297 133zM457 1126q-187 0 -266 144q-28 51 -35 127l206 45q11 -148 101 -148q85 0 104 146
l185 -45q-23 -139 -104 -204t-191 -65z" />
    <glyph glyph-name="uniF51C" unicode="&#xf51c;" horiz-adv-x="1130" 
d="M801 829q-28 396 -237 396q-210 0 -234 -396h471zM330 612q27 -403 235 -403q217 0 238 403h-473zM59 717q0 745 506 745t506 -745q0 -365 -127 -555t-382 -190t-379 195t-124 550zM578 1665q102 0 114 123l209 -31q-16 -133 -100 -192t-226 -60q-318 0 -346 248l234 37
q13 -125 115 -125z" />
    <glyph glyph-name="uniF51D" unicode="&#xf51d;" horiz-adv-x="911" 
d="M303 426q6 -125 49 -181q42 -57 102 -57t103 50t51 188h-305zM608 592q-18 242 -149 244q-61 0 -105 -52t-51 -192h305zM51 518q-1 258 105 396t302 138t300 -144q104 -145 103 -403q-1 -259 -107 -396t-304 -137t-298 144q-101 144 -101 402zM457 1126q-187 0 -266 144
q-28 51 -35 127l206 45q11 -148 101 -148q85 0 104 146l185 -45q-23 -139 -104 -204t-191 -65z" />
    <glyph glyph-name="uniF51E" unicode="&#xf51e;" horiz-adv-x="1130" 
d="M801 829q-28 396 -237 396q-210 0 -234 -396h471zM330 612q27 -403 235 -403q217 0 238 403h-473zM59 717q0 745 506 745t506 -745q0 -365 -127 -555t-382 -190t-379 195t-124 550zM891 1634q-1 -118 -139 -117t-138 117q0 53 32 86t107 33t107 -33t31 -86zM242 1636
q0 118 141 117q71 0 103 -33t32 -86t-32 -85t-103 -31q-141 0 -141 118zM578 1956q102 0 114 123l209 -31q-16 -132 -100 -192t-226 -60q-318 0 -346 248l234 37q13 -125 115 -125z" />
    <glyph glyph-name="uniF51F" unicode="&#xf51f;" horiz-adv-x="911" 
d="M303 426q6 -125 49 -181q42 -57 102 -57t103 50t51 188h-305zM608 592q-18 242 -149 244q-61 0 -105 -52t-51 -192h305zM51 518q-1 258 105 396t302 138t300 -144q104 -145 103 -403q-1 -259 -107 -396t-304 -137t-298 144q-101 144 -101 402zM516 1256q0 64 35 100
q35 37 94 37t94 -37q35 -36 35 -100t-35 -100t-94 -36t-94 36t-35 100zM135 1256q0 64 36 100q36 37 94 37t93 -37q35 -36 35 -100t-35 -100t-93 -36t-94 36t-36 100zM468 1622q102 0 116 123l209 -31q-17 -133 -101 -192t-225 -60q-318 0 -346 248l233 37q12 -125 114 -125
z" />
    <glyph glyph-name="uniF520" unicode="&#xf520;" horiz-adv-x="1368" 
d="M458 217q76 0 128 56q51 56 51 194q0 194 -114 222q-37 9 -87 9t-86 -18v-451q32 -12 108 -12zM92 1434h258v-514q72 16 152 16q187 0 284 -90q121 -112 121 -366q-1 -253 -115 -377t-368 -123q-201 0 -332 32v1422zM1018 1434h258v-1434h-258v1434zM383 1753h592v-182
h-592v182z" />
    <glyph glyph-name="uniF521" unicode="&#xf521;" horiz-adv-x="1210" 
d="M881 1024h243v-1024h-243v1024zM494 674q294 0 299 -318q0 -191 -92 -281q-92 -91 -308 -89q-172 0 -305 14v1024h244v-365q77 15 162 15zM430 203q110 0 111 144q0 145 -110 143q-56 0 -99 -13v-262q42 -12 98 -12zM311 1348h557v-187h-557v187z" />
    <glyph glyph-name="uniF522" unicode="&#xf522;" horiz-adv-x="976" 
d="M373 1462q545 0 545 -746t-572 -745q-100 1 -185 21t-132 45l67 229q117 -57 256 -57t213 99t84 313h-434v213h432q-13 278 -163 362q-52 29 -126 29q-147 0 -268 -72l-59 223q65 39 159 63t183 23zM109 1753h591v-182h-591v182z" />
    <glyph glyph-name="uniF523" unicode="&#xf523;" horiz-adv-x="772" 
d="M340 1053q381 0 381 -541q1 -274 -105 -406t-295 -133q-189 0 -290 60l57 203q84 -46 188 -46t147 56q42 56 46 180h-295v184h295q-6 111 -46 168q-40 58 -143 58t-180 -50l-65 185q111 82 305 82zM68 1348h557v-187h-557v187z" />
    <glyph glyph-name="uniF524" unicode="&#xf524;" horiz-adv-x="976" 
d="M373 1462q545 0 545 -746t-572 -745q-100 1 -185 21t-132 45l67 229q117 -57 256 -57t213 99t84 313h-434v213h432q-13 278 -163 362q-52 29 -126 29q-147 0 -268 -72l-59 223q65 39 159 63t183 23zM412 1665q102 0 114 123l209 -31q-16 -133 -100 -192t-225 -60
q-229 0 -310 129q-29 47 -37 119l234 37q13 -125 115 -125z" />
    <glyph glyph-name="uniF525" unicode="&#xf525;" horiz-adv-x="772" 
d="M340 1053q381 0 381 -541q1 -274 -105 -406t-295 -133q-189 0 -290 60l57 203q84 -46 188 -46t147 56q42 56 46 180h-295v184h295q-6 111 -46 168q-40 58 -143 58t-180 -50l-65 185q111 82 305 82zM346 1126q-186 0 -265 144q-28 51 -36 127l207 45q11 -148 100 -148
q86 0 105 146l184 -45q-23 -139 -103 -204t-192 -65z" />
    <glyph glyph-name="uniF526" unicode="&#xf526;" horiz-adv-x="972" 
d="M641 209q122 0 221 65l51 -217q-51 -43 -120 -59q-552 -125 -693 369q-41 143 -41 356q0 394 167 585q136 154 366 154q186 0 305 -53l-51 -227q-80 41 -213 42t-208 -91t-93 -289h456v-213h-458q19 -299 182 -391q55 -31 129 -31zM625 1636q0 118 138 117
q138 0 138 -118t-138 -118q-138 1 -138 119zM252 1636q0 118 141 117q72 0 104 -33t31 -86q0 -118 -138 -117t-138 119z" />
    <glyph glyph-name="uniF527" unicode="&#xf527;" horiz-adv-x="759" 
d="M514 199q94 0 164 45l51 -193q-47 -37 -125 -56q-314 -77 -452 127q-97 141 -97 395q0 255 110 393t283 138t273 -53l-59 -207q-72 37 -153 37q-168 0 -200 -219h309v-176h-311q13 -104 63 -168t144 -63zM498 1296q0 64 34 101t94 37t95 -37t35 -101t-35 -99
q-35 -36 -94 -36t-95 36q-34 35 -34 99zM117 1296q0 64 36 101t94 37t93 -37t35 -101t-35 -99q-35 -36 -93 -36t-94 36q-36 35 -36 99z" />
    <glyph glyph-name="uniF528" unicode="&#xf528;" horiz-adv-x="995" 
d="M365 981q0 -129 56 -185t146 -57h78v467q-27 9 -75 10q-205 4 -205 -235zM94 993q0 360 304 438q94 23 241 23q148 0 264 -35v-1419h-258v571l-110 -39l-228 -532h-297l234 487l102 82q-108 31 -180 134t-72 290zM258 1753h592v-182h-592v182z" />
    <glyph glyph-name="uniF529" unicode="&#xf529;" horiz-adv-x="862" 
d="M537 524v295q-31 14 -76 15q-143 0 -144 -158q0 -152 162 -156zM780 0h-243v387l-93 -25l-145 -362h-285l156 330l80 65q-82 21 -133 99t-51 196q0 186 102 274t326 87q163 0 286 -29v-1022zM164 1348h557v-187h-557v187z" />
    <glyph glyph-name="uniF52A" unicode="&#xf52a;" horiz-adv-x="995" 
d="M365 981q0 -129 56 -185t146 -57h78v467q-27 9 -75 10q-205 4 -205 -235zM94 993q0 360 304 438q94 23 241 23q148 0 264 -35v-1419h-258v571l-110 -39l-228 -532h-297l234 487l102 82q-108 31 -180 134t-72 290zM556 1665q102 0 116 123l209 -31q-17 -133 -101 -192
t-225 -60q-318 0 -346 248l233 37q12 -125 114 -125z" />
    <glyph glyph-name="uniF52B" unicode="&#xf52b;" horiz-adv-x="862" 
d="M537 524v295q-31 14 -76 15q-143 0 -144 -158q0 -152 162 -156zM780 0h-243v387l-93 -25l-145 -362h-285l156 330l80 65q-82 21 -133 99t-51 196q0 186 102 274t326 87q163 0 286 -29v-1022zM459 1126q-189 0 -265 144q-28 51 -36 127l207 45q11 -148 100 -148
q87 0 104 146l185 -45q-23 -139 -104 -204t-191 -65z" />
    <glyph glyph-name="uniF52C" unicode="&#xf52c;" horiz-adv-x="1521" 
d="M754 717q0 -368 113 -470q42 -38 106 -38q119 0 169 120t50 388q0 367 -110 469q-42 39 -109 39q-117 0 -168 -124t-51 -384zM973 -29q-442 0 -477 635h-146v-606h-258v1434h258v-590h146q16 294 132 456t347 162q491 0 487 -745q0 -746 -489 -746zM500 1753h592v-182
h-592v182z" />
    <glyph glyph-name="uniF52D" unicode="&#xf52d;" horiz-adv-x="1251" 
d="M680 522q0 -168 31 -249t105 -81t103 68q29 67 29 244q0 176 -28 252q-29 76 -102 76q-74 0 -106 -72q-32 -70 -32 -238zM1200 512q0 -537 -381 -537q-190 0 -273 115t-97 328h-117v-418h-244v1024h244v-389h119q18 205 105 309t267 105q377 0 377 -537zM328 1348h557
v-187h-557v187z" />
    <glyph glyph-name="uniF52E" unicode="&#xf52e;" horiz-adv-x="1521" 
d="M754 717q0 -368 113 -470q42 -38 106 -38q119 0 169 120t50 388q0 367 -110 469q-42 39 -109 39q-117 0 -168 -124t-51 -384zM973 -29q-442 0 -477 635h-146v-606h-258v1434h258v-590h146q16 294 132 456t347 162q491 0 487 -745q0 -746 -489 -746zM762 1665
q102 0 115 123l208 -31q-16 -133 -100 -192t-225 -60q-318 0 -346 248l233 37q13 -125 115 -125z" />
    <glyph glyph-name="uniF52F" unicode="&#xf52f;" horiz-adv-x="1251" 
d="M680 522q0 -168 31 -249t105 -81t103 68q29 67 29 244q0 176 -28 252q-29 76 -102 76q-74 0 -106 -72q-32 -70 -32 -238zM1200 512q0 -537 -381 -537q-190 0 -273 115t-97 328h-117v-418h-244v1024h244v-389h119q18 205 105 309t267 105q377 0 377 -537zM621 1126
q-187 0 -266 144q-28 51 -36 127l207 45q11 -148 101 -148q85 0 104 146l184 -45q-23 -139 -103 -204t-191 -65z" />
    <glyph glyph-name="uniF530" unicode="&#xf530;" horiz-adv-x="1142" 
d="M707 1196h-218q-14 -389 -43.5 -701t-117 -399.5t-138.5 -98.5t-104 -11t-111 28l29 234q37 -14 74 -1t61 66q74 133 88.5 502t18.5 619h719v-1196h151v-494h-182l-25 256h-202v1196z" />
    <glyph glyph-name="uniF531" unicode="&#xf531;" horiz-adv-x="966" 
d="M555 801h-147q-19 -413 -59 -552.5t-92 -200t-145 -60.5t-143 30l29 213q49 -16 83 2.5t66.5 137.5t45.5 653h606v-801h145v-456h-180l-27 233h-182v801z" />
    <glyph glyph-name="uniF532" unicode="&#xf532;" horiz-adv-x="1120" 
d="M585.5 1665q102.5 0 114.5 123l209 -31q-30 -252 -325 -252q-231 0 -284.5 88t-61.5 160l233 37q12 -125 114.5 -125zM350 1434v-750l-22 -209h10l82 223l407 736h201v-1495q0 -170 -60.5 -267.5t-211.5 -97.5q-59 0 -125 14v217q118 -11 128.5 67.5t10.5 127.5v764
l21 203h-11l-78 -217l-407 -750h-203v1434h258z" />
    <glyph glyph-name="uniF533" unicode="&#xf533;" horiz-adv-x="921" 
d="M565 -422q-61 0 -119 14v211q88 -8 116 42.5t28 174.5v426l18 166h-6l-76 -174l-274 -438h-164v1024h244v-465l-19 -160h6l74 170l277 455h164v-1087q0 -172 -63.5 -265.5t-205.5 -93.5zM477 1126q-186 0 -239.5 97.5t-61.5 173.5l207 45q11 -148 100 -148q86 0 105 146
l184 -45q-23 -139 -103.5 -204t-191.5 -65z" />
    <glyph glyph-name="uniF534" unicode="&#xf534;" horiz-adv-x="1132" 
d="M330 717q0 -360 126 -469q44 -39 109 -39q119 0 178 121t60 387q0 357 -125 468q-45 40 -113 40q-235 0 -235 -508zM59 717q0 745 506 745q384 0 478 -437q30 -138 30 -308q0 -365 -128 -555t-383 -190t-379 195t-124 550zM408 1635q0 52 39 89q40 37 119 37t120 -37
t41 -89t-41 -89t-120 -37t-119 37q-39 37 -39 89z" />
    <glyph glyph-name="uniF535" unicode="&#xf535;" horiz-adv-x="911" 
d="M303 512q0 -322 150 -322q79 0 117 73t38 240t-35 249t-118 82q-152 0 -152 -322zM455 1051q405 0 405 -539q0 -274 -106 -406t-299 -133q-404 0 -404 539q1 272 107 406t297 133zM303 1313q0 61 39 101t111 40q73 0 115 -39t42 -102t-43 -101t-115 -36q-72 0 -110 38
q-39 38 -39 99z" />
    <glyph glyph-name="uniF536" unicode="&#xf536;" horiz-adv-x="1368" 
d="M458 217q76 0 128 56q51 56 51 194q0 194 -114 222q-37 9 -87 9t-86 -18v-451q32 -12 108 -12zM92 1434h258v-514q72 16 152 16q187 0 284 -90q121 -112 121 -366q-1 -253 -115 -377t-368 -123q-201 0 -332 32v1422zM1018 1434h258v-1434h-258v1434zM698 1665
q102 0 115 123l209 -31q-16 -133 -100 -192t-226 -60q-318 0 -346 248l234 37q12 -125 114 -125z" />
    <glyph glyph-name="uniF537" unicode="&#xf537;" horiz-adv-x="1210" 
d="M881 1024h243v-1024h-243v1024zM494 674q294 0 299 -318q0 -191 -92 -281q-92 -91 -308 -89q-172 0 -305 14v1024h244v-365q77 15 162 15zM430 203q110 0 111 144q0 145 -110 143q-56 0 -99 -13v-262q42 -12 98 -12zM606 1126q-186 0 -265 144q-28 51 -36 127l207 45
q11 -148 100 -148q86 0 105 146l184 -45q-23 -139 -103 -204t-192 -65z" />
    <glyph glyph-name="uniF538" unicode="&#xf538;" horiz-adv-x="905" 
d="M367 1053q0 -205 284 -205h45v-207h-65q-182 0 -241 -59q-60 -60 -60 -162t59 -156t172 -55q113 0 236 67l69 -208q-49 -35 -146 -66t-214 -31q-209 -1 -328 103t-119 327q1 150 59 238t163 117v12q-94 43 -140 134q-45 90 -45 194q0 192 124 283q105 79 275 79
q169 0 289 -53q35 -14 56 -27l-66 -215q-100 56 -206 57q-107 1 -154 -38t-47 -129zM539 1636q0 118 138 117q138 0 138 -118t-138 -118q-138 1 -138 119zM166 1636q0 118 141 117q72 0 104 -33t31 -86q0 -118 -138 -117t-138 119z" />
    <glyph glyph-name="uniF539" unicode="&#xf539;" horiz-adv-x="727" 
d="M451 825q-123 0 -123 -108q0 -47 34 -78t91 -31h98v-178h-80q-102 0 -139 -30t-37 -83t37 -88t108 -34q125 0 203 51l49 -199q-101 -68 -280 -70q-269 0 -339 186q-22 56 -22 142q0 177 164 234v8q-69 29 -101 95t-32 136q0 131 80 198q80 66 200 66q212 -1 330 -69
l-53 -197q-95 49 -188 49zM461 1296q0 64 35 101t94 37t94 -37t35 -101t-35 -99q-35 -36 -94 -36t-94 36q-35 35 -35 99zM80 1296q0 64 36 101t94 37t93 -37t35 -101t-35 -99q-35 -36 -93 -36t-94 36q-36 35 -36 99z" />
    <glyph glyph-name="afii10055.alt" unicode="&#xf53a;" horiz-adv-x="487" 
d="M115 1434h258v-1434h-258v1434zM86 1635q0 52 40 89t119 37t120 -37t41 -89t-41 -89t-120 -37t-119 37t-40 89z" />
    <glyph glyph-name="afii10103.alt" unicode="&#xf53b;" horiz-adv-x="460" 
d="M109 1024h243v-1024h-243v1024z" />
    <glyph glyph-name="uni0492.alt" unicode="&#xf53c;" horiz-adv-x="858" 
d="M92 1434h717v-238h-459v-373h422v-237h-422v-586h-258v1434z" />
    <glyph glyph-name="uni0493.alt" unicode="&#xf53d;" horiz-adv-x="684" 
d="M643 801h-311v-238h282v-201h-282v-362h-244v1024h555v-223z" />
    <glyph glyph-name="uni04AA.alt" unicode="&#xf53e;" horiz-adv-x="935" 
d="M656 209q99 0 198 65l51 -217q-70 -59 -211 -77l-22 -338h-168l-31 340q-414 74 -414 754q0 380 167 572q136 154 366 154q178 0 297 -53l-51 -227q-80 41 -215 43q-293 0 -293 -508q0 -365 168 -471q58 -36 158 -37z" />
    <glyph glyph-name="uni04AB.alt" unicode="&#xf53f;" horiz-adv-x="716" 
d="M430 1053q150 0 254 -58l-57 -202q-74 36 -156 36q-168 0 -168 -315q0 -139 44 -227t134 -88t160 47l51 -189q-61 -49 -149 -67l-23 -346h-168l-33 344q-145 37 -206 175t-62 351q0 539 379 539z" />
    <glyph glyph-name="uniF540" unicode="&#xf540;" horiz-adv-x="1095" 
d="M764 733q0 224 -54 337q-70 147 -241 147q-87 0 -119 -7v-987q24 -8 112 -8q89 0 148 43q154 112 154 475zM1034 729q0 -749 -612 -752q-50 1 -178 9q-127 8 -152 12v1436q123 20 322 20q198 0 312 -52t182 -148q128 -178 126 -525zM799 1782v-62l-271 -180h-190l168 242
h293z" />
    <glyph glyph-name="uniF541" unicode="&#xf541;" horiz-adv-x="911" 
d="M303 487q0 -290 139 -290q103 0 138 108v483q-39 35 -117 35q-78 1 -119 -73t-41 -263zM580 1434h243v-1074q0 -230 19 -362h-172l-33 119h-8q-70 -143 -235 -143t-254 122q-89 123 -89 400q0 549 383 551q86 0 146 -27v414zM1194 1436v-62l-193 -254h-137l86 316h244z
" />
    <glyph glyph-name="uniF542" unicode="&#xf542;" horiz-adv-x="1091" 
d="M741 606h-391v-606h-258v1434h258v-590h391v590h258v-1434h-258v606zM881 1782v-62l-271 -180h-190l168 242h293z" />
    <glyph glyph-name="uniF543" unicode="&#xf543;" horiz-adv-x="919" 
d="M338 932q92 119 233 119t204 -82t65 -297v-672h-244v618q0 111 -26 160t-84 49q-58 -1 -99 -35t-55 -87v-705h-244v1434h244v-502h6zM788 1475v-62l-192 -254h-137l86 316h243z" />
    <glyph glyph-name="uniF544" unicode="&#xf544;" horiz-adv-x="868" 
d="M854 0h-762v1434h258v-1196h504v-238zM768 1436v-62l-193 -254h-137l86 316h244z" />
    <glyph glyph-name="uniF545" unicode="&#xf545;" horiz-adv-x="497" 
d="M92 201v1233h244v-1102q0 -72 14 -103q24 -54 129 -12l23 -197q-68 -44 -225 -44q-81 0 -133 50q-52 52 -52 175zM715 1436v-62l-193 -254h-137l86 316h244z" />
    <glyph glyph-name="uniF546" unicode="&#xf546;" horiz-adv-x="968" 
d="M952 1196h-338v-1196h-258v1196h-340v238h936v-238zM834 1782v-62l-271 -180h-190l168 242h293z" />
    <glyph glyph-name="uniF547" unicode="&#xf547;" horiz-adv-x="595" 
d="M121 270v537h-113v217h113v193l244 75v-268h198v-217h-198v-447q0 -88 17 -124t66 -37q49 0 105 24l31 -194q-102 -52 -224 -53q-123 -1 -181 67t-58 227zM770 1436v-62l-192 -254h-138l86 316h244z" />
    <glyph glyph-name="uniF548" unicode="&#xf548;" horiz-adv-x="1030" 
d="M498 592l28 -246h9l32 248l209 840h273l-435 -1444h-196l-438 1444h305zM860 1782v-62l-270 -180h-191l168 242h293z" />
    <glyph glyph-name="uniF549" unicode="&#xf549;" horiz-adv-x="817" 
d="M399 489l25 -161h8l23 164l127 532h262l-344 -1034h-164l-363 1034h285zM645 1475v-62l-192 -254h-138l86 316h244z" />
    <glyph glyph-name="uniF54A" unicode="&#xf54a;" horiz-adv-x="890" 
d="M414 1458q388 0 387 -358q0 -104 -44 -194t-143 -134v-12q222 -61 224 -348q0 -223 -134 -332t-346 -109q-213 0 -333 72l67 229q107 -63 268 -63q84 0 146 54q61 55 61 163t-56 158t-198 55l-65 2h-47v209h49q111 0 156 15q46 15 86 61t38 130q-1 164 -182 165
q-120 0 -225 -66l-66 223q134 80 357 80z" />
    <glyph glyph-name="uniF54B" unicode="&#xf54b;" horiz-adv-x="745" 
d="M489 403q216 -59 216 -385q0 -104 -34 -192t-120.5 -173t-256.5 -85t-278 67l68 197q83 -49 166 -49q140 0 174.5 89t34.5 161q0 123 -61.5 185.5t-166.5 62.5h-65v178h92q55 0 103.5 62.5t48.5 137.5q0 168 -158 168q-96 0 -168 -49l-49 193q112 71 286 71
q175 0 254.5 -86t79.5 -232t-65.5 -220t-100.5 -92v-9z" />
    <glyph glyph-name="uniF54C" unicode="&#xf54c;" horiz-adv-x="890" 
d="M414 1458q388 0 387 -358q0 -104 -44 -194t-143 -134v-12q222 -61 224 -348q0 -223 -134 -332t-346 -109q-213 0 -333 72l67 229q107 -63 268 -63q84 0 146 54q61 55 61 163t-56 158t-198 55l-65 2h-47v209h49q111 0 156 15q46 15 86 61t38 130q-1 164 -182 165
q-120 0 -225 -66l-66 223q134 80 357 80zM109 1782h186l86 -92l35 -62l35 60l92 94h180v-82l-223 -191h-178l-213 193v80z" />
    <glyph glyph-name="uniF54D" unicode="&#xf54d;" horiz-adv-x="745" 
d="M250 -217q141 0 190 130q18 48 19 120q1 123 -61 185t-167 63h-65v178h92q56 0 103 61t49 139q0 168 -158 168q-96 0 -168 -49l-49 193q112 71 286 71q175 0 255 -86t79 -230q0 -144 -101 -262q-30 -34 -65 -52v-9q213 -59 215 -385q0 -104 -33 -192q-66 -172 -227 -230
q-76 -28 -158 -28q-166 0 -270 67l68 197q83 -49 166 -49zM418 1126h-180l-195 373h201l65 -135l27 -100l26 100l76 135h187z" />
    <glyph glyph-name="uniF62C" unicode="&#xf62c;" horiz-adv-x="389" 
d="M326 909q0 -59 -36 -95t-96 -36t-97 48q-38 48 -38 127q0 138 78 233q55 65 125 94l66 -104q-35 -18 -63 -56t-32 -80q35 -4 64 -38t29 -93z" />
    <glyph glyph-name="uniF62D" unicode="&#xf62d;" horiz-adv-x="385" 
d="M59 960q0 62 36 99q35 37 95 37t98 -46t38 -127q0 -136 -77 -230q-53 -62 -126 -93l-62 102q35 16 62 50t31 79q-35 2 -65 34q-30 33 -30 95z" />
    <glyph glyph-name="uniF62E" unicode="&#xf62e;" horiz-adv-x="702" 
d="M326 909q0 -59 -36 -95t-96 -36t-97 48q-38 48 -38 127q0 138 78 233q55 65 125 94l66 -104q-35 -18 -63 -56t-32 -80q35 -4 64 -38t29 -93zM639 909q0 -59 -36 -95q-35 -36 -95 -36t-98 48t-37 127t23 137q40 104 121 157q34 23 58 33l66 -104q-35 -18 -63 -56t-31 -80
q35 -4 63 -38t29 -93z" />
    <glyph glyph-name="uniF62F" unicode="&#xf62f;" horiz-adv-x="698" 
d="M59 960q0 62 36 99q35 37 95 37t98 -46t38 -127q0 -136 -77 -230q-53 -62 -126 -93l-62 102q35 16 62 50t31 79q-35 2 -65 34q-30 33 -30 95zM373 960q0 62 36 99q35 37 95 37t98 -46t37 -127q0 -136 -77 -230q-54 -64 -126 -93l-61 102q35 16 61 50t31 79q-35 2 -65 34
q-29 33 -29 95z" />
    <glyph glyph-name="uniF634" unicode="&#xf634;" horiz-adv-x="444" 
d="M150 1077h210l-63 -442h-147v442z" />
    <glyph glyph-name="uniF635" unicode="&#xf635;" horiz-adv-x="718" 
d="M150 1077h210l-63 -442h-147v442zM424 1077h211l-64 -442h-147v442z" />
    <glyph glyph-name="one.numerator" unicode="&#xf662;" horiz-adv-x="731" 
d="M518 1448v-875h-215v541l19 94l-54 -67l-92 -64l-92 144l268 227h166z" />
    </font>
</defs>
</svg>
