<?xml version="1.0" standalone="no"?>
<!DOCTYPE svg PUBLIC "-//W3C//DTD SVG 1.1//EN" "http://www.w3.org/Graphics/SVG/1.1/DTD/svg11.dtd" >
<svg xmlns="http://www.w3.org/2000/svg">
<metadata>
Created by FontPrep 20130207 at Wed Feb 18 10:49:52 2015
 By Max Quattromani
Copyright (c) 2006 - 2009 by Jeremie Hornus. All rights reserved.
</metadata>
<defs>
<font id="4a07ff648243f6fd878598873bca2922" horiz-adv-x='1024' >
  <font-face 
    font-family="Kefa-Bold"
    font-weight="700"
    font-stretch="normal"
    units-per-em="2048"
    panose-1="2 0 8 6 0 0 0 2 0 4"
    ascent="1638"
    descent="-410"
    x-height="989"
    cap-height="1365"
    bbox="-174.96 -460 4107 2059"
    underline-thickness="102"
    underline-position="-103"
    unicode-range="U+0020-FB02"
  />
<missing-glyph horiz-adv-x="450" 
 />
    <glyph glyph-name="fi" unicode="fi" horiz-adv-x="1409" 
d="M51 79q0 58 59 58h82q5 128 5 273v430h-129q-18 43 -18 82t14 53t45 14h88q6 245 125 341t427 95q308 1 394 -29t86 -124t-90 -158q-296 148 -462 148q-123 0 -161 -50t-37 -186v-37h556q105 -1 144 -9t45 -31t5 -65v-474q0 -145 6 -273h118q17 -33 17 -71t-14 -52
t-57 -14h-480q-17 42 -17 79q0 58 59 58h81q6 128 6 306q0 179 -4 251t-16 106t-36 42t-73 8h-340v-440q0 -145 5 -273h149q17 -33 17 -71t-14 -52t-57 -14h-511q-17 42 -17 79z" />
    <glyph glyph-name="fl" unicode="fl" horiz-adv-x="1483" 
d="M51 79q0 58 59 58h82q5 128 5 273v430h-129q-18 43 -18 82t14 53t45 14h88q7 245 119 341t320 95q208 0 416 -50l38 50q124 -1 162 -9t44 -31t6 -65v-769q0 -286 5 -414h127q18 -33 18 -71t-14 -52t-57 -14h-490q-17 42 -17 79q0 58 59 58h82q5 128 5 345v691
q-261 89 -397 89q-98 0 -121 -55t-23 -167v-51h243q17 -39 17 -81t-14 -55t-54 -13h-192v-430q0 -145 5 -273h158q17 -33 17 -71t-14 -52t-57 -14h-520q-17 42 -17 79z" />
    <glyph glyph-name=".notdef" horiz-adv-x="450" 
 />
    <glyph glyph-name=".null" horiz-adv-x="0" 
 />
    <glyph glyph-name="nonmarkingreturn" horiz-adv-x="635" 
 />
    <glyph glyph-name="space" unicode=" " horiz-adv-x="503" 
 />
    <glyph glyph-name="exclam" unicode="!" horiz-adv-x="739" 
d="M420 1365q118 1 126 -69t-52 -901h-182q-57 763 -79 951q69 19 187 19zM398 263q168 0 168 -141q0 -70 -45 -106t-123 -36q-167 0 -167 142q0 69 45 105t122 36z" />
    <glyph glyph-name="quotedbl" unicode="&#x22;" horiz-adv-x="949" 
d="M718 1425q94 1 102 -69t-43 -387h-172q-20 249 -42 431q61 25 155 25zM278 1425q94 1 102 -69t-43 -387h-172q-20 249 -42 431q61 25 155 25z" />
    <glyph glyph-name="numbersign" unicode="#" 
d="M481 562h245l97 296h-245zM172 964q0 98 67 98h168l106 323q107 -2 147 -18q74 -30 43 -126l-59 -179h245l106 323q107 -2 147 -18q74 -30 43 -126l-59 -179h132q17 -53 17 -114q0 -90 -78 -90h-137l-97 -296h148q17 -53 17 -114q0 -90 -78 -90h-153l-123 -377
q-108 2 -148 18q-76 31 -42 126l76 233h-245l-123 -377q-108 2 -148 18q-76 31 -42 126l76 233h-136q-17 63 -17 106q0 98 67 98h152l97 296h-152q-17 63 -17 106z" />
    <glyph glyph-name="dollar" unicode="$" 
d="M869 328q0 86 -73 134t-157 74v-366q131 3 181 37q50 35 49 121zM596 -230q-56 0 -71 17q-16 17 -16 61v133q-181 3 -277 33t-96 120t69 154q158 -80 304 -105v391q-189 55 -274 147t-85 239q0 198 132 304t321 117v190q55 17 103 17t60 -18t13 -48v-139q179 -5 255 -31
t76 -112q0 -85 -61 -151q-147 66 -270 90v-376q171 -51 279 -133t108 -272t-132 -294t-349 -118v-199q-33 -17 -89 -17zM446 1041q0 -81 48 -123t155 -79v362q-203 -4 -203 -160z" />
    <glyph glyph-name="percent" unicode="%" horiz-adv-x="2501" 
d="M1905 628q-124 0 -124 -204q1 -154 31 -206t98 -52t94 50t26 177t-30 181t-95 54zM1880 -13q-236 -1 -333 97q-96 98 -96 283q1 185 123 311t358 127t333 -97q96 -98 96 -283q-1 -185 -123 -311t-358 -127zM594 1208q-124 0 -124 -204q0 -154 30 -206t99 -52t95 50
t26 176t-31 181t-95 55zM568 567q-236 -1 -332 97t-96 283t123 311t359 127t332 -97t96 -283t-122 -311q-124 -126 -360 -127zM1693 1421l-742 -1590q-39 -3 -89 21t-57 46t11 62l738 1581q56 -9 100 -29t48 -42t-9 -49z" />
    <glyph glyph-name="ampersand" unicode="&#x26;" horiz-adv-x="1528" 
d="M762 1066q0 70 -40 108t-105 38t-105 -35t-40 -105t51 -136q20 -26 85 -91q43 38 79 75q75 76 75 146zM398 331q0 -85 52 -131t144 -47q162 0 274 103l-317 301q-42 -36 -72 -64q-81 -77 -81 -162zM461 -20q-379 0 -379 270q0 166 168 301q95 76 167 135q-98 97 -140 146
q-86 103 -86 217q0 156 130 246t325 90q194 -1 296 -69t102 -194q0 -98 -72 -190t-228 -217l269 -252q41 103 56 241q101 0 151 -18t50 -83q0 -131 -105 -278q110 -99 145 -125q83 -62 174 -63q22 -83 -4 -119t-166 -37q-140 0 -175 22q-34 21 -66 55t-90 90
q-38 -26 -81 -53q-192 -115 -441 -115z" />
    <glyph glyph-name="quotesingle" unicode="'" horiz-adv-x="507" 
d="M278 1425q94 1 102 -69t-43 -387h-172q-20 249 -42 431q61 25 155 25z" />
    <glyph glyph-name="parenleft" unicode="(" horiz-adv-x="687" 
d="M59 598q0 456 331 989l179 -100q-126 -280 -176 -608q-24 -157 -24 -281t24 -280q50 -328 176 -608l-179 -100q-331 532 -331 988z" />
    <glyph glyph-name="parenright" unicode=")" horiz-adv-x="687" 
d="M629 598q0 -456 -331 -988l-178 100q125 285 175 608q24 156 24 280t-24 281q-50 323 -175 608l178 100q331 -533 331 -989z" />
    <glyph glyph-name="asterisk" unicode="*" horiz-adv-x="1321" 
d="M708 1425q84 -1 92 -69t-98 -361q191 85 326 184q42 -51 68 -131t-36 -108q-63 -28 -375 -20q140 -156 276 -253q-34 -56 -95 -99q-76 -56 -122 -6t-135 351q-104 -181 -155 -340q-64 14 -124 59q-78 56 -44 116t294 235q-206 44 -373 43q-6 66 18 136q29 90 97 76
t315 -205q-23 209 -74 367q61 25 145 25z" />
    <glyph glyph-name="plus" unicode="+" 
d="M1149 681q0 -90 -78 -90h-316v-406q-63 -17 -134 -17q-90 0 -90 78v345h-376q-18 63 -18 106q0 98 67 98h327v406q83 17 126 17q98 0 98 -66v-357h376q18 -52 18 -114z" />
    <glyph glyph-name="comma" unicode="," horiz-adv-x="924" 
d="M470 263q84 -1 129 -35t45 -116q0 -122 -109 -286t-188 -164q-61 0 -83 71q124 111 178 244q-146 28 -146 147q0 66 45 102t129 37z" />
    <glyph glyph-name="hyphen" unicode="-" horiz-adv-x="768" 
d="M148 636h522q18 -44 18 -104t-18 -80t-60 -21h-511q-18 54 -18 112q0 57 18 75t49 18z" />
    <glyph glyph-name="period" unicode="." horiz-adv-x="924" 
d="M462 263q187 0 187 -141q1 -70 -49 -106t-138 -36q-187 0 -187 142q-1 69 49 105t138 36z" />
    <glyph glyph-name="slash" unicode="/" horiz-adv-x="825" 
d="M852 1427l-651 -1786q-56 2 -185 49q-37 14 -46 36t5 62l648 1777q74 -10 151 -38q76 -28 82 -49t-4 -51z" />
    <glyph glyph-name="zero" unicode="0" 
d="M638 1193q-110 0 -171 -94q-60 -94 -60 -404q-1 -311 63 -417t180 -106t172 94t56 399t-65 417t-175 111zM1223 764q0 -784 -636 -784q-249 0 -387 127t-138 511t162 576t474 191q249 0 387 -127t138 -494z" />
    <glyph glyph-name="one" unicode="1" 
d="M254 79q0 58 59 58h192q5 128 5 493q0 364 -4 410t-15 70q-12 24 -38 32t-95 9h-87q-17 32 -17 65q0 74 176 112t248 37q72 1 96 -11q46 -21 45 -131v-417q0 -541 5 -669h243q17 -33 17 -71t-14 -52t-57 -14h-742q-17 42 -17 79z" />
    <glyph glyph-name="two" unicode="2" 
d="M896 0h-759q-29 59 -29 157q0 165 120 285t328 280q206 160 206 288q0 106 -66 152t-154 47q-88 0 -151 -12q-35 -67 -42 -71t-65 -18t-88 10t-56 82q-26 60 -27 92t15 42q16 9 152 30t347 21q211 -1 345 -77t133 -271q0 -124 -68 -235q-67 -111 -319 -284t-241 -351h35
q320 0 538 108q54 -85 54 -156t-41 -95t-167 -24z" />
    <glyph glyph-name="three" unicode="3" 
d="M512 156q269 0 269 210q-1 110 -89 172t-227 61h-49q-58 0 -58 63t29 113h90q155 -1 211 51t56 162t-56 165q-56 56 -135 56t-139 -12q-35 -67 -42 -71t-66 -18q-58 -14 -88 10t-56 82q-26 60 -26 92t16 42q16 9 150 30q136 21 333 21t325 -77t128 -261q0 -240 -275 -351
q312 -66 312 -301q0 -181 -171 -298t-508 -117q-225 0 -280 24t-55 94t54 147q217 -89 347 -89z" />
    <glyph glyph-name="four" unicode="4" 
d="M713 497q-1 604 -9 604t-337 -604h346zM495 79q0 58 59 58h154q5 121 5 193h-632q-29 46 -29 94t22 94t294 442t292 411q20 14 78 14h148q62 -1 90 -21t28 -105v-762h131q17 -50 17 -92q0 -43 -13 -59t-54 -16h-81q3 -136 5 -193h146q18 -33 18 -71q-1 -38 -15 -52
t-57 -14h-588q-18 42 -18 79z" />
    <glyph glyph-name="five" unicode="5" 
d="M510 156q277 0 277 244q-1 138 -65 198t-158 59q-94 0 -192 -33h-154q-34 42 -29 125l32 499q2 65 27 91t74 26h755q17 -43 17 -89t-17 -62t-60 -16h-516l-31 -378q131 26 242 26q196 0 308 -86t112 -295t-170 -347t-517 -138q-196 0 -253 28t-57 98t52 139
q186 -89 323 -89z" />
    <glyph glyph-name="six" unicode="6" 
d="M848 404q0 257 -214 257q-104 0 -178 -23q0 -307 55 -387q57 -79 159 -79t140 50t38 182zM747 837q222 -1 334 -87t112 -286t-154 -342t-457 -142q-246 0 -358 124t-112 399q0 428 180 655t535 227q170 1 232 -25t62 -96t-59 -144q-164 79 -320 79t-221 -134
q-47 -96 -60 -278q149 50 286 50z" />
    <glyph glyph-name="seven" unicode="7" 
d="M1066 1365q99 1 99 -73t-42 -161t-254 -440t-192 -691h-202q-139 0 -139 130t94 318q94 189 226 428q134 239 143 322h-109q-314 0 -540 -99q-54 81 -54 149t38 93q38 24 123 24h809z" />
    <glyph glyph-name="eight" unicode="8" 
d="M815 1028q0 80 -50 122q-49 42 -133 43t-126 -41t-41 -108q0 -147 212 -238q138 104 138 222zM424 340q0 -74 53 -121t157 -47t162 46q59 46 59 128q0 156 -287 254q-144 -129 -144 -260zM562 -20q-482 0 -482 290q0 219 327 401q-286 150 -286 343q0 167 158 269
q159 102 399 102q240 1 361 -77t121 -213q0 -204 -323 -349q187 -75 261 -146q101 -96 101 -221q0 -167 -169 -283t-468 -116z" />
    <glyph glyph-name="nine" unicode="9" 
d="M829 784q0 202 -56 306t-178 103q-93 0 -130 -52t-37 -154q0 -159 86 -221t314 -41q1 28 1 59zM544 528q-252 0 -356 95t-105 271q0 217 154 354q153 137 425 137t392 -133t120 -436q0 -428 -188 -632t-615 -204q-188 0 -227 23t-39 89t49 133q127 -53 262 -53
q210 0 312 107q71 75 92 294q-135 -45 -276 -45z" />
    <glyph glyph-name="colon" unicode=":" horiz-adv-x="924" 
d="M462 1007q187 0 187 -142q1 -69 -49 -105t-138 -36q-187 0 -187 141q-1 69 49 105t138 37zM462 263q187 0 187 -141q1 -70 -49 -106t-138 -36q-187 0 -187 142q-1 69 49 105t138 36z" />
    <glyph glyph-name="semicolon" unicode=";" horiz-adv-x="924" 
d="M470 263q84 -1 129 -35t45 -116q0 -122 -109 -286t-188 -164q-61 0 -83 71q124 111 178 244q-146 28 -146 147q0 66 45 102t129 37zM462 1007q187 0 187 -142q1 -69 -49 -105t-138 -36q-187 0 -187 141q-1 69 49 105t138 37z" />
    <glyph glyph-name="less" unicode="&#x3c;" 
d="M1013 1164l58 -86q63 -90 15 -138t-686 -290l722 -318l-41 -99q-27 -66 -94 -65t-430 202q-363 202 -384 222t-18 97z" />
    <glyph glyph-name="equal" unicode="=" 
d="M1149 421q0 -90 -78 -90h-916q-18 63 -18 106q0 98 67 98h927q18 -52 18 -114zM1149 881q0 -90 -78 -90h-916q-18 63 -18 106q0 98 67 98h927q18 -52 18 -114z" />
    <glyph glyph-name="greater" unicode="&#x3e;" 
d="M1130 689q2 -77 -18 -97t-384 -222q-364 -201 -430 -202t-94 65l-41 99l722 318q-638 242 -685 290t15 138l57 86z" />
    <glyph glyph-name="question" unicode="?" horiz-adv-x="1168" 
d="M519 263q186 0 186 -141q0 -70 -49 -106t-137 -36q-187 0 -187 142q0 69 50 105t137 36zM536 1209q-82 0 -135 -12q-35 -67 -42 -71t-69 -18t-88 10t-53 82q-26 60 -26 92q1 32 21 47q20 14 151 30t323 16t320 -67t128 -232t-172 -305q-172 -139 -224 -203
q-51 -64 -51 -151v-30q-105 -22 -218 -22q-92 0 -92 87q1 54 43 119t206 193t164 247q0 95 -52 141t-134 47z" />
    <glyph glyph-name="at" unicode="@" horiz-adv-x="2076" 
d="M836 290q0 -137 140 -137q54 0 96 23q42 24 54 66q13 42 13 110v57q-71 15 -151 15t-116 -28t-36 -106zM548 235q0 169 116 251t365 82h110q-9 154 -51 210t-126 57q-47 0 -100 -12q-35 -66 -42 -70t-69 -18t-88 9q-27 23 -53 81q-26 59 -26 91t16 41t151 30t297 21
t262 -60t100 -235v-356q-1 -119 29 -169q31 -50 111 -51q80 1 106 73t27 402q0 394 -160 517q-159 123 -509 123t-490 -94t-141 -431q0 -148 21 -267q-85 -33 -164 -33t-109 41t-30 177q-1 378 219 579t798 201q462 5 654 -139t192 -573q0 -371 -124 -547t-379 -176
q-83 0 -135 10t-146 77q-191 -97 -344 -97q-288 0 -288 255z" />
    <glyph glyph-name="A" unicode="A" horiz-adv-x="1469" 
d="M680 1095q-18 0 -160 -504h331q-153 504 -171 504zM11 85q0 52 58 52h54q71 193 215 627t190 526q47 94 179 94q167 0 189 -11t197 -525t253 -711h94q17 -37 17 -73t-13 -50t-42 -14h-511q-17 44 -17 85q0 52 59 52h44q-15 72 -77 287h-424q-56 -210 -70 -287h95
q17 -37 17 -73t-13 -50t-41 -14h-436q-17 44 -17 85z" />
    <glyph glyph-name="B" unicode="B" horiz-adv-x="1371" 
d="M684 786q201 0 201 185q0 104 -56 153t-169 49q-59 0 -121 -10q-1 -95 -1 -367q50 -10 146 -10zM954 391q0 232 -284 232q-64 0 -132 -10v-234q0 -115 27 -151t151 -36t180 46q58 46 58 153zM91 1312q0 53 59 53h482q598 0 598 -319q0 -222 -278 -337q347 -65 347 -316
q1 -171 -157 -282t-552 -111l-481 -1q-18 44 -18 85q0 52 59 52h73q6 128 6 546t-6 546h-114q-18 44 -18 84z" />
    <glyph glyph-name="C" unicode="C" horiz-adv-x="1271" 
d="M790 172q181 0 324 92q67 -74 67 -144q-1 -70 -141 -104q-140 -36 -328 -36q-304 0 -452 133t-148 515t177 569q177 188 502 188q213 -1 295 -31t82 -102t-64 -145q-189 86 -348 86q-160 0 -230 -104q-70 -105 -70 -399t76 -406t258 -112z" />
    <glyph glyph-name="D" unicode="D" horiz-adv-x="1471" 
d="M91 1312q0 53 59 53h422q452 1 620 -143t168 -495t-174 -539t-588 -188l-489 -1q-18 44 -18 85q0 52 59 52h73q6 128 6 546t-6 546h-114q-18 44 -18 84zM668 1173q-72 0 -125 -10q-5 -140 -5 -649q0 -238 29 -280t163 -42t209 95q76 95 76 380q1 285 -89 395t-258 111z
" />
    <glyph glyph-name="E" unicode="E" horiz-adv-x="1267" 
d="M91 1312q0 53 59 53h910q64 1 92 -19t27 -88q0 -68 -49 -145q-210 85 -538 85h-48q-6 -98 -6 -399h504q17 -53 17 -99t-12 -56q-12 -12 -46 -12h-463q1 -385 6 -465h83q337 0 534 79q44 -66 44 -132t-41 -90t-166 -24l-889 -1q-18 44 -18 85q0 52 59 52h73q6 128 6 546
t-6 546h-114q-18 44 -18 84z" />
    <glyph glyph-name="F" unicode="F" horiz-adv-x="1190" 
d="M91 1312q0 53 59 53h910q64 1 92 -19t27 -88q0 -68 -49 -145q-210 85 -538 85h-48q-6 -98 -6 -429h491q17 -53 17 -99t-12 -56q-12 -12 -45 -12h-451q1 -363 6 -465h173q17 -37 17 -73t-13 -50t-42 -14h-570q-18 44 -18 85q0 52 59 52h73q6 127 6 545t-6 546h-114
q-18 44 -18 84z" />
    <glyph glyph-name="G" unicode="G" horiz-adv-x="1381" 
d="M863 606q-1 36 17 52t61 16h218q67 0 90 -22t23 -89v-209q0 -132 10 -344q-55 -10 -133 -10q-21 0 -77 70q-184 -90 -377 -90q-309 0 -446 151t-137 488q0 390 182 578t524 188q215 -1 296 -31t81 -108t-62 -157q-199 104 -387 104q-138 0 -214 -99q-76 -100 -76 -398
t74 -411t257 -113q88 0 175 24q0 262 -12 292q-12 32 -28 40t-41 8q-18 34 -18 70z" />
    <glyph glyph-name="H" unicode="H" horiz-adv-x="1592" 
d="M91 1312q0 53 59 53h517q17 -37 17 -73t-13 -50t-42 -14h-77q-5 -128 -4 -429h497q-1 301 -7 429h-113q-17 44 -17 84q0 53 58 53h517q17 -37 17 -73t-13 -50t-41 -14h-87q-5 -128 -5 -546t6 -545h123q17 -37 17 -73t-13 -50t-41 -14h-521q-17 44 -17 85q0 52 58 52h73
q5 106 6 495h-497q1 -389 5 -495h114q17 -37 17 -73t-13 -50t-42 -14h-520q-18 44 -18 85q0 52 59 52h83q5 127 5 545t-6 546h-123q-18 44 -18 84z" />
    <glyph glyph-name="I" unicode="I" horiz-adv-x="805" 
d="M91 1312q0 53 59 53h547q17 -37 17 -73t-13 -50t-42 -14h-97q-4 -128 -4 -546t5 -545h134q17 -37 17 -73t-13 -50t-42 -14h-550q-18 44 -18 85q0 52 59 52h93q5 127 5 545t-6 546h-133q-18 44 -18 84z" />
    <glyph glyph-name="J" unicode="J" horiz-adv-x="802" 
d="M108 1312q0 53 59 53h546q17 -37 17 -73t-13 -50t-41 -14l-96 -1q-6 -127 -6 -421v-775q0 -140 -40 -224t-128 -135t-247 -51t-201 23t-42 92t45 130q195 -69 249 -49t55 250v740q0 293 -7 421h-133q-17 44 -17 84z" />
    <glyph glyph-name="K" unicode="K" horiz-adv-x="1481" 
d="M928 1311q0 53 59 53l432 1q17 -37 17 -73t-13 -50t-42 -14h-61l-415 -416q252 -406 318 -498t112 -134t114 -42q21 -86 -5 -122t-168 -36q-140 0 -196 29t-102 129t-250 501l-169 -196q1 -203 5 -306h105q17 -37 17 -73t-13 -50t-42 -14h-522q-18 44 -18 85q0 52 59 52
h93q6 127 6 545t-6 546h-133q-18 44 -18 84q0 53 59 53h519q17 -37 17 -73t-13 -50t-42 -14h-69q-4 -128 -4 -527q299 306 476 526h-89q-18 44 -18 84z" />
    <glyph glyph-name="L" unicode="L" horiz-adv-x="1154" 
d="M91 1312q0 53 59 53h527q17 -37 17 -73t-13 -50t-41 -14h-97q-5 -128 -5 -546t6 -515h24q335 0 532 79q44 -66 44 -132t-41 -90t-166 -24l-828 -1q-18 44 -18 85q0 52 59 52h73q6 128 6 546t-7 546h-113q-18 44 -18 84z" />
    <glyph glyph-name="M" unicode="M" horiz-adv-x="1831" 
d="M93 1312q0 53 59 53h545q46 -193 99 -385t103 -396q49 -204 57 -205q8 1 104 389t138 597h524q17 -37 17 -73t-13 -50t-41 -14h-76q1 -169 19 -566t28 -525h95q17 -37 17 -73t-13 -50t-42 -14h-456q-17 44 -17 85q0 52 58 52h37q6 193 -19 939q-78 -329 -150 -572
t-110 -309t-142 -66q-154 0 -171 11q-17 10 -95 246t-199 699q-4 -755 1 -948h77q17 -37 17 -73t-13 -50t-42 -14h-418q-18 44 -18 85q0 52 59 52h65q11 128 29 525t17 566h-113q-17 44 -17 84z" />
    <glyph glyph-name="N" unicode="N" horiz-adv-x="1592" 
d="M111 1312q0 53 59 53h429q134 -257 258 -476t254 -543v461q0 293 -6 421h-113q-17 44 -17 84q0 53 59 53h450q17 -37 17 -73t-13 -50t-42 -14h-87q-4 -128 -4 -422v-671q0 -95 -22 -120t-116 -25q-187 0 -212 14t-200 303t-323 646q0 -688 5 -816h104q17 -37 17 -73
t-13 -50t-41 -14h-445q-18 44 -18 85q0 52 59 52h83q5 127 5 545t-6 546h-103q-18 44 -18 84z" />
    <glyph glyph-name="O" unicode="O" horiz-adv-x="1501" 
d="M456 686q0 -290 81 -402t229 -112t215 108q66 108 66 404q-1 295 -81 402t-229 107q-149 -1 -215 -109t-66 -398zM112 632q0 377 182 565t486 188q304 1 458 -137t154 -515t-182 -565t-486 -188q-306 0 -459 138t-153 514z" />
    <glyph glyph-name="P" unicode="P" horiz-adv-x="1331" 
d="M91 85q0 52 59 52h93q5 127 5 545t-5 546h-133q-17 44 -17 84q0 53 58 53h482q388 1 522 -93t134 -311t-162 -343t-521 -125h-48q1 -259 5 -356h164q17 -37 17 -73t-13 -50t-42 -14h-580q-18 44 -18 85zM646 656q154 0 226 55t73 187q0 274 -281 275q-60 0 -101 -10
q-5 -63 -5 -357v-150h88z" />
    <glyph glyph-name="Q" unicode="Q" horiz-adv-x="1505" 
d="M456 676q0 -300 81 -412t229 -112t215 108q66 108 66 414q-1 305 -81 412t-229 107q-149 -1 -215 -109t-66 -408zM112 622q0 387 182 575t486 188q304 1 458 -137t154 -525t-182 -575t-486 -188q-306 0 -459 138t-153 524zM596 -132q106 0 308 -20t301 -20q100 0 164 20
q28 -55 28 -124t-36 -95q-35 -26 -135 -26q-100 -1 -322 43t-328 44q-108 0 -188 -28q-29 57 -29 106q-1 48 15 64t66 26t156 10z" />
    <glyph glyph-name="R" unicode="R" horiz-adv-x="1440" 
d="M93 1312q0 53 58 53h519q312 0 446 -87t133 -278q0 -264 -327 -366q82 -34 139 -106t120 -200t103 -160t118 -31q27 -89 -6 -123t-178 -34q-144 0 -204 34t-108 204t-104 252t-152 83q-52 0 -92 -10q1 -298 5 -406h145q17 -37 17 -73t-13 -50t-41 -14h-562q-18 44 -18 85
q0 52 59 52h93q5 127 5 545t-5 546h-133q-17 44 -17 84zM639 716q266 0 266 203q1 137 -67 195t-172 59q-63 0 -103 -10q-5 -63 -5 -357v-90h81z" />
    <glyph glyph-name="S" unicode="S" horiz-adv-x="1227" 
d="M515 -20q-217 0 -319 32t-102 122t70 154q229 -116 429 -116q131 0 183 34t52 122q0 87 -81 139t-273 105t-278 147t-87 241q1 201 143 313t396 112t336 -30q84 -30 84 -115t-61 -151q-231 104 -401 104q-113 0 -157 -39t-44 -120t55 -124t222 -92q210 -55 324 -139
t118 -274q0 -425 -609 -425z" />
    <glyph glyph-name="T" unicode="T" horiz-adv-x="1319" 
d="M313 85q0 52 59 52h112q6 127 6 545t-5 516q-348 -19 -394 -19t-68 18t-22 77t34 140q206 -49 518 -49h673q48 0 70 -15q22 -14 22 -84t-53 -153q-187 85 -435 85h-25q-5 -98 -5 -516t5 -545h153q18 -37 18 -73t-13 -50t-42 -14h-590q-18 44 -18 85z" />
    <glyph glyph-name="U" unicode="U" horiz-adv-x="1436" 
d="M81 1312q0 53 58 53h478q17 -37 17 -73t-13 -50t-41 -14h-68q-5 -132 -5 -581q0 -291 59 -383q60 -92 190 -92t184 81t55 323q0 520 -6 652h-114q-18 44 -18 84q0 53 59 53h460q17 -37 17 -73t-13 -50t-41 -14h-77q-5 -128 -4 -597q0 -379 -150 -515t-429 -136
q-280 0 -381 98t-101 366q0 656 -5 784h-94q-17 44 -17 84z" />
    <glyph glyph-name="V" unicode="V" horiz-adv-x="1436" 
d="M911 1312q0 53 59 53h438q17 -37 17 -73t-13 -50t-41 -14h-48q-65 -193 -211 -642t-192 -527q-48 -78 -202 -78t-171 11q-17 12 -187 526t-247 710h-84q-18 44 -18 84q0 53 59 53h497q17 -37 17 -73t-13 -50t-41 -14h-49q23 -108 151 -534t146 -425q18 0 128 421
q109 421 116 538h-94q-17 44 -17 84z" />
    <glyph glyph-name="W" unicode="W" horiz-adv-x="2002" 
d="M1511 1312q0 53 59 53h402q18 -37 18 -73t-13 -50t-42 -14h-48q-56 -213 -160 -652t-148 -517q-43 -78 -207 -78t-182 11q-18 12 -96 496q-80 484 -85 484t-81 -418t-119 -495q-45 -78 -199 -78t-171 11q-17 12 -133 516t-184 720h-84q-17 44 -17 84q0 53 59 53h497
q17 -37 17 -73t-13 -50t-42 -14h-49q11 -128 86 -544t94 -415q19 0 112 537q94 537 110 548t229 11q75 1 103 -29t118 -548t108 -519q18 0 87 411t76 548h-84q-18 44 -18 84z" />
    <glyph glyph-name="X" unicode="X" horiz-adv-x="1499" 
d="M910 1312q0 53 58 53h431q18 -37 18 -73t-13 -50t-42 -14h-48q-125 -167 -368 -587q270 -407 338 -455t127 -49q16 -29 16 -67q1 -38 -19 -54t-72 -16q-232 0 -285 8t-82 42t-91 146t-204 356q-150 -310 -179 -415h114q17 -37 17 -73t-13 -50t-42 -14h-484q-17 44 -17 85
q0 52 59 52h64q65 89 332 592q-209 340 -332 499h-84q-17 44 -17 84q0 53 59 53h506q17 -37 17 -73t-13 -50t-42 -14h-30q66 -147 221 -411q154 279 202 411h-85q-17 44 -17 84z" />
    <glyph glyph-name="Y" unicode="Y" horiz-adv-x="1428" 
d="M883 1312q0 53 58 53h439q17 -37 17 -73t-13 -50t-41 -14h-48q-113 -205 -416 -790q0 -173 6 -301h162q17 -37 17 -73t-13 -50t-41 -14h-600q-17 44 -17 85q0 52 58 52h112q7 128 7 274q-320 623 -436 817h-85q-17 44 -17 84q0 53 59 53h497q17 -37 17 -73t-13 -50
t-42 -14h-48q40 -116 144 -362t118 -246t103 236t126 372h-93q-17 44 -17 84z" />
    <glyph glyph-name="Z" unicode="Z" horiz-adv-x="1208" 
d="M671 1198q-305 0 -531 -99q-54 81 -54 149t38 93q38 24 122 24h758q72 0 92 -21q20 -20 20 -64t-41 -116t-191 -317q-150 -244 -264 -435t-127 -245h81q302 0 519 108q54 -85 54 -156t-41 -95t-166 -24h-787q-73 0 -73 86q0 45 34 96t298 464q263 413 321 552h-62z" />
    <glyph glyph-name="bracketleft" unicode="[" horiz-adv-x="942" 
d="M529 600q0 -640 6 -738h289q17 -34 17 -84t-17 -67q-17 -16 -60 -16h-635q-17 35 -17 73t18 52q18 13 49 13h35q6 127 6 781t-6 780h-35q-31 0 -49 13t-18 51t17 74h635q43 0 60 -16t17 -66t-17 -85h-289q-6 -125 -6 -765z" />
    <glyph glyph-name="backslash" unicode="\" horiz-adv-x="825" 
d="M-29 1427q-11 30 -5 51t83 49t151 38l648 -1777q14 -40 5 -62t-46 -36q-129 -47 -185 -49z" />
    <glyph glyph-name="bracketright" unicode="]" horiz-adv-x="942" 
d="M101 1450q-1 50 17 66t61 16h634q18 -36 18 -74t-18 -51t-49 -13h-36q-5 -126 -5 -780t5 -781h36q31 0 49 -13q18 -14 18 -52t-18 -73h-634q-43 0 -61 16q-18 17 -17 67q0 50 18 84h289q5 98 5 738t-5 765h-289q-18 35 -18 85z" />
    <glyph glyph-name="asciicircum" unicode="^" 
d="M643 1120q-67 -28 -296 -176l-49 91q201 237 346 350q146 -114 346 -350l-49 -91q-229 148 -298 176z" />
    <glyph glyph-name="underscore" unicode="_" horiz-adv-x="1048" 
d="M79 0h940q17 -34 17 -84t-17 -67q-17 -16 -61 -16h-929q-17 44 -17 93q0 50 18 62t49 12z" />
    <glyph glyph-name="grave" unicode="`" horiz-adv-x="402" 
d="M11 1362q0 81 165 142l215 -312l-104 -96q-276 162 -276 266z" />
    <glyph glyph-name="a" unicode="a" horiz-adv-x="1108" 
d="M360 290q0 -137 139 -137q53 0 95 23q42 24 55 66t13 110v57q-72 15 -151 15t-115 -28t-36 -106zM71 235q0 169 116 251t366 82h109q-9 154 -51 210t-126 57q-46 0 -100 -12q-35 -66 -41 -70t-70 -18q-62 -14 -88 9t-52 81q-26 59 -27 91q1 32 21 46t151 30t293 16
t262 -60t100 -235v-265q0 -222 19 -272t68 -39q15 -28 15 -55q0 -44 -54 -68t-118 -24q-66 0 -89 10t-72 77q-191 -97 -344 -97q-288 0 -288 255z" />
    <glyph glyph-name="b" unicode="b" horiz-adv-x="1150" 
d="M9 1360q0 42 31 54q32 12 170 11t176 -9t45 -31q6 -23 6 -65l-18 -371q140 69 304 69q163 0 261 -102t98 -372t-138 -417t-372 -147q-152 0 -249 43l-43 -32q-88 0 -111 14t-23 58l9 419q1 454 -3 570t-16 158t-38 56q-28 12 -72 12q-17 40 -17 82zM600 845
q-108 0 -144 -99q-18 -52 -20 -201l1 -339q55 -53 148 -53t137 56q44 57 44 265t-42 290q-41 82 -124 81z" />
    <glyph glyph-name="c" unicode="c" horiz-adv-x="981" 
d="M566 -20q-277 0 -387 102t-110 368q-1 264 143 416t429 152q149 0 207 -26t59 -96t-48 -133q-166 82 -270 82q-103 1 -153 -73t-50 -258t48 -272t165 -89q116 0 279 77q42 -58 42 -122t-106 -96t-248 -32z" />
    <glyph glyph-name="d" unicode="d" horiz-adv-x="1171" 
d="M69 433q-1 297 139 441t380 144q55 0 127 -7q1 229 -57 255q-28 12 -72 12q-18 40 -18 82t32 54t169 11q138 -1 177 -9q38 -8 44 -31t6 -65v-709q0 -351 19 -417t63 -57q20 -29 20 -58q0 -37 -86 -68t-128 -31q-40 0 -60 16t-58 81q-184 -97 -348 -97q-165 0 -257 102
t-92 351zM556 845q-82 0 -126 -64q-44 -63 -44 -259t39 -282t130 -87q57 1 95 23t52 58t13 164v404q-78 43 -159 43z" />
    <glyph glyph-name="e" unicode="e" horiz-adv-x="1058" 
d="M566 1018q220 0 315 -94q94 -94 94 -299q0 -101 -40 -144t-175 -43h-372q3 -132 59 -206q55 -74 195 -74t286 80q52 -51 52 -110q0 -80 -118 -112t-275 -31q-272 0 -395 110t-123 368q1 259 139 407t358 148zM537 845q-72 0 -111 -60t-40 -209h53q220 0 238 28
q10 16 10 52q0 90 -39 140t-111 49z" />
    <glyph glyph-name="f" unicode="f" horiz-adv-x="836" 
d="M51 79q0 58 59 58h82q5 128 5 273v430h-129q-18 43 -18 82t14 53t45 14h88q7 245 119 341t360 95q144 1 210 -27t67 -91q0 -63 -53 -131q-201 86 -288 86t-110 -52t-23 -170v-51h271q17 -39 17 -81t-14 -55t-54 -13h-220v-430q0 -145 5 -273h158q17 -33 17 -71t-14 -52
t-57 -14h-520q-17 42 -17 79z" />
    <glyph glyph-name="g" unicode="g" horiz-adv-x="1174" 
d="M501 -296q308 0 308 139q0 57 -56 79t-385 22q-50 -59 -50 -125q0 -67 36 -91t147 -24zM86 116q0 133 173 212q-67 28 -109 99t-43 181q0 178 117 294t351 116q118 0 229 -39q143 67 170 67q146 0 160 -8t14 -32t-28 -82t-55 -57q-26 0 -150 48l-18 -30q49 -104 49 -205
q0 -178 -118 -284t-347 -105q-99 0 -125 -19t-25 -58q0 -38 31 -58q30 -20 302 -20t352 -56t81 -165q0 -165 -177 -260t-551 -95q-174 0 -231 44t-57 123q0 112 119 231q-50 17 -82 58t-32 100zM670 657q0 217 -146 217q-71 0 -106 -45t-35 -173t36 -174q37 -46 109 -47
q72 1 107 45t35 177z" />
    <glyph glyph-name="h" unicode="h" horiz-adv-x="1233" 
d="M45 79q0 58 59 58h73q5 165 5 310v564q0 229 -56 255q-28 12 -73 12q-17 40 -17 82t31 54t169 11t178 -9q38 -8 44 -31t6 -65v-396q163 93 310 93q148 0 216 -62t68 -250q0 -493 18 -531t78 -37q15 -35 15 -73q1 -38 -23 -51t-138 -13t-157 5t-59 33t-16 92v353
q0 203 -38 273t-114 70q-78 0 -119 -42t-41 -173v-201q0 -126 5 -273h119q17 -33 17 -71q-1 -38 -15 -52t-56 -14h-471q-18 42 -18 79z" />
    <glyph glyph-name="i" unicode="i" horiz-adv-x="658" 
d="M50 79q0 58 59 58h82q5 128 5 311q0 184 -4 256t-15 106q-12 34 -37 42t-73 8q-17 28 -17 74t46 60q46 13 170 13t162 -8q38 -7 44 -31t5 -66v-492q1 -145 6 -273h118q17 -33 17 -71t-14 -52t-57 -14h-480q-17 42 -17 79zM327 1420q175 0 175 -135q0 -62 -48 -105
t-154 -43q-170 0 -170 132q0 67 51 109t146 42z" />
    <glyph glyph-name="j" unicode="j" horiz-adv-x="648" 
d="M317 1420q175 0 175 -135q0 -62 -48 -105t-154 -43q-170 0 -170 132q2 67 52 109t145 42zM73 -440q-107 0 -149 15t-41 79q0 64 44 122q167 -50 221 -30t55 254v410q1 221 -3 293t-16 106q-12 35 -39 43t-71 8q-17 28 -17 70t35 59q35 18 177 18t174 -10q32 -9 37 -37
t5 -128l4 -860q0 -142 -40 -226q-89 -186 -376 -186z" />
    <glyph glyph-name="k" unicode="k" horiz-adv-x="1211" 
d="M670 915q0 74 65 74h380q17 -34 17 -75t-17 -57t-59 -16h-45l-268 -249q117 -179 201 -285t124 -138t93 -32q19 -69 -5 -103t-155 -34q-130 0 -160 16t-54 58q-25 40 -69 124t-154 255l-100 -95q0 -93 5 -221h90q17 -33 17 -71t-14 -52t-57 -14h-452q-17 42 -17 79
q0 58 59 58h82q5 127 5 463t-4 452t-14 158q-12 42 -40 56q-28 12 -71 12q-17 40 -17 82t31 54t169 11t178 -9q38 -8 44 -31t6 -65v-755q70 52 158 134t139 142h-74q-17 35 -17 74z" />
    <glyph glyph-name="l" unicode="l" horiz-adv-x="654" 
d="M45 79q0 58 59 58h82q6 127 6 463t-4 452t-15 158t-39 56q-28 12 -71 12q-18 40 -18 82q-1 42 31 54t170 11t177 -9t45 -31t5 -65v-769q0 -286 5 -414h128q17 -33 17 -71q-1 -38 -15 -52t-56 -14h-489q-18 42 -18 79z" />
    <glyph glyph-name="m" unicode="m" horiz-adv-x="1812" 
d="M801 1017q174 0 223 -111q90 55 183 83t161 28q132 0 200 -62t68 -250q0 -493 18 -531t78 -37q15 -35 15 -73q1 -38 -23 -51t-138 -13t-157 5t-59 33t-16 92v353q0 203 -38 273t-121 70q-51 0 -92 -42t-41 -173q0 -355 5 -474h109q18 -33 18 -71t-14 -52t-57 -14h-415
q-17 42 -17 79q0 58 59 58h25q5 175 5 363t-38 256q-38 70 -121 70q-51 0 -92 -42t-41 -173v-201q0 -126 5 -273h72q17 -33 17 -71t-14 -52t-57 -14h-424q-18 42 -18 79q0 58 59 58h73q5 165 5 393t-26 279t-93 51q-18 40 -18 78q1 38 27 49t330 20q5 -42 0 -115
q201 125 375 125z" />
    <glyph glyph-name="n" unicode="n" horiz-adv-x="1257" 
d="M69 79q0 58 59 58h73q5 165 5 393t-26 279t-93 51q-18 40 -18 78q1 38 27 49t330 20q5 -42 0 -115q110 68 210 96t168 29q142 0 210 -62t68 -250q0 -493 18 -531t78 -37q15 -35 15 -73q1 -38 -23 -51t-138 -13t-157 5t-59 33t-16 92v353q0 203 -38 273t-114 70
q-78 0 -119 -42t-41 -173v-201q0 -126 5 -273h119q17 -33 17 -71q-1 -38 -15 -52t-56 -14h-471q-18 42 -18 79z" />
    <glyph glyph-name="o" unicode="o" horiz-adv-x="1111" 
d="M532 -20q-464 0 -463 456q-1 278 137 430t374 152q462 0 463 -456q0 -278 -137 -430q-138 -152 -374 -152zM560 153q88 1 128 65t39 258q1 194 -43 282q-44 87 -132 87q-88 -1 -126 -65q-40 -64 -40 -258t44 -282q42 -87 130 -87z" />
    <glyph glyph-name="p" unicode="p" horiz-adv-x="1180" 
d="M755 1018q357 0 357 -443q0 -309 -136 -452t-365 -143q-90 0 -144 12q0 -148 5 -295h139q17 -33 17 -71t-14 -52t-57 -14h-491q-18 42 -18 79q0 58 59 58h73q5 147 5 392v389q-1 280 -27 331t-92 51q-18 40 -18 78t26 49t312 20q5 -38 0 -83q195 94 369 94zM796 488
q0 216 -46 286q-46 71 -126 71q-111 0 -141 -104q-16 -55 -16 -152v-392q74 -44 157 -44q84 -1 128 59t44 276z" />
    <glyph glyph-name="q" unicode="q" horiz-adv-x="1146" 
d="M69 435q0 297 142 440t377 143q90 0 177 -21l38 77q101 0 139 -13t49 -41q10 -28 10 -85l-5 -948q0 -143 5 -290h98q18 -33 18 -71q-1 -38 -15 -52t-57 -14h-489q-17 42 -17 79q0 58 59 58h111q6 147 6 353q-131 -70 -301 -70t-258 108t-87 347zM555 845q-81 0 -125 -65
t-44 -265t39 -281t125 -81q122 1 150 85q16 48 15 130v434q-79 43 -160 43z" />
    <glyph glyph-name="r" unicode="r" horiz-adv-x="931" 
d="M69 79q0 58 59 58h73q5 147 5 384t-26 288t-93 51q-18 40 -18 78q1 38 27 49t330 20q5 -42 0 -116q215 126 408 126q36 -1 48 -9t12 -51t-16 -103t-42 -76q-24 -17 -77 -25t-61 -4t-57 67q-73 0 -113 -54t-40 -266t5 -359h157q18 -33 18 -71t-14 -52t-57 -14h-510
q-18 42 -18 79z" />
    <glyph glyph-name="s" unicode="s" horiz-adv-x="987" 
d="M478 153q144 0 144 91q0 57 -62 91t-202 88q-142 55 -204 119t-62 165q0 143 124 227t346 84q151 0 233 -28t82 -98q0 -69 -57 -142q-216 95 -334 95t-117 -89q-1 -45 39 -78t195 -87t225 -122t71 -179q-1 -150 -123 -230t-323 -80t-283 26t-82 100q0 72 48 132
q198 -85 342 -85z" />
    <glyph glyph-name="t" unicode="t" horiz-adv-x="854" 
d="M109 989h70l99 301q116 -35 160 -94q22 -31 23 -153v-54h338q17 -39 17 -81t-14 -55t-54 -13h-287v-395q0 -172 29 -234q57 -122 261 -17q29 -39 29 -98q0 -58 -72 -82t-229 -24q-159 0 -229 66t-70 256v174q0 165 -10 354h-102q-18 43 -18 82t14 53t45 14z" />
    <glyph glyph-name="u" unicode="u" horiz-adv-x="1185" 
d="M18 930q0 78 216 77q104 -1 140 -11t44 -31t9 -141v-356q0 -195 37 -255q36 -60 96 -60q60 1 103 23t54 58t11 217q0 180 -1 252t-11 106q-10 35 -26 43t-53 8q-18 28 -18 70q0 78 215 77q87 -1 123 -11q37 -10 45 -36t8 -146v-372q0 -198 14 -246t74 -43q14 -33 14 -63
q0 -48 -73 -74t-127 -26t-73 14t-59 73q-192 -97 -340 -97q-149 0 -222 68t-73 274q1 310 -3 382t-16 106t-32 42t-58 8q-18 28 -18 70z" />
    <glyph glyph-name="v" unicode="v" horiz-adv-x="1153" 
d="M730 915q0 39 15 57t50 17h303q18 -34 18 -75t-17 -57t-60 -16h-6q-34 -75 -153 -419q-118 -344 -160 -392q-42 -50 -145 -50q-162 0 -174 16t-107 328q-96 312 -120 382t-38 104t-35 42q-20 8 -68 8q-18 46 -18 84q1 38 37 50q36 13 170 13t164 -12q30 -11 44 -43
t32 -148q20 -116 84 -358t78 -242t89 274q76 274 88 363h-54q-17 35 -17 74z" />
    <glyph glyph-name="w" unicode="w" horiz-adv-x="1761" 
d="M1206 -20q-148 0 -160 16t-84 372t-86 355t-85 -323t-115 -371t-119 -49q-194 0 -206 16t-78 322t-88 382q-22 74 -38 108q-15 34 -35 44q-20 8 -68 8q-18 37 -18 81t36 55t160 11t158 -12q34 -11 48 -43t32 -148t59 -358q40 -242 53 -242q12 0 84 320t102 474
q248 10 284 -2t48 -44q14 -32 32 -142t68 -358t64 -248t77 274t72 363h-63q-18 35 -18 74t16 57t50 17h303q17 -34 17 -75t-17 -57t-59 -16h-6q-28 -75 -138 -419t-154 -393t-128 -49z" />
    <glyph glyph-name="x" unicode="x" horiz-adv-x="1164" 
d="M43 79q0 58 59 58h34q50 69 257 369q-161 246 -197 291q-36 47 -60 55t-64 8q-17 28 -17 74t51 60q51 13 218 13q32 0 78 -12q46 -13 66 -47t60 -122t119 -219q87 139 129 234h-46q-18 35 -18 74t16 57t50 17h302q18 -34 18 -75t-17 -57t-60 -16h-6q-121 -147 -255 -351
q204 -309 232 -331t86 -22q15 -23 15 -67t-37 -57t-144 -13q-108 0 -146 6t-59 33q-21 28 -202 350q-107 -173 -129 -252h66q17 -33 17 -71q-1 -38 -15 -52t-56 -14h-328q-17 42 -17 79z" />
    <glyph glyph-name="y" unicode="y" horiz-adv-x="1134" 
d="M212 -440q-128 0 -171 22q-42 22 -42 82q0 59 43 112q214 -45 310 -39t175 253q-157 -4 -169 2t-90 324q-78 316 -98 388t-31 106q-12 34 -33 42t-69 8q-17 46 -17 88t41 50t158 9q117 0 153 -12q36 -11 48 -43q14 -32 42 -192t72 -380t58 -220t86 296t83 385h-54
q-18 35 -18 74q-1 39 15 57t51 17h340q18 -34 18 -75t-17 -57t-59 -16h-18q-31 -81 -173 -568t-220 -575t-182 -114q-104 -24 -232 -24z" />
    <glyph glyph-name="z" unicode="z" horiz-adv-x="1004" 
d="M894 920q0 -42 -41 -109t-137 -217t-168 -272q-74 -122 -87 -175h148q86 0 297 74q30 -66 30 -123q0 -58 -27 -78t-119 -20h-661q-72 0 -72 67q1 35 35 86t158 220q199 271 280 468h-195q-70 0 -233 -75q-49 72 -49 128t23 76t88 19h636q46 1 70 -13t24 -56z" />
    <glyph glyph-name="braceleft" unicode="{" horiz-adv-x="997" 
d="M547 403q0 -144 -10 -275q-10 -132 -1 -194t62 -82t243 50q54 -51 54 -125q1 -74 -41 -97t-202 -23q-160 1 -248 37t-127 120q-40 84 -40 252v284q1 134 -53 190t-54 70t54 71q54 56 53 190v246q0 158 40 242q40 85 147 145q108 60 248 60t182 -23t41 -97q0 -74 -54 -125
q-190 69 -243 49t-62 -82t1 -193t10 -275t-110 -208q110 -63 110 -207z" />
    <glyph glyph-name="bar" unicode="|" horiz-adv-x="636" 
d="M406 1542v-1966q-33 -17 -89 -17q-55 0 -71 17t-16 61v1955q54 17 102 17t62 -18q12 -18 12 -49z" />
    <glyph glyph-name="braceright" unicode="}" horiz-adv-x="997" 
d="M450 818q0 144 10 275t1 193t-62 82t-243 -49q-55 51 -55 125t42 97t202 23t247 -36q88 -36 128 -121q40 -84 40 -253v-283q0 -135 53 -191t53 -70t-53 -70t-53 -190v-246q0 -158 -40 -242t-148 -144q-106 -60 -246 -61q-140 0 -183 23q-42 23 -42 97t55 125
q190 -70 243 -50t62 82t-1 194q-10 131 -10 275t109 207q-109 64 -109 208z" />
    <glyph glyph-name="asciitilde" unicode="~" 
d="M1148 573q0 -72 -90 -146t-154 -74q-107 0 -521 184q-55 -93 -124 -185q-122 40 -122 132q0 62 85 136t159 75q107 0 521 -184q55 93 124 184q122 -40 122 -122z" />
    <glyph glyph-name="uni00A0" unicode="&#xa0;" horiz-adv-x="504" 
 />
    <glyph glyph-name="exclamdown" unicode="&#xa1;" horiz-adv-x="739" 
d="M318 -367q-118 -1 -124 69q-8 70 51 901h182q56 -763 78 -951q-69 -19 -187 -19zM340 735q-167 0 -167 141q1 70 45 106t122 36q168 0 168 -142q0 -69 -45 -105t-123 -36z" />
    <glyph glyph-name="cent" unicode="&#xa2;" 
d="M552 694q0 -184 48 -273q35 -62 109 -80v680q-70 -14 -108 -69q-49 -74 -49 -258zM1086 288q0 -97 -229 -121v-179q-33 -17 -89 -17t-72 17t-15 61v112q-237 8 -341 106q-104 99 -104 363t143 416q109 116 302 144v184q55 17 103 17t60 -18t13 -49v-127q121 -3 169 -33
t48 -90q0 -59 -49 -131q-111 55 -196 73v-679q91 14 215 73q42 -58 42 -122z" />
    <glyph glyph-name="sterling" unicode="&#xa3;" 
d="M91 84q0 52 60 52t96 82q26 57 81 401h-162q-17 45 -17 93t18 60t48 13h139q13 84 26 179q30 265 145 363t377 98q168 1 234 -27t66 -91t-53 -131q-201 86 -299 86t-124 -52q-28 -52 -73 -425h325q17 -33 17 -84t-17 -67t-61 -15h-283q-30 -237 -47 -317t-64 -135h104
q335 0 533 79q44 -66 44 -132t-41 -90t-166 -24l-889 -1q-17 44 -17 85z" />
    <glyph glyph-name="yen" unicode="&#xa5;" 
d="M1121 396q0 -50 -17 -66t-61 -15h-226q2 -98 6 -178h142q17 -33 17 -69t-17 -52t-60 -16h-537q-17 36 -17 74t18 50t48 13h84q5 84 6 178h-264q-17 45 -17 93t18 60t48 13h179q-266 564 -367 747h-84q-17 34 -17 70t17 52t60 15h463q18 -35 18 -73t-18 -52
q-18 -12 -49 -12h-21q31 -116 123 -362t106 -246t82 236t96 372h-66q-18 34 -18 70t18 52t60 15h393q17 -35 17 -73t-18 -52q-18 -12 -48 -12h-36q-100 -197 -343 -747h265q17 -35 17 -85z" />
    <glyph glyph-name="brokenbar" unicode="&#xa6;" horiz-adv-x="636" 
d="M406 333v-757q-32 -17 -88 -17t-72 17t-16 61v745q54 17 102 17t62 -18q12 -18 12 -48zM406 1542v-756q-33 -17 -89 -17q-55 0 -71 17t-16 60v746q54 17 102 17t62 -18q12 -18 12 -49z" />
    <glyph glyph-name="section" unicode="&#xa7;" horiz-adv-x="1259" 
d="M385 1038q0 82 91 172q-74 -42 -128 -132t-55 -186q1 -96 43 -164t143 -132q239 -144 307 -208t68 -146q0 -84 -75 -170q167 129 167 302q-6 114 -62 186t-187 153q-228 135 -270 189t-42 136zM726 1193q-111 0 -111 -108q-1 -44 31 -84t164 -118q209 -119 281 -206
t77 -204q0 -173 -128 -307t-345 -191q-203 -95 -381 -95q-86 0 -122 26t-36 102q0 75 50 157q194 -93 284 -93t120 30q32 30 32 80t-48 98q-48 47 -246 165q-150 93 -204 181t-54 192q0 171 129 309t379 193q138 65 278 65q72 0 114 -26t42 -106t-61 -163q-160 103 -245 103
z" />
    <glyph glyph-name="dieresis" unicode="&#xa8;" horiz-adv-x="827" 
d="M642 1137q-160 -1 -160 133q0 64 50 108q50 42 128 42q76 0 116 -36t40 -99q0 -62 -48 -105q-46 -43 -126 -43zM170 1137q-159 -1 -159 133q1 64 51 108q50 42 126 42t117 -36q40 -36 40 -99q0 -62 -48 -105t-127 -43z" />
    <glyph glyph-name="copyright" unicode="&#xa9;" horiz-adv-x="1836" 
d="M954 1490q382 0 578 -196t195 -553q1 -395 -229 -631t-612 -236t-578 196q-195 196 -195 554q-1 394 229 630t612 236zM911 1345q-287 0 -452 -175q-165 -176 -165 -510t174 -488t460 -153q288 0 452 175q164 176 165 510t-173 488t-461 153zM1260 301q0 -123 -338 -123
q-220 0 -326 96t-106 370t128 408t360 135q156 0 214 -22t58 -79t-45 -121q-136 61 -234 61t-149 -68t-51 -262q1 -195 55 -276t161 -81t225 68q48 -55 48 -106z" />
    <glyph glyph-name="ordfeminine" unicode="&#xaa;" horiz-adv-x="958" 
d="M366 975q0 -76 64 -76q77 0 95 50q8 22 8 65v27q-45 10 -102 10q-65 0 -65 -76zM297 777q-197 0 -197 163q0 108 74 161t281 53h69q-12 144 -112 144q-40 0 -73 -8q-23 -42 -27 -45t-54 -12t-67 6t-34 65t-17 72q0 20 13 29t97 19t245 11q161 -1 225 -39t65 -150v-128
q0 -124 17 -170t62 -36q14 -26 14 -50q0 -84 -191 -84q-37 0 -57 9t-60 60q-149 -70 -273 -70z" />
    <glyph glyph-name="guillemotleft" unicode="&#xab;" horiz-adv-x="1536" 
d="M739 584q318 257 457 377q54 -36 107 -114t-11 -122t-333 -183q217 -123 379 -206q-12 -64 -65 -142t-115 -46t-220 168t-179 160q-20 24 -20 108zM123 584q318 257 457 377q54 -36 106 -114t-10 -122q-63 -44 -334 -183q217 -123 380 -206q-12 -64 -65 -142t-115 -46
t-220 168t-179 160q-20 24 -20 108z" />
    <glyph glyph-name="logicalnot" unicode="&#xac;" 
d="M274 598h670q53 0 66 -18t13 -49v-435q-33 -18 -89 -18t-72 18t-16 60v275h-621q-17 45 -17 93t18 61t48 13z" />
    <glyph glyph-name="registered" unicode="&#xae;" horiz-adv-x="1464" 
d="M716 1175q310 0 310 -197q0 -139 -177 -208q51 -19 83 -61t58 -108q24 -66 37 -84t48 -17q16 -52 -3 -71q-18 -19 -88 -19t-104 19t-56 111t-46 134q-22 42 -64 42q-21 0 -44 -7q1 -139 3 -200h44q10 -21 10 -55t-31 -33h-263q-11 25 -11 57t34 31h25q3 71 3 289t-3 289
h-48q-10 26 -10 57t33 31h260zM707 818q120 0 120 115q0 61 -29 93q-30 32 -66 31q-36 0 -59 -6q-3 -37 -3 -182v-51h37zM748 1425q316 1 470 -155t154 -452t-170 -486q-171 -190 -487 -190q-315 0 -469 156t-154 452t170 486t486 189zM708 1322q-480 0 -480 -568
q0 -262 142 -386t385 -123q481 0 481 569q0 260 -142 384t-386 124z" />
    <glyph glyph-name="macron" unicode="&#xaf;" horiz-adv-x="591" 
d="M77 1357h485q18 -35 18 -85t-18 -66t-60 -16h-474q-17 46 -17 94t18 60t48 13z" />
    <glyph glyph-name="degree" unicode="&#xb0;" horiz-adv-x="777" 
d="M396 1385q155 -1 231 -77q77 -76 77 -222t-84 -238q-84 -93 -240 -93q-154 0 -230 76t-76 222t83 239q84 93 239 93zM395 908q146 0 146 171q1 79 -43 117t-115 37q-146 0 -146 -173q0 -152 158 -152z" />
    <glyph glyph-name="plusminus" unicode="&#xb1;" 
d="M1149 774q0 -90 -78 -90h-316v-406q-63 -17 -134 -17q-90 0 -90 78v345h-376q-18 63 -18 106q0 98 67 98h327v406q83 17 126 17q98 0 98 -66v-357h376q18 -52 18 -114zM1149 90q0 -90 -78 -90h-916q-18 63 -18 106q0 98 67 98h927q18 -52 18 -114z" />
    <glyph glyph-name="twosuperior" unicode="&#xb2;" horiz-adv-x="1190" 
d="M883 543h-693q-22 42 -22 115q0 72 65 134t236 154t171 168q0 48 -32 71t-111 23q-78 0 -110 -7q-21 -41 -25 -43t-64 -11q-60 -8 -78 6q-18 13 -33 77q-16 64 -16 92t12 34q13 7 91 18t239 11q266 0 364 -51t98 -161q0 -78 -44 -145q-44 -68 -215 -166t-189 -141h37
q238 0 406 51q26 -60 26 -124t-26 -84q-26 -21 -87 -21z" />
    <glyph glyph-name="threesuperior" unicode="&#xb3;" horiz-adv-x="1190" 
d="M446 907q-34 0 -34 38t17 80h45q98 -1 132 21t34 72t-30 70t-92 20t-98 -8q-20 -40 -24 -42t-64 -11q-60 -8 -78 6q-18 15 -32 87t-14 91t12 27t110 18q97 9 274 9q176 0 274 -42t98 -148q0 -150 -227 -217q249 -42 249 -186q0 -126 -145 -194t-373 -68t-258 25t-30 85
t26 107q151 -39 260 -39t146 22t37 79q0 98 -150 98h-65z" />
    <glyph glyph-name="acute" unicode="&#xb4;" horiz-adv-x="402" 
d="M391 1362q0 -104 -276 -266l-104 96l214 312q166 -61 166 -142z" />
    <glyph glyph-name="mu" unicode="&#xb5;" horiz-adv-x="1185" 
d="M780 77q-188 -97 -278 -97q-54 0 -103 14q29 -185 29 -313q0 -121 -140 -121q-102 0 -181 10q39 356 39 614t-14 437q-14 178 -15 265q0 121 135 121t195 -19q-39 -400 -39 -574t40 -218t107 -44q66 0 109 24q43 22 54 58t11 217q0 180 -1 252t-6 106q-6 35 -20 43t-34 8
q-18 28 -18 70q0 78 185 77q87 -1 123 -11t44 -36t9 -146v-462q1 -140 15 -178t82 -37q14 -37 14 -71q0 -76 -118 -76t-134 6t-90 81z" />
    <glyph glyph-name="mu" unicode="&#x3bc;" horiz-adv-x="1185" 
d="M780 77q-188 -97 -278 -97q-54 0 -103 14q29 -185 29 -313q0 -121 -140 -121q-102 0 -181 10q39 356 39 614t-14 437q-14 178 -15 265q0 121 135 121t195 -19q-39 -400 -39 -574t40 -218t107 -44q66 0 109 24q43 22 54 58t11 217q0 180 -1 252t-6 106q-6 35 -20 43t-34 8
q-18 28 -18 70q0 78 185 77q87 -1 123 -11t44 -36t9 -146v-462q1 -140 15 -178t82 -37q14 -37 14 -71q0 -76 -118 -76t-134 6t-90 81z" />
    <glyph glyph-name="paragraph" unicode="&#xb6;" horiz-adv-x="1577" 
d="M366 277q-136 0 -206 81t-70 260q0 259 125 374t387 115h371q305 0 480 49q34 -53 34 -105q0 -51 -18 -71t-73 -20h-166v-387q0 -308 5 -573h-197q5 265 5 960h-184v-1197q1 -135 -39 -179t-135 -44t-164 58q85 183 85 628v107q-103 -56 -240 -56z" />
    <glyph glyph-name="periodcentered" unicode="&#xb7;" horiz-adv-x="392" 
d="M197 784q185 0 185 -131q0 -66 -48 -109t-154 -43q-169 0 -169 132q1 67 51 109t135 42z" />
    <glyph glyph-name="cedilla" unicode="&#xb8;" horiz-adv-x="262" 
d="M248 -272q0 79 -91 79q-29 1 -46 -1t-32 16t-13 30t29 148h162l-48 -102q167 0 225 -36t58 -115t-92 -132t-218 -53q-128 0 -164 12t-37 54q0 41 33 77q72 -33 134 -33t81 12t19 44z" />
    <glyph glyph-name="onesuperior" unicode="&#xb9;" horiz-adv-x="1190" 
d="M227 626q0 75 76 75h144q6 156 6 240q-1 84 -5 127q-4 44 -20 68t-50 36t-143 11q-14 42 -14 75q-1 66 145 96t220 30t107 -15q31 -15 45 -53t14 -184t7 -431h196q22 -34 22 -78t-19 -62t-73 -18h-636q-22 45 -22 83z" />
    <glyph glyph-name="ordmasculine" unicode="&#xba;" horiz-adv-x="903" 
d="M431 777q-187 0 -259 74q-72 75 -72 233t92 254t280 97q186 -1 258 -75t72 -232t-92 -254t-279 -97zM454 914q42 0 62 26t19 151q-1 123 -23 165t-64 42t-62 -26t-20 -152q0 -124 23 -165t65 -41z" />
    <glyph glyph-name="guillemotright" unicode="&#xbb;" horiz-adv-x="1536" 
d="M798 584q0 -84 -20 -108t-178 -160t-221 -168q-62 -32 -115 46t-65 142q163 83 380 206q-271 139 -335 183t-10 122q53 78 107 114q139 -120 457 -377zM1414 584q0 -84 -20 -108t-178 -160t-221 -168t-115 46t-65 142q163 83 380 206q-271 139 -334 183t-11 122t107 114
q139 -120 457 -377z" />
    <glyph glyph-name="onequarter" unicode="&#xbc;" horiz-adv-x="2597" 
d="M1733 1421l-741 -1590q-39 -3 -89 21t-57 46t10 62l738 1581q56 -9 100 -29t48 -42t-9 -49zM2362 146v-146h-218q-59 0 -59 79v67h-492q-30 36 -30 82q1 46 15 98q14 51 159 503q177 0 219 -6t43 -45q0 -38 -47 -236t-47 -231h192v242h205q60 0 60 -78v-164h77
q11 -49 11 -91t-8 -58t-32 -16h-48zM227 626q0 75 76 75h144q6 156 6 240q-1 84 -5 127q-4 44 -20 68t-50 36t-143 11q-14 42 -14 75q-1 66 145 96t220 30t107 -15q31 -15 45 -53t14 -184t7 -431h196q22 -34 22 -78t-19 -62t-73 -18h-636q-22 45 -22 83z" />
    <glyph glyph-name="onehalf" unicode="&#xbd;" horiz-adv-x="2597" 
d="M1714 1421l-741 -1590q-39 -3 -89 21t-57 46t11 62l737 1581q56 -9 100 -29t48 -42t-9 -49zM2289 0h-692q-23 42 -23 115t65 135t236 153t171 169q0 47 -32 70t-111 23q-78 0 -110 -7q-21 -40 -25 -42t-64 -12q-60 -8 -77 6t-33 78t-17 92q0 28 12 34q13 6 91 17t239 11
q266 0 364 -51t98 -161q0 -77 -44 -144q-45 -68 -215 -166t-189 -142h37q238 0 406 51q27 -59 27 -123t-26 -85t-88 -21zM227 626q0 75 76 75h144q6 156 6 240q-1 84 -5 127q-4 44 -20 68t-50 36t-143 11q-14 42 -14 75q-1 66 145 96t220 30t107 -15q31 -15 45 -53t14 -184
t7 -431h196q22 -34 22 -78t-19 -62t-73 -18h-636q-22 45 -22 83z" />
    <glyph glyph-name="threequarters" unicode="&#xbe;" horiz-adv-x="2597" 
d="M1737 1421l-741 -1590q-39 -3 -89 21t-57 46t10 62l738 1581q56 -9 100 -29t48 -42t-9 -49zM2362 146v-146h-218q-59 0 -59 79v67h-492q-30 36 -30 82q1 46 15 98q14 51 159 503q177 0 219 -6t43 -45q0 -38 -47 -236t-47 -231h192v242h205q60 0 60 -78v-164h77
q11 -49 11 -91t-8 -58t-32 -16h-48zM446 907q-34 0 -34 38t17 80h45q98 -1 132 21t34 72t-30 70t-92 20t-98 -8q-20 -40 -24 -42t-64 -11q-60 -8 -78 6q-18 15 -32 87t-14 91t12 27t110 18q97 9 274 9q176 0 274 -42t98 -148q0 -150 -227 -217q249 -42 249 -186
q0 -126 -145 -194t-373 -68t-258 25t-30 85t26 107q151 -39 260 -39t146 22t37 79q0 98 -150 98h-65z" />
    <glyph glyph-name="questiondown" unicode="&#xbf;" horiz-adv-x="1168" 
d="M650 735q-187 0 -187 141q-1 70 49 106t138 36q187 0 187 -142q1 -69 -49 -105t-138 -36zM634 -211q82 0 134 12q36 67 42 71t68 18t89 -10t53 -82q26 -60 26 -92t-20 -47q-20 -14 -152 -30q-130 -16 -322 -16t-320 67t-129 232q1 165 173 305q172 139 223 203t51 151v30
q105 22 218 22q91 0 91 -87q0 -54 -42 -119q-43 -65 -207 -193t-164 -247q0 -96 53 -142t135 -46z" />
    <glyph glyph-name="Agrave" unicode="&#xc0;" horiz-adv-x="1469" 
d="M466 1631q0 79 116 160l329 -238l-62 -99q-383 60 -383 177zM680 1095q-18 0 -160 -504h331q-153 504 -171 504zM11 85q0 52 58 52h54q71 193 215 627t190 526q47 94 179 94q167 0 189 -11t197 -525t253 -711h94q17 -37 17 -73t-13 -50t-42 -14h-511q-17 44 -17 85
q0 52 59 52h44q-15 72 -77 287h-424q-56 -210 -70 -287h95q17 -37 17 -73t-13 -50t-41 -14h-436q-17 44 -17 85z" />
    <glyph glyph-name="Aacute" unicode="&#xc1;" horiz-adv-x="1469" 
d="M981 1631q0 -117 -383 -177l-61 99l328 238q116 -80 116 -160zM680 1095q-18 0 -160 -504h331q-153 504 -171 504zM11 85q0 52 58 52h54q71 193 215 627t190 526q47 94 179 94q167 0 189 -11t197 -525t253 -711h94q17 -37 17 -73t-13 -50t-42 -14h-511q-17 44 -17 85
q0 52 59 52h44q-15 72 -77 287h-424q-56 -210 -70 -287h95q17 -37 17 -73t-13 -50t-41 -14h-436q-17 44 -17 85z" />
    <glyph glyph-name="Acircumflex" unicode="&#xc2;" horiz-adv-x="1469" 
d="M680 1095q-18 0 -160 -504h331q-153 504 -171 504zM726 1588q-67 -27 -228 -134l-58 92q142 156 287 279q146 -124 287 -279l-59 -92q-160 107 -229 134zM11 85q0 52 58 52h54q71 193 215 627t190 526q47 94 179 94q167 0 189 -11t197 -525t253 -711h94q17 -37 17 -73
t-13 -50t-42 -14h-511q-17 44 -17 85q0 52 59 52h44q-15 72 -77 287h-424q-56 -210 -70 -287h95q17 -37 17 -73t-13 -50t-41 -14h-436q-17 44 -17 85z" />
    <glyph glyph-name="Atilde" unicode="&#xc3;" horiz-adv-x="1469" 
d="M680 1095q-18 0 -160 -504h331q-153 504 -171 504zM1123 1675q0 -71 -90 -141t-162 -70t-232 165q-66 -94 -115 -175q-123 40 -123 132q0 62 85 132q86 70 162 70t236 -165q66 93 116 174q123 -40 123 -122zM11 85q0 52 58 52h54q71 193 215 627t190 526q47 94 179 94
q167 0 189 -11t197 -525t253 -711h94q17 -37 17 -73t-13 -50t-42 -14h-511q-17 44 -17 85q0 52 59 52h44q-15 72 -77 287h-424q-56 -210 -70 -287h95q17 -37 17 -73t-13 -50t-41 -14h-436q-17 44 -17 85z" />
    <glyph glyph-name="Adieresis" unicode="&#xc4;" horiz-adv-x="1469" 
d="M492 1741q158 0 158 -133q0 -66 -44 -109t-140 -43q-151 0 -151 133q1 67 47 109t130 43zM1004 1741q158 0 158 -133q0 -66 -44 -109t-140 -43q-152 0 -152 133q0 67 46 109t132 43zM680 1095q-18 0 -160 -504h331q-153 504 -171 504zM11 85q0 52 58 52h54
q71 193 215 627t190 526q47 94 179 94q167 0 189 -11t197 -525t253 -711h94q17 -37 17 -73t-13 -50t-42 -14h-511q-17 44 -17 85q0 52 59 52h44q-15 72 -77 287h-424q-56 -210 -70 -287h95q17 -37 17 -73t-13 -50t-41 -14h-436q-17 44 -17 85z" />
    <glyph glyph-name="Aring" unicode="&#xc5;" horiz-adv-x="1469" 
d="M584 1676q0 -106 154 -105q154 -1 155 105q-1 106 -155 106t-154 -106zM680 1095q-18 0 -160 -504h331q-153 504 -171 504zM726 1445q-170 0 -239 54q-69 55 -69 157t82 177t252 75t238 -54q69 -54 69 -156q0 -103 -82 -178q-81 -75 -251 -75zM11 85q0 52 58 52h54
q71 193 215 627t190 526q47 94 179 94q167 0 189 -11t197 -525t253 -711h94q17 -37 17 -73t-13 -50t-42 -14h-511q-17 44 -17 85q0 52 59 52h44q-15 72 -77 287h-424q-56 -210 -70 -287h95q17 -37 17 -73t-13 -50t-41 -14h-436q-17 44 -17 85z" />
    <glyph glyph-name="AE" unicode="&#xc6;" horiz-adv-x="1920" 
d="M922 591v97q0 280 -5 446q-176 -322 -290 -543h295zM1 85q0 52 58 52h64q109 197 387 689t310 516t125 23h769q64 1 92 -19t27 -88q0 -68 -49 -145q-210 85 -539 85h-8q-5 -98 -5 -399h463q18 -53 18 -99q-1 -46 -13 -56q-12 -12 -45 -12h-423q1 -385 5 -465h43
q338 0 535 79q44 -66 44 -132t-41 -90t-166 -24l-850 -1q-17 44 -17 85q0 52 59 52h73q3 83 4 288h-379q-108 -218 -127 -287h85q18 -37 18 -73t-13 -50t-42 -14h-445q-17 44 -17 85z" />
    <glyph glyph-name="Ccedilla" unicode="&#xc7;" horiz-adv-x="1271" 
d="M762 -272q0 79 -91 79q-29 1 -55 -1t-42 16q-15 18 -13 30t18 135q-199 18 -319 126q-148 133 -148 515t177 569q177 188 502 188q213 -1 295 -31t82 -102t-64 -145q-189 86 -348 86q-160 0 -230 -104q-70 -105 -70 -399t76 -406t258 -112q181 0 324 92q67 -74 67 -144
q1 -70 -131 -102q-132 -33 -290 -37l-37 -83q179 0 237 -36t57 -116q1 -80 -91 -141q-92 -62 -258 -62q-99 0 -136 12t-37 63t33 87q72 -33 134 -33t81 12t19 44z" />
    <glyph glyph-name="Egrave" unicode="&#xc8;" horiz-adv-x="1267" 
d="M461 1631q0 79 116 160l328 -238l-61 -99q-383 60 -383 177zM91 1312q0 53 59 53h910q64 1 92 -19t27 -88q0 -68 -49 -145q-210 85 -538 85h-48q-6 -98 -6 -399h504q17 -53 17 -99t-12 -56q-12 -12 -46 -12h-463q1 -385 6 -465h83q337 0 534 79q44 -66 44 -132t-41 -90
t-166 -24l-889 -1q-18 44 -18 85q0 52 59 52h73q6 128 6 546t-6 546h-114q-18 44 -18 84z" />
    <glyph glyph-name="Eacute" unicode="&#xc9;" horiz-adv-x="1267" 
d="M886 1631q0 -117 -383 -177l-62 99l329 238q116 -80 116 -160zM91 1312q0 53 59 53h910q64 1 92 -19t27 -88q0 -68 -49 -145q-210 85 -538 85h-48q-6 -98 -6 -399h504q17 -53 17 -99t-12 -56q-12 -12 -46 -12h-463q1 -385 6 -465h83q337 0 534 79q44 -66 44 -132t-41 -90
t-166 -24l-889 -1q-18 44 -18 85q0 52 59 52h73q6 128 6 546t-6 546h-114q-18 44 -18 84z" />
    <glyph glyph-name="Ecircumflex" unicode="&#xca;" horiz-adv-x="1267" 
d="M684 1588q-67 -27 -228 -134l-58 92q142 156 287 279q146 -124 287 -279l-59 -92q-160 107 -229 134zM91 1312q0 53 59 53h910q64 1 92 -19t27 -88q0 -68 -49 -145q-210 85 -538 85h-48q-6 -98 -6 -399h504q17 -53 17 -99t-12 -56q-12 -12 -46 -12h-463q1 -385 6 -465h83
q337 0 534 79q44 -66 44 -132t-41 -90t-166 -24l-889 -1q-18 44 -18 85q0 52 59 52h73q6 128 6 546t-6 546h-114q-18 44 -18 84z" />
    <glyph glyph-name="Edieresis" unicode="&#xcb;" horiz-adv-x="1267" 
d="M948 1741q158 0 158 -133q0 -66 -44 -109t-140 -43q-151 0 -151 133q0 67 46 109t131 43zM437 1741q158 0 158 -133q1 -66 -43 -109t-142 -43q-151 0 -151 133q1 67 47 109t131 43zM91 1312q0 53 59 53h910q64 1 92 -19t27 -88q0 -68 -49 -145q-210 85 -538 85h-48
q-6 -98 -6 -399h504q17 -53 17 -99t-12 -56q-12 -12 -46 -12h-463q1 -385 6 -465h83q337 0 534 79q44 -66 44 -132t-41 -90t-166 -24l-889 -1q-18 44 -18 85q0 52 59 52h73q6 128 6 546t-6 546h-114q-18 44 -18 84z" />
    <glyph glyph-name="Igrave" unicode="&#xcc;" horiz-adv-x="752" 
d="M146 1631q0 79 116 160l328 -238l-61 -99q-383 60 -383 177zM92 1312q0 53 58 53h547q17 -37 17 -73t-13 -50t-41 -14h-97q-5 -128 -5 -546t6 -545h133q17 -37 17 -73t-13 -50t-41 -14h-551q-17 44 -17 85q0 52 58 52h93q5 127 5 545t-6 546h-133q-17 44 -17 84z" />
    <glyph glyph-name="Iacute" unicode="&#xcd;" horiz-adv-x="805" 
d="M641 1631q0 -117 -383 -177l-62 99l329 238q116 -80 116 -160zM91 1312q0 53 59 53h547q17 -37 17 -73t-13 -50t-42 -14h-97q-4 -128 -4 -546t5 -545h134q17 -37 17 -73t-13 -50t-42 -14h-550q-18 44 -18 85q0 52 59 52h93q5 127 5 545t-6 546h-133q-18 44 -18 84z" />
    <glyph glyph-name="Icircumflex" unicode="&#xce;" horiz-adv-x="745" 
d="M396 1588q-68 -27 -228 -134l-59 92q142 156 288 279q145 -124 286 -279l-59 -92q-160 107 -228 134zM91 1312q0 53 58 53h547q17 -37 17 -73t-13 -50t-41 -14h-97q-6 -128 -6 -546t7 -545h133q17 -37 17 -73t-13 -50t-41 -14h-551q-17 44 -17 85q0 52 58 52h93
q6 127 6 545t-7 546h-133q-17 44 -17 84z" />
    <glyph glyph-name="Idieresis" unicode="&#xcf;" horiz-adv-x="843" 
d="M688 1741q158 0 158 -133q0 -66 -44 -109t-140 -43q-152 0 -152 133q1 67 47 109t131 43zM177 1741q157 0 157 -133q0 -66 -44 -109t-140 -43q-151 0 -151 133q1 67 47 109t131 43zM106 1312q0 53 58 53h547q17 -37 17 -73t-13 -50t-42 -14h-96q-5 -128 -5 -546t5 -545
h134q17 -37 17 -73t-13 -50t-42 -14h-550q-17 44 -17 85q0 52 58 52h93q5 127 5 545t-6 546h-133q-17 44 -17 84z" />
    <glyph glyph-name="Eth" unicode="&#xd0;" horiz-adv-x="1489" 
d="M687 1173q-71 0 -125 -10q-3 -95 -4 -364h178q18 -45 18 -95t-17 -61t-51 -11h-128v-118q0 -238 28 -280t162 -42t210 95t77 380t-89 395t-259 111zM111 1312q0 53 59 53h422q452 1 620 -143t167 -495q1 -351 -173 -539t-589 -188l-489 -1q-17 44 -17 85q0 52 59 52h73
q4 107 5 496h-139q-18 54 -18 98t13 56t43 13h101q0 301 -5 429h-115q-17 44 -17 84z" />
    <glyph glyph-name="Ntilde" unicode="&#xd1;" horiz-adv-x="1592" 
d="M1140 1675q0 -71 -90 -141t-162 -70t-231 165q-66 -94 -116 -175q-123 40 -123 132q0 62 85 132t170 70q68 0 229 -165q65 93 115 174q123 -40 123 -122zM111 1312q0 53 59 53h429q134 -257 258 -476t254 -543v461q0 293 -6 421h-113q-17 44 -17 84q0 53 59 53h450
q17 -37 17 -73t-13 -50t-42 -14h-87q-4 -128 -4 -422v-671q0 -95 -22 -120t-116 -25q-187 0 -212 14t-200 303t-323 646q0 -688 5 -816h104q17 -37 17 -73t-13 -50t-41 -14h-445q-18 44 -18 85q0 52 59 52h83q5 127 5 545t-6 546h-103q-18 44 -18 84z" />
    <glyph glyph-name="Ograve" unicode="&#xd2;" horiz-adv-x="1501" 
d="M518 1631q0 79 116 160l329 -238l-61 -99q-384 60 -384 177zM456 686q0 -290 81 -402t229 -112t215 108q66 108 66 404q-1 295 -81 402t-229 107q-149 -1 -215 -109t-66 -398zM112 632q0 377 182 565t486 188q304 1 458 -137t154 -515t-182 -565t-486 -188
q-306 0 -459 138t-153 514z" />
    <glyph glyph-name="Oacute" unicode="&#xd3;" horiz-adv-x="1501" 
d="M1010 1631q0 -117 -383 -177l-62 99l329 238q116 -80 116 -160zM456 686q0 -290 81 -402t229 -112t215 108q66 108 66 404q-1 295 -81 402t-229 107q-149 -1 -215 -109t-66 -398zM112 632q0 377 182 565t486 188q304 1 458 -137t154 -515t-182 -565t-486 -188
q-306 0 -459 138t-153 514z" />
    <glyph glyph-name="Ocircumflex" unicode="&#xd4;" horiz-adv-x="1501" 
d="M776 1588q-67 -27 -228 -134l-58 92q142 156 287 279q146 -124 287 -279l-59 -92q-160 107 -229 134zM456 686q0 -290 81 -402t229 -112t215 108q66 108 66 404q-1 295 -81 402t-229 107q-149 -1 -215 -109t-66 -398zM112 632q0 377 182 565t486 188q304 1 458 -137
t154 -515t-182 -565t-486 -188q-306 0 -459 138t-153 514z" />
    <glyph glyph-name="Otilde" unicode="&#xd5;" horiz-adv-x="1501" 
d="M1163 1675q0 -71 -90 -141q-89 -70 -161 -70t-233 165q-65 -94 -115 -175q-123 40 -123 132q0 62 85 132q86 70 162 70t236 -165q66 93 116 174q123 -40 123 -122zM456 686q0 -290 81 -402t229 -112t215 108q66 108 66 404q-1 295 -81 402t-229 107q-149 -1 -215 -109
t-66 -398zM112 632q0 377 182 565t486 188q304 1 458 -137t154 -515t-182 -565t-486 -188q-306 0 -459 138t-153 514z" />
    <glyph glyph-name="Odieresis" unicode="&#xd6;" horiz-adv-x="1501" 
d="M1035 1741q158 0 158 -133q1 -66 -43 -109t-141 -43q-151 0 -151 133q0 67 46 109t131 43zM524 1741q158 0 158 -133q0 -66 -44 -109t-141 -43q-151 0 -151 133q0 67 46 109t132 43zM456 686q0 -290 81 -402t229 -112t215 108q66 108 66 404q-1 295 -81 402t-229 107
q-149 -1 -215 -109t-66 -398zM112 632q0 377 182 565t486 188q304 1 458 -137t154 -515t-182 -565t-486 -188q-306 0 -459 138t-153 514z" />
    <glyph glyph-name="multiply" unicode="&#xd7;" 
d="M801 693l266 -267q-31 -54 -71 -94t-68 -46q-30 -6 -61 26l-224 223l-266 -266q-195 119 -124 193l232 231l-266 267q91 136 143 142q28 3 50 -19l231 -232l266 266q57 -31 96 -70t45 -69t-25 -61z" />
    <glyph glyph-name="Oslash" unicode="&#xd8;" horiz-adv-x="1501" 
d="M456 724q0 -252 68 -412l305 865q-51 16 -89 16q-152 -1 -218 -109t-66 -360zM763 172q152 0 218 108t66 369q0 260 -72 418l-308 -877q55 -18 96 -18zM112 632q0 377 182 565t495 188q38 0 74 -3l75 205q74 -9 150 -37t83 -50q6 -21 -4 -50l-46 -126q67 -30 117 -77
q154 -137 154 -514t-182 -565t-504 -188q-38 0 -73 3l-72 -194q-55 2 -185 49q-37 14 -46 36t5 61l40 108q-62 31 -110 74q-153 138 -153 515z" />
    <glyph glyph-name="Ugrave" unicode="&#xd9;" horiz-adv-x="1436" 
d="M488 1631q0 79 116 160l329 -238l-62 -99q-383 60 -383 177zM81 1312q0 53 58 53h478q17 -37 17 -73t-13 -50t-41 -14h-68q-5 -132 -5 -581q0 -291 59 -383q60 -92 190 -92t184 81t55 323q0 520 -6 652h-114q-18 44 -18 84q0 53 59 53h460q17 -37 17 -73t-13 -50t-41 -14
h-77q-5 -128 -4 -597q0 -379 -150 -515t-429 -136q-280 0 -381 98t-101 366q0 656 -5 784h-94q-17 44 -17 84z" />
    <glyph glyph-name="Uacute" unicode="&#xda;" horiz-adv-x="1436" 
d="M1002 1631q0 -117 -384 -177l-61 99l329 238q116 -80 116 -160zM81 1312q0 53 58 53h478q17 -37 17 -73t-13 -50t-41 -14h-68q-5 -132 -5 -581q0 -291 59 -383q60 -92 190 -92t184 81t55 323q0 520 -6 652h-114q-18 44 -18 84q0 53 59 53h460q17 -37 17 -73t-13 -50
t-41 -14h-77q-5 -128 -4 -597q0 -379 -150 -515t-429 -136q-280 0 -381 98t-101 366q0 656 -5 784h-94q-17 44 -17 84z" />
    <glyph glyph-name="Ucircumflex" unicode="&#xdb;" horiz-adv-x="1436" 
d="M748 1588q-68 -27 -228 -134l-59 92q142 156 288 279q145 -124 286 -279l-58 -92q-160 107 -229 134zM81 1312q0 53 58 53h478q17 -37 17 -73t-13 -50t-41 -14h-68q-5 -132 -5 -581q0 -291 59 -383q60 -92 190 -92t184 81t55 323q0 520 -6 652h-114q-18 44 -18 84
q0 53 59 53h460q17 -37 17 -73t-13 -50t-41 -14h-77q-5 -128 -4 -597q0 -379 -150 -515t-429 -136q-280 0 -381 98t-101 366q0 656 -5 784h-94q-17 44 -17 84z" />
    <glyph glyph-name="Udieresis" unicode="&#xdc;" horiz-adv-x="1436" 
d="M1025 1741q158 0 158 -133q1 -66 -43 -109t-142 -43q-151 0 -151 133q1 67 47 109t131 43zM513 1741q158 0 158 -133q1 -66 -43 -109t-141 -43q-151 0 -151 133q0 67 46 109t131 43zM81 1312q0 53 58 53h478q17 -37 17 -73t-13 -50t-41 -14h-68q-5 -132 -5 -581
q0 -291 59 -383q60 -92 190 -92t184 81t55 323q0 520 -6 652h-114q-18 44 -18 84q0 53 59 53h460q17 -37 17 -73t-13 -50t-41 -14h-77q-5 -128 -4 -597q0 -379 -150 -515t-429 -136q-280 0 -381 98t-101 366q0 656 -5 784h-94q-17 44 -17 84z" />
    <glyph glyph-name="Yacute" unicode="&#xdd;" horiz-adv-x="1447" 
d="M971 1631q0 -117 -383 -177l-62 99l329 238q116 -80 116 -160zM883 1312q0 53 58 53h439q17 -37 17 -73t-13 -50t-41 -14h-48q-113 -205 -416 -790q0 -173 6 -301h162q17 -37 17 -73t-13 -50t-41 -14h-600q-17 44 -17 85q0 52 58 52h112q7 128 7 274q-320 623 -436 817
h-85q-17 44 -17 84q0 53 59 53h497q17 -37 17 -73t-13 -50t-42 -14h-48q40 -116 144 -362t118 -246t103 236t126 372h-93q-17 44 -17 84z" />
    <glyph glyph-name="Thorn" unicode="&#xde;" horiz-adv-x="1334" 
d="M91 1312q0 53 59 53h547q17 -37 17 -73t-13 -50t-42 -14h-92q-5 -56 -5 -95h75q368 0 502 -93q134 -92 134 -310q-1 -218 -153 -343t-511 -125h-47q0 -48 1 -125h173q17 -37 17 -73t-13 -50t-41 -14h-590q-18 44 -18 85q0 52 59 52h93q5 127 5 545t-6 546h-133
q-18 44 -18 84zM650 425q134 0 206 55t72 187q0 131 -68 203t-193 72q-59 0 -100 -10q-5 -64 -5 -358v-149h88z" />
    <glyph glyph-name="germandbls" unicode="&#xdf;" horiz-adv-x="1311" 
d="M69 68q0 69 66 69h75q13 324 6 481q-8 158 -20 192t-31 42q-20 8 -78 8q-18 39 -18 80q-1 41 35 54t111 13q0 199 132 309t337 109q205 0 302 -75t97 -196t-74 -260q-26 -50 -43 -82t-17 -50q1 -18 31 -46t108 -104q78 -69 135 -145t57 -173q0 -146 -118 -230t-336 -84
q-78 0 -114 15t-36 79t31 113q78 -34 132 -34q124 0 124 142q0 71 -52 129t-105 108q-54 50 -94 92q-40 41 -40 72t15 62q99 205 99 307q0 103 -42 145t-111 42q-68 0 -102 -54t-34 -200v-588q0 -126 5 -273h73q18 -33 18 -69q1 -36 -17 -52t-60 -16h-429q-18 35 -18 68z
" />
    <glyph glyph-name="agrave" unicode="&#xe0;" horiz-adv-x="1108" 
d="M360 290q0 -137 139 -137q53 0 95 23q42 24 55 66t13 110v57q-72 15 -151 15t-115 -28t-36 -106zM71 235q0 169 116 251t366 82h109q-9 154 -51 210t-126 57q-46 0 -100 -12q-35 -66 -41 -70t-70 -18q-62 -14 -88 9t-52 81q-26 59 -27 91q1 32 21 46t151 30t293 16
t262 -60t100 -235v-265q0 -222 19 -272t68 -39q15 -28 15 -55q0 -44 -54 -68t-118 -24q-66 0 -89 10t-72 77q-191 -97 -344 -97q-288 0 -288 255zM296 1362q0 81 165 142l215 -312l-104 -96q-276 162 -276 266z" />
    <glyph glyph-name="aacute" unicode="&#xe1;" horiz-adv-x="1108" 
d="M360 290q0 -137 139 -137q53 0 95 23q42 24 55 66t13 110v57q-72 15 -151 15t-115 -28t-36 -106zM71 235q0 169 116 251t366 82h109q-9 154 -51 210t-126 57q-46 0 -100 -12q-35 -66 -41 -70t-70 -18q-62 -14 -88 9t-52 81q-26 59 -27 91q1 32 21 46t151 30t293 16
t262 -60t100 -235v-265q0 -222 19 -272t68 -39q15 -28 15 -55q0 -44 -54 -68t-118 -24q-66 0 -89 10t-72 77q-191 -97 -344 -97q-288 0 -288 255zM746 1362q0 -104 -276 -266l-104 96l214 312q166 -61 166 -142z" />
    <glyph glyph-name="acircumflex" unicode="&#xe2;" horiz-adv-x="1108" 
d="M514 1245q-67 -37 -228 -126l-48 73q132 156 277 299q146 -144 277 -299l-49 -73q-160 89 -229 126zM360 290q0 -137 139 -137q53 0 95 23q42 24 55 66t13 110v57q-72 15 -151 15t-115 -28t-36 -106zM71 235q0 169 116 251t366 82h109q-9 154 -51 210t-126 57
q-46 0 -100 -12q-35 -66 -41 -70t-70 -18q-62 -14 -88 9t-52 81q-26 59 -27 91q1 32 21 46t151 30t293 16t262 -60t100 -235v-265q0 -222 19 -272t68 -39q15 -28 15 -55q0 -44 -54 -68t-118 -24q-66 0 -89 10t-72 77q-191 -97 -344 -97q-288 0 -288 255z" />
    <glyph glyph-name="atilde" unicode="&#xe3;" horiz-adv-x="1108" 
d="M865 1341q0 -73 -90 -137q-89 -64 -151 -65q-62 0 -223 146q-46 -69 -96 -165q-122 40 -122 131q0 63 85 127q86 64 152 65q66 0 227 -145q46 69 96 164q122 -39 122 -121zM360 290q0 -137 139 -137q53 0 95 23q42 24 55 66t13 110v57q-72 15 -151 15t-115 -28t-36 -106z
M71 235q0 169 116 251t366 82h109q-9 154 -51 210t-126 57q-46 0 -100 -12q-35 -66 -41 -70t-70 -18q-62 -14 -88 9t-52 81q-26 59 -27 91q1 32 21 46t151 30t293 16t262 -60t100 -235v-265q0 -222 19 -272t68 -39q15 -28 15 -55q0 -44 -54 -68t-118 -24q-66 0 -89 10
t-72 77q-191 -97 -344 -97q-288 0 -288 255z" />
    <glyph glyph-name="adieresis" unicode="&#xe4;" horiz-adv-x="1108" 
d="M360 290q0 -137 139 -137q53 0 95 23q42 24 55 66t13 110v57q-72 15 -151 15t-115 -28t-36 -106zM71 235q0 169 116 251t366 82h109q-9 154 -51 210t-126 57q-46 0 -100 -12q-35 -66 -41 -70t-70 -18q-62 -14 -88 9t-52 81q-26 59 -27 91q1 32 21 46t151 30t293 16
t262 -60t100 -235v-265q0 -222 19 -272t68 -39q15 -28 15 -55q0 -44 -54 -68t-118 -24q-66 0 -89 10t-72 77q-191 -97 -344 -97q-288 0 -288 255zM744 1137q-160 -1 -160 133q0 64 50 108q50 42 128 42q76 0 116 -36t40 -99q0 -62 -48 -105q-46 -43 -126 -43zM272 1137
q-159 -1 -159 133q1 64 51 108q50 42 126 42t117 -36q40 -36 40 -99q0 -62 -48 -105t-127 -43z" />
    <glyph glyph-name="aring" unicode="&#xe5;" horiz-adv-x="1108" 
d="M504 1099q-140 1 -196 45t-56 137t68 155t206 62q139 0 196 -44t57 -138q0 -93 -68 -155t-207 -62zM515 1404q-140 0 -140 -105q1 -47 35 -77t105 -29q141 0 141 106q0 45 -34 75t-107 30zM360 290q0 -137 139 -137q53 0 95 23q42 24 55 66t13 110v57q-72 15 -151 15
t-115 -28t-36 -106zM71 235q0 169 116 251t366 82h109q-9 154 -51 210t-126 57q-46 0 -100 -12q-35 -66 -41 -70t-70 -18q-62 -14 -88 9t-52 81q-26 59 -27 91q1 32 21 46t151 30t293 16t262 -60t100 -235v-265q0 -222 19 -272t68 -39q15 -28 15 -55q0 -44 -54 -68t-118 -24
q-66 0 -89 10t-72 77q-191 -97 -344 -97q-288 0 -288 255z" />
    <glyph glyph-name="ae" unicode="&#xe6;" horiz-adv-x="1602" 
d="M1081 845q-72 0 -111 -60t-40 -209h53q220 0 238 28q10 16 10 52q0 90 -39 140t-111 49zM360 290q0 -137 139 -137q53 0 95 23q42 24 55 66t13 110v57q-72 15 -151 15t-115 -28t-36 -106zM361 -20q-290 0 -290 255q0 169 116 251t366 82h109q-9 154 -51 210t-126 57
q-46 0 -100 -12q-35 -66 -41 -70t-70 -18q-62 -14 -88 9t-52 81q-26 59 -27 91q1 32 21 46t151 30t238 16q206 0 303 -108q137 118 324 118t281 -94t94 -299q0 -101 -40 -144t-175 -43h-372q4 -132 60 -206t194 -74q140 0 286 80q52 -51 52 -110q0 -80 -118 -112t-274 -31
q-253 0 -374 117q-242 -122 -397 -122z" />
    <glyph glyph-name="ccedilla" unicode="&#xe7;" horiz-adv-x="981" 
d="M583 -272q0 79 -91 79q-29 1 -46 -1t-32 16t-13 30t26 136q-167 20 -248 94q-110 104 -110 368q-1 264 143 416t429 152q149 0 207 -26t59 -96t-48 -133q-166 82 -270 82q-103 1 -153 -73t-50 -258t48 -272t165 -89q116 0 279 77q42 -58 42 -122t-103 -96
q-103 -30 -235 -32l-38 -82q168 0 226 -36t57 -115q1 -79 -91 -132t-220 -53t-164 12t-36 54q0 41 33 77q71 -33 133 -33t82 12q19 12 19 44z" />
    <glyph glyph-name="egrave" unicode="&#xe8;" horiz-adv-x="1058" 
d="M566 1018q220 0 315 -94q94 -94 94 -299q0 -101 -40 -144t-175 -43h-372q3 -132 59 -206q55 -74 195 -74t286 80q52 -51 52 -110q0 -80 -118 -112t-275 -31q-272 0 -395 110t-123 368q1 259 139 407t358 148zM537 845q-72 0 -111 -60t-40 -209h53q220 0 238 28
q10 16 10 52q0 90 -39 140t-111 49zM324 1362q0 81 165 142l215 -312l-104 -96q-276 162 -276 266z" />
    <glyph glyph-name="eacute" unicode="&#xe9;" horiz-adv-x="1058" 
d="M566 1018q220 0 315 -94q94 -94 94 -299q0 -101 -40 -144t-175 -43h-372q3 -132 59 -206q55 -74 195 -74t286 80q52 -51 52 -110q0 -80 -118 -112t-275 -31q-272 0 -395 110t-123 368q1 259 139 407t358 148zM537 845q-72 0 -111 -60t-40 -209h53q220 0 238 28
q10 16 10 52q0 90 -39 140t-111 49zM784 1362q0 -104 -276 -266l-104 96l214 312q166 -61 166 -142z" />
    <glyph glyph-name="ecircumflex" unicode="&#xea;" horiz-adv-x="1058" 
d="M550 1245q-67 -37 -228 -126l-48 73q132 156 277 299q146 -144 277 -299l-49 -73q-160 89 -229 126zM566 1018q220 0 315 -94q94 -94 94 -299q0 -101 -40 -144t-175 -43h-372q3 -132 59 -206q55 -74 195 -74t286 80q52 -51 52 -110q0 -80 -118 -112t-275 -31
q-272 0 -395 110t-123 368q1 259 139 407t358 148zM537 845q-72 0 -111 -60t-40 -209h53q220 0 238 28q10 16 10 52q0 90 -39 140t-111 49z" />
    <glyph glyph-name="edieresis" unicode="&#xeb;" horiz-adv-x="1058" 
d="M566 1018q220 0 315 -94q94 -94 94 -299q0 -101 -40 -144t-175 -43h-372q3 -132 59 -206q55 -74 195 -74t286 80q52 -51 52 -110q0 -80 -118 -112t-275 -31q-272 0 -395 110t-123 368q1 259 139 407t358 148zM537 845q-72 0 -111 -60t-40 -209h53q220 0 238 28
q10 16 10 52q0 90 -39 140t-111 49zM790 1137q-160 -1 -159 133q1 64 51 108q50 42 126 42t117 -36q40 -36 40 -99q1 -62 -47 -105t-128 -43zM319 1137q-159 -1 -159 133q0 64 50 108q50 42 128 42q76 0 116 -36t40 -99q0 -62 -48 -105t-127 -43z" />
    <glyph glyph-name="igrave" unicode="&#xec;" horiz-adv-x="658" 
d="M44 1362q0 81 166 142l214 -312l-104 -96q-276 162 -276 266zM75 79q0 58 59 58h82q5 128 5 311q1 184 -3 256t-16 106t-37 42t-73 8q-17 28 -17 74t46 60q45 13 169 13t162 -8q38 -7 45 -31q6 -24 6 -66v-492q0 -145 5 -273h118q17 -33 17 -71q-1 -38 -15 -52t-56 -14
h-480q-17 42 -17 79z" />
    <glyph glyph-name="iacute" unicode="&#xed;" horiz-adv-x="658" 
d="M549 1362q0 -104 -276 -266l-104 96l214 312q166 -61 166 -142zM50 79q0 58 59 58h82q5 128 5 311q0 184 -4 256t-15 106q-12 34 -37 42t-73 8q-17 28 -17 74t46 60q46 13 170 13t162 -8q38 -7 44 -31t5 -66v-492q1 -145 6 -273h118q17 -33 17 -71t-14 -52t-57 -14h-480
q-17 42 -17 79z" />
    <glyph glyph-name="icircumflex" unicode="&#xee;" horiz-adv-x="658" 
d="M308 1245q-67 -37 -227 -126l-49 73q132 156 277 299q146 -144 277 -299l-49 -73q-160 89 -229 126zM73 79q0 58 59 58h82q5 128 5 311q1 184 -3 256t-16 106t-37 42t-73 8q-17 28 -17 74t46 60q45 13 169 13t162 -8q38 -7 45 -31q6 -24 6 -66v-492q0 -145 5 -273h118
q17 -33 17 -71q-1 -38 -15 -52t-56 -14h-480q-17 42 -17 79z" />
    <glyph glyph-name="idieresis" unicode="&#xef;" horiz-adv-x="830" 
d="M615 1137q-159 -1 -159 133q0 64 50 108q50 42 128 42q76 0 116 -36t40 -99q0 -62 -48 -105t-127 -43zM144 1137q-160 -1 -160 133q0 64 51 108q51 42 127 42t116 -36t40 -99q0 -62 -48 -105q-46 -43 -126 -43zM128 79q0 58 59 58h82q5 128 5 311q0 184 -4 256t-15 106
q-12 34 -37 42t-72 8q-18 28 -18 74t46 60q46 13 170 13t162 -8q38 -7 44 -31t6 -66v-492q0 -145 5 -273h118q17 -33 17 -71t-14 -52t-57 -14h-480q-17 42 -17 79z" />
    <glyph glyph-name="eth" unicode="&#xf0;" horiz-adv-x="1111" 
d="M727 488q0 206 -23 326q-71 31 -155 31q-83 -1 -123 -65t-40 -258t44 -282q44 -87 130 -87q88 1 128 65t39 270zM1043 585q0 -301 -137 -453q-138 -152 -374 -152q-464 0 -463 456q-1 278 137 430t391 152q59 0 116 -12q-48 114 -118 213l-196 -92q-35 35 -49 65t-10 46
t36 31l129 59q-86 92 -196 166l179 93q124 -73 220 -164l201 94q29 -21 51 -68q12 -31 6 -45t-37 -31l-122 -57q236 -296 236 -731z" />
    <glyph glyph-name="ntilde" unicode="&#xf1;" horiz-adv-x="1257" 
d="M973 1341q0 -73 -90 -137t-152 -65q-62 0 -222 146q-46 -69 -96 -165q-122 40 -122 131q0 63 85 127q86 64 152 65q66 0 227 -145q46 69 95 164q123 -39 123 -121zM69 79q0 58 59 58h73q5 165 5 393t-26 279t-93 51q-18 40 -18 78q1 38 27 49t330 20q5 -42 0 -115
q110 68 210 96t168 29q142 0 210 -62t68 -250q0 -493 18 -531t78 -37q15 -35 15 -73q1 -38 -23 -51t-138 -13t-157 5t-59 33t-16 92v353q0 203 -38 273t-114 70q-78 0 -119 -42t-41 -173v-201q0 -126 5 -273h119q17 -33 17 -71q-1 -38 -15 -52t-56 -14h-471q-18 42 -18 79z
" />
    <glyph glyph-name="ograve" unicode="&#xf2;" horiz-adv-x="1111" 
d="M532 -20q-464 0 -463 456q-1 278 137 430t374 152q462 0 463 -456q0 -278 -137 -430q-138 -152 -374 -152zM560 153q88 1 128 65t39 258q1 194 -43 282q-44 87 -132 87q-88 -1 -126 -65q-40 -64 -40 -258t44 -282q42 -87 130 -87zM310 1362q0 81 165 142l215 -312
l-104 -96q-276 162 -276 266z" />
    <glyph glyph-name="oacute" unicode="&#xf3;" horiz-adv-x="1111" 
d="M532 -20q-464 0 -463 456q-1 278 137 430t374 152q462 0 463 -456q0 -278 -137 -430q-138 -152 -374 -152zM560 153q88 1 128 65t39 258q1 194 -43 282q-44 87 -132 87q-88 -1 -126 -65q-40 -64 -40 -258t44 -282q42 -87 130 -87zM801 1362q0 -104 -276 -266l-104 96
l214 312q166 -61 166 -142z" />
    <glyph glyph-name="ocircumflex" unicode="&#xf4;" horiz-adv-x="1111" 
d="M567 1245q-68 -37 -228 -126l-49 73q132 156 278 299q145 -144 276 -299l-49 -73q-160 89 -228 126zM532 -20q-464 0 -463 456q-1 278 137 430t374 152q462 0 463 -456q0 -278 -137 -430q-138 -152 -374 -152zM560 153q88 1 128 65t39 258q1 194 -43 282q-44 87 -132 87
q-88 -1 -126 -65q-40 -64 -40 -258t44 -282q42 -87 130 -87z" />
    <glyph glyph-name="otilde" unicode="&#xf5;" horiz-adv-x="1111" 
d="M913 1341q0 -73 -90 -137q-89 -64 -151 -65q-62 0 -223 146q-46 -69 -96 -165q-122 40 -122 131q0 63 85 127q86 64 152 65q66 0 227 -145q46 69 96 164q122 -39 122 -121zM532 -20q-464 0 -463 456q-1 278 137 430t374 152q462 0 463 -456q0 -278 -137 -430
q-138 -152 -374 -152zM560 153q88 1 128 65t39 258q1 194 -43 282q-44 87 -132 87q-88 -1 -126 -65q-40 -64 -40 -258t44 -282q42 -87 130 -87z" />
    <glyph glyph-name="odieresis" unicode="&#xf6;" horiz-adv-x="1111" 
d="M532 -20q-464 0 -463 456q-1 278 137 430t374 152q462 0 463 -456q0 -278 -137 -430q-138 -152 -374 -152zM560 153q88 1 128 65t39 258q1 194 -43 282q-44 87 -132 87q-88 -1 -126 -65q-40 -64 -40 -258t44 -282q42 -87 130 -87zM800 1137q-160 -1 -160 133q0 64 50 108
q50 42 128 42q76 0 116 -36t40 -99q0 -62 -48 -105q-46 -43 -126 -43zM328 1137q-159 -1 -159 133q1 64 51 108q50 42 126 42t117 -36q40 -36 40 -99q0 -62 -48 -105t-127 -43z" />
    <glyph glyph-name="divide" unicode="&#xf7;" 
d="M643 1285q187 0 187 -141q0 -70 -50 -106t-137 -36q-186 0 -186 142q0 68 49 104t137 37zM643 385q187 0 187 -142q0 -69 -50 -105t-137 -37q-186 0 -186 142q0 69 49 105t137 37zM1149 681q0 -90 -78 -90h-916q-18 63 -18 106q0 98 67 98h927q18 -52 18 -114z" />
    <glyph glyph-name="oslash" unicode="&#xf8;" horiz-adv-x="1111" 
d="M515 845q-68 -1 -108 -65t-40 -243t47 -299l209 593q-40 14 -108 14zM596 153q70 1 110 65t40 246t-53 302l-210 -596q43 -17 113 -17zM1043 566q0 -282 -137 -434t-386 -152q-9 0 -16 1l-77 -211q-55 2 -184 50q-38 12 -47 34t4 62l47 129q-178 109 -178 388
q-1 281 137 433t385 152q6 0 10 -1l81 217q74 -10 151 -38t83 -49t-5 -50l-52 -140q184 -110 184 -391z" />
    <glyph glyph-name="ugrave" unicode="&#xf9;" horiz-adv-x="1185" 
d="M18 930q0 78 216 77q104 -1 140 -11t44 -31t9 -141v-356q0 -195 37 -255q36 -60 96 -60q60 1 103 23t54 58t11 217q0 180 -1 252t-11 106q-10 35 -26 43t-53 8q-18 28 -18 70q0 78 215 77q87 -1 123 -11q37 -10 45 -36t8 -146v-372q0 -198 14 -246t74 -43q14 -33 14 -63
q0 -48 -73 -74t-127 -26t-73 14t-59 73q-192 -97 -340 -97q-149 0 -222 68t-73 274q1 310 -3 382t-16 106t-32 42t-58 8q-18 28 -18 70zM324 1362q0 81 165 142l215 -312l-104 -96q-276 162 -276 266z" />
    <glyph glyph-name="uacute" unicode="&#xfa;" horiz-adv-x="1185" 
d="M18 930q0 78 216 77q104 -1 140 -11t44 -31t9 -141v-356q0 -195 37 -255q36 -60 96 -60q60 1 103 23t54 58t11 217q0 180 -1 252t-11 106q-10 35 -26 43t-53 8q-18 28 -18 70q0 78 215 77q87 -1 123 -11q37 -10 45 -36t8 -146v-372q0 -198 14 -246t74 -43q14 -33 14 -63
q0 -48 -73 -74t-127 -26t-73 14t-59 73q-192 -97 -340 -97q-149 0 -222 68t-73 274q1 310 -3 382t-16 106t-32 42t-58 8q-18 28 -18 70zM785 1362q0 -104 -276 -266l-104 96l214 312q166 -61 166 -142z" />
    <glyph glyph-name="ucircumflex" unicode="&#xfb;" horiz-adv-x="1185" 
d="M544 1245q-68 -37 -228 -126l-49 73q132 156 278 299q145 -144 276 -299l-48 -73q-161 89 -229 126zM18 930q0 78 216 77q104 -1 140 -11t44 -31t9 -141v-356q0 -195 37 -255q36 -60 96 -60q60 1 103 23t54 58t11 217q0 180 -1 252t-11 106q-10 35 -26 43t-53 8
q-18 28 -18 70q0 78 215 77q87 -1 123 -11q37 -10 45 -36t8 -146v-372q0 -198 14 -246t74 -43q14 -33 14 -63q0 -48 -73 -74t-127 -26t-73 14t-59 73q-192 -97 -340 -97q-149 0 -222 68t-73 274q1 310 -3 382t-16 106t-32 42t-58 8q-18 28 -18 70z" />
    <glyph glyph-name="udieresis" unicode="&#xfc;" horiz-adv-x="1185" 
d="M18 930q0 78 216 77q104 -1 140 -11t44 -31t9 -141v-356q0 -195 37 -255q36 -60 96 -60q60 1 103 23t54 58t11 217q0 180 -1 252t-11 106q-10 35 -26 43t-53 8q-18 28 -18 70q0 78 215 77q87 -1 123 -11q37 -10 45 -36t8 -146v-372q0 -198 14 -246t74 -43q14 -33 14 -63
q0 -48 -73 -74t-127 -26t-73 14t-59 73q-192 -97 -340 -97q-149 0 -222 68t-73 274q1 310 -3 382t-16 106t-32 42t-58 8q-18 28 -18 70zM764 1137q-160 -1 -159 133q1 64 51 108q50 42 126 42t117 -36q40 -36 40 -99q1 -62 -47 -105t-128 -43zM293 1137q-159 -1 -159 133
q0 64 50 108q50 42 128 42q76 0 116 -36t40 -99q0 -62 -48 -105t-127 -43z" />
    <glyph glyph-name="yacute" unicode="&#xfd;" horiz-adv-x="1134" 
d="M754 1362q0 -104 -276 -266l-104 96l214 312q166 -61 166 -142zM212 -440q-128 0 -171 22q-42 22 -42 82q0 59 43 112q214 -45 310 -39t175 253q-157 -4 -169 2t-90 324q-78 316 -98 388t-31 106q-12 34 -33 42t-69 8q-17 46 -17 88t41 50t158 9q117 0 153 -12
q36 -11 48 -43q14 -32 42 -192t72 -380t58 -220t86 296t83 385h-54q-18 35 -18 74q-1 39 15 57t51 17h340q18 -34 18 -75t-17 -57t-59 -16h-18q-31 -81 -173 -568t-220 -575t-182 -114q-104 -24 -232 -24z" />
    <glyph glyph-name="thorn" unicode="&#xfe;" horiz-adv-x="1180" 
d="M753 1018q359 0 359 -443q0 -309 -136 -452t-365 -143q-90 0 -144 12q0 -148 5 -295h139q17 -33 17 -71t-14 -52t-57 -14h-491q-18 42 -18 79q0 58 59 58h73q5 147 5 392v393q1 454 -3 570t-16 158t-38 56q-27 12 -72 12q-17 40 -17 82t31 54q32 12 170 11t176 -9t45 -31
q6 -23 6 -65v-396q110 94 286 94zM796 488q0 216 -46 286q-46 71 -126 71q-111 0 -141 -104q-16 -55 -16 -152v-392q74 -44 157 -44q84 -1 128 59t44 276z" />
    <glyph glyph-name="ydieresis" unicode="&#xff;" horiz-adv-x="1134" 
d="M212 -440q-128 0 -171 22q-42 22 -42 82q0 59 43 112q214 -45 310 -39t175 253q-157 -4 -169 2t-90 324q-78 316 -98 388t-31 106q-12 34 -33 42t-69 8q-17 46 -17 88t41 50t158 9q117 0 153 -12q36 -11 48 -43q14 -32 42 -192t72 -380t58 -220t86 296t83 385h-54
q-18 35 -18 74q-1 39 15 57t51 17h340q18 -34 18 -75t-17 -57t-59 -16h-18q-31 -81 -173 -568t-220 -575t-182 -114q-104 -24 -232 -24zM808 1137q-160 -1 -159 133q1 64 51 108q50 42 126 42t117 -36q40 -36 40 -99q1 -62 -47 -105t-128 -43zM337 1137q-159 -1 -159 133
q0 64 50 108q50 42 128 42q76 0 116 -36t40 -99q0 -62 -48 -105t-127 -43z" />
    <glyph glyph-name="dotlessi" unicode="&#x131;" horiz-adv-x="658" 
d="M50 79q0 58 59 58h82q5 128 5 311q0 184 -4 256t-15 106q-12 34 -37 42t-73 8q-17 28 -17 74t46 60q46 13 170 13t162 -8q38 -7 44 -31t5 -66v-492q1 -145 6 -273h118q17 -33 17 -71t-14 -52t-57 -14h-480q-17 42 -17 79z" />
    <glyph glyph-name="Lslash" unicode="&#x141;" horiz-adv-x="1179" 
d="M115 1312q0 53 59 53h526q18 -37 18 -73t-13 -50t-42 -14h-97q-4 -120 -4 -389l142 40q28 -39 41 -87t-1 -63t-45 -24l-137 -39q0 -415 5 -499h24q335 0 532 79q45 -66 45 -132t-42 -90t-166 -24l-828 -1q-17 44 -17 85q0 52 59 52h73q4 100 5 447l-110 -30
q-31 47 -42 89t-2 58t38 23l116 32q0 345 -6 473h-114q-17 44 -17 84z" />
    <glyph glyph-name="lslash" unicode="&#x142;" horiz-adv-x="669" 
d="M45 79q0 58 59 58h82q6 128 5 505l-123 -44q-32 37 -44 69q-12 31 -5 47q6 16 39 28l133 48q-1 351 -15 407q-14 57 -42 69t-71 12q-18 40 -18 82q-1 42 31 54t170 11t177 -9t45 -31t5 -65v-428l137 50q26 -23 40 -63q14 -41 7 -55t-40 -27l-144 -52q0 -480 5 -608h128
q17 -33 17 -71q-1 -38 -15 -52t-56 -14h-489q-18 42 -18 79z" />
    <glyph glyph-name="OE" unicode="&#x152;" horiz-adv-x="1882" 
d="M883 618q0 352 -5 555q-290 -1 -356 -109t-66 -378t81 -382t341 -112q5 74 5 426zM1244 167q337 0 534 79q44 -66 44 -132t-41 -90t-166 -24h-820q-377 0 -530 138t-153 494q0 357 182 545t583 188h798q63 1 91 -19t28 -88t-49 -145q-210 85 -547 85q-5 -98 -5 -399h464
q17 -53 17 -99t-12 -56q-12 -12 -46 -12h-423q1 -385 5 -465h46z" />
    <glyph glyph-name="oe" unicode="&#x153;" horiz-adv-x="1710" 
d="M1191 845q-72 0 -111 -60t-40 -209h53q220 0 238 28q10 16 10 52q0 90 -39 140t-111 49zM510 -20q-214 0 -328 117t-113 339q-1 278 137 430t387 152q203 0 321 -115q131 115 329 115t292 -94t94 -299q0 -101 -40 -144t-175 -43h-372q3 -132 59 -206q55 -74 195 -74
t286 80q52 -51 52 -110q0 -80 -118 -112t-265 -31q-270 0 -394 115q-133 -120 -347 -120zM560 153q88 1 128 65t39 258q1 194 -43 282q-44 87 -132 87q-88 -1 -126 -65q-40 -64 -40 -258t44 -282q42 -87 130 -87z" />
    <glyph glyph-name="Scaron" unicode="&#x160;" horiz-adv-x="1227" 
d="M597 1691q69 27 229 134l59 -92q-141 -155 -287 -279q-145 124 -287 279l58 92q161 -107 228 -134zM515 -20q-217 0 -319 32t-102 122t70 154q229 -116 429 -116q131 0 183 34t52 122q0 87 -81 139t-273 105t-278 147t-87 241q1 201 143 313t396 112t336 -30
q84 -30 84 -115t-61 -151q-231 104 -401 104q-113 0 -157 -39t-44 -120t55 -124t222 -92q210 -55 324 -139t118 -274q0 -425 -609 -425z" />
    <glyph glyph-name="scaron" unicode="&#x161;" horiz-adv-x="987" 
d="M495 1387q68 37 229 125l48 -91q-131 -156 -276 -300q-146 143 -278 300l49 91q160 -88 228 -125zM478 153q144 0 144 91q0 57 -62 91t-202 88q-142 55 -204 119t-62 165q0 143 124 227t346 84q151 0 233 -28t82 -98q0 -69 -57 -142q-216 95 -334 95t-117 -89
q-1 -45 39 -78t195 -87t225 -122t71 -179q-1 -150 -123 -230t-323 -80t-283 26t-82 100q0 72 48 132q198 -85 342 -85z" />
    <glyph glyph-name="Ydieresis" unicode="&#x178;" horiz-adv-x="1447" 
d="M997 1741q158 0 158 -133q1 -66 -43 -109t-141 -43q-152 0 -152 133q1 67 47 109t131 43zM486 1741q157 0 157 -133q1 -66 -43 -109t-141 -43q-151 0 -151 133q0 67 46 109t132 43zM883 1312q0 53 58 53h439q17 -37 17 -73t-13 -50t-41 -14h-48q-113 -205 -416 -790
q0 -173 6 -301h162q17 -37 17 -73t-13 -50t-41 -14h-600q-17 44 -17 85q0 52 58 52h112q7 128 7 274q-320 623 -436 817h-85q-17 44 -17 84q0 53 59 53h497q17 -37 17 -73t-13 -50t-42 -14h-48q40 -116 144 -362t118 -246t103 236t126 372h-93q-17 44 -17 84z" />
    <glyph glyph-name="Zcaron" unicode="&#x17d;" horiz-adv-x="1208" 
d="M614 1691q69 27 229 134l59 -92q-141 -155 -287 -279q-145 124 -287 279l58 92q161 -107 228 -134zM671 1198q-305 0 -531 -99q-54 81 -54 149t38 93q38 24 122 24h758q72 0 92 -21q20 -20 20 -64t-41 -116t-191 -317q-150 -244 -264 -435t-127 -245h81q302 0 519 108
q54 -85 54 -156t-41 -95t-166 -24h-787q-73 0 -73 86q0 45 34 96t298 464q263 413 321 552h-62z" />
    <glyph glyph-name="zcaron" unicode="&#x17e;" horiz-adv-x="1004" 
d="M483 1387q69 37 229 125l49 -91q-131 -156 -277 -300q-145 143 -277 300l48 91q161 -88 228 -125zM894 920q0 -42 -41 -109t-137 -217t-168 -272q-74 -122 -87 -175h148q86 0 297 74q30 -66 30 -123q0 -58 -27 -78t-119 -20h-661q-72 0 -72 67q1 35 35 86t158 220
q199 271 280 468h-195q-70 0 -233 -75q-49 72 -49 128t23 76t88 19h636q46 1 70 -13t24 -56z" />
    <glyph glyph-name="florin" unicode="&#x192;" 
d="M117 -440q-131 0 -171 15t-32 79t59 122q161 -50 217 -30t86 254q28 234 50 410l38 310h-130q-12 43 -7 82t20 53t48 14h87l12 96q32 264 160 362t375 98q144 1 207 -27q64 -28 56 -91t-70 -131q-190 86 -277 86t-116 -52t-44 -170l-21 -171h271q12 -39 7 -81
q-4 -42 -20 -55t-56 -13h-220l-93 -748q-17 -142 -67 -226t-144 -135t-225 -51z" />
    <glyph glyph-name="circumflex" unicode="&#x2c6;" horiz-adv-x="576" 
d="M287 1245q-67 -37 -228 -126l-48 73q132 156 277 299q146 -144 277 -299l-49 -73q-160 89 -229 126z" />
    <glyph glyph-name="caron" unicode="&#x2c7;" horiz-adv-x="576" 
d="M287 1387q69 37 229 125l49 -91q-131 -156 -277 -300q-145 143 -277 300l48 91q161 -88 228 -125z" />
    <glyph glyph-name="breve" unicode="&#x2d8;" horiz-adv-x="610" 
d="M306 1318q108 0 207 133l88 -62q-107 -249 -305 -249t-285 249l87 62q100 -133 208 -133z" />
    <glyph glyph-name="dotaccent" unicode="&#x2d9;" horiz-adv-x="392" 
d="M207 1420q175 0 175 -135q0 -62 -48 -105t-154 -43q-169 0 -169 132q1 67 51 109t145 42z" />
    <glyph glyph-name="ring" unicode="&#x2da;" horiz-adv-x="605" 
d="M292 1099q-140 1 -196 45t-56 137t68 155t206 62q139 0 196 -44t57 -138q0 -93 -68 -155t-207 -62zM303 1404q-140 0 -140 -105q1 -47 35 -77t105 -29q141 0 141 106q0 45 -34 75t-107 30z" />
    <glyph glyph-name="ogonek" unicode="&#x2db;" horiz-adv-x="1058" 
d="M980 -361q0 -77 -306 -77q-118 0 -166 38t-48 117q0 113 142 239t325 282q52 -48 52 -110q1 -92 -137 -147t-138 -189q0 -58 25 -89t86 -31t130 45q35 -35 35 -78z" />
    <glyph glyph-name="tilde" unicode="&#x2dc;" horiz-adv-x="704" 
d="M692 1341q0 -73 -90 -137t-152 -65q-62 0 -222 146q-45 -69 -95 -165q-122 40 -122 131q0 63 85 127q86 64 152 65q66 0 227 -145q45 69 95 164q122 -39 122 -121z" />
    <glyph glyph-name="hungarumlaut" unicode="&#x2dd;" horiz-adv-x="715" 
d="M732 1405q0 -81 -153 -296l-139 38q29 186 62 344q230 19 230 -86zM302 1405q0 -81 -153 -296l-138 38q29 186 61 344q230 19 230 -86z" />
    <glyph glyph-name="Delta" unicode="&#x394;" horiz-adv-x="1438" 
d="M666 1049q-4 0 -388 -912h764q-372 912 -376 912zM32 0v137q542 1204 572 1218t260 14l544 -1232v-137h-1376z" />
    <glyph glyph-name="Delta" unicode="&#x2206;" horiz-adv-x="1438" 
d="M666 1049q-4 0 -388 -912h764q-372 912 -376 912zM32 0v137q542 1204 572 1218t260 14l544 -1232v-137h-1376z" />
    <glyph glyph-name="Omega" unicode="&#x3a9;" horiz-adv-x="1934" 
d="M956 1193q-413 0 -413 -432q0 -342 296 -594v-167h-693q-84 0 -108 24t-24 84t35 138q207 -79 472 -79q-322 223 -322 534t220 497q221 186 577 187q356 0 548 -136t192 -441q0 -363 -322 -641q264 0 462 79q44 -66 44 -132t-41 -90t-166 -24h-618v167q296 247 296 572
q0 243 -119 349t-316 105z" />
    <glyph glyph-name="Omega" unicode="&#x2126;" horiz-adv-x="1934" 
d="M956 1193q-413 0 -413 -432q0 -342 296 -594v-167h-693q-84 0 -108 24t-24 84t35 138q207 -79 472 -79q-322 223 -322 534t220 497q221 186 577 187q356 0 548 -136t192 -441q0 -363 -322 -641q264 0 462 79q44 -66 44 -132t-41 -90t-166 -24h-618v167q296 247 296 572
q0 243 -119 349t-316 105z" />
    <glyph glyph-name="pi" unicode="&#x3c0;" horiz-adv-x="1468" 
d="M1172 841v-489q0 -140 14 -178t83 -37q15 -37 15 -71t-28 -55t-159 -21t-169 58t-38 184v609h-256v-730q0 -121 -140 -121q-102 0 -181 10q39 208 39 437v404q-70 0 -233 -75q-50 72 -50 128t23 76t89 19h746q232 0 443 74q30 -67 30 -124t-28 -77t-118 -21h-82z" />
    <glyph glyph-name="uni1200" unicode="&#x1200;" horiz-adv-x="1508" 
d="M463 1556q59 0 75 -16t17 -63q0 -242 -10 -609t-10 -555q-1 -187 39 -269t154 -82t180 83q65 83 86 284t21 433q0 424 -63 746q112 48 213 48t131 -50t29 -322q0 -939 -173 -1162t-524 -223q-238 0 -320 74t-82 254q0 139 10 349t10 488t-15 357q-15 78 -57 78
q-10 18 -11 44q1 45 121 79t179 34z" />
    <glyph glyph-name="uni1201" unicode="&#x1201;" horiz-adv-x="1980" 
d="M1608 640q-68 0 -68 61q0 41 20 127q-138 -8 -243 -13q-29 -618 -165 -793q-173 -223 -524 -223q-238 0 -320 74t-82 254q0 139 10 349t10 488t-15 357q-15 78 -57 78q-10 18 -11 44q1 45 121 79t179 34t75 -16t17 -63q0 -242 -10 -609t-10 -555q-1 -187 39 -269t154 -82
t180 83q65 83 86 284t21 433q0 424 -63 746q112 48 213 48t131 -50t29 -322q0 -118 -3 -225q205 7 341 29t159 23q22 0 38 -15t16 -30t-10 -68t-9 -85q0 -47 50 -38q10 -17 10 -49q-1 -32 -31 -48t-132 -27t-146 -11z" />
    <glyph glyph-name="uni1202" unicode="&#x1202;" horiz-adv-x="1400" 
d="M524 990q0 -174 144 -174q74 0 108 48t96 236t62 326q0 39 -5 82q130 48 221 48t112 -18t21 -59q1 -95 -147 -475t-254 -642t-107 -356q0 -22 10 -30q9 -8 51 -8t208 27t188 27t38 -15t16 -30t-10 -68t-9 -85q0 -47 50 -37q9 -18 9 -50q0 -31 -30 -47t-132 -28t-146 -11
q-68 0 -68 61q0 42 20 128q-352 -21 -428 -21t-96 22q-20 23 -20 83t60 210t238 571q-190 -52 -306 -52q-116 1 -160 35t-43 126t11 220q10 126 10 212q0 153 -72 153q-10 18 -11 44q1 45 121 79t179 34t75 -16t17 -63q-1 -137 -11 -267t-10 -220z" />
    <glyph glyph-name="uni1203" unicode="&#x1203;" horiz-adv-x="1437" 
d="M524 990q0 -174 144 -174q74 0 108 48t96 236t62 326q0 39 -5 82q130 48 221 48t112 -18t21 -59q1 -95 -147 -475t-254 -642t-107 -354q-1 -19 5 -30t27 -1q15 -23 15 -50q0 -46 -116 -77t-198 -31q-82 1 -82 83t60 232t238 571q-190 -52 -306 -52q-116 1 -160 35
t-43 126t11 220q10 126 10 212q0 153 -72 153q-10 18 -11 44q1 45 121 79t179 34t75 -16t17 -63q-1 -137 -11 -267t-10 -220z" />
    <glyph glyph-name="uni1204" unicode="&#x1204;" horiz-adv-x="1422" 
d="M524 990q0 -174 144 -173q74 -1 108 47t96 236t62 326q0 40 -5 83q130 48 221 48t112 -18t21 -59q-1 -95 -137 -442t-276 -732q125 64 235 64q232 0 232 -179q0 -161 -193 -277t-456 -115q-122 1 -177 43t-55 128t60 236q60 151 208 500q-190 -52 -306 -52t-160 34
t-43 128q1 92 11 218t10 213q0 153 -72 153q-10 18 -11 44q1 46 121 80t179 33q59 0 75 -16t17 -63q-1 -138 -11 -268t-10 -220zM883 -38q145 0 145 117q0 58 -32 93t-91 35t-110 -38q-23 -93 -3 -150t91 -57z" />
    <glyph glyph-name="uni1205" unicode="&#x1205;" horiz-adv-x="1599" 
d="M694 924q0 -42 -16 -225t-16 -377t37 -278q37 -82 136 -82t164 83t86 284t21 433q0 424 -63 746q113 48 213 48t130 -50t29 -322q-1 -939 -173 -1162t-523 -223q-216 0 -291 75t-75 272q0 271 41 652q-120 0 -144 16t-25 60q1 44 11 146q10 100 10 189q0 190 -72 190
q-10 18 -11 44q1 45 121 79t179 34t75 -16t17 -63l-21 -453q0 -41 20 -50t80 -9q60 1 60 -41z" />
    <glyph glyph-name="uni1206" unicode="&#x1206;" horiz-adv-x="1959" 
d="M723 -38q119 0 183 83t86 244t22 426l1 432q1 239 145 334t346 95t296 -60t94 -200q0 -142 -78 -226t-206 -84q-127 0 -288 45v-380q0 -470 -182 -671t-515 -201q-238 -1 -320 69t-82 259q-1 139 10 349t11 488t-15 357q-15 78 -57 78q-10 18 -11 44q1 45 121 79t179 34
t75 -16t17 -63l-21 -1119q0 -232 35 -314t154 -82zM1472 1169q60 0 88 23q27 24 27 86t-37 98t-107 37q-70 0 -94 -35t-24 -191q87 -18 147 -18z" />
    <glyph glyph-name="uni1207" unicode="&#x1207;" horiz-adv-x="2390" 
d="M1903 1169q61 0 88 23q27 24 27 86t-37 98t-107 37q-70 0 -94 -35t-25 -191q87 -18 148 -18zM144 744l-15 130q-1 18 23 31t128 32t125 20t271 1q-1 293 -15 367t-56 74q-10 18 -11 44q0 45 120 79t180 34t76 -16t16 -63l-21 -1119q0 -232 35 -314t154 -82q120 0 184 83
t86 244t21 426l1 432q0 239 144 334t346 95t296 -60t95 -200q-1 -142 -79 -226t-205 -84t-288 45v-380q1 -470 -181 -671t-516 -201q-230 -1 -316 69t-86 259q-2 138 8 329t12 354q-181 -1 -239 -10q20 -73 20 -106q0 -32 -23 -52t-131 -40t-168 -20q-53 0 -53 57
q0 22 10 56q32 -3 42 8t10 41z" />
    <glyph glyph-name="uni1208" unicode="&#x1208;" horiz-adv-x="1415" 
d="M443 282q0 -236 41 -424q-99 -39 -221 -39q-82 -1 -106 47t-24 272t53 427q52 203 154 351t225 242q-165 206 -192 224t-60 17q-11 28 -11 49q0 52 134 80t182 28t78 -30q28 -30 192 -271t232 -359t90 -258q23 -140 23 -364q1 -224 17 -266q16 -41 44 -31q19 -28 19 -54
q0 -44 -111 -74q-112 -30 -178 -30q-66 1 -83 23t-17 111q0 524 -58 698t-185 330q-238 -212 -238 -699z" />
    <glyph glyph-name="uni1209" unicode="&#x1209;" horiz-adv-x="1853" 
d="M443 282q0 -236 41 -424q-99 -39 -221 -39q-82 -1 -106 47t-24 272t53 427q52 203 154 351t225 242q-165 206 -192 224t-60 17q-11 28 -11 49q0 52 134 80t182 28t78 -30t174 -244q144 -212 214 -325q290 4 440 29t172 25t38 -15t16 -30t-10 -68t-10 -85q0 -47 50 -38
q10 -17 10 -49t-30 -48t-132 -27t-147 -11q-67 0 -67 61q0 41 19 127q-158 -9 -273 -14q35 -84 54 -200t19 -340q1 -224 17 -266q16 -41 44 -31q19 -28 19 -54q0 -44 -111 -74q-112 -30 -178 -30q-66 1 -83 23t-17 111q0 524 -58 698t-185 330q-238 -212 -238 -699z" />
    <glyph glyph-name="uni120A" unicode="&#x120a;" horiz-adv-x="1816" 
d="M1444 -349q-68 0 -68 61q0 42 20 128q-298 -21 -368 -21q-70 1 -87 23t-17 111q0 524 -58 698t-185 330q-238 -212 -238 -699q0 -236 41 -424q-99 -39 -221 -39q-82 -1 -106 47t-24 272t53 427q52 203 154 351t225 242q-165 206 -192 224t-60 17q-11 28 -11 49
q0 52 134 80t182 28t78 -30q28 -30 192 -271t232 -359t90 -258q23 -140 23 -364t15 -266q15 -40 51 -40q72 0 204 27t155 27q22 0 38 -15t16 -30t-10 -68t-9 -85q0 -47 50 -37q9 -18 9 -50q0 -31 -30 -47t-132 -28t-146 -11z" />
    <glyph glyph-name="uni120B" unicode="&#x120b;" horiz-adv-x="1415" 
d="M423 494q0 -147 32 -271q-90 -38 -192 -38t-126 37t-24 164q0 126 49 272q48 146 154 276t245 225q-161 205 -188 223t-60 17q-11 28 -11 49q0 52 134 80t182 28t78 -30q28 -30 192 -271t232 -359t90 -258q23 -140 23 -364q1 -224 17 -266q16 -41 44 -31q19 -28 19 -54
q0 -44 -111 -74q-112 -30 -178 -30q-66 1 -83 23t-17 111q0 524 -58 698t-195 339q-141 -114 -195 -232t-53 -264z" />
    <glyph glyph-name="uni120C" unicode="&#x120c;" horiz-adv-x="1867" 
d="M443 282q0 -236 41 -424q-99 -39 -221 -39q-82 -1 -106 47t-24 272t53 427q52 203 154 351t225 242q-165 206 -192 224t-60 17q-11 28 -11 49q0 52 134 80t182 28t78 -30t192 -271q164 -240 231 -357q67 -116 90 -258t23 -346q176 77 308 77q132 1 198 -51t66 -137
q0 -157 -203 -270t-467 -113q-108 0 -160 46t-52 204q0 428 -57 602t-184 329q-238 -212 -238 -699zM1364 -37q130 0 130 120q0 59 -36 92t-102 33t-124 -31q0 -115 32 -165t100 -49z" />
    <glyph glyph-name="uni120D" unicode="&#x120d;" horiz-adv-x="1687" 
d="M731 371q132 1 198 -51t66 -137q0 -157 -203 -270t-466 -113q-110 0 -162 66t-51 252q-1 188 59 370t214 352t452 318q-166 206 -192 224t-61 17q-10 28 -10 49q0 52 134 80t182 28t77 -30t193 -271q165 -240 231 -357q66 -116 90 -258t23 -366q1 -224 17 -266
q16 -41 43 -31q20 -28 20 -54q0 -44 -111 -74q-112 -30 -178 -30q-66 1 -84 23t-17 111q0 525 -57 699t-184 329q-306 -154 -414 -323t-117 -364q176 77 308 77zM556 -37q129 0 129 120q0 59 -36 92t-102 33t-124 -31q1 -115 33 -165t100 -49z" />
    <glyph glyph-name="uni120E" unicode="&#x120e;" horiz-adv-x="2341" 
d="M1716 635q0 -53 28 -77t89 -25q63 0 99 32q36 31 36 89q0 124 -122 124q-53 0 -105 -38q-25 -52 -25 -105zM443 282q0 -236 41 -424q-99 -39 -221 -39q-82 -1 -106 47t-24 272t53 427q52 203 154 351t225 242q-165 206 -192 224t-60 17q-11 28 -11 49q0 52 134 80t182 28
t78 -30q28 -30 192 -271q164 -240 199 -302t38 -67q180 0 257 6q78 6 190 27q112 22 149 22t76 -65q139 65 253 65q228 0 228 -182q0 -157 -193 -273t-441 -116t-248 161q0 99 87 217q-146 -8 -296 -10q46 -161 46 -425q1 -264 17 -305t44 -31q19 -28 19 -54q0 -44 -111 -74
q-112 -30 -178 -30q-66 1 -83 23t-17 111q0 524 -58 698t-185 330q-238 -212 -238 -699z" />
    <glyph glyph-name="uni120F" unicode="&#x120f;" horiz-adv-x="1892" 
d="M471 -247l-15 129q0 18 24 32q24 13 127 32q104 18 124 20t193 2q-2 511 -59 684t-194 338q-141 -114 -195 -232t-53 -264q0 -147 32 -271q-90 -38 -192 -38t-126 37t-24 164q0 126 49 272q48 146 154 276t245 225q-161 205 -188 223t-60 17q-11 28 -11 49q0 52 134 80
t182 28t78 -30q28 -30 192 -271t232 -359t90 -258q23 -140 23 -367q1 -227 13 -259t25 -39q177 5 309 27t154 22t38 -15t16 -30t-10 -68t-9 -85q0 -48 50 -37q10 -18 10 -50q-1 -31 -31 -47t-132 -28t-146 -11q-68 0 -68 61q0 42 20 127q-348 -20 -497 -20t-212 -9
q20 -72 20 -106q-1 -34 -23 -53t-130 -39t-168 -21q-53 0 -53 57q0 23 9 56q33 -3 43 8t10 41z" />
    <glyph glyph-name="uni1210" unicode="&#x1210;" horiz-adv-x="2233" 
d="M2089 -75q-1 -49 -119 -77t-179 -29q-61 0 -76 14t-15 71l10 429q0 235 -114 313t-370 78v-21q0 -556 51 -845q-105 -39 -209 -39q-104 1 -128 49t-24 347t-1 508q-247 -9 -365 -105t-117 -388q4 -216 36 -372q-86 -39 -185 -39t-130 36t-31 186q0 433 217 639
q182 174 574 202q-3 391 -12 439q-15 78 -57 78q-10 18 -11 44q0 45 120 79t180 34t76 -16t16 -63v-590q491 1 642 -81t151 -284l-10 -404q1 -88 17 -120t44 -21q19 -23 19 -52z" />
    <glyph glyph-name="uni1211" unicode="&#x1211;" horiz-adv-x="2675" 
d="M2303 270q-68 0 -68 61q0 41 20 127q-133 -8 -237 -13q-1 -81 -5 -161t-4 -166q1 -88 17 -120t44 -21q19 -23 19 -52q-1 -49 -119 -77t-179 -29q-61 0 -76 14t-15 71l10 429q0 235 -114 313t-370 78v-21q0 -556 51 -845q-105 -39 -209 -39q-104 1 -128 49t-24 347t-1 508
q-247 -9 -365 -105t-117 -388q4 -216 36 -372q-86 -39 -185 -39t-130 36t-31 186q0 433 217 639q182 174 574 202q-3 391 -12 439q-15 78 -57 78q-10 18 -11 44q0 45 120 79t180 34t76 -16t16 -63v-590q491 0 642 -82q124 -67 146 -216q208 7 344 29t158 23q22 0 39 -15
q16 -15 16 -30q1 -15 -9 -68t-10 -85q0 -46 50 -38q9 -17 9 -49t-30 -48t-132 -27t-146 -11z" />
    <glyph glyph-name="uni1212" unicode="&#x1212;" horiz-adv-x="2670" 
d="M2298 -349q-67 0 -67 61q0 42 19 128q-358 -21 -434 -21t-96 22t-20 62l10 430q0 235 -114 313t-370 78v-21q0 -556 51 -845q-105 -39 -209 -39q-104 1 -128 49t-24 347t-1 508q-247 -9 -365 -105t-117 -388q4 -216 36 -372q-86 -39 -185 -39t-130 36t-31 186
q0 433 217 639q182 174 574 202q-3 391 -12 439q-15 78 -57 78q-10 18 -11 44q0 45 120 79t180 34t76 -16t16 -63v-590q491 1 642 -81t151 -284l-10 -492q1 -36 11 -49t34 -13q104 0 270 27t188 27t39 -15q16 -15 16 -30t-10 -68t-10 -85q0 -48 50 -37q10 -18 10 -50
q0 -31 -30 -47t-132 -28t-147 -11z" />
    <glyph glyph-name="uni1213" unicode="&#x1213;" horiz-adv-x="2233" 
d="M1226 724v-25q0 -214 42 -476q-96 -38 -200 -38q-104 -1 -128 37t-24 210v290q-262 -6 -372 -82t-111 -238q0 -70 26 -179q-76 -38 -175 -38q-99 1 -130 29t-31 117q0 265 223 410q180 118 569 140q-3 387 -15 453t-55 65q-10 18 -11 44q0 45 120 79t180 34t76 -16
t16 -63v-590q491 1 642 -81t151 -284l-10 -404q1 -88 17 -120t44 -21q19 -23 19 -52q-1 -49 -119 -77t-179 -29q-61 0 -76 14t-15 71l10 429q0 235 -114 313t-370 78z" />
    <glyph glyph-name="uni1214" unicode="&#x1214;" horiz-adv-x="2645" 
d="M2142 -37q129 0 129 120q0 59 -36 92q-35 33 -101 33t-125 -31q1 -115 33 -165t100 -49zM1226 724v-21q0 -556 51 -845q-105 -39 -209 -39q-104 1 -128 49t-24 347t-1 508q-247 -9 -365 -105t-117 -388q4 -216 36 -372q-86 -39 -185 -39t-130 36t-31 186q0 433 217 639
q182 174 574 202q-3 391 -12 439q-15 78 -57 78q-10 18 -11 44q0 45 120 79t180 34t76 -16t16 -63v-590q491 1 642 -81t151 -284q0 -97 -10 -228q176 77 308 77q132 1 198 -51t66 -137q0 -157 -203 -270t-466 -113q-110 0 -161 46t-51 165l10 322q0 235 -114 313t-370 78z
" />
    <glyph glyph-name="uni1215" unicode="&#x1215;" horiz-adv-x="2233" 
d="M1226 724v-21q0 -556 51 -845q-105 -39 -209 -39q-104 1 -128 49t-24 364v491q-248 -9 -366 -105t-117 -388q4 -216 36 -372q-86 -39 -185 -39t-130 36t-31 186q0 433 217 639q183 174 576 202v447h-202q-38 1 -56 15t-18 85q1 178 -71 178q-9 17 -10 43q0 46 120 80
t179 34q60 0 76 -16t16 -72t-19 -199h196q63 -1 81 -15t18 -71v-504q491 1 642 -81t151 -284l-10 -404q1 -88 17 -120t44 -21q19 -23 19 -52q-1 -49 -119 -77t-179 -29q-61 0 -76 14t-15 71l10 429q0 235 -114 313t-370 78z" />
    <glyph glyph-name="uni1216" unicode="&#x1216;" horiz-adv-x="2243" 
d="M916 432v291q-248 -9 -366 -105t-117 -388q4 -216 36 -372q-86 -39 -185 -39t-130 36t-31 186q0 433 217 639q182 174 575 202q-3 386 -15 452t-55 65q-10 18 -11 44q0 45 120 79t180 34t76 -16t16 -63v-590q512 1 652 -69t141 -281q1 -141 17 -173t44 -22q19 -23 19 -52
q-1 -49 -119 -77t-179 -28t-76 14t-15 70v130q0 177 -91 251t-393 74v-25q0 -214 42 -476q-96 -38 -200 -38q-104 -1 -128 37t-24 210z" />
    <glyph glyph-name="uni1217" unicode="&#x1217;" horiz-adv-x="2689" 
d="M1268 -247l-15 129q-1 18 23 32q24 13 128 32q104 18 124 20t172 2q2 50 6 148t4 217q0 235 -114 313t-370 78v-25q0 -214 42 -476q-96 -38 -200 -38q-104 -1 -128 37t-24 210v290q-262 -6 -372 -82t-111 -238q0 -70 26 -179q-76 -38 -175 -38q-99 1 -130 29t-31 117
q0 265 223 410q180 118 569 140q-3 387 -15 453t-55 65q-10 18 -11 44q0 45 120 79t180 34t76 -16t16 -63v-590q491 1 642 -81t151 -284l-10 -404q0 -124 30 -146q199 6 335 28t158 22t38 -15t16 -30t-10 -68t-10 -85q0 -48 50 -37q10 -18 10 -50q0 -31 -30 -47t-132 -28
t-146 -11q-68 0 -68 61q0 42 19 127q-349 -20 -497 -20t-211 -9q19 -72 19 -106t-22 -53t-131 -39q-108 -20 -168 -21q-53 0 -53 57q0 23 10 56q32 -3 42 8t10 41z" />
    <glyph glyph-name="uni1218" unicode="&#x1218;" horiz-adv-x="2340" 
d="M1585 359q-161 0 -221 45t-60 179q0 88 15 264q15 175 13 245t-63 70q-81 0 -113 -67t-115 -554q-47 -239 -173 -323t-347 -84q-222 0 -320 96t-98 316q0 332 122 523t379 191q185 0 338 -54q212 119 398 119t254 -63q199 63 357 63q315 0 315 -318q0 -298 -170 -473
t-511 -175zM1766 522q84 0 120 72t35 248q0 176 -41 248t-134 72q-61 0 -112 -19q0 -67 -10 -192t-10 -227t34 -152t118 -50zM654 1097q-114 1 -160 -77t-46 -314t28 -322q28 -87 112 -88q82 0 120 78t129 702q-109 21 -183 21z" />
    <glyph glyph-name="uni1219" unicode="&#x1219;" horiz-adv-x="2922" 
d="M1766 522q84 0 120 72t35 248q0 176 -41 248t-134 72q-61 0 -112 -19q0 -67 -10 -192t-10 -227t34 -152t118 -50zM654 1097q-114 1 -160 -77t-46 -314t28 -322q28 -87 112 -88q82 0 120 78t129 702q-109 21 -183 21zM2550 640q-68 0 -68 61q0 41 20 127q-147 -9 -257 -14
q-38 -166 -149 -280q-169 -175 -511 -175q-161 0 -221 45t-60 179q0 88 15 264q15 175 13 245t-63 70q-81 0 -113 -67t-115 -554q-47 -239 -173 -323t-347 -84q-222 0 -320 96t-98 316q0 332 122 523t379 191q185 0 338 -54q212 119 398 119t254 -63q199 63 357 63
q315 0 315 -318q0 -24 -1 -48q205 7 341 29t158 23q22 0 38 -15t16 -30t-10 -68t-9 -85q0 -46 50 -38q9 -17 9 -49t-30 -48t-132 -27t-146 -11z" />
    <glyph glyph-name="uni121A" unicode="&#x121a;" horiz-adv-x="2464" 
d="M2092 -349q-68 0 -68 61q0 42 20 128q-352 -21 -428 -21t-96 22q-20 23 -21 83q0 60 59 202t207 501q-74 -15 -165 -15q-176 0 -236 45t-60 178q0 89 15 265t13 245t-63 69q-81 0 -113 -67t-115 -553q-47 -241 -173 -324t-347 -83q-222 0 -320 95t-98 316q0 332 122 523
t379 191q185 0 338 -54q212 119 398 119t254 -63q199 63 357 63q159 -1 237 -79t78 -218t-118 -428t-210 -520q-90 -233 -90 -326q0 -22 10 -30t52 -8t208 27t188 27t38 -15t16 -30t-10 -68t-9 -85q0 -47 50 -37q9 -18 9 -50q0 -31 -30 -47t-132 -28t-146 -11zM654 1349
q-114 0 -160 -77t-46 -313q0 -237 28 -323t112 -87q82 -1 120 77t129 702q-109 21 -183 21zM1921 1164q0 250 -159 250q-77 0 -128 -19q0 -65 -10 -191t-10 -228t34 -152q34 -49 110 -49h2q46 -1 72 23t58 129t31 237z" />
    <glyph glyph-name="uni121B" unicode="&#x121b;" horiz-adv-x="2340" 
d="M1582 -181q-83 0 -83 88q0 77 59 219t207 501q-74 -15 -165 -15q-176 0 -236 45t-60 178q0 89 15 265t13 245t-63 69q-81 0 -113 -67t-115 -553q-47 -241 -173 -324t-347 -83q-222 0 -320 95t-98 316q0 332 122 523t379 191q185 0 338 -54q212 119 398 119t254 -63
q199 63 357 63q159 -1 237 -79t78 -218t-118 -428t-210 -520q-90 -233 -90 -324q0 -19 6 -30t27 -1q15 -23 15 -50q0 -46 -116 -77t-198 -31zM654 1349q-114 0 -160 -77t-46 -313q0 -237 28 -323t112 -87q82 -1 120 77t129 702q-109 21 -183 21zM1921 1164q0 250 -159 250
q-77 0 -128 -19q0 -65 -10 -191t-10 -228t34 -152q34 -49 110 -49h2q46 -1 72 23t58 129t31 237z" />
    <glyph glyph-name="uni121C" unicode="&#x121c;" horiz-adv-x="2465" 
d="M1966 -38q52 0 88 28t37 88q1 59 -31 94t-91 35t-110 -38q-23 -93 -3 -150t110 -57zM1752 -201q-233 -1 -233 167q0 82 49 192t197 469q-74 -15 -165 -15q-176 0 -236 45t-60 178q0 89 15 265t13 245t-63 69q-81 0 -113 -67t-115 -553q-47 -241 -173 -324t-347 -83
q-222 0 -320 95t-98 316q0 332 122 523t379 191q185 0 338 -54q212 119 398 119t254 -63q199 63 357 63q159 -1 237 -79t78 -218t-118 -428t-223 -546q134 64 244 64q232 0 232 -179q0 -161 -193 -277t-456 -115zM654 1349q-114 0 -160 -77t-46 -313q0 -237 28 -323t112 -87
q82 -1 120 77t129 702q-109 21 -183 21zM1921 1164q0 250 -159 250q-77 0 -128 -19q0 -65 -10 -191t-10 -228t34 -152q34 -49 110 -49h2q46 -1 72 23t58 129t31 237z" />
    <glyph glyph-name="uni121D" unicode="&#x121d;" horiz-adv-x="2340" 
d="M153 -44q0 72 44 96t174 24q250 0 315 70t91 328q-121 -87 -309 -87t-276 89t-89 340q0 314 122 505t379 191q185 0 349 -54q205 119 432 119q169 0 236 -63q200 63 358 63q315 0 315 -317q0 -300 -170 -474t-511 -174q-161 0 -221 45t-60 178q0 89 15 265t13 245t-63 69
q-71 0 -111 -66t-78 -528t-84 -616t-114 -220q-125 -121 -366 -120q-104 3 -180 -11t-158 -56q-53 87 -53 159zM1794 775q84 1 120 73t35 248q0 176 -41 246q-41 72 -134 72q-62 0 -112 -19q0 -65 -10 -191t-10 -228t34 -152q34 -49 118 -49zM654 1349q-114 0 -160 -77
t-46 -325q0 -249 28 -323t126 -75q97 -1 160 88t95 691q-129 21 -203 21z" />
    <glyph glyph-name="uni121E" unicode="&#x121e;" horiz-adv-x="2340" 
d="M1115 616q0 -470 60 -758q-114 -39 -213 -39t-123 45t-24 142q-1 98 9 270t10 238q-138 -127 -346 -127t-296 89t-89 340q0 314 122 505t379 191q185 0 339 -54q212 119 432 119q170 0 237 -63q200 63 358 63q316 0 315 -317q0 -300 -170 -474t-512 -174q-160 0 -220 45
t-60 178q0 89 15 265q14 176 12 245t-62 69q-119 0 -146 -164t-27 -634zM1784 775q84 1 120 73t36 248t-41 246q-41 72 -135 72q-61 0 -111 -19q0 -65 -10 -191t-10 -228t33 -152q33 -49 118 -49zM654 1349q-114 0 -160 -77t-46 -325q0 -249 28 -323t116 -74q109 -2 166 106
t79 672q-109 21 -183 21z" />
    <glyph glyph-name="uni121F" unicode="&#x121f;" horiz-adv-x="2489" 
d="M1921 1143q0 250 -159 250q-77 0 -128 -19q0 -66 -10 -192t-10 -228t34 -151t110 -49h2q46 0 72 24t58 128q32 105 31 237zM654 1328q-114 0 -160 -77t-46 -313t28 -322t112 -88q82 -1 120 77t129 702q-109 21 -183 21zM1068 -247l-15 129q-1 18 23 32q24 13 128 32
q104 18 124 20t178 2q13 64 62 182t197 456q-74 -15 -165 -15q-176 0 -236 45t-60 178q0 88 15 264t13 246q-2 69 -63 69q-81 0 -113 -67t-115 -553q-47 -241 -173 -324t-347 -83q-222 0 -320 95t-98 316q0 332 122 523t379 191q185 0 338 -54q212 119 398 119t254 -63
q199 63 357 63q159 0 237 -78t78 -219q0 -139 -118 -427t-210 -510q-90 -222 -90 -323q0 -16 4 -27q190 6 324 28t156 22t38 -15t16 -30t-10 -68t-10 -85q0 -48 50 -37q10 -18 10 -50q0 -31 -30 -47t-132 -28t-147 -11q-67 0 -67 61q0 42 19 127q-348 -20 -497 -20t-211 -9
q19 -72 19 -106t-22 -53t-131 -39q-108 -20 -168 -21q-53 0 -53 57q0 23 10 56q32 -3 42 8t10 41z" />
    <glyph glyph-name="uni1220" unicode="&#x1220;" horiz-adv-x="2112" 
d="M246 885q0 263 -72 263q-10 17 -11 43q1 47 121 81t179 33q59 0 75 -16t17 -63q-1 -186 -11 -365t-10 -303t35 -193q35 -68 129 -68t159 66t85 170q20 105 20 293t-63 431q112 48 219 48q106 0 130 -40q24 -39 24 -321t30 -352t131 -70t153 45q92 80 92 289t-63 401
q113 48 213 48q100 -1 130 -51t30 -226q0 -299 -162 -484t-461 -185q-133 0 -225 42q-218 -267 -616 -267q-166 0 -232 63t-67 213q1 98 11 228t10 247z" />
    <glyph glyph-name="uni1221" unicode="&#x1221;" horiz-adv-x="2644" 
d="M246 885q0 263 -72 263q-10 17 -11 43q1 47 121 81t179 33q59 0 75 -16t17 -63q-1 -186 -11 -365t-10 -303t35 -193q35 -68 129 -68t159 66t85 170q20 105 20 293t-63 431q112 48 219 48q106 0 130 -40q24 -39 24 -321t30 -352t131 -70t153 45q92 80 92 289t-63 401
q113 48 213 48q100 -1 130 -51t30 -226q0 -35 -2 -69q206 7 342 29t158 23q22 0 39 -15q16 -15 16 -30t-10 -68t-10 -85q0 -47 50 -38q10 -17 10 -49t-30 -48t-132 -27t-146 -11q-68 0 -68 61q0 41 19 127q-149 -9 -260 -14q-39 -156 -138 -270q-162 -185 -461 -185
q-133 0 -225 42q-218 -267 -616 -267q-166 0 -232 63t-67 213q1 98 11 228t10 247z" />
    <glyph glyph-name="uni1222" unicode="&#x1222;" horiz-adv-x="2164" 
d="M246 1136q0 263 -72 263q-10 18 -11 44q1 45 121 79t179 34t75 -16t17 -63q-1 -186 -11 -365q-10 -180 -10 -304t35 -192t129 -67q94 -1 159 65t85 170t20 293q0 188 -63 431q112 48 219 48q106 0 130 -40t24 -320q0 -282 30 -352t161 -70q71 0 105 55t68 169t33 246
q0 131 -34 265q105 47 200 47t124 -35q29 -36 29 -127q0 -228 -114 -509t-220 -533t-105 -346q1 -22 11 -30t51 -8t207 27t188 27t38 -15t16 -30t-10 -68t-9 -85q0 -48 50 -37q10 -18 10 -50q-1 -31 -31 -47t-132 -28t-146 -11q-68 0 -68 61q0 42 20 128q-352 -21 -428 -21
t-96 22q-20 23 -20 83t60 210t207 491q-67 -14 -150 -14t-177 40q-218 -265 -616 -265q-166 0 -232 62t-67 214q1 100 11 224t10 250z" />
    <glyph glyph-name="uni1223" unicode="&#x1223;" horiz-adv-x="2112" 
d="M1282 -181q-82 1 -82 83t60 232t207 491q-67 -14 -150 -14t-177 40q-218 -265 -616 -265q-166 0 -232 62t-67 214q1 100 11 224t10 250q0 263 -72 263q-10 18 -11 44q1 45 121 79t179 34t75 -16t17 -63q-1 -186 -11 -365q-10 -180 -10 -304t35 -192t129 -67q94 -1 159 65
t85 170t20 293q0 188 -63 431q112 48 219 48q106 0 130 -40t24 -320q0 -282 30 -352t161 -70q71 0 105 55t68 169t33 246q0 131 -34 265q105 47 200 47t124 -35q29 -36 29 -127q0 -228 -114 -509t-220 -533t-105 -344q-1 -19 5 -30t27 -1q15 -23 15 -50q0 -46 -116 -77
t-198 -31z" />
    <glyph glyph-name="uni1224" unicode="&#x1224;" horiz-adv-x="2175" 
d="M1462 -201q-232 -1 -232 167q0 82 46 201q46 118 191 458q-67 -14 -150 -14t-177 40q-218 -265 -616 -265q-166 0 -232 62t-67 214q1 100 11 224t10 250q0 263 -72 263q-10 18 -11 44q1 45 121 79t179 34t75 -16t17 -63q-1 -186 -11 -365q-10 -180 -10 -304t35 -192
t129 -67q94 -1 159 65t85 170t20 293q0 188 -63 431q112 48 219 48q106 0 130 -40t24 -320q0 -282 30 -352t161 -70q71 0 105 55t68 169t33 246q0 131 -34 265q105 47 200 47t124 -35q29 -36 29 -159q0 -196 -114 -477t-249 -579q144 64 254 64q232 0 232 -179
q-1 -161 -193 -277t-456 -115zM1676 -38q52 0 89 28t37 88q0 59 -32 94t-91 35t-110 -38q-23 -93 -3 -150t110 -57z" />
    <glyph glyph-name="uni1225" unicode="&#x1225;" horiz-adv-x="2367" 
d="M1934 1148q0 168 -63 360q113 48 213 48t130 -50t29 -215q0 -341 -155 -542t-434 -201q-180 0 -289 110q-222 -272 -528 -272q-161 0 -277 70q-147 -357 -147 -491q0 -55 15 -107q-82 -39 -192 -39t-142 21q-30 21 -30 82t60 212q60 152 175 406t199 498t83 317
q0 30 -19 37t-52 7q-10 18 -11 44q1 45 141 79t199 34t75 -16t16 -82t-104 -350q-104 -286 -82 -424q24 -138 151 -138q89 0 168 60t131 168t51 304q0 196 -63 430q112 48 219 48t131 -40t23 -351q0 -312 30 -383t117 -71q88 -1 136 45t72 134q24 90 24 258z" />
    <glyph glyph-name="uni1226" unicode="&#x1226;" horiz-adv-x="2056" 
d="M408 508q-183 7 -183 198q1 89 11 213t10 225q0 255 -72 255q-10 18 -11 44q1 45 121 79t179 34t75 -16t17 -63q-1 -156 -11 -305t-9 -251q0 -250 121 -250q75 1 129 75t112 276t58 312q0 109 -24 174q121 48 220 48t126 -18t27 -61q0 -91 -72 -301t-46 -316t128 -106
t165 47q64 47 104 151t40 253q0 150 -63 303q112 48 213 48t130 -50t29 -175q0 -338 -184 -539t-476 -201q-120 0 -232 56q-214 -548 -214 -682q0 -55 16 -107q-82 -39 -192 -39t-142 21q-31 21 -31 82q-1 60 47 178t186 438q-151 -30 -302 -30z" />
    <glyph glyph-name="uni1227" unicode="&#x1227;" horiz-adv-x="2190" 
d="M768 -247l-15 129q-1 18 23 32q24 13 128 32q104 18 124 20t179 2q13 67 63 192t197 465q-67 -14 -150 -14t-177 40q-218 -265 -616 -265q-166 0 -232 62t-67 214q1 100 11 224t10 250q0 263 -72 263q-10 18 -11 44q1 45 121 79t179 34t75 -16t17 -63q-1 -186 -11 -365
q-10 -180 -10 -304t35 -192t129 -67q94 -1 159 65t85 170t20 293q0 188 -63 431q112 48 219 48q106 0 130 -40t24 -320q0 -282 30 -352t161 -70q71 0 105 55t68 169t33 246q0 131 -34 265q105 47 200 47t124 -35q29 -36 29 -127q0 -228 -114 -509t-220 -533t-105 -353
q0 -16 4 -27q189 6 323 28t156 22t38 -15t16 -30t-10 -68t-9 -85q0 -47 50 -37q9 -18 9 -50q0 -31 -30 -47t-132 -28t-146 -11q-68 0 -68 61q0 42 20 127q-350 -20 -498 -20t-211 -9q20 -72 20 -106t-23 -53t-131 -39t-168 -21q-53 0 -53 57q0 23 10 56q32 -3 42 8t10 41z
" />
    <glyph glyph-name="uni1228" unicode="&#x1228;" horiz-adv-x="1334" 
d="M962 -349q-68 0 -68 61q0 42 20 128q-349 -21 -438 -21q-203 -1 -273 59t-70 198q-1 138 127 424t218 504t91 341q1 29 -9 42t-34 13q-9 17 -10 40q0 44 120 80t188 36t82 -19t13 -72q-1 -236 -221 -681t-220 -641q0 -107 58 -141t172 -34t280 27t188 27t38 -15t16 -30
t-10 -68t-9 -85q0 -48 50 -37q10 -18 10 -50q-1 -31 -31 -47t-132 -28t-146 -11z" />
    <glyph glyph-name="uni1229" unicode="&#x1229;" horiz-adv-x="1577" 
d="M1205 -94q-68 0 -68 61q0 42 20 128q-132 -8 -262 -13q5 -253 51 -452q-104 -39 -208 -39t-128 39t-24 165v280h-110q-203 -1 -273 59t-70 196q-1 136 127 350q128 212 218 378t91 287q1 29 -9 42t-34 13q-9 17 -10 40q0 44 120 80t188 36t82 -19t13 -72
q-1 -225 -221 -567t-220 -512q0 -96 58 -130t294 -33q236 0 400 27q166 27 189 27t39 -15t15 -30q1 -16 -9 -68t-10 -84q0 -49 50 -38q10 -17 10 -49t-30 -48q-30 -15 -132 -27t-147 -12z" />
    <glyph glyph-name="uni122A" unicode="&#x122a;" horiz-adv-x="1494" 
d="M1051 378q0 148 -63 339q112 48 213 48q101 -1 131 -51t29 -209q0 -280 -163 -483t-582 -203q-302 0 -392 78t-91 218q1 180 131 435q130 254 217 462t87 333q0 29 -10 42t-33 13q-9 17 -10 40q0 44 120 80t188 36q67 0 81 -19t14 -72q0 -251 -220 -673t-220 -593
q0 -105 66 -168t196 -63q128 0 192 44t92 132q28 86 27 234z" />
    <glyph glyph-name="uni122B" unicode="&#x122b;" horiz-adv-x="1976" 
d="M1604 270q-68 0 -68 61q0 41 20 127q-149 -9 -237 -14q-16 -241 -161 -422q-163 -203 -562 -203q-282 0 -372 78t-91 218q1 180 131 435q130 254 217 462t87 333q0 29 -10 42t-33 13q-9 17 -10 40q0 44 120 80t188 36q67 0 81 -19t14 -72q0 -251 -220 -673t-220 -593
q0 -105 66 -168t176 -63q108 0 172 44q119 83 119 333q0 108 -16 203q57 38 160 38h20q294 1 457 28t186 27q22 0 38 -15t16 -30t-10 -68t-9 -85q0 -47 50 -38q10 -17 10 -49q-1 -32 -31 -48t-132 -27t-146 -11z" />
    <glyph glyph-name="uni122C" unicode="&#x122c;" horiz-adv-x="1778" 
d="M1405 -124q0 124 -116 123q-59 0 -111 -38q-25 -52 -25 -105q-1 -54 27 -78t90 -24t98 32t37 90zM1081 -409q-248 0 -248 139q0 89 87 189q-286 -100 -559 -100q-123 -1 -175 47t-53 162q-1 168 127 463t218 513t91 341q1 29 -9 42t-34 13q-9 17 -10 40q0 44 120 80
t188 36t82 -19t13 -72q-1 -236 -221 -695t-220 -660q0 -142 129 -142q122 0 299 86t202 98q25 10 56 10t70 -65q130 65 260 65q221 0 221 -182q0 -157 -193 -273t-441 -116z" />
    <glyph glyph-name="uni122D" unicode="&#x122d;" horiz-adv-x="1354" 
d="M982 1199q-68 0 -68 61q0 42 20 128q-108 20 -205 20q-175 0 -219 -143t-43 -639q0 -496 51 -578q51 -80 209 -80q115 0 281 27t188 27t38 -15t16 -30t-10 -68t-9 -85q0 -48 50 -37q10 -18 10 -50q-1 -31 -31 -47t-132 -28t-146 -11q-68 0 -68 61q0 42 20 128
q-349 -21 -415 -21q-212 1 -287 111t-75 599q-3 649 149 838t452 189q147 0 281 7t157 7q22 0 38 -15t16 -30t-10 -67t-9 -85q0 -49 50 -38q10 -17 10 -49q-1 -32 -31 -48t-132 -28t-146 -11z" />
    <glyph glyph-name="uni122E" unicode="&#x122e;" horiz-adv-x="1804" 
d="M1431 1295q0 123 -116 123q-59 0 -111 -38q-25 -52 -25 -105q-1 -53 27 -77t90 -25q62 1 98 33t37 89zM1107 1010q-248 0 -248 161q0 99 87 217q-122 20 -217 20q-175 0 -219 -143t-43 -639q0 -496 51 -578q51 -80 209 -80q115 0 281 27t188 27t38 -15t16 -30t-10 -68
t-9 -85q0 -48 50 -37q10 -18 10 -50q-1 -31 -31 -47t-132 -28t-146 -11q-68 0 -68 61q0 42 20 128q-349 -21 -415 -21q-212 1 -287 111t-75 599q-3 649 149 838t452 189q85 0 237 12t189 13q37 0 76 -64q129 64 248 64q233 0 233 -182q0 -157 -193 -273t-441 -116z" />
    <glyph glyph-name="uni122F" unicode="&#x122f;" horiz-adv-x="1976" 
d="M1349 1311q-68 0 -68 62q0 41 20 126q-128 -7 -255 -12q-22 -217 -295 -667t-273 -621q0 -105 66 -168t176 -63q108 0 172 44q119 83 119 333q0 108 -16 203q57 38 160 38h20q294 1 457 28t186 27q22 0 38 -15t16 -30t-10 -68t-9 -85q0 -47 50 -38q10 -17 10 -49
q-1 -32 -31 -48t-132 -27t-146 -11q-68 0 -68 61q0 41 20 127q-149 -9 -237 -14q-16 -241 -161 -422q-163 -203 -562 -203q-282 0 -372 78t-91 218q1 180 131 435t282 509t153 383q0 25 -7 38h-83q-128 0 -191 -10q20 -73 20 -106q0 -32 -23 -52t-131 -40t-168 -20
q-53 0 -53 57q0 22 10 56q33 -3 43 8t9 37l-14 133q-1 19 23 32t128 32t126 20t421 1t565 27t188 27t39 -14q16 -14 16 -30q1 -16 -9 -68t-10 -85q0 -49 49 -38q10 -17 10 -49t-30 -48t-132 -28t-146 -11z" />
    <glyph glyph-name="uni1230" unicode="&#x1230;" horiz-adv-x="1463" 
d="M813 1556q59 0 75 -16t17 -63v-249q169 -15 252 -74q112 -78 112 -331q1 -139 -9 -307t-10 -320t16 -190t44 -29q20 -23 20 -52q0 -49 -118 -77t-180 -29q-62 0 -77 14t-15 109t10 253t9 348q0 313 -53 420t-210 107q-130 0 -176 -142t-47 -461q0 -320 60 -609
q-114 -39 -218 -39q-104 1 -128 73t-24 412q0 501 147 715q101 146 284 192q-9 188 -70 188q-9 18 -10 44q0 45 120 79t179 34z" />
    <glyph glyph-name="uni1231" unicode="&#x1231;" horiz-adv-x="1924" 
d="M813 1556q59 0 75 -16t17 -63v-249q169 -15 252 -74q112 -78 112 -331q0 -31 -1 -63q204 6 340 28t158 23q22 0 39 -15q16 -15 16 -30t-10 -68t-10 -85q0 -47 50 -38q10 -17 10 -49t-30 -48t-132 -27t-147 -11q-67 0 -67 61q0 41 19 127q-135 -8 -240 -13q-2 -47 -8 -157
t-6 -262t16 -190t44 -29q20 -23 20 -52q0 -49 -118 -77t-180 -29q-62 0 -77 14t-15 109t10 253t9 348q0 313 -53 420t-210 107q-130 0 -176 -142t-47 -461q0 -320 60 -609q-114 -39 -218 -39q-104 1 -128 73t-24 412q0 501 147 715q101 146 284 192q-9 188 -70 188
q-9 18 -10 44q0 45 120 79t179 34z" />
    <glyph glyph-name="uni1232" unicode="&#x1232;" horiz-adv-x="1911" 
d="M813 1556q59 0 75 -16t17 -63v-249q169 -15 252 -74q112 -78 112 -331q1 -138 -9 -310t-10 -485q0 -34 10 -47t34 -13q104 0 270 27t188 27t39 -15q16 -15 16 -30q1 -15 -9 -68t-10 -85q0 -48 49 -37q10 -18 10 -50q0 -31 -30 -47t-132 -28t-146 -11q-68 0 -68 61
q0 42 19 128q-358 -21 -434 -21t-96 22t-20 68q0 128 10 286t9 348q0 313 -53 420t-210 107q-130 0 -176 -142t-47 -461q0 -320 60 -609q-114 -39 -218 -39q-104 1 -128 73t-24 412q0 501 147 715q101 146 284 192q-9 188 -70 188q-9 18 -10 44q0 45 120 79t179 34z" />
    <glyph glyph-name="uni1233" unicode="&#x1233;" horiz-adv-x="1463" 
d="M813 1556q59 0 75 -16t17 -63v-249q169 -15 252 -74q112 -78 112 -331q1 -139 -9 -307t-10 -320t16 -190t44 -29q20 -23 20 -52q0 -49 -118 -77t-180 -29q-62 0 -77 14t-15 109t10 253t9 348q0 313 -53 420t-210 107q-130 0 -176 -142t-47 -475q0 -121 26 -230
q-76 -38 -175 -38q-99 1 -130 29t-31 154q0 437 147 651q101 146 284 192q-9 188 -70 188q-9 18 -10 44q0 45 120 79t179 34z" />
    <glyph glyph-name="uni1234" unicode="&#x1234;" horiz-adv-x="1885" 
d="M1382 -37q130 0 130 120q0 59 -36 92t-102 33t-125 -31q1 -115 33 -165t100 -49zM813 1556q59 0 75 -16t17 -63v-249q169 -15 252 -74q112 -78 112 -331q0 -138 -20 -529q176 77 308 77q132 1 198 -51t66 -137q-1 -157 -203 -270t-466 -113q-108 0 -160 46t-52 165
q0 59 10 201t9 331q0 313 -53 420t-210 107q-130 0 -176 -142t-47 -461q0 -320 60 -609q-114 -39 -218 -39q-104 1 -128 73t-24 412q0 501 147 715q101 146 284 192q-9 188 -70 188q-9 18 -10 44q0 45 120 79t179 34z" />
    <glyph glyph-name="uni1235" unicode="&#x1235;" horiz-adv-x="1463" 
d="M654 1556q60 0 84 -28t168 -300q168 -15 251 -74q112 -78 112 -331q1 -139 -9 -307t-10 -320t16 -190t44 -29q20 -23 20 -52q0 -49 -118 -77t-180 -29q-62 0 -77 14t-15 109t10 253t9 348q0 313 -53 420t-210 107q-130 0 -176 -142t-47 -461q0 -320 60 -609
q-114 -39 -218 -39q-104 1 -128 73t-24 412q0 501 147 715q91 131 248 182q-96 146 -124 172t-70 26q-10 18 -11 44q0 45 120 79q121 34 181 34z" />
    <glyph glyph-name="uni1236" unicode="&#x1236;" horiz-adv-x="1463" 
d="M813 1556q59 0 75 -16t17 -63v-249q169 -15 252 -74q112 -78 112 -329q1 -99 -9 -201t-10 -168t16 -96q16 -28 44 -18q20 -23 20 -52q0 -49 -118 -77t-180 -28q-62 -1 -77 13t-15 60t10 149t9 222q0 227 -53 334t-210 107q-130 0 -176 -142t-47 -461q0 -320 60 -609
q-114 -39 -218 -39q-104 1 -128 73t-24 412q0 501 147 715q101 146 284 192q-9 188 -70 188q-9 18 -10 44q0 45 120 79t179 34z" />
    <glyph glyph-name="uni1237" unicode="&#x1237;" horiz-adv-x="1930" 
d="M1558 -349q-68 0 -68 61q0 42 20 127q-350 -20 -498 -20t-211 -9q20 -72 20 -106t-23 -53q-22 -19 -130 -39t-169 -21q-53 0 -53 57q0 23 10 56q32 -3 42 8t10 37l-14 134q0 18 24 31t126 32q104 18 124 20t172 2q2 106 10 246t9 329q0 313 -53 420t-210 107
q-130 0 -176 -142t-47 -475q0 -121 26 -230q-76 -38 -175 -38q-99 1 -130 29t-31 154q0 437 147 651q101 146 284 192q-9 188 -70 188q-9 18 -10 44q0 45 120 79t179 34t75 -16t17 -63v-249q169 -15 252 -74q112 -78 112 -331q1 -139 -9 -307t-10 -325t12 -184t21 -35
q196 6 331 28t158 22q22 0 38 -15t16 -30t-10 -68t-9 -85q0 -47 50 -37q9 -18 9 -50q0 -31 -30 -47t-132 -28t-146 -11z" />
    <glyph glyph-name="uni1238" unicode="&#x1238;" horiz-adv-x="1720" 
d="M1338 1311q-68 0 -68 62q0 41 20 126q-152 -8 -270 -13v-258q169 -15 252 -74q112 -78 112 -331q0 -139 -10 -307t-9 -320t17 -190t44 -29q19 -23 19 -52q-1 -49 -119 -77t-180 -29q-62 0 -76 14q-15 14 -15 109q-1 95 9 253t10 348q0 313 -53 420t-209 107
q-132 0 -178 -142t-46 -461q0 -320 60 -609q-114 -39 -218 -39q-104 1 -128 73t-23 412q0 501 147 715q100 146 284 192q-2 100 -8 269q-190 -2 -244 -10q20 -73 20 -106q0 -32 -23 -52t-131 -40t-168 -20q-53 0 -53 57q0 22 10 56q33 -3 43 8t9 37l-14 133q-1 19 23 32
t128 32t126 20t396 1t540 27t188 27t38 -14t16 -30t-10 -68t-9 -85q0 -48 50 -38q9 -17 9 -49t-30 -48t-132 -28t-146 -11z" />
    <glyph glyph-name="uni1239" unicode="&#x1239;" horiz-adv-x="2039" 
d="M1667 440q-67 0 -67 61q0 41 19 127q-135 -8 -240 -13q-2 -47 -8 -157t-6 -262q1 -152 17 -190t44 -29q19 -23 19 -52q-1 -49 -119 -77t-180 -29q-62 0 -76 14q-15 14 -15 109q-1 95 9 253t10 348q0 313 -53 420t-209 107q-132 0 -178 -142t-46 -461q0 -320 60 -609
q-114 -39 -218 -39q-104 1 -128 73t-23 412q0 501 147 715q100 146 284 192q-2 100 -8 269q-190 -2 -244 -10q20 -73 20 -106q0 -32 -23 -52t-131 -40t-168 -20q-53 0 -53 57q0 22 10 56q33 -3 43 8t9 37l-14 133q-1 19 23 32t128 32t126 20t396 1t540 27t188 27t38 -14
t16 -30t-10 -68t-9 -85q0 -48 50 -38q9 -17 9 -49t-30 -48t-132 -28t-146 -11q-68 0 -68 62q0 41 20 126q-152 -8 -270 -13v-258q169 -15 252 -74q112 -78 112 -331q0 -31 -1 -63q205 6 341 28t158 23q22 0 38 -15t16 -30t-10 -68t-10 -85q0 -47 50 -38q10 -17 10 -49
t-30 -48t-132 -27t-147 -11z" />
    <glyph glyph-name="uni123A" unicode="&#x123a;" horiz-adv-x="2026" 
d="M1338 1311q-68 0 -68 62q0 41 20 126q-152 -8 -270 -13v-258q169 -15 252 -74q112 -78 112 -331q0 -138 -10 -310t-9 -485q0 -34 10 -47t34 -13q105 0 271 27t188 27t38 -15t16 -30t-10 -68t-9 -85q0 -48 49 -37q10 -18 10 -50q0 -31 -30 -47t-132 -28t-146 -11
q-68 0 -68 61q0 42 20 128q-360 -21 -435 -21t-95 22t-21 68q-1 128 9 286t10 348q0 313 -53 420t-209 107q-132 0 -178 -142t-46 -461q0 -320 60 -609q-114 -39 -218 -39q-104 1 -128 73t-23 412q0 501 147 715q100 146 284 192q-2 100 -8 269q-190 -2 -244 -10
q20 -73 20 -106q0 -32 -23 -52t-131 -40t-168 -20q-53 0 -53 57q0 22 10 56q33 -3 43 8t9 37l-14 133q-1 19 23 32t128 32t126 20t396 1t540 27t188 27t38 -14t16 -30t-10 -68t-9 -85q0 -48 50 -38q9 -17 9 -49t-30 -48t-132 -28t-146 -11z" />
    <glyph glyph-name="uni123B" unicode="&#x123b;" horiz-adv-x="1720" 
d="M1338 1311q-68 0 -68 62q0 41 20 126q-152 -8 -270 -13v-258q169 -15 252 -74q112 -78 112 -331q0 -139 -10 -307t-9 -320t17 -190t44 -29q19 -23 19 -52q-1 -49 -119 -77t-180 -29q-62 0 -76 14q-15 14 -15 109q-1 95 9 253t10 348q0 313 -53 420t-209 107
q-132 0 -178 -142t-46 -475q0 -121 26 -230q-76 -38 -175 -38q-99 1 -129 29t-31 154q0 437 147 651q100 146 284 192q-2 100 -8 269q-190 -2 -244 -10q20 -73 20 -106q0 -32 -23 -52t-131 -40t-168 -20q-53 0 -53 57q0 22 10 56q33 -3 43 8t9 37l-14 133q-1 19 23 32
t128 32t126 20t396 1t540 27t188 27t38 -14t16 -30t-10 -68t-9 -85q0 -48 50 -38q9 -17 9 -49t-30 -48t-132 -28t-146 -11z" />
    <glyph glyph-name="uni123C" unicode="&#x123c;" horiz-adv-x="2000" 
d="M1497 -37q130 0 130 120q-1 59 -37 92t-102 33t-123 -31q0 -115 32 -165t100 -49zM1338 1311q-68 0 -68 62q0 41 20 126q-152 -8 -270 -13v-258q169 -15 252 -74q112 -78 112 -331q0 -138 -19 -529q175 77 307 77q132 1 198 -51t66 -137q0 -157 -202 -270t-467 -113
q-109 0 -161 46t-51 165q-1 59 9 201t10 331q0 313 -53 420t-209 107q-132 0 -178 -142t-46 -461q0 -320 60 -609q-114 -39 -218 -39q-104 1 -128 73t-23 412q0 501 147 715q100 146 284 192q-2 100 -8 269q-190 -2 -244 -10q20 -73 20 -106q0 -32 -23 -52t-131 -40
t-168 -20q-53 0 -53 57q0 22 10 56q33 -3 43 8t9 37l-14 133q-1 19 23 32t128 32t126 20t396 1t540 27t188 27t38 -14t16 -30t-10 -68t-9 -85q0 -48 50 -38q9 -17 9 -49t-30 -48t-132 -28t-146 -11z" />
    <glyph glyph-name="uni123D" unicode="&#x123d;" horiz-adv-x="1834" 
d="M144 1414l-15 130q-1 18 23 31t128 32t126 20t434 1t578 27t189 27t39 -14t15 -30q1 -16 -9 -68t-10 -85q0 -48 50 -38q9 -17 9 -49t-30 -48q-29 -16 -131 -28t-147 -11q-68 0 -68 62q0 41 20 126q-183 -8 -319 -13q51 -106 117 -259q162 -16 243 -73q111 -78 111 -331
q1 -139 -9 -307t-10 -320t16 -190t45 -29q19 -23 19 -52q0 -49 -118 -77t-180 -29q-60 0 -76 14t-16 109t10 253t10 348q0 313 -54 420t-209 107q-131 0 -177 -142t-46 -461q0 -320 60 -609q-114 -39 -218 -39q-104 1 -128 73t-24 412q0 501 147 715q93 135 257 185
q-79 158 -150 276q-158 -2 -209 -10q20 -73 20 -106q0 -32 -23 -52t-131 -40t-168 -20q-53 0 -53 57q0 22 10 56q32 -3 42 8t10 41z" />
    <glyph glyph-name="uni123E" unicode="&#x123e;" horiz-adv-x="1720" 
d="M1338 1311q-68 0 -68 62q0 41 20 126q-152 -8 -270 -13v-258q169 -15 252 -74q112 -78 112 -329q0 -99 -10 -201t-9 -168t17 -96q16 -28 44 -18q19 -23 19 -52q-1 -49 -119 -77t-180 -28q-62 -1 -76 13q-15 14 -15 60q-1 46 9 149t10 222q0 227 -53 334t-209 107
q-132 0 -178 -142t-46 -461q0 -320 60 -609q-114 -39 -218 -39q-104 1 -128 73t-23 412q0 501 147 715q100 146 284 192q-2 100 -8 269q-190 -2 -244 -10q20 -73 20 -106q0 -32 -23 -52t-131 -40t-168 -20q-53 0 -53 57q0 22 10 56q33 -3 43 8t9 37l-14 133q-1 19 23 32
t128 32t126 20t396 1t540 27t188 27t38 -14t16 -30t-10 -68t-9 -85q0 -48 50 -38q9 -17 9 -49t-30 -48t-132 -28t-146 -11z" />
    <glyph glyph-name="uni123F" unicode="&#x123f;" horiz-adv-x="2045" 
d="M1673 -349q-68 0 -68 61q0 42 20 127q-349 -20 -497 -20t-212 -9q20 -72 20 -106t-22 -53t-131 -39q-108 -20 -168 -21q-53 0 -53 57q0 23 9 56q33 -3 43 8t9 37l-14 134q-1 18 23 31t128 32q104 18 123 20t172 2q3 106 11 246t8 329q0 313 -53 420t-209 107
q-132 0 -178 -142t-46 -475q0 -121 26 -230q-76 -38 -175 -38q-99 1 -129 29t-31 154q0 437 147 651q100 146 284 192q-2 100 -8 269q-190 -2 -244 -10q20 -73 20 -106q0 -32 -23 -52t-131 -40t-168 -20q-53 0 -53 57q0 22 10 56q33 -3 43 8t9 37l-14 133q-1 19 23 32
t128 32t126 20t396 1t540 27t188 27t38 -14t16 -30t-10 -68t-9 -85q0 -48 50 -38q9 -17 9 -49t-30 -48t-132 -28t-146 -11q-68 0 -68 62q0 41 20 126q-152 -8 -270 -13v-258q169 -15 252 -74q112 -78 112 -331q0 -139 -10 -307t-9 -325q-1 -157 11 -184t22 -35q196 6 331 28
t158 22t39 -15t15 -30q1 -15 -9 -68t-10 -85q0 -47 50 -37q9 -18 9 -50q0 -31 -30 -47q-29 -16 -131 -28t-147 -11z" />
    <glyph glyph-name="uni1240" unicode="&#x1240;" horiz-adv-x="1854" 
d="M1284 656q85 0 123 42t38 133q-1 92 -43 146t-128 54t-148 -80q-63 -80 -63 -255q136 -40 221 -40zM409 789q0 -223 154 -223q99 0 154 68t55 288q-139 60 -218 60t-112 -51t-33 -142zM363 403q-152 1 -221 73t-69 248t89 298t259 123q170 0 360 -87q1 185 -19 263
t-61 78q-10 18 -11 44q0 45 120 79t180 34t76 -16t16 -102t-20 -380q173 136 405 136q159 0 236 -74t77 -228t-100 -277q-100 -122 -283 -122q-139 0 -334 76q7 -457 60 -711q-114 -39 -218 -39q-104 1 -128 73t4 645q-172 -134 -418 -134z" />
    <glyph glyph-name="uni1241" unicode="&#x1241;" horiz-adv-x="1854" 
d="M1284 656q85 0 123 42t38 133q-1 92 -43 146t-128 54t-148 -80q-63 -80 -63 -255q136 -40 221 -40zM409 789q0 -223 154 -223q99 0 154 68t55 288q-139 60 -218 60t-112 -51t-33 -142zM1346 -26q-68 0 -68 61q0 41 20 127q-120 -7 -216 -12q15 -169 41 -292
q-114 -39 -218 -39q-104 1 -128 73t4 645q-172 -134 -418 -134q-152 1 -221 73t-69 248t89 298t259 123q170 0 360 -87q1 185 -19 263t-61 78q-10 18 -11 44q0 45 120 79t180 34t76 -16t16 -102t-20 -380q173 136 405 136q159 0 236 -74t77 -228t-100 -277
q-100 -122 -283 -122q-139 0 -334 76q2 -149 9 -275q197 6 331 28t157 23q22 0 38 -15t16 -30t-10 -68t-9 -85q0 -47 50 -38q10 -17 10 -49q-1 -32 -31 -48t-132 -27t-146 -11z" />
    <glyph glyph-name="uni1242" unicode="&#x1242;" horiz-adv-x="1854" 
d="M1284 656q85 0 123 42t38 133q-1 92 -43 146t-128 54t-148 -80q-63 -80 -63 -255q136 -40 221 -40zM409 789q0 -223 154 -223q99 0 154 68t55 288q-139 60 -218 60t-112 -51t-33 -142zM1346 -349q-68 0 -68 61q0 42 20 128q-260 -21 -400 -21q-97 1 -121 73t4 645
q-172 -134 -418 -134q-152 1 -221 73t-69 248t89 298t259 123q170 0 360 -87q1 185 -19 263t-61 78q-10 18 -11 44q0 45 120 79t180 34t76 -16t16 -102t-20 -380q173 136 405 136q159 0 236 -74t77 -228t-100 -277q-100 -122 -283 -122q-139 0 -334 76l-1 -1q3 -396 16 -498
t93 -102q56 0 211 27t178 27q22 0 38 -15t16 -30t-10 -68t-9 -85q0 -48 50 -37q10 -18 10 -50q-1 -31 -31 -47t-132 -28t-146 -11z" />
    <glyph glyph-name="uni1243" unicode="&#x1243;" horiz-adv-x="1854" 
d="M1284 656q85 0 123 42t38 133q-1 92 -43 146t-128 54t-148 -80q-63 -80 -63 -255q136 -40 221 -40zM409 789q0 -223 154 -223q99 0 154 68t55 288q-139 60 -218 60t-112 -51t-33 -142zM199 -247l-15 129q0 18 24 32q24 13 127 32q104 18 126 20t81 2q184 0 212 144
t27 425q-172 -134 -418 -134q-152 1 -221 73t-69 248t89 298t259 123q170 0 360 -87q1 185 -19 263t-61 78q-10 18 -11 44q0 45 120 79t180 34t76 -16t16 -102t-20 -380q173 136 405 136q159 0 236 -74t77 -228t-100 -277q-100 -122 -283 -122q-138 0 -332 75
q7 -427 -64 -577q-80 -172 -436 -172q-35 0 -73 -9q19 -72 19 -106q-1 -34 -23 -53t-130 -39t-168 -21q-53 0 -53 57q0 23 10 56q32 -3 42 8t10 41z" />
    <glyph glyph-name="uni1244" unicode="&#x1244;" horiz-adv-x="1854" 
d="M1193 -37q130 0 130 120q-1 59 -37 92t-102 33t-123 -31q0 -115 32 -165t100 -49zM1284 656q85 0 123 42t38 133q-1 92 -43 146t-128 54t-148 -80q-63 -80 -63 -255q136 -40 221 -40zM409 789q0 -223 154 -223q99 0 154 68t55 288q-139 60 -218 60t-112 -51t-33 -142z
M990 1556q60 0 76 -16t16 -63q0 -204 -20 -419q174 136 405 136q159 0 236 -74t77 -228t-100 -277q-100 -122 -283 -122q-139 0 -334 76q3 -169 19 -275q154 77 286 77q132 1 198 -51t66 -137q0 -157 -202 -270t-467 -113q-109 0 -161 46t-50 158q1 112 15 276t14 257
q-172 -134 -418 -134q-152 1 -221 73t-69 248t89 298t259 123q170 0 360 -87q1 185 -19 263t-61 78q-10 18 -11 44q0 45 120 79t180 34z" />
    <glyph glyph-name="uni1245" unicode="&#x1245;" horiz-adv-x="1854" 
d="M1296 1031q-98 0 -233 -139v-197q133 -39 218 -39t125 38t39 140q1 102 -41 150t-108 47zM574 566q90 0 207 89q0 169 -67 248t-177 79q-69 0 -99 -46t-29 -154q-1 -106 37 -161t128 -55zM1473 1194q307 0 307 -302q0 -152 -96 -276t-281 -123q-152 0 -340 75
q7 -456 60 -710q-114 -39 -218 -39t-128 72t3 627q-216 -115 -425 -115q-282 0 -282 291q0 200 86 326t250 125q210 0 372 -131v3q0 192 -28 312h-183q-40 1 -57 15t-17 85q0 178 -71 178q-10 17 -11 43q0 46 120 80t180 34t76 -16t16 -72t-19 -199h196q63 -1 81 -15
t18 -106t-20 -301v-13q210 152 411 152z" />
    <glyph glyph-name="uni1246" unicode="&#x1246;" horiz-adv-x="1854" 
d="M962 1389q-135 0 -135 -92q0 -98 131 -211q149 101 149 187q1 58 -39 87t-106 29zM1296 893q-98 0 -233 -139v-197q133 -39 218 -39t125 38t39 140q1 102 -41 150t-108 47zM574 428q90 0 207 89v2q-1 167 -67 246q-67 79 -177 79q-69 0 -99 -46t-29 -154q-1 -106 37 -161
t128 -55zM1473 1056q307 0 307 -302q0 -152 -96 -276t-281 -123q-152 0 -340 75q18 -439 -6 -525t-137 -86t-218 39q64 233 76 521q-215 -114 -423 -114q-282 0 -282 291q0 201 86 326t250 125q210 0 372 -131q-15 55 -157 178q-142 122 -142 232t140 187q140 78 350 78
t302 -57t91 -150q0 -196 -356 -338q27 -46 41 -110q216 160 423 160z" />
    <glyph glyph-name="uni1247" unicode="&#x1247;" horiz-adv-x="1854" 
d="M962 1389q-135 0 -135 -92q0 -98 131 -211q149 101 149 187q1 58 -39 87t-106 29zM1296 893q-98 0 -233 -139v-197q133 -39 218 -39t125 38t39 140q1 102 -41 150t-108 47zM574 428q90 0 207 89q0 169 -67 248t-177 79q-69 0 -99 -46t-29 -154q-1 -106 37 -161t128 -55z
M249 -247l-15 129q0 18 24 32q24 13 127 32q105 18 123 20t220 2q40 189 50 411q-215 -114 -423 -114q-282 0 -282 291q0 201 86 326t250 125q210 0 372 -131q-15 55 -157 178q-142 122 -142 232t140 187q140 78 350 78t302 -57t91 -150q0 -196 -356 -338q27 -46 41 -110
q216 160 423 160q307 0 307 -302q0 -152 -96 -276t-281 -123q-152 0 -340 75q18 -439 -6 -525t-140 -86q-312 0 -375 -9q19 -72 19 -106q-1 -34 -23 -53t-130 -39t-168 -21q-53 0 -53 57q0 23 10 56q32 -3 42 8t10 41z" />
    <glyph glyph-name="uni1248" unicode="&#x1248;" horiz-adv-x="2171" 
d="M1546 39q0 -53 28 -77t89 -25q62 0 99 32q36 31 36 89q-1 124 -121 124q-53 0 -105 -38q-26 -52 -26 -105zM1284 656q85 0 123 42t38 133q-1 92 -43 146t-128 54t-148 -80q-63 -80 -63 -255q136 -40 221 -40zM409 789q0 -223 154 -223q99 0 154 68t55 288
q-139 60 -218 60t-112 -51t-33 -142zM1475 -226q-248 0 -248 161q0 99 86 217q-115 -7 -230 -9q15 -165 40 -285q-114 -39 -218 -39q-104 1 -128 73t4 645q-172 -134 -418 -134q-152 1 -221 73t-69 248t89 298t259 123q170 0 360 -87q1 185 -19 263t-61 78q-10 18 -11 44
q0 45 120 79t180 34t76 -16t16 -102t-20 -380q173 136 405 136q159 0 236 -74t77 -228t-100 -277q-100 -122 -283 -122q-139 0 -334 76q2 -150 9 -279q90 2 154 6t176 27q112 22 150 22t76 -65q138 65 252 65q228 0 228 -182q0 -157 -192 -273t-441 -116z" />
    <glyph glyph-name="uni124A" unicode="&#x124a;" horiz-adv-x="2764" 
d="M1284 656q85 0 123 42t38 133q-1 92 -43 146t-128 54t-148 -80q-63 -80 -63 -255q136 -40 221 -40zM409 789q0 -223 154 -223q99 0 154 68t55 288q-139 60 -218 60t-112 -51t-33 -142zM2393 394q-68 0 -68 61q0 41 20 127q-254 -20 -291 -20t-40 24t-3 78t1 113
q-147 -6 -250 -10q-25 -82 -82 -152q-100 -122 -283 -122q-139 0 -334 76q7 -457 60 -711q-114 -39 -218 -39q-104 1 -128 73t4 645q-172 -134 -418 -134q-152 1 -221 73t-69 248t89 298t259 123q170 0 360 -87q1 185 -19 263t-61 78q-10 18 -11 44q0 45 120 79t180 34
t76 -16t16 -102t-20 -380q173 136 405 136q159 0 233 -72t79 -207q143 7 237 25q6 190 20 219q23 46 127 46t209 -39q-51 -264 -51 -456q39 0 151 28t135 27q23 0 39 -15t15 -30q1 -15 -9 -68t-10 -85q0 -46 50 -38q9 -17 9 -49t-30 -48t-132 -27t-146 -11z" />
    <glyph glyph-name="uni124B" unicode="&#x124b;" horiz-adv-x="1854" 
d="M1284 656q85 0 123 42t38 133q-1 92 -43 146t-128 54t-148 -80q-63 -80 -63 -255q136 -40 221 -40zM409 789q0 -223 154 -223q99 0 154 68t55 288q-139 60 -218 60t-112 -51t-33 -142zM1585 261q78 0 78 -67q0 -44 -54 -179t-54 -169q-1 -34 5 -40q6 -7 27 2
q15 -23 15 -50q0 -46 -110 -76t-177 -31q-67 1 -83 13t-16 54t54 170q54 127 55 165q0 38 -31 49t-362 11t-394 -10q20 -73 20 -106t-23 -53t-131 -40t-168 -20q-53 0 -53 57q0 23 10 57q33 -3 43 8t9 37l-14 133q-1 18 23 31t128 32t126 21t249 1h24v276
q-172 -134 -418 -134q-152 1 -221 73t-69 248t89 298t259 123q170 0 360 -87q1 185 -19 263t-61 78q-10 18 -11 44q0 45 120 79t180 34t76 -16t16 -102t-20 -380q173 136 405 136q159 0 236 -74t77 -228t-100 -277q-100 -122 -283 -122q-139 0 -334 76l-1 -1v-307h523z" />
    <glyph glyph-name="uni124C" unicode="&#x124c;" horiz-adv-x="1854" 
d="M1193 -37q130 0 130 120q-1 59 -37 92t-102 33t-123 -31q0 -115 32 -165t100 -49zM1284 656q85 0 123 42t38 133q-1 92 -43 146t-128 54t-148 -80q-63 -80 -63 -255q136 -40 221 -40zM409 789q0 -223 154 -223q99 0 154 68t55 288q-139 60 -218 60t-112 -51t-33 -142z
M363 403q-152 1 -221 73t-69 248t89 298t259 123q170 0 360 -87q1 185 -19 263t-61 78q-10 18 -11 44q0 45 120 79t180 34t76 -16t16 -63q0 -204 -20 -419q174 136 405 136q159 0 236 -74t77 -228t-100 -277q-100 -122 -283 -122q-139 0 -334 76l-1 -1v-274q174 77 306 77
q132 1 198 -51t66 -137q0 -157 -202 -270t-467 -113q-70 0 -117 19q-266 0 -324 -9q20 -72 20 -106t-23 -53t-131 -39t-168 -21q-52 0 -52 57q0 23 9 56q33 -3 43 8t9 37l-14 134q-1 18 23 31t128 32q104 18 123 20t264 2q-7 68 11 273q17 204 17 296q-172 -134 -418 -134z
" />
    <glyph glyph-name="uni124D" unicode="&#x124d;" horiz-adv-x="2765" 
d="M1284 656q85 0 123 42t38 133q-1 92 -43 146t-128 54t-148 -80q-63 -80 -63 -255q136 -40 221 -40zM409 789q0 -223 154 -223q99 0 154 68t55 288q-139 60 -218 60t-112 -51t-33 -142zM2393 594q-68 0 -68 61q0 41 20 117q-106 -10 -311 -10h-274q-24 -79 -80 -147
q-100 -122 -283 -122q-139 0 -334 76q7 -457 60 -711q-114 -39 -218 -39q-104 1 -128 73t4 645q-172 -134 -418 -134q-152 1 -221 73t-69 248t89 298t259 123q170 0 360 -87q1 185 -19 263t-61 78q-10 18 -11 44q0 45 120 79t180 34t76 -16t16 -102t-20 -380
q173 136 405 136q159 0 234 -72t79 -212h191q3 208 25 252t126 43q104 0 209 -39q-51 -164 -51 -256q80 0 192 28t135 27q23 0 39 -15t15 -30q1 -15 -9 -68t-10 -85q0 -46 50 -38q9 -17 9 -49t-30 -48t-132 -27t-146 -11z" />
    <glyph glyph-name="uni1250" unicode="&#x1250;" horiz-adv-x="1914" 
d="M1314 656q85 0 123 42t38 133q-1 92 -43 146t-128 54t-148 -80q-63 -80 -63 -255q136 -40 221 -40zM439 789q0 -223 154 -223q99 0 154 68t55 288q-139 60 -218 60t-112 -51t-33 -142zM234 1414l-15 130q-1 18 23 31t128 32t126 20t419 1t563 27t188 27t38 -14t16 -30
t-10 -68t-9 -85q0 -49 50 -38q10 -17 10 -49q-1 -32 -31 -48t-132 -28t-146 -11q-68 0 -68 62q0 41 20 126q-149 -8 -292 -13q-1 -146 -20 -428q173 136 405 136q159 0 236 -74t77 -228t-100 -277q-100 -122 -283 -122q-139 0 -334 76q7 -457 60 -711q-114 -39 -218 -39
q-104 1 -128 73t4 645q-172 -134 -418 -134q-152 1 -221 73t-69 248t89 298t259 123q170 0 360 -87q1 153 -18 422h-60q-143 0 -206 -10q20 -73 20 -106q0 -32 -23 -52t-131 -40t-168 -20q-53 0 -53 57q0 22 10 56q32 -3 42 8t10 41z" />
    <glyph glyph-name="uni1251" unicode="&#x1251;" horiz-adv-x="1914" 
d="M1314 656q85 0 123 42t38 133q-1 92 -43 146t-128 54t-148 -80q-63 -80 -63 -255q136 -40 221 -40zM439 789q0 -223 154 -223q99 0 154 68t55 288q-139 60 -218 60t-112 -51t-33 -142zM234 1414l-15 130q-1 18 23 31t128 32t126 20t419 1t563 27t188 27t38 -14t16 -30
t-10 -68t-9 -85q0 -49 50 -38q10 -17 10 -49q-1 -32 -31 -48t-132 -28t-146 -11q-68 0 -68 62q0 41 20 126q-149 -8 -292 -13q-1 -146 -20 -428q173 136 405 136q159 0 236 -74t77 -228t-100 -277q-100 -122 -283 -122q-139 0 -334 76q2 -149 9 -275q197 6 331 28t157 23
q22 0 38 -15t16 -30t-10 -68t-9 -85q0 -47 50 -38q10 -17 10 -49q-1 -32 -31 -48t-132 -27t-146 -11q-68 0 -68 61q0 41 20 127q-120 -7 -216 -12q15 -169 41 -292q-114 -39 -218 -39q-104 1 -128 73t4 645q-172 -134 -418 -134q-152 1 -221 73t-69 248t89 298t259 123
q170 0 360 -87q1 153 -18 422h-60q-143 0 -206 -10q20 -73 20 -106q0 -32 -23 -52t-131 -40t-168 -20q-53 0 -53 57q0 22 10 56q32 -3 42 8t10 41z" />
    <glyph glyph-name="uni1252" unicode="&#x1252;" horiz-adv-x="1914" 
d="M1314 656q85 0 123 42t38 133q-1 92 -43 146t-128 54t-148 -80q-63 -80 -63 -255q136 -40 221 -40zM439 789q0 -223 154 -223q99 0 154 68t55 288q-139 60 -218 60t-112 -51t-33 -142zM1376 -349q-68 0 -68 61q0 42 20 128q-260 -21 -400 -21q-97 1 -121 73t4 645
q-172 -134 -418 -134q-152 1 -221 73t-69 248t89 298t259 123q170 0 360 -87q1 153 -18 422h-78q-144 0 -207 -10q20 -73 20 -106q0 -32 -23 -52t-131 -40t-168 -20q-52 0 -52 57q0 22 9 56q33 -3 43 8t9 37l-14 133q-1 19 23 32t128 32t126 20t418 1q398 0 564 27t188 27
t38 -14t16 -30t-10 -68t-9 -85q0 -49 49 -38q10 -17 10 -49t-30 -48t-132 -28t-146 -11q-68 0 -68 62q0 41 19 126q-139 -8 -273 -13q-1 -146 -20 -428q173 136 405 136q159 0 236 -74t77 -228t-100 -277q-100 -122 -283 -122q-139 0 -334 76l-1 -1q3 -396 16 -498t93 -102
q56 0 211 27t178 27q22 0 38 -15t16 -30t-10 -68t-9 -85q0 -48 50 -37q10 -18 10 -50q-1 -31 -31 -47t-132 -28t-146 -11z" />
    <glyph glyph-name="uni1253" unicode="&#x1253;" horiz-adv-x="1914" 
d="M1314 656q85 0 123 42t38 133q-1 92 -43 146t-128 54t-148 -80q-63 -80 -63 -255q136 -40 221 -40zM439 789q0 -223 154 -223q99 0 154 68t55 288q-139 60 -218 60t-112 -51t-33 -142zM253 1414l-15 130q0 18 24 31t127 32q104 19 126 20t419 1q396 0 562 27t188 27
t39 -14q16 -14 16 -30q1 -16 -9 -68t-10 -85q0 -48 50 -38q9 -17 9 -49t-30 -48t-132 -28t-146 -11q-68 0 -68 62q0 41 20 126q-159 -9 -311 -14q-1 -146 -20 -427q173 136 405 136q159 0 236 -74t77 -228t-100 -277q-100 -122 -283 -122q-138 0 -332 75q7 -427 -64 -577
q-80 -172 -436 -172q-35 0 -73 -9q19 -72 19 -106q-1 -34 -23 -53t-130 -39t-168 -21q-53 0 -53 57q0 23 10 56q32 -3 42 8t10 41l-15 129q0 18 24 32q24 13 127 32q104 18 126 20t81 2q184 0 212 144t27 425q-172 -134 -418 -134q-152 1 -221 73t-69 248t89 298t259 123
q170 0 360 -87q1 153 -18 422h-41q-144 0 -207 -10q20 -73 20 -106q-1 -32 -23 -52t-130 -40t-168 -20q-53 0 -53 57q0 22 9 56q33 -3 43 8t10 41z" />
    <glyph glyph-name="uni1254" unicode="&#x1254;" horiz-adv-x="1914" 
d="M1223 -37q130 0 130 120q-1 59 -37 92t-102 33t-123 -31q0 -115 32 -165t100 -49zM1314 656q85 0 123 42t38 133q-1 92 -43 146t-128 54t-148 -80q-63 -80 -63 -255q136 -40 221 -40zM439 789q0 -223 154 -223q99 0 154 68t55 288q-139 60 -218 60t-112 -51t-33 -142z
M253 1414l-15 130q0 18 24 31t127 32q104 19 126 20t419 1q396 0 562 27t188 27t39 -14q16 -14 16 -30q1 -16 -9 -68t-10 -85q0 -48 50 -38q9 -17 9 -49t-30 -48t-132 -28t-146 -11q-68 0 -68 62q0 41 20 126q-159 -9 -311 -14q-1 -146 -20 -427q173 136 405 136
q159 0 236 -74t77 -228t-100 -277q-100 -122 -283 -122q-139 0 -334 76l-1 -1v-274q174 77 306 77q132 1 198 -51t66 -137q0 -157 -202 -270t-467 -113q-109 0 -161 46t-50 158q1 112 15 276t14 257q-172 -134 -418 -134q-152 1 -221 73t-69 248t89 298t259 123
q170 0 360 -87q1 153 -18 422h-41q-144 0 -207 -10q20 -73 20 -106q-1 -32 -23 -52t-130 -40t-168 -20q-53 0 -53 57q0 22 9 56q33 -3 43 8t10 41z" />
    <glyph glyph-name="uni1255" unicode="&#x1255;" horiz-adv-x="2186" 
d="M1599 881q-99 0 -234 -139v-101q0 -49 1 -97q132 -38 218 -38t124 38q39 38 39 140q1 102 -41 150t-107 47zM875 416q89 0 207 87q1 14 1 29q-5 148 -69 224t-174 76q-70 0 -100 -46t-29 -154q-1 -106 37 -161t127 -55zM1776 1044q307 0 307 -302q0 -152 -96 -276
t-281 -123q-151 0 -337 73q12 -348 56 -558q-114 -39 -218 -39t-128 73q-20 60 -3 472q-212 -111 -419 -111q-281 0 -281 291q0 200 86 326t249 125q207 0 367 -126l-4 258h-202q-38 1 -56 15t-18 63q0 131 -9 275h-28q-212 0 -275 -10q20 -73 20 -106q0 -32 -23 -52
t-131 -40t-168 -20q-53 0 -53 57q0 22 10 56q33 -3 43 8t9 37l-14 133q-1 19 23 32t128 32t125 20q22 1 504 1q481 0 647 27t189 27t39 -14t15 -30q1 -16 -9 -68t-10 -85q0 -48 50 -38q9 -17 9 -49t-30 -48q-29 -16 -131 -28t-147 -11q-68 0 -68 62q0 41 20 126
q-209 -12 -444 -16v-207h196q63 0 81 -15t18 -63q0 -126 -13 -302q206 148 405 148z" />
    <glyph glyph-name="uni1256" unicode="&#x1256;" horiz-adv-x="1914" 
d="M992 1389q-135 0 -135 -92q0 -98 131 -211q149 101 149 187q1 58 -39 87t-106 29zM1326 893q-98 0 -233 -139v-197q133 -39 218 -39t125 38t39 140q1 102 -41 150t-108 47zM604 428q90 0 207 89v2q-1 167 -67 246q-67 79 -177 79q-69 0 -99 -46t-29 -154q-1 -106 37 -161
t128 -55zM1503 1056q307 0 307 -302q0 -152 -96 -276t-281 -123q-152 0 -340 75q18 -439 -6 -525t-137 -86t-218 39q64 233 76 521q-215 -114 -423 -114q-282 0 -282 291q0 201 86 326t250 125q210 0 372 -131q-15 55 -155 176q-141 121 -144 222q-67 10 -113 17
q-143 -49 -179 -49t-44 10q-9 10 -9 42q0 31 10 86q19 -6 25 6t7 34l-13 136q0 18 11 27t118 27t143 18q73 0 73 -64q0 -34 -37 -143q18 -7 63 -12q32 35 84 64q140 78 365 78q284 0 358 -126q0 1 18 7t34 22q-32 102 -32 124t15 33t136 41t157 30t37 -34l-14 -154
q0 -18 6 -26t28 -4q9 -31 9 -48q0 -39 -90 -72t-120 -33t-54 21q-40 -17 -117 -44q-44 -161 -348 -282q27 -46 41 -110q216 160 423 160z" />
    <glyph glyph-name="uni1258" unicode="&#x1258;" horiz-adv-x="2202" 
d="M1576 39q0 -53 28 -77t89 -25q62 0 99 32q36 31 36 89q-1 124 -121 124q-53 0 -105 -38q-26 -52 -26 -105zM1314 656q85 0 123 42t38 133q-1 92 -43 146t-128 54t-148 -80q-63 -80 -63 -255q136 -40 221 -40zM439 789q0 -223 154 -223q99 0 154 68t55 288
q-139 60 -218 60t-112 -51t-33 -142zM234 1414l-15 130q-1 18 23 31t128 32t126 20t419 1t563 27t188 27t38 -14t16 -30t-10 -68t-9 -85q0 -49 50 -38q10 -17 10 -49q-1 -32 -31 -48t-132 -28t-146 -11q-68 0 -68 62q0 41 20 126q-149 -8 -292 -13q-1 -146 -20 -428
q173 136 405 136q159 0 236 -74t77 -228t-100 -277q-100 -122 -283 -122q-139 0 -334 76q2 -150 9 -279q90 2 154 6t176 27q112 22 150 22t76 -65q138 65 252 65q228 0 228 -182q0 -157 -192 -273t-441 -116q-248 0 -248 161q0 99 86 217q-115 -7 -230 -9q15 -165 40 -285
q-114 -39 -218 -39q-104 1 -128 73t4 645q-172 -134 -418 -134q-152 1 -221 73t-69 248t89 298t259 123q170 0 360 -87q1 153 -18 422h-60q-143 0 -206 -10q20 -73 20 -106q0 -32 -23 -52t-131 -40t-168 -20q-53 0 -53 57q0 22 10 56q32 -3 42 8t10 41z" />
    <glyph glyph-name="uni125A" unicode="&#x125a;" horiz-adv-x="2795" 
d="M1314 656q85 0 123 42t38 133q-1 92 -43 146t-128 54t-148 -80q-63 -80 -63 -255q136 -40 221 -40zM439 789q0 -223 154 -223q99 0 154 68t55 288q-139 60 -218 60t-112 -51t-33 -142zM234 1414l-15 130q-1 18 23 31t128 32t126 20t419 1t563 27t188 27t38 -14t16 -30
t-10 -68t-9 -85q0 -49 50 -38q10 -17 10 -49q-1 -32 -31 -48t-132 -28t-146 -11q-68 0 -68 62q0 41 20 126q-149 -8 -292 -13q-1 -146 -20 -428q173 136 405 136q159 0 233 -72t79 -207q142 7 235 25q7 187 22 219q23 46 127 46t209 -39q-51 -264 -51 -356q39 0 151 28
t135 27q23 0 39 -15t15 -30q1 -15 -9 -68t-10 -85q0 -46 50 -38q9 -17 9 -49t-30 -48t-132 -27t-146 -11q-68 0 -68 61q0 41 20 127q-254 -20 -291 -20t-40 24t-3 63v28q-146 -6 -249 -10q-25 -82 -82 -152q-100 -122 -283 -122q-139 0 -334 76q7 -457 60 -711
q-114 -39 -218 -39q-104 1 -128 73t4 645q-172 -134 -418 -134q-152 1 -221 73t-69 248t89 298t259 123q170 0 360 -87q1 153 -18 422h-60q-143 0 -206 -10q20 -73 20 -106q0 -32 -23 -52t-131 -40t-168 -20q-53 0 -53 57q0 22 10 56q32 -3 42 8t10 41z" />
    <glyph glyph-name="uni125B" unicode="&#x125b;" horiz-adv-x="1914" 
d="M1314 656q85 0 123 42t38 133q-1 92 -43 146t-128 54t-148 -80q-63 -80 -63 -255q136 -40 221 -40zM439 789q0 -223 154 -223q99 0 154 68t55 288q-139 60 -218 60t-112 -51t-33 -142zM234 1414l-15 130q-1 18 23 31t128 32t126 20t419 1t563 27t188 27t38 -14t16 -30
t-10 -68t-9 -85q0 -49 50 -38q10 -17 10 -49q-1 -32 -31 -48t-132 -28t-146 -11q-68 0 -68 62q0 41 20 126q-149 -8 -292 -13q-1 -146 -20 -428q173 136 405 136q159 0 236 -74t77 -228t-100 -277q-100 -122 -283 -122q-139 0 -334 76l-1 -1q0 -186 1 -307h522q78 0 78 -67
q0 -44 -54 -179t-54 -169q-1 -34 5 -40q6 -7 27 2q15 -23 15 -50q0 -46 -110 -76t-177 -31q-67 1 -83 13t-16 54t54 170q54 127 55 165q0 38 -31 49t-362 11t-394 -10q20 -73 20 -106t-23 -53t-131 -40t-168 -20q-53 0 -53 57q0 23 10 57q33 -3 43 8t9 37l-14 133
q-1 18 23 31t128 32t126 21t249 1h24v276q-172 -134 -418 -134q-152 1 -221 73t-69 248t89 298t259 123q170 0 360 -87q1 153 -18 422h-60q-143 0 -206 -10q20 -73 20 -106q0 -32 -23 -52t-131 -40t-168 -20q-53 0 -53 57q0 22 10 56q32 -3 42 8t10 41z" />
    <glyph glyph-name="uni125C" unicode="&#x125c;" horiz-adv-x="1914" 
d="M1223 -37q130 0 130 120q-1 59 -37 92t-102 33t-123 -31q0 -115 32 -165t100 -49zM1314 656q85 0 123 42t38 133q-1 92 -43 146t-128 54t-148 -80q-63 -80 -63 -255q136 -40 221 -40zM439 789q0 -223 154 -223q99 0 154 68t55 288q-139 60 -218 60t-112 -51t-33 -142z
M253 1414l-15 130q0 18 24 31t127 32q104 19 126 20t419 1q396 0 562 27t188 27t39 -14q16 -14 16 -30q1 -16 -9 -68t-10 -85q0 -48 50 -38q9 -17 9 -49t-30 -48t-132 -28t-146 -11q-68 0 -68 62q0 41 20 126q-159 -9 -311 -14q-1 -146 -20 -427q173 136 405 136
q159 0 236 -74t77 -228t-100 -277q-100 -122 -283 -122q-139 0 -334 76l-1 -1v-274q174 77 306 77q132 1 198 -51t66 -137q0 -157 -202 -270t-467 -113q-70 0 -116 19q-272 -1 -324 -9q20 -72 20 -106t-23 -53q-22 -19 -130 -39t-169 -21q-53 0 -53 57q0 23 10 56
q32 -3 42 8t10 37l-14 134q0 18 24 31t127 32q105 18 123 20t263 2q-7 68 11 273q17 204 17 296q-172 -134 -418 -134q-152 1 -221 73t-69 248t89 298t259 123q170 0 360 -87q1 153 -18 422h-41q-144 0 -207 -10q20 -73 20 -106q-1 -32 -23 -52t-130 -40t-168 -20
q-53 0 -53 57q0 22 9 56q33 -3 43 8t10 41z" />
    <glyph glyph-name="uni125D" unicode="&#x125d;" horiz-adv-x="2438" 
d="M1812 -106q0 -54 28 -78t90 -24t98 32t36 90t-28 90q-28 33 -88 33q-58 0 -110 -38q-26 -52 -26 -105zM1562 881q-99 0 -234 -139v-46q0 -79 1 -152q132 -38 217 -38q84 0 124 38t40 140t-42 150t-106 47zM838 416q89 0 207 87q1 14 1 29q-6 148 -70 224t-173 76
q-69 0 -99 -46t-30 -154q0 -106 38 -161t126 -55zM1739 1044q307 0 307 -302q0 -152 -96 -276t-282 -123q-150 0 -336 73q6 -171 20 -309q186 5 252 25t128 44q60 24 92 24t70 -64q129 64 259 64q221 0 221 -182q0 -157 -192 -273t-441 -116q-248 0 -248 139q0 89 86 189
h-209q8 -53 18 -99q-114 -39 -218 -39t-128 73q-20 60 -3 472q-213 -111 -419 -111q-281 0 -281 291q-1 200 85 326t250 125q206 0 367 -127l-4 259h-202q-40 1 -57 15t-17 63q0 131 -9 275q-205 0 -266 -10q20 -73 20 -106q0 -32 -23 -52t-131 -40t-168 -20q-53 0 -53 57
q0 22 10 56q33 -3 43 8t9 37l-14 133q-1 19 23 32t128 32t125 20q22 1 504 1q481 0 647 27t189 27t39 -14t15 -30q1 -16 -9 -68t-10 -85q0 -48 50 -38q9 -17 9 -49t-30 -48q-29 -16 -131 -28t-147 -11q-68 0 -68 62q0 41 20 126q-225 -13 -481 -17v-206h196q62 0 80 -15
t19 -63q0 -125 -13 -301q207 147 405 147z" />
    <glyph glyph-name="uni1260" unicode="&#x1260;" horiz-adv-x="1542" 
d="M726 1414q-140 0 -186 -142t-47 -633q0 -492 60 -781q-114 -39 -218 -39q-104 1 -128 73t-24 464q-1 780 147 1000t483 221q273 -1 385 -89t111 -322q1 -140 -9 -384t-10 -491t16 -285t44 -29q20 -23 20 -52q0 -49 -118 -77t-180 -29q-62 0 -77 14t-15 71l19 982
q0 314 -53 421t-220 107z" />
    <glyph glyph-name="uni1261" unicode="&#x1261;" horiz-adv-x="1964" 
d="M726 1414q-140 0 -186 -142t-47 -633q0 -492 60 -781q-114 -39 -218 -39q-104 1 -128 73t-24 464q-1 780 147 1000t483 221q273 -1 385 -89t111 -322q0 -84 -4 -207q207 7 343 29t158 23q22 0 39 -15q16 -15 16 -30t-10 -68t-10 -85q0 -47 50 -38q10 -17 10 -49t-30 -48
t-132 -27t-147 -11q-67 0 -67 61q0 41 19 127q-138 -8 -243 -13q-11 -175 -11 -473t16 -336t44 -29q20 -23 20 -52q0 -49 -118 -77t-180 -29q-62 0 -77 14t-15 71l19 982q0 314 -53 421t-220 107z" />
    <glyph glyph-name="uni1262" unicode="&#x1262;" horiz-adv-x="1951" 
d="M726 1414q-140 0 -186 -142t-47 -633q0 -492 60 -781q-114 -39 -218 -39q-104 1 -128 73t-24 464q-1 780 147 1000t483 221q273 -1 385 -89t111 -322q1 -140 -9 -384t-10 -754q0 -34 10 -47t34 -13q104 0 270 27t188 27t39 -15q16 -15 16 -30q1 -15 -9 -68t-10 -85
q0 -48 49 -37q10 -18 10 -50q0 -31 -30 -47t-132 -28t-146 -11q-68 0 -68 61q0 42 20 128q-360 -21 -435 -21q-76 0 -96 22t-20 68l19 977q0 314 -53 421t-220 107z" />
    <glyph glyph-name="uni1263" unicode="&#x1263;" horiz-adv-x="1543" 
d="M726 1414q-140 0 -186 -142t-47 -506q0 -364 26 -543q-76 -38 -175 -38q-99 1 -130 29t-30 168q0 754 147 974t482 221q273 -1 385 -89t111 -322q1 -140 -9 -384t-10 -491t16 -285t44 -29q20 -23 20 -52q0 -49 -118 -77t-180 -29q-62 0 -77 14t-15 71l19 982
q0 314 -53 421t-220 107z" />
    <glyph glyph-name="uni1264" unicode="&#x1264;" horiz-adv-x="1925" 
d="M1598 371q132 1 197 -51q66 -52 66 -137q-1 -157 -203 -270t-466 -113q-108 0 -160 46t-52 174t10 402t9 464q0 314 -53 421t-220 107q-140 0 -186 -142t-47 -633q0 -492 60 -781q-114 -39 -218 -39q-104 1 -128 73t-24 464q-1 780 147 1000t483 221q273 -1 385 -89
t111 -322q1 -140 -9 -384t-10 -488q176 77 308 77zM1422 -37q130 0 130 120q0 59 -36 92t-102 33t-124 -31q0 -115 32 -165t100 -49z" />
    <glyph glyph-name="uni1265" unicode="&#x1265;" horiz-adv-x="2023" 
d="M1294 1577q272 -1 384 -89t112 -322q0 -140 -10 -384t-10 -491t18 -285q16 -38 43 -29q20 -23 20 -52q-1 -49 -119 -77t-180 -29q-62 0 -76 14q-15 14 -15 71l19 982q0 314 -53 421t-220 107q-141 0 -187 -142t-46 -633q0 -492 60 -781q-114 -39 -218 -39q-104 1 -128 73
t-24 396t16 522q-208 -2 -262 -10q20 -73 20 -106q0 -32 -23 -52t-131 -40t-168 -20q-53 0 -53 57q0 22 10 56q33 -3 43 8t9 37l-14 133q-1 19 23 32t128 32t124 20t309 1q37 280 116 398q147 221 483 221z" />
    <glyph glyph-name="uni1266" unicode="&#x1266;" horiz-adv-x="1542" 
d="M1370 290q0 -49 -118 -77t-180 -28q-62 -1 -77 13t-15 58l19 630q0 314 -53 421t-220 107q-140 0 -186 -142t-47 -633q0 -492 60 -781q-114 -39 -218 -39q-104 1 -128 73t-24 464q-1 780 147 1000t483 221q273 -1 385 -89t111 -322l-19 -721q0 -57 16 -85t44 -18
q20 -23 20 -52z" />
    <glyph glyph-name="uni1267" unicode="&#x1267;" horiz-adv-x="1970" 
d="M1598 -349q-68 0 -68 61q0 42 20 127q-350 -20 -498 -20t-211 -9q20 -72 20 -106t-23 -53q-22 -19 -130 -39t-169 -21q-53 0 -53 57q0 23 10 56q32 -3 42 8t10 37l-14 134q0 18 24 31t127 32q104 18 123 20t172 2q2 136 10 432t9 486q0 314 -53 421t-220 107
q-140 0 -186 -142t-47 -506q0 -364 26 -543q-76 -38 -175 -38q-99 1 -130 29t-30 168q0 754 147 974t482 221q273 -1 385 -89t111 -322q1 -140 -9 -384t-10 -491t11 -278t17 -41q200 6 336 28t158 22t38 -15t16 -30t-10 -68t-9 -85q0 -47 50 -37q9 -18 9 -50q0 -31 -30 -47
t-132 -28t-146 -11z" />
    <glyph glyph-name="uni1268" unicode="&#x1268;" horiz-adv-x="1720" 
d="M1338 1311q-68 0 -68 62q0 41 20 126q-358 -19 -564 -19t-268 -10q20 -73 20 -106q0 -32 -23 -52t-131 -40t-168 -20q-53 0 -53 57q0 22 10 56q33 -3 43 8t9 37l-14 133q-1 19 23 32t128 32t126 20t396 1t540 27t188 27t38 -14t16 -30t-10 -68t-9 -85q0 -48 50 -38
q9 -17 9 -49t-30 -48t-132 -28t-146 -11zM898 1233q262 -1 374 -79t112 -331q0 -139 -10 -307t-9 -320t17 -190t44 -29q19 -23 19 -52q-1 -49 -119 -77t-180 -29q-62 0 -76 14q-15 14 -15 109q-1 95 9 253t10 348q0 313 -53 420t-209 107q-132 0 -178 -142t-46 -461
q0 -320 60 -609q-114 -39 -218 -39q-104 1 -128 73t-23 412q0 501 147 715t472 214z" />
    <glyph glyph-name="uni1269" unicode="&#x1269;" horiz-adv-x="2039" 
d="M1338 1311q-68 0 -68 62q0 41 20 126q-358 -19 -564 -19t-268 -10q20 -73 20 -106q0 -32 -23 -52t-131 -40t-168 -20q-53 0 -53 57q0 22 10 56q33 -3 43 8t9 37l-14 133q-1 19 23 32t128 32t126 20t396 1t540 27t188 27t38 -14t16 -30t-10 -68t-9 -85q0 -48 50 -38
q9 -17 9 -49t-30 -48t-132 -28t-146 -11zM1667 440q-67 0 -67 61q0 41 19 127q-135 -8 -240 -13q-2 -47 -8 -157t-6 -262q1 -152 17 -190t44 -29q19 -23 19 -52q-1 -49 -119 -77t-180 -29q-62 0 -76 14q-15 14 -15 109q-1 95 9 253t10 348q0 313 -53 420t-209 107
q-132 0 -178 -142t-46 -461q0 -320 60 -609q-114 -39 -218 -39q-104 1 -128 73t-23 412q0 501 147 715t472 214q262 -1 374 -79t112 -331q0 -31 -1 -63q205 6 341 28t158 23q22 0 38 -15t16 -30t-10 -68t-10 -85q0 -47 50 -38q10 -17 10 -49t-30 -48t-132 -27t-147 -11z" />
    <glyph glyph-name="uni126A" unicode="&#x126a;" horiz-adv-x="2026" 
d="M1338 1311q-68 0 -68 62q0 41 20 126q-358 -19 -564 -19t-268 -10q20 -73 20 -106q0 -32 -23 -52t-131 -40t-168 -20q-53 0 -53 57q0 22 10 56q33 -3 43 8t9 37l-14 133q-1 19 23 32t128 32t126 20t396 1t540 27t188 27t38 -14t16 -30t-10 -68t-9 -85q0 -48 50 -38
q9 -17 9 -49t-30 -48t-132 -28t-146 -11zM1654 -349q-68 0 -68 61q0 42 20 128q-360 -21 -435 -21t-95 22t-21 68q-1 128 9 286t10 348q0 313 -53 420t-209 107q-132 0 -178 -142t-46 -461q0 -320 60 -609q-114 -39 -218 -39q-104 1 -128 73t-23 412q0 501 147 715t472 214
q262 -1 374 -79t112 -331q0 -138 -10 -310t-9 -485q0 -34 10 -47t34 -13q105 0 271 27t188 27t38 -15t16 -30t-10 -68t-9 -85q0 -48 49 -37q10 -18 10 -50q0 -31 -30 -47t-132 -28t-146 -11z" />
    <glyph glyph-name="uni126B" unicode="&#x126b;" horiz-adv-x="1720" 
d="M1338 1311q-68 0 -68 62q0 41 20 126q-358 -19 -564 -19t-268 -10q20 -73 20 -106q0 -32 -23 -52t-131 -40t-168 -20q-53 0 -53 57q0 22 10 56q33 -3 43 8t9 37l-14 133q-1 19 23 32t128 32t126 20t396 1t540 27t188 27t38 -14t16 -30t-10 -68t-9 -85q0 -48 50 -38
q9 -17 9 -49t-30 -48t-132 -28t-146 -11zM588 453q0 -121 26 -230q-76 -38 -175 -38q-99 1 -129 29t-31 154q0 437 147 651t472 214q262 -1 374 -79t112 -331q0 -139 -10 -307t-9 -320t17 -190t44 -29q19 -23 19 -52q-1 -49 -119 -77t-180 -29q-62 0 -76 14q-15 14 -15 109
q-1 95 9 253t10 348q0 313 -53 420t-209 107q-132 0 -178 -142t-46 -475z" />
    <glyph glyph-name="uni126C" unicode="&#x126c;" horiz-adv-x="2000" 
d="M1672 371q132 1 198 -51t66 -137q0 -157 -202 -270t-467 -113q-109 0 -161 46t-51 165q-1 59 9 201t10 331q0 313 -53 420t-209 107q-132 0 -178 -142t-46 -461q0 -320 60 -609q-114 -39 -218 -39q-104 1 -128 73t-23 412q0 501 147 715t472 214q262 -1 374 -79t112 -331
q0 -138 -19 -529q175 77 307 77zM1497 -37q130 0 130 120q-1 59 -37 92t-102 33t-123 -31q0 -115 32 -165t100 -49zM1338 1311q-68 0 -68 62q0 41 20 126q-358 -19 -564 -19t-268 -10q20 -73 20 -106q0 -32 -23 -52t-131 -40t-168 -20q-53 0 -53 57q0 22 10 56q33 -3 43 8
t9 37l-14 133q-1 19 23 32t128 32t126 20t396 1t540 27t188 27t38 -14t16 -30t-10 -68t-9 -85q0 -48 50 -38q9 -17 9 -49t-30 -48t-132 -28t-146 -11z" />
    <glyph glyph-name="uni126D" unicode="&#x126d;" horiz-adv-x="2106" 
d="M551 1414l-15 130q0 18 24 31t127 32q104 19 126 20q23 1 397 1t540 27t188 27t38 -14t16 -30t-10 -68t-9 -85q0 -48 50 -38q9 -17 9 -49t-30 -48t-132 -28t-146 -11q-68 0 -68 62q0 41 20 126q-358 -19 -564 -19t-268 -10q20 -73 20 -106q0 -32 -23 -52t-131 -40
t-168 -20q-53 0 -53 57q0 22 10 56q33 -3 43 8t9 41zM1284 1233q262 -1 374 -79t112 -331q0 -139 -10 -307t-10 -320t18 -190q16 -38 43 -29q20 -23 20 -52q-1 -49 -119 -77t-180 -29q-62 0 -76 14q-15 14 -15 109q-1 95 9 253t10 348q0 313 -53 420t-210 107
q-131 0 -177 -142t-46 -461q0 -320 60 -609q-114 -39 -218 -39q-104 1 -128 73t-24 326t16 390q-208 -2 -262 -10q20 -73 20 -106t-23 -52q-23 -20 -131 -40t-168 -20q-53 0 -53 57q0 22 10 56q33 -3 43 8t9 37l-14 133q-1 19 23 32t128 32t124 20t319 1q37 163 106 263
q147 214 473 214z" />
    <glyph glyph-name="uni126E" unicode="&#x126e;" horiz-adv-x="1720" 
d="M1338 1311q-68 0 -68 62q0 41 20 126q-358 -19 -564 -19t-268 -10q20 -73 20 -106q0 -32 -23 -52t-131 -40t-168 -20q-53 0 -53 57q0 22 10 56q33 -3 43 8t9 37l-14 133q-1 19 23 32t128 32t126 20t396 1t540 27t188 27t38 -14t16 -30t-10 -68t-9 -85q0 -48 50 -38
q9 -17 9 -49t-30 -48t-132 -28t-146 -11zM898 1233q262 -1 374 -79t112 -329q0 -99 -10 -201t-9 -168t17 -96q16 -28 44 -18q19 -23 19 -52q-1 -49 -119 -77t-180 -28q-62 -1 -76 13q-15 14 -15 60q-1 46 9 149t10 222q0 227 -53 334t-209 107q-132 0 -178 -142t-46 -461
q0 -320 60 -609q-114 -39 -218 -39q-104 1 -128 73t-23 412q0 501 147 715t472 214z" />
    <glyph glyph-name="uni126F" unicode="&#x126f;" horiz-adv-x="2045" 
d="M1338 1311q-68 0 -68 62q0 41 20 126q-358 -19 -564 -19t-268 -10q20 -73 20 -106q0 -32 -23 -52t-131 -40t-168 -20q-53 0 -53 57q0 22 10 56q33 -3 43 8t9 37l-14 133q-1 19 23 32t128 32t126 20t396 1t540 27t188 27t38 -14t16 -30t-10 -68t-9 -85q0 -48 50 -38
q9 -17 9 -49t-30 -48t-132 -28t-146 -11zM1673 -349q-68 0 -68 61q0 42 20 127q-349 -20 -497 -20t-212 -9q20 -72 20 -106t-22 -53t-131 -39q-108 -20 -168 -21q-53 0 -53 57q0 23 9 56q33 -3 43 8t9 37l-14 134q-1 18 23 31t128 32q104 18 123 20t172 2q3 106 11 246
t8 329q0 313 -53 420t-209 107q-132 0 -178 -142t-46 -475q0 -121 26 -230q-76 -38 -175 -38q-99 1 -129 29t-31 154q0 437 147 651t472 214q262 -1 374 -79t112 -331q0 -139 -10 -307t-9 -325q-1 -157 11 -184t22 -35q196 6 331 28t158 22t39 -15t15 -30q1 -15 -9 -68
t-10 -85q0 -47 50 -37q9 -18 9 -50q0 -31 -30 -47q-29 -16 -131 -28t-147 -11z" />
    <glyph glyph-name="uni1270" unicode="&#x1270;" horiz-adv-x="1715" 
d="M1344 640q-68 0 -68 61q0 41 19 127q-149 -9 -292 -14v-111q0 -556 51 -845q-105 -39 -209 -39q-104 1 -128 49t-24 376t-1 564h-67q-144 0 -207 -10q20 -73 20 -106t-23 -52q-23 -20 -131 -40t-168 -20q-53 0 -53 57q0 22 10 56q33 -3 43 8t9 37l-14 133q-1 19 23 32
t128 32t126 20t264 1h38q-3 322 -11 365q-15 78 -57 78q-10 18 -11 44q1 45 121 79t179 34t75 -16t17 -63v-517q261 6 397 28t158 23q22 0 38 -15t16 -30t-10 -68t-9 -85q0 -47 49 -38q10 -17 10 -49t-30 -48t-132 -27t-146 -11z" />
    <glyph glyph-name="uni1271" unicode="&#x1271;" horiz-adv-x="1715" 
d="M1338 -26q-68 0 -68 61q0 41 20 127q-156 -9 -270 -14q12 -168 34 -290q-105 -39 -209 -39q-104 1 -128 49t-24 376t-1 564h-67q-144 0 -207 -10q20 -73 20 -106t-23 -52q-23 -20 -131 -40t-168 -20q-53 0 -53 57q0 22 10 56q33 -3 43 8t9 37l-14 133q-1 19 23 32t128 32
t126 20t264 1h38q-3 322 -11 365q-15 78 -57 78q-10 18 -11 44q1 45 121 79t179 34t75 -16t17 -63v-517q261 6 397 28t158 23q22 0 38 -15t16 -30t-10 -68t-9 -85q0 -47 49 -38q10 -17 10 -49t-30 -48t-132 -27t-146 -11q-68 0 -68 61q0 41 19 127q-149 -9 -292 -14v-111
q0 -228 8 -411q236 6 377 30t164 23q22 0 38 -15t16 -30t-10 -68t-9 -85q0 -46 50 -38q9 -17 9 -49t-30 -48t-132 -27t-146 -11z" />
    <glyph glyph-name="uni1272" unicode="&#x1272;" horiz-adv-x="1715" 
d="M1287 -349q-68 0 -68 61q0 42 20 128q-260 -21 -400 -21q-98 1 -122 73t-24 376t-1 540h-67q-144 0 -207 -10q20 -73 20 -106t-23 -52q-23 -20 -131 -40t-168 -20q-53 0 -53 57q0 22 10 56q33 -3 43 8t9 37l-14 133q-1 19 23 32t128 32t126 20t264 1h38q-3 322 -11 365
q-15 78 -57 78q-10 18 -11 44q1 45 121 79t179 34t75 -16t17 -63v-517q261 6 397 28t158 23q22 0 38 -15t16 -30t-10 -68t-9 -85q0 -47 49 -38q10 -17 10 -49t-30 -48t-132 -27t-146 -11q-68 0 -68 61q0 41 19 127q-149 -9 -292 -14v-113q1 -513 15 -623t94 -110
q56 0 211 27t177 27t39 -15q16 -15 16 -30q1 -15 -9 -68t-10 -85q0 -47 50 -37q9 -18 9 -50q0 -31 -30 -47t-132 -28t-146 -11z" />
    <glyph glyph-name="uni1273" unicode="&#x1273;" horiz-adv-x="1717" 
d="M127 742l-15 130q0 18 24 31t127 32q104 19 126 20t265 1h40q-2 307 -15 375t-55 68q-10 18 -11 44q0 45 120 79q119 34 179 34t76 -16t17 -63v-517q261 6 397 28t158 23q22 0 38 -15t16 -30t-10 -68t-10 -85q0 -47 50 -38q10 -17 10 -49t-30 -48t-132 -27t-147 -11
q-67 0 -67 61q0 41 19 127q-149 -9 -292 -14q-4 -551 -111 -772t-396 -221q-35 0 -64 -9q20 -74 20 -107t-23 -52t-131 -39t-168 -21q-53 0 -53 57q0 23 10 56q33 -3 43 8t9 41l-15 129q0 18 24 32q24 13 127 32q104 19 126 20t61 1q121 -1 176 147t55 586v106h-69
q-143 0 -206 -10q20 -73 20 -106t-23 -52q-23 -20 -131 -40t-168 -20q-53 0 -53 57q0 22 10 56q33 -3 43 8t9 41z" />
    <glyph glyph-name="uni1274" unicode="&#x1274;" horiz-adv-x="1735" 
d="M1134 -37q130 0 130 120q-1 59 -37 92q-35 33 -101 33t-125 -31q1 -115 33 -165t100 -49zM625 808q-144 0 -207 -10q20 -73 20 -106t-23 -52q-23 -20 -131 -40t-168 -20q-53 0 -53 57q0 22 10 56q33 -3 43 8t9 37l-14 133q-1 19 23 32t128 32t126 20t264 1h40
q-4 311 -16 377t-54 66q-10 18 -11 44q1 45 121 79t179 34t75 -16t17 -63v-517q261 6 397 28t158 23q22 0 38 -15t16 -30t-10 -68t-9 -85q0 -47 49 -38q10 -17 10 -49t-30 -48t-132 -27t-146 -11q-68 0 -68 61q0 41 19 127q-149 -9 -292 -14v-520q174 77 306 77
q132 1 198 -51t66 -137q0 -157 -203 -270t-466 -113q-108 0 -160 46t-52 176l2 594q0 104 -1 192h-68z" />
    <glyph glyph-name="uni1275" unicode="&#x1275;" horiz-adv-x="1715" 
d="M652 956h41v373h-202q-39 1 -57 15t-16 85q1 178 -72 178q-9 17 -10 43q0 46 120 80t179 34t75 -16t17 -72q0 -56 -19 -199h196q62 -1 80 -15t19 -71v-431q261 6 397 28t158 23q22 0 38 -15t16 -30t-10 -68t-9 -85q0 -47 49 -38q10 -17 10 -49t-30 -48t-132 -27t-146 -11
q-68 0 -68 61q0 41 19 127q-149 -9 -292 -14v-111q0 -556 51 -845q-105 -39 -209 -39q-104 1 -128 49t-24 364v576h-68q-144 0 -207 -10q20 -73 20 -106t-23 -52q-23 -20 -131 -40t-168 -20q-53 0 -53 57q0 22 10 56q33 -3 43 8t9 37l-14 133q-1 19 23 32t128 32t126 20
t264 1z" />
    <glyph glyph-name="uni1276" unicode="&#x1276;" horiz-adv-x="1715" 
d="M883 1389q-135 0 -135 -92q0 -98 131 -211q149 101 149 187q0 58 -40 87t-105 29zM1344 640q-68 0 -68 61q0 41 19 127q-149 -9 -292 -14q2 -680 51 -956q-105 -39 -209 -39q-104 1 -128 49t-24 387q6 398 0 553h-68q-144 0 -207 -10q20 -73 20 -106t-23 -52
q-23 -20 -131 -40t-168 -20q-53 0 -53 57q0 22 10 56q33 -3 43 8t9 37l-14 133q-1 19 23 32t128 32t125 20t259 1q-38 44 -112 108q-130 112 -130 222t140 187q140 78 350 78t301 -57t91 -150q0 -196 -356 -338q31 -21 49 -47q280 6 418 29q139 23 161 23t38 -15t16 -30
t-10 -68t-9 -85q0 -47 49 -38q10 -17 10 -49t-30 -48t-132 -27t-146 -11z" />
    <glyph glyph-name="uni1277" unicode="&#x1277;" horiz-adv-x="1715" 
d="M234 -247l-15 129q-1 18 23 32q24 13 128 32q104 18 124 20t199 2q0 520 -2 840h-66q-144 0 -207 -10q20 -73 20 -106t-23 -52q-23 -20 -131 -40t-168 -20q-53 0 -53 57q0 22 10 56q33 -3 43 8t9 37l-14 133q-1 19 23 32t128 32t126 20t264 1h38q-4 327 -11 365
q-15 78 -57 78q-10 18 -11 44q1 45 121 79t179 34t75 -16t17 -63v-517q261 6 397 28t158 23q22 0 38 -15t16 -30t-10 -68t-9 -85q0 -47 49 -38q10 -17 10 -49t-30 -48t-132 -27t-146 -11q-68 0 -68 61q0 41 19 127q-149 -9 -292 -14v-111q0 -454 34 -730q199 5 333 27
t156 22t38 -15t16 -30t-10 -68t-9 -85q0 -48 49 -37q10 -18 10 -50q0 -31 -30 -47t-132 -28t-146 -11q-68 0 -68 61q0 42 19 127q-349 -20 -511 -20t-225 -9q20 -72 20 -106t-23 -53t-131 -39t-168 -21q-53 0 -53 57q0 23 10 56q32 -3 42 8t10 41z" />
    <glyph glyph-name="uni1278" unicode="&#x1278;" horiz-adv-x="1715" 
d="M1344 640q-68 0 -68 61q0 41 19 127q-149 -9 -292 -14v-111q0 -556 51 -845q-105 -39 -209 -39q-104 1 -128 49t-24 364v576h-68q-144 0 -207 -10q20 -73 20 -106t-23 -52q-23 -20 -131 -40t-168 -20q-53 0 -53 57q0 22 10 56q33 -3 43 8t9 37l-14 133q-1 19 23 32
t128 32t126 20t264 1h41v183q0 101 -8 341h-60q-144 0 -207 -10q20 -73 20 -106q0 -32 -23 -52t-131 -40t-168 -20q-53 0 -53 57q0 22 10 56q33 -3 43 8t9 37l-14 133q-1 19 23 32t128 32t126 20t418 1q398 0 564 27t188 27t38 -14t16 -30t-10 -68t-9 -85q0 -49 49 -38
q10 -17 10 -49t-30 -48t-132 -28t-146 -11q-68 0 -68 62q0 41 19 126q-149 -8 -292 -13v-526q261 6 397 28t158 23q22 0 38 -15t16 -30t-10 -68t-9 -85q0 -47 49 -38q10 -17 10 -49t-30 -48t-132 -27t-146 -11z" />
    <glyph glyph-name="uni1279" unicode="&#x1279;" horiz-adv-x="1721" 
d="M1343 -26q-67 0 -67 61q0 41 19 127q-159 -9 -275 -14q12 -168 34 -290q-105 -39 -209 -39q-104 1 -128 49t-24 364v576h-68q-144 0 -207 -10q20 -73 20 -106t-23 -52q-23 -20 -131 -40t-168 -20q-53 0 -53 57q0 22 10 56q33 -3 43 8t9 37l-14 133q-1 19 23 32t128 32
t126 20t264 1h41v183q0 101 -8 341h-60q-144 0 -207 -10q20 -73 20 -106q0 -32 -23 -52t-131 -40t-168 -20q-53 0 -53 57q0 22 10 56q33 -3 43 8t9 37l-14 133q-1 19 23 32t128 32t126 20t418 1q398 0 564 27t188 27t38 -14t16 -30t-10 -68t-9 -85q0 -49 49 -38
q10 -17 10 -49t-30 -48t-132 -28t-146 -11q-68 0 -68 62q0 41 19 126q-149 -8 -292 -13v-526q261 6 397 28t158 23q22 0 38 -15t16 -30t-10 -68t-9 -85q0 -47 49 -38q10 -17 10 -49t-30 -48t-132 -27t-146 -11q-68 0 -68 61q0 41 19 127q-149 -9 -292 -14v-111
q0 -228 8 -411q241 6 383 30t164 23q22 0 38 -15t16 -30t-10 -68t-10 -85q0 -47 50 -38q10 -17 10 -49t-30 -48t-132 -27t-147 -11z" />
    <glyph glyph-name="uni127A" unicode="&#x127a;" horiz-adv-x="1715" 
d="M652 956h41v183q0 101 -8 341h-60q-144 0 -207 -10q20 -73 20 -106q0 -32 -23 -52t-131 -40t-168 -20q-53 0 -53 57q0 22 10 56q33 -3 43 8t9 37l-14 133q-1 19 23 32t128 32t126 20t418 1q398 0 564 27t188 27t38 -14t16 -30t-10 -68t-9 -85q0 -49 49 -38q10 -17 10 -49
t-30 -48t-132 -28t-146 -11q-68 0 -68 62q0 41 19 126q-149 -8 -292 -13v-526q261 6 397 28t158 23q22 0 38 -15t16 -30t-10 -68t-9 -85q0 -47 49 -38q10 -17 10 -49t-30 -48t-132 -27t-146 -11q-68 0 -68 61q0 41 19 127q-149 -9 -292 -14v-113q1 -513 15 -623t94 -110
q56 0 211 27t177 27t39 -15q16 -15 16 -30q1 -15 -9 -68t-10 -85q0 -47 50 -37q9 -18 9 -50q0 -31 -30 -47t-132 -28t-146 -11q-68 0 -68 61q0 42 20 128q-260 -21 -400 -21q-98 1 -122 73t-24 340v576h-68q-144 0 -207 -10q20 -73 20 -106t-23 -52q-23 -20 -131 -40
t-168 -20q-53 0 -53 57q0 22 10 56q33 -3 43 8t9 37l-14 133q-1 19 23 32t128 32t126 20t264 1z" />
    <glyph glyph-name="uni127B" unicode="&#x127b;" horiz-adv-x="1717" 
d="M141 -247l-15 129q0 18 24 32t135 34q112 21 179 20q121 0 176 147t55 587v106h-69q-143 0 -206 -10q20 -73 20 -106t-23 -52q-23 -20 -131 -40t-168 -20q-53 0 -53 57q0 22 10 56q33 -3 43 8t9 41l-15 130q0 18 24 31t127 32q104 19 126 20t265 1h41v183q0 101 -8 341
h-61q-143 0 -206 -10q20 -73 20 -106q0 -32 -23 -52t-131 -40t-168 -20q-53 0 -53 57q0 22 10 56q33 -3 43 8t9 41l-15 130q0 18 24 31t127 32q104 19 126 20q21 1 419 1t564 27t188 27t38 -14t16 -30t-10 -68t-10 -85q0 -49 50 -38q10 -17 10 -49t-30 -48t-132 -28
t-147 -11q-67 0 -67 62q0 41 19 126q-149 -8 -292 -13v-526q261 6 397 28t158 23q22 0 38 -15t16 -30t-10 -68t-10 -85q0 -47 50 -38q10 -17 10 -49t-30 -48t-132 -27t-147 -11q-67 0 -67 61q0 41 19 127q-149 -9 -292 -14q-4 -552 -111 -774t-396 -221q-35 0 -64 -9
q20 -72 20 -106t-23 -53t-131 -39t-168 -21q-53 0 -53 57q0 23 10 56q33 -3 43 8t9 41z" />
    <glyph glyph-name="uni127C" unicode="&#x127c;" horiz-adv-x="1715" 
d="M1134 -37q130 0 130 120q-1 59 -37 92q-35 33 -101 33t-125 -31q1 -115 33 -165t100 -49zM625 808q-144 0 -207 -10q20 -73 20 -106t-23 -52q-23 -20 -131 -40t-168 -20q-53 0 -53 57q0 22 10 56q33 -3 43 8t9 37l-14 133q-1 19 23 32t128 32t126 20t264 1h41v183
q0 101 -8 341h-60q-144 0 -207 -10q20 -73 20 -106q0 -32 -23 -52t-131 -40t-168 -20q-53 0 -53 57q0 22 10 56q33 -3 43 8t9 37l-14 133q-1 19 23 32t128 32t126 20t418 1q398 0 564 27t188 27t38 -14t16 -30t-10 -68t-9 -85q0 -49 49 -38q10 -17 10 -49t-30 -48t-132 -28
t-146 -11q-68 0 -68 62q0 41 19 126q-149 -8 -292 -13v-526q261 6 397 28t158 23q22 0 38 -15t16 -30t-10 -68t-9 -85q0 -47 49 -38q10 -17 10 -49t-30 -48t-132 -27t-146 -11q-68 0 -68 61q0 41 19 127q-149 -9 -292 -14v-520q174 77 306 77q132 1 198 -51t66 -137
q0 -157 -203 -270t-466 -113q-108 0 -160 46t-52 176l2 587l-1 199h-68z" />
    <glyph glyph-name="uni127D" unicode="&#x127d;" horiz-adv-x="2059" 
d="M469 742l-15 130q0 18 24 31t127 32q104 19 126 20t265 1h41v171h-202q-40 1 -57 15t-17 63q0 131 -9 275h-59q-212 0 -275 -10q20 -73 20 -106q0 -32 -23 -52t-131 -40t-168 -20q-53 0 -53 57q0 22 10 56q33 -3 43 8t9 37l-14 133q-1 19 23 32t128 32t126 20t518 1
q498 0 664 27t188 27t38 -14t16 -30t-10 -68t-9 -85q0 -48 50 -38q9 -17 9 -49t-30 -48t-132 -28t-146 -11q-68 0 -68 62q0 41 20 126q-204 -11 -444 -16v-207h196q62 0 80 -15t19 -72v-229q261 6 397 28t158 23q22 0 38 -15t16 -30t-10 -68t-10 -85q0 -47 50 -38
q10 -17 10 -49t-30 -48t-132 -27t-147 -11q-67 0 -67 61q0 41 19 127q-149 -9 -292 -14q0 -63 1 -111q-1 -556 50 -845q-105 -39 -209 -39q-104 1 -128 49t-24 364v576h-68q-144 0 -207 -10q20 -73 20 -106t-23 -52q-23 -20 -131 -40t-168 -20q-53 0 -53 57q0 22 10 56
q33 -3 43 8t9 41z" />
    <glyph glyph-name="uni127E" unicode="&#x127e;" horiz-adv-x="1728" 
d="M888 1389q-134 0 -134 -92q0 -98 131 -211q149 101 149 187q0 58 -40 87t-106 29zM364 1628q74 0 74 -64q0 -34 -37 -143q18 -7 63 -12q32 35 84 64q140 78 364 78q285 0 359 -126q1 1 19 7t33 22q-33 102 -33 124t16 33t136 41q121 30 157 30t36 -34l-13 -154
q0 -18 6 -26t27 -4q10 -31 10 -48q0 -39 -90 -72q-91 -33 -121 -33t-53 21q-41 -17 -117 -44q-44 -161 -349 -282q31 -21 49 -47q280 6 418 29t160 23t39 -15q16 -15 16 -30q1 -15 -9 -68t-10 -85q0 -46 50 -38q9 -17 9 -49t-30 -48t-132 -27t-146 -11q-68 0 -68 61
q0 41 20 127q-149 -9 -293 -14q2 -680 51 -956q-104 -39 -208 -39q-104 1 -128 49t-24 387q6 398 -1 553h-68q-144 0 -207 -10q20 -73 20 -106q-1 -33 -23 -52q-22 -20 -130 -40t-168 -20q-53 0 -53 57q0 22 9 56q33 -3 43 8t10 41l-15 130q0 18 24 31t127 32t125 20t259 1
q-38 44 -112 108q-127 109 -130 210q-68 10 -113 17q-142 -49 -178 -49t-46 10t-9 42q0 31 10 86q21 -6 27 6t6 34l-14 136q0 18 12 27t118 27t142 18z" />
    <glyph glyph-name="uni127F" unicode="&#x127f;" horiz-adv-x="1715" 
d="M234 -247l-15 129q-1 18 23 32q24 13 128 32q104 18 124 20t201 2q-2 29 -2 64v776h-68q-144 0 -207 -10q20 -73 20 -106t-23 -52q-23 -20 -131 -40t-168 -20q-53 0 -53 57q0 22 10 56q33 -3 43 8t9 37l-14 133q-1 19 23 32t128 32t126 20t264 1h41v183q0 101 -8 341h-60
q-144 0 -207 -10q20 -73 20 -106q0 -32 -23 -52t-131 -40t-168 -20q-53 0 -53 57q0 22 10 56q33 -3 43 8t9 37l-14 133q-1 19 23 32t128 32t126 20t418 1q398 0 564 27t188 27t38 -14t16 -30t-10 -68t-9 -85q0 -49 49 -38q10 -17 10 -49t-30 -48t-132 -28t-146 -11
q-68 0 -68 62q0 41 19 126q-149 -8 -292 -13v-526q261 6 397 28t158 23q22 0 38 -15t16 -30t-10 -68t-9 -85q0 -47 49 -38q10 -17 10 -49t-30 -48t-132 -27t-146 -11q-68 0 -68 61q0 41 19 127q-149 -9 -292 -14v-111q0 -460 34 -730q199 5 333 27t156 22t38 -15t16 -30
t-10 -68t-9 -85q0 -48 49 -37q10 -18 10 -50q0 -31 -30 -47t-132 -28t-146 -11q-68 0 -68 61q0 42 19 127q-349 -20 -511 -20t-225 -9q20 -72 20 -106t-23 -53t-131 -39t-168 -21q-53 0 -53 57q0 23 10 56q32 -3 42 8t10 41z" />
    <glyph glyph-name="uni1280" unicode="&#x1280;" horiz-adv-x="1548" 
d="M967 1057q0 -48 32 -48q31 -1 123 29t120 30t40 -10t13 -74q-1 -64 -55 -402t-54 -440q0 -187 61 -165q19 -23 19 -52q0 -49 -132 -77t-194 -29q-62 0 -77 14q-15 15 -15 121t54 461t54 402t-6 55t-28 8q-20 0 -104 -24q-84 -25 -110 -25q-28 0 -39 10t-11 62t-1 107
q-181 -1 -239 -10q20 -73 20 -106t-23 -52q-23 -20 -131 -40t-168 -20q-53 0 -53 57q0 23 10 56q33 -3 43 8t9 37l-14 133q-1 19 23 32t128 32t124 20t268 1q-3 121 -12 163q-15 78 -56 78q-10 18 -11 44q0 45 120 79q119 34 179 34t76 -16t17 -63v-420z" />
    <glyph glyph-name="uni1281" unicode="&#x1281;" horiz-adv-x="1950" 
d="M1578 440q-67 0 -67 61q0 41 19 127q-166 -10 -285 -15q-3 -15 -31 -191t-28 -280q0 -187 61 -165q19 -23 19 -52q0 -49 -132 -77t-194 -29q-62 0 -77 14q-15 15 -15 121t54 461t54 402t-6 55t-28 8q-20 0 -104 -24q-84 -25 -110 -25q-28 0 -39 10t-11 62t-1 107
q-181 -1 -239 -10q20 -73 20 -106t-23 -52q-23 -20 -131 -40t-168 -20q-53 0 -53 57q0 23 10 56q33 -3 43 8t9 37l-14 133q-1 19 23 32t128 32t124 20t268 1q-3 121 -12 163q-15 78 -56 78q-10 18 -11 44q0 45 120 79q119 34 179 34t76 -16t17 -63v-420q0 -48 32 -48
q31 -1 123 29t120 30t40 -10t13 -60q0 -50 -28 -239q225 6 364 29t161 23t39 -15q16 -15 16 -30t-10 -68t-10 -85q0 -47 50 -38q10 -17 10 -49t-30 -48t-132 -27t-147 -11z" />
    <glyph glyph-name="uni1282" unicode="&#x1282;" horiz-adv-x="1842" 
d="M1470 -349q-68 0 -68 61q0 42 20 128q-262 -21 -394 -21t-156 20t-24 84q0 137 54 492t54 402t-6 55t-28 8q-20 0 -104 -24q-84 -25 -110 -25q-28 0 -39 10t-11 62t-1 107q-181 -1 -239 -10q20 -73 20 -106t-23 -52q-23 -20 -131 -40t-168 -20q-53 0 -53 57q0 23 10 56
q33 -3 43 8t9 37l-14 133q-1 19 23 32t128 32t124 20t268 1q-3 121 -12 163q-15 78 -56 78q-10 18 -11 44q0 45 120 79q119 34 179 34t76 -16t17 -63v-420q0 -48 32 -48q31 -1 123 29t120 30t40 -10t13 -74q-1 -64 -55 -402t-54 -439q0 -103 14 -139t82 -36t224 27t178 27
t38 -15t16 -30t-10 -68t-9 -85q0 -48 49 -37q10 -18 10 -50q0 -31 -30 -47t-132 -28t-146 -11z" />
    <glyph glyph-name="uni1283" unicode="&#x1283;" horiz-adv-x="1548" 
d="M305 -247l-15 129q0 18 24 32q24 13 127 32q104 18 126 20t81 2q184 0 246 190t62 682q0 24 -6 32t-28 8q-20 0 -104 -24q-84 -25 -110 -25q-28 0 -39 10t-11 62t-1 107q-181 -1 -239 -10q20 -73 20 -106t-23 -52q-23 -20 -131 -40t-168 -20q-53 0 -53 57q0 23 10 56
q33 -3 43 8t9 37l-14 133q-1 19 23 32t128 32t124 20t268 1q-3 121 -12 163q-15 78 -56 78q-10 18 -11 44q0 45 120 79q119 34 179 34t76 -16t17 -63v-420q0 -48 32 -48q31 -1 123 29t120 30t40 -10t13 -60q0 -663 -142 -921t-482 -258q-34 0 -73 -9q20 -72 20 -106t-23 -53
t-131 -39t-168 -21q-53 0 -53 57q0 23 10 56q33 -3 43 8t9 41z" />
    <glyph glyph-name="uni1284" unicode="&#x1284;" horiz-adv-x="1793" 
d="M1290 -37q130 0 130 120q0 59 -36 92t-102 33t-123 -31q-1 -115 31 -165t100 -49zM967 1057q0 -48 32 -48q31 -1 123 29t120 30t40 -10t13 -74t-53 -353t-54 -337q146 77 278 77q132 1 197 -51q66 -52 66 -137q-1 -157 -203 -270t-466 -113q-108 0 -160 46t-52 174
t54 434t54 358t-6 60t-28 8q-20 0 -104 -24q-84 -25 -110 -25q-28 0 -39 10t-11 62t-1 107q-181 -1 -239 -10q20 -73 20 -106t-23 -52q-23 -20 -131 -40t-168 -20q-53 0 -53 57q0 23 10 56q33 -3 43 8t9 37l-14 133q-1 19 23 32t128 32t124 20t268 1q-3 121 -12 163
q-15 78 -56 78q-10 18 -11 44q0 45 120 79q119 34 179 34t76 -16t17 -63v-420z" />
    <glyph glyph-name="uni1285" unicode="&#x1285;" horiz-adv-x="1508" 
d="M393 622q0 -101 26 -199q-77 -38 -181 -38t-130 18t-25 105q0 326 236 532q110 96 293 157q-4 89 -10 124q-15 78 -57 78q-10 18 -11 44q0 45 120 79t180 34t76 -16t16 -63l1 -420q0 -48 32 -48q32 -1 123 29t119 30q29 0 41 -10t12 -74t-54 -402t-55 -440
q0 -102 17 -138t44 -27q20 -23 20 -52q0 -49 -133 -77t-194 -29q-61 0 -77 14t-15 71q1 156 55 511t54 402t-7 55t-27 8t-104 -24q-84 -25 -111 -25t-39 10q-12 11 -11 73q0 62 -1 132q-223 -112 -223 -424z" />
    <glyph glyph-name="uni1286" unicode="&#x1286;" horiz-adv-x="2255" 
d="M1629 1305q0 -53 28 -77t90 -25q63 0 99 32t36 87q0 54 -29 90t-83 36t-115 -38q-26 -52 -26 -105zM1507 810q78 0 78 -66q1 -47 -39 -264q-40 -216 -40 -328q0 -197 60 -175q20 -23 20 -52q0 -49 -133 -77t-194 -29q-61 0 -77 14t-15 71q0 174 40 402t40 270
q1 44 -13 54t-62 11q-48 0 -206 -25t-228 -25t-95 33t-25 161t12 225q-158 -2 -212 -10q20 -73 20 -106t-23 -52q-23 -20 -131 -40t-168 -20q-53 0 -53 57q0 23 10 56q33 -3 43 8t9 37l-14 133q-1 19 23 32t128 32t124 20t273 1q37 130 104 215q146 183 532 183q42 0 172 28
q131 28 168 27q37 0 76 -65q129 65 243 65t176 -46t61 -136q-1 -157 -193 -273t-440 -116t-248 161q0 99 86 217q-89 -9 -159 -9q-192 0 -241 -99q-49 -100 -49 -286q1 -186 21 -220t92 -35q72 1 236 21t211 20z" />
    <glyph glyph-name="uni1287" unicode="&#x1287;" horiz-adv-x="2255" 
d="M1629 1305q0 -53 28 -77t90 -25q63 0 99 32t36 87q0 54 -29 90t-83 36t-115 -38q-26 -52 -26 -105zM645 -247l-15 129q0 18 24 32q24 13 127 32q105 18 125 20t262 2q6 150 42 358t37 250q1 44 -13 54t-62 11q-48 0 -206 -25t-228 -25t-95 33t-25 161t12 225
q-158 -2 -212 -10q20 -73 20 -106t-23 -52q-23 -20 -131 -40t-168 -20q-53 0 -53 57q0 23 10 56q33 -3 43 8t9 37l-14 133q-1 19 23 32t128 32t124 20t273 1q37 130 104 215q146 183 532 183q42 0 172 28q131 28 168 27q37 0 76 -65q129 65 243 65t176 -46t61 -136
q-1 -157 -193 -273t-440 -116t-248 161q0 99 86 217q-89 -9 -159 -9q-192 0 -241 -99q-49 -100 -49 -286q1 -186 21 -220t92 -35q72 1 236 21t211 20q78 0 78 -66q1 -47 -39 -264q-40 -216 -40 -328q0 -197 60 -175q20 -23 20 -52q0 -49 -133 -77t-214 -29h-10
q-230 0 -291 -9q20 -72 20 -106t-23 -53t-131 -39t-168 -21q-53 0 -53 57q0 23 10 56q32 -3 42 8t10 41z" />
    <glyph glyph-name="uni1288" unicode="&#x1288;" horiz-adv-x="2344" 
d="M1718 505q0 -53 28 -77t89 -25q62 0 99 32q36 31 36 89q-1 124 -121 124q-53 0 -105 -38q-26 -52 -26 -105zM967 1057q0 -48 32 -48q31 -1 123 29t120 30t40 -10t13 -60q0 -50 -28 -241q153 2 286 28t171 26t76 -65q138 65 252 65q228 0 228 -182q0 -157 -192 -273
t-441 -116q-248 0 -248 161q0 99 86 217q-120 -7 -240 -9q-3 -13 -31 -189t-28 -278q0 -187 61 -165q19 -23 19 -52q0 -49 -132 -77t-194 -29q-62 0 -77 14q-15 15 -15 121t54 461t54 402t-6 55t-28 8q-20 0 -104 -24q-84 -25 -110 -25q-28 0 -39 10t-11 62t-1 107
q-181 -1 -239 -10q20 -73 20 -106t-23 -52q-23 -20 -131 -40t-168 -20q-53 0 -53 57q0 23 10 56q33 -3 43 8t9 37l-14 133q-1 19 23 32t128 32t124 20t268 1q-3 121 -12 163q-15 78 -56 78q-10 18 -11 44q0 45 120 79q119 34 179 34t76 -16t17 -63v-420z" />
    <glyph glyph-name="uni128A" unicode="&#x128a;" horiz-adv-x="2279" 
d="M967 1057q0 -48 32 -48q31 -1 123 29t120 30t40 -10t13 -60q0 -50 -28 -238q160 7 263 26q6 190 20 219q23 46 127 46t209 -39q-51 -264 -51 -456q39 0 151 28t135 27q23 0 39 -15t16 -30t-10 -68t-10 -85q0 -47 50 -38q10 -17 10 -49t-30 -48t-132 -27t-147 -11
q-68 0 -68 61q0 41 20 127q-254 -20 -291 -20q-38 0 -40 24t-2 78v113q-167 -8 -281 -12q-3 -14 -31 -190q-28 -177 -28 -279q0 -187 61 -165q19 -23 19 -52q0 -49 -132 -77t-194 -29q-62 0 -77 14q-15 15 -15 121t54 461t54 402t-6 55t-28 8q-20 0 -104 -24
q-84 -25 -110 -25q-28 0 -39 10t-11 62t-1 107q-181 -1 -239 -10q20 -73 20 -106t-23 -52q-23 -20 -131 -40t-168 -20q-53 0 -53 57q0 23 10 56q33 -3 43 8t9 37l-14 133q-1 19 23 32t128 32t124 20t268 1q-3 121 -12 163q-15 78 -56 78q-10 18 -11 44q0 45 120 79
q119 34 179 34t76 -16t17 -63v-420z" />
    <glyph glyph-name="uni128B" unicode="&#x128b;" horiz-adv-x="1702" 
d="M1560 261q78 0 78 -67q0 -44 -54 -179t-54 -169t6 -40q6 -7 26 2q15 -23 15 -50q0 -46 -110 -76t-177 -31q-67 1 -83 13t-16 54q1 42 55 170q54 127 54 165t-31 49t-242 11t-274 -10q20 -73 20 -106t-23 -53q-22 -20 -130 -40t-169 -20q-53 0 -53 57q0 23 10 57
q32 -3 42 8t10 37l-14 133q0 18 24 31t127 32q105 19 123 20t152 2q8 86 46 293q38 206 38 258t-6 60t-28 8q-20 0 -104 -24q-84 -25 -110 -25q-28 0 -39 10t-11 62t-1 107q-181 -1 -239 -10q20 -73 20 -106t-23 -52q-23 -20 -131 -40t-168 -20q-53 0 -53 57q0 23 10 56
q33 -3 43 8t9 37l-14 133q-1 19 23 32t128 32t124 20t268 1q-3 121 -12 163q-15 78 -56 78q-10 18 -11 44q0 45 120 79q119 34 179 34t76 -16t17 -63v-420q0 -48 32 -48q31 -1 123 29t120 30t40 -10t13 -73q0 -63 -48 -335t-58 -389h371z" />
    <glyph glyph-name="uni128C" unicode="&#x128c;" horiz-adv-x="1793" 
d="M1290 -37q130 0 130 120q0 59 -36 92t-102 33t-123 -31q-1 -115 31 -165t100 -49zM327 -247l-15 129q0 18 24 32q24 13 128 32q104 18 122 20t263 2q-1 16 -1 32q0 148 54 454t54 358t-6 60t-28 8q-20 0 -104 -24q-84 -25 -110 -25q-28 0 -39 10t-11 62t-1 107
q-181 -1 -239 -10q20 -73 20 -106t-23 -52q-23 -20 -131 -40t-168 -20q-53 0 -53 57q0 23 10 56q33 -3 43 8t9 37l-14 133q-1 19 23 32t128 32t124 20t268 1q-3 121 -12 163q-15 78 -56 78q-10 18 -11 44q0 45 120 79q119 34 179 34t76 -16t17 -63v-420q0 -48 32 -48
q31 -1 123 29t120 30t40 -10t13 -74t-53 -353t-54 -337q146 77 278 77q132 1 197 -51q66 -52 66 -137q-1 -157 -203 -270t-466 -113q-70 0 -116 19q-272 -1 -324 -9q20 -72 20 -106t-23 -53t-131 -39t-168 -21q-53 0 -53 57q0 23 10 56q33 -3 43 8t9 41z" />
    <glyph glyph-name="uni128D" unicode="&#x128d;" horiz-adv-x="2278" 
d="M967 1057q0 -48 32 -48q31 -1 123 29t120 30t40 -10t13 -60q0 -50 -28 -241h218q3 207 25 251t126 44t209 -39q-51 -165 -51 -256q80 -1 192 27t134 28t39 -15q16 -15 16 -30t-10 -68t-10 -85q0 -47 50 -38q10 -17 10 -49t-30 -48t-132 -27t-147 -11q-67 0 -67 61
q0 41 19 117q-106 -10 -311 -10h-302q-3 -13 -31 -189t-28 -278q0 -187 61 -165q19 -23 19 -52q0 -49 -132 -77t-194 -29q-62 0 -77 14q-15 15 -15 121t54 461t54 402t-6 55t-28 8q-20 0 -104 -24q-84 -25 -110 -25q-28 0 -39 10t-11 62t-1 107q-181 -1 -239 -10
q20 -73 20 -106t-23 -52q-23 -20 -131 -40t-168 -20q-53 0 -53 57q0 23 10 56q33 -3 43 8t9 37l-14 133q-1 19 23 32t128 32t124 20t268 1q-3 121 -12 163q-15 78 -56 78q-10 18 -11 44q0 45 120 79q119 34 179 34t76 -16t17 -63v-420z" />
    <glyph glyph-name="uni1290" unicode="&#x1290;" horiz-adv-x="1187" 
d="M856 1010q77 0 77 -66q0 -47 -54 -364q-54 -316 -54 -428q0 -196 61 -175q19 -23 19 -52q0 -49 -133 -77t-194 -29q-60 0 -76 14t-16 71q0 174 54 521t55 391t-13 54t-61 10h-135q-48 0 -69 20t-21 80q0 263 -15 341t-57 78q-10 18 -11 44q1 45 121 79t179 34t75 -16
t17 -63l1 -324q0 -99 26 -121t103 -22h121z" />
    <glyph glyph-name="uni1291" unicode="&#x1291;" horiz-adv-x="1589" 
d="M1217 440q-68 0 -68 61q0 41 20 127q-166 -10 -284 -15q-60 -320 -60 -504q1 -69 17 -105t44 -27q19 -23 19 -52q0 -49 -133 -77t-194 -29q-60 0 -76 14t-16 71q0 174 54 521t55 391t-13 54t-61 10h-135q-48 0 -69 20t-21 80q0 263 -15 341t-57 78q-10 18 -11 44
q1 45 121 79t179 34t75 -16t17 -63l1 -324q0 -99 26 -121t103 -22h121q77 0 77 -66q0 -32 -25 -185q224 6 362 29t161 23t39 -15t15 -30q1 -15 -9 -68t-10 -85q0 -46 50 -38q9 -17 9 -49t-30 -48t-132 -27t-146 -11z" />
    <glyph glyph-name="uni1292" unicode="&#x1292;" horiz-adv-x="1480" 
d="M1108 -349q-67 0 -67 61q0 42 19 128q-260 -21 -393 -21q-133 -1 -157 19t-24 84q0 156 54 503t55 391t-13 54t-61 10h-135q-48 0 -69 20t-21 80q0 263 -15 341t-57 78q-10 18 -11 44q1 45 121 79t179 34t75 -16t17 -63l1 -324q0 -99 26 -121t103 -22h121q77 0 77 -66
q0 -47 -54 -364q-54 -318 -54 -434q1 -116 15 -147t82 -31t222 27q156 27 178 27t39 -15q16 -15 16 -30t-10 -68t-10 -85q0 -48 50 -37q10 -18 10 -50q0 -31 -30 -47t-132 -28t-147 -11z" />
    <glyph glyph-name="uni1293" unicode="&#x1293;" horiz-adv-x="1398" 
d="M1026 1240q-67 0 -67 61q0 41 19 127q-82 -20 -216 -19q-230 0 -280 -99t-50 -254q0 -154 35 -200t169 -46h292q90 0 126 -20t36 -81q0 -60 -54 -285t-55 -356q1 -56 17 -78t44 -13q19 -23 19 -52q-1 -49 -133 -77t-194 -29q-62 0 -76 14q-15 15 -15 103t54 326t54 313
q0 73 -31 89t-121 16h-243q-152 0 -202 54t-51 197q0 281 146 453t547 172q114 0 268 28t176 27q22 0 39 -15q16 -15 16 -30t-10 -68t-10 -85q0 -47 50 -38q10 -17 10 -49t-30 -48t-132 -27t-147 -11z" />
    <glyph glyph-name="uni1294" unicode="&#x1294;" horiz-adv-x="1432" 
d="M856 1010q77 0 77 -66q1 -47 -53 -324t-54 -326q146 77 278 77q132 1 198 -51t66 -137q0 -157 -203 -270t-466 -113q-109 0 -161 46t-52 142t54 440t55 388t-13 54t-61 10h-135q-48 0 -69 20t-21 80q0 263 -15 341t-57 78q-10 18 -11 44q1 45 121 79t179 34t75 -16
t17 -63l1 -324q0 -99 26 -121t103 -22h121zM929 -37q129 0 129 120q0 59 -36 92t-102 33t-122 -31q-2 -115 30 -165t101 -49z" />
    <glyph glyph-name="uni1295" unicode="&#x1295;" horiz-adv-x="1528" 
d="M1197 1010q78 0 78 -66q-1 -47 -55 -364q-54 -316 -54 -428q0 -196 61 -175q19 -23 19 -52q0 -49 -132 -77t-194 -29q-62 0 -77 14t-15 71q0 174 54 521t54 391t-13 54t-61 10h-135q-49 0 -69 14t-20 66t10 210t-6 198q-14 40 -86 40t-138 -10q20 -73 20 -106t-23 -52
q-23 -20 -131 -40t-168 -20q-53 0 -53 57q0 22 10 56q33 -3 43 8t9 37l-14 133q-1 19 23 32t128 32t238 20t255 1q122 0 167 -28t45 -105l-20 -328q0 -41 18 -63t85 -22h147z" />
    <glyph glyph-name="uni1296" unicode="&#x1296;" horiz-adv-x="1740" 
d="M1043 1040q-248 0 -248 161q0 99 87 217q-79 -9 -120 -9q-230 0 -280 -99t-50 -254q0 -154 35 -200t169 -46h292q90 0 126 -20t36 -81q0 -60 -54 -285t-55 -356q1 -56 17 -78t44 -13q19 -23 19 -52q-1 -49 -133 -77t-194 -29q-62 0 -76 14q-15 15 -15 103t54 326t54 313
q0 73 -31 89t-121 16h-243q-152 0 -202 54t-51 197q0 281 146 453t531 172q43 0 173 28t167 27q37 0 76 -65q130 65 244 65t176 -46t61 -136q0 -157 -193 -273t-441 -116zM1115 1305q-1 -53 27 -77t90 -25q62 0 98 32t37 87q-1 54 -29 90t-82 36t-115 -38q-26 -52 -26 -105z
" />
    <glyph glyph-name="uni1297" unicode="&#x1297;" horiz-adv-x="1633" 
d="M1261 -349q-68 0 -68 61q0 42 20 127q-349 -20 -511 -20t-226 -9q20 -72 20 -106t-22 -53t-131 -39q-108 -20 -168 -21q-53 0 -53 57q0 23 9 56q33 -3 43 8t9 37l-14 134q-1 18 23 31t128 32q104 18 124 20t201 2q9 108 57 320t49 287q0 73 -31 89t-121 16h-243
q-152 0 -202 54t-51 197q0 281 146 453t547 172q114 0 268 28t176 27q22 0 39 -15q16 -15 16 -30t-10 -68t-10 -85q0 -47 50 -38q10 -17 10 -49t-30 -48t-132 -27t-147 -11q-67 0 -67 61q0 41 19 127q-82 -20 -216 -19q-230 0 -280 -99t-50 -254q0 -154 35 -200t169 -46h292
q90 0 126 -20t36 -81q0 -60 -54 -290q-54 -231 -55 -327q0 -96 23 -119q186 5 317 27t154 22t39 -15t15 -30q1 -15 -9 -68t-10 -85q0 -47 50 -37q9 -18 9 -50q0 -31 -30 -47t-132 -28t-146 -11z" />
    <glyph glyph-name="uni1298" unicode="&#x1298;" horiz-adv-x="1710" 
d="M1250 1010q78 0 78 -66q0 -47 -54 -364q-54 -316 -55 -428q0 -196 61 -175q19 -23 19 -52q-1 -49 -133 -77t-194 -29q-62 0 -76 14q-15 14 -15 71q0 174 54 521t54 391q1 44 -13 54t-61 10h-134q-48 0 -69 20t-21 80q0 253 -9 500q-190 -2 -244 -10q20 -73 20 -106
q0 -32 -23 -52t-131 -40t-168 -20q-53 0 -53 57q0 22 10 56q33 -3 43 8t9 37l-14 133q-1 19 23 32t128 32t126 20t396 1t540 27t188 27t38 -14t16 -30t-10 -68t-9 -85q0 -48 50 -38q9 -17 9 -49t-30 -48t-132 -28t-146 -11q-68 0 -68 62q0 41 20 126q-152 -8 -270 -13v-351
q0 -81 26 -103t103 -22h121z" />
    <glyph glyph-name="uni1299" unicode="&#x1299;" horiz-adv-x="1983" 
d="M1611 440q-68 0 -68 61q0 41 20 127q-166 -10 -284 -15q-60 -320 -60 -504q1 -69 17 -105t44 -27q19 -23 19 -52q-1 -49 -133 -77t-194 -29q-62 0 -76 14q-15 14 -15 71q0 174 54 521t54 391q1 44 -13 54t-61 10h-134q-48 0 -69 20t-21 80q0 253 -9 500q-190 -2 -244 -10
q20 -73 20 -106q0 -32 -23 -52t-131 -40t-168 -20q-53 0 -53 57q0 22 10 56q33 -3 43 8t9 37l-14 133q-1 19 23 32t128 32t126 20t396 1t540 27t188 27t38 -14t16 -30t-10 -68t-9 -85q0 -48 50 -38q9 -17 9 -49t-30 -48t-132 -28t-146 -11q-68 0 -68 62q0 41 20 126
q-152 -8 -270 -13v-351q0 -81 26 -103t103 -22h121q78 0 78 -66q0 -32 -25 -185q223 6 361 29t161 23t39 -15t15 -30q1 -15 -9 -68t-10 -85q0 -47 50 -38q10 -17 10 -49t-30 -48t-132 -27t-147 -11z" />
    <glyph glyph-name="uni129A" unicode="&#x129a;" horiz-adv-x="1875" 
d="M1503 -349q-68 0 -68 61q0 42 19 128q-260 -21 -392 -21q-132 -1 -157 19q-24 20 -24 84q0 156 54 503t54 391q1 44 -13 54t-61 10h-134q-48 0 -69 20t-21 80q0 253 -9 500q-190 -2 -244 -10q20 -73 20 -106q0 -32 -23 -52t-131 -40t-168 -20q-53 0 -53 57q0 22 10 56
q33 -3 43 8t9 37l-14 133q-1 19 23 32t128 32t126 20t396 1t540 27t188 27t38 -14t16 -30t-10 -68t-9 -85q0 -48 50 -38q9 -17 9 -49t-30 -48t-132 -28t-146 -11q-68 0 -68 62q0 41 20 126q-152 -8 -270 -13v-351q0 -81 26 -103t103 -22h121q78 0 78 -66q0 -47 -54 -364
q-54 -318 -55 -434q1 -116 15 -147t82 -31t222 27q156 27 178 27t39 -15q16 -15 16 -30q1 -15 -9 -68t-10 -85q0 -48 49 -37q10 -18 10 -50q0 -31 -30 -47t-132 -28t-146 -11z" />
    <glyph glyph-name="uni129B" unicode="&#x129b;" horiz-adv-x="1710" 
d="M1189 779q-68 0 -68 61q0 41 20 157q-123 49 -305 49t-232 -76t-49 -205q0 -129 35 -175t169 -45h310q79 -1 111 -21t33 -74q-1 -54 -55 -208t-54 -200t16 -61q16 -14 45 -4q19 -23 19 -52q0 -49 -132 -77t-194 -29q-62 0 -77 14q-15 15 -15 59t54 213t54 224t-31 71
t-121 15h-243q-153 -1 -203 49t-50 175q0 260 146 407q100 100 319 132q-2 103 -9 302q-190 -2 -244 -10q20 -73 20 -106q0 -32 -23 -52t-131 -40t-168 -20q-53 0 -53 57q0 22 10 56q33 -3 43 8t9 37l-14 133q-1 19 23 32t128 32t126 20t396 1t540 27t188 27t38 -14t16 -30
t-10 -68t-9 -85q0 -48 50 -38q9 -17 9 -49t-30 -48t-132 -28t-146 -11q-68 0 -68 62q0 41 20 126q-152 -8 -270 -13v-294q127 -4 276 -23t165 -34t16 -30q1 -15 -9 -68t-10 -85q0 -47 49 -38q10 -17 10 -49t-30 -48t-132 -27t-146 -11z" />
    <glyph glyph-name="uni129C" unicode="&#x129c;" horiz-adv-x="1826" 
d="M1323 -37q130 0 130 120q-1 59 -37 92t-102 33t-122 -31q-2 -115 30 -165t101 -49zM1250 1010q78 0 78 -66q0 -47 -54 -324t-53 -326q145 77 277 77q132 1 198 -51t66 -137q0 -157 -203 -270t-466 -113q-109 0 -161 46t-51 142q0 96 54 440t54 388q1 44 -13 54t-61 10
h-134q-48 0 -69 20t-21 80q0 253 -9 500q-190 -2 -244 -10q20 -73 20 -106q0 -32 -23 -52t-131 -40t-168 -20q-53 0 -53 57q0 22 10 56q33 -3 43 8t9 37l-14 133q-1 19 23 32t128 32t126 20t396 1t540 27t188 27t38 -14t16 -30t-10 -68t-9 -85q0 -48 50 -38q9 -17 9 -49
t-30 -48t-132 -28t-146 -11q-68 0 -68 62q0 41 20 126q-152 -8 -270 -13v-351q0 -81 26 -103t103 -22h121z" />
    <glyph glyph-name="uni129D" unicode="&#x129d;" horiz-adv-x="1710" 
d="M1449 748q78 0 78 -66q-1 -46 -55 -270t-54 -340q0 -45 16 -75t45 -20q19 -23 19 -52q0 -49 -132 -77t-194 -29q-62 0 -77 14q-15 15 -15 89t54 331t54 300t-14 54t-60 11h-135q-49 0 -69 14t-20 52t10 160t-6 162t-98 40t-156 -38q20 -72 20 -106t-23 -53t-131 -39
t-168 -21q-53 0 -53 57q0 23 10 56q33 -3 43 8t9 37l-14 134q0 18 26 37t332 62q-2 103 -9 300q-190 -2 -244 -10q20 -73 20 -106q0 -32 -23 -52t-131 -40t-168 -20q-53 0 -53 57q0 22 10 56q33 -3 43 8t9 37l-14 133q-1 19 23 32t128 32t126 20t396 1t540 27t188 27t38 -14
t16 -30t-10 -68t-9 -85q0 -48 50 -38q9 -17 9 -49t-30 -48t-132 -28t-146 -11q-68 0 -68 62q0 41 20 126q-152 -8 -270 -13v-292q128 0 174 -28t45 -105l-20 -253q0 -34 18 -47t85 -13h147z" />
    <glyph glyph-name="uni129E" unicode="&#x129e;" horiz-adv-x="2120" 
d="M1495 864q-1 -52 27 -78q28 -24 90 -24t98 32t37 87q0 55 -29 90t-83 35t-115 -38q-25 -52 -25 -104zM1423 599q-248 0 -248 160q0 99 97 235q-204 52 -411 52t-257 -76t-49 -205q0 -129 35 -175t169 -45h255q78 -1 110 -21t33 -74q-1 -54 -55 -208t-54 -200t16 -61
q16 -14 45 -4q19 -23 19 -52q0 -49 -132 -77t-194 -29q-62 0 -77 14q-15 15 -15 59t54 213t55 224q0 55 -31 71t-122 15h-187q-153 -1 -203 49t-50 175q0 260 146 407q102 103 319 134q-2 102 -9 300q-190 -2 -244 -10q20 -73 20 -106q0 -32 -23 -52t-131 -40t-168 -20
q-53 0 -53 57q0 22 10 56q33 -3 43 8t9 37l-14 133q-1 19 23 32t128 32t126 20t396 1t540 27t188 27t38 -14t16 -30t-10 -68t-9 -85q0 -48 50 -38q9 -17 9 -49t-30 -48t-132 -28t-146 -11q-68 0 -68 62q0 41 20 126q-152 -8 -270 -13v-295q162 -6 312 -37t225 -61
q168 76 282 76q237 0 237 -182q0 -156 -192 -272t-441 -116z" />
    <glyph glyph-name="uni129F" unicode="&#x129f;" horiz-adv-x="1776" 
d="M1384 -349q-68 0 -68 61q0 42 20 127q-350 -20 -512 -20t-225 -9q20 -72 20 -106t-23 -53q-22 -19 -130 -39t-169 -21q-53 0 -53 57q0 23 10 56q32 -3 42 8t10 37l-14 134q0 18 24 31t127 32q105 18 125 20t211 2q15 54 55 180t40 181t-31 71t-121 15h-243
q-153 -1 -203 49t-50 175q0 260 146 407q100 100 319 132q-2 103 -9 302q-190 -2 -244 -10q20 -73 20 -106q0 -32 -23 -52t-131 -40t-168 -20q-53 0 -53 57q0 22 10 56q33 -3 43 8t9 37l-14 133q-1 19 23 32t128 32t126 20t396 1t540 27t188 27t38 -14t16 -30t-10 -68
t-9 -85q0 -48 50 -38q9 -17 9 -49t-30 -48t-132 -28t-146 -11q-68 0 -68 62q0 41 20 126q-152 -8 -270 -13v-294q127 -4 276 -23t165 -34t16 -30q1 -15 -9 -68t-10 -85q0 -47 49 -38q10 -17 10 -49t-30 -48t-132 -27t-146 -11q-68 0 -68 61q0 41 20 157q-123 49 -305 49
t-232 -76t-49 -205q0 -129 35 -175t169 -45h310q79 -1 111 -21t33 -74q-1 -54 -55 -213t-54 -205t15 -59q191 5 323 27t156 22q22 0 38 -15t16 -30t-10 -68t-9 -85q0 -47 50 -37q9 -18 9 -50q0 -31 -30 -47t-132 -28t-146 -11z" />
    <glyph glyph-name="uni12A0" unicode="&#x12a0;" horiz-adv-x="1367" 
d="M1282 -75q0 -49 -118 -77t-180 -29q-61 0 -76 14t-15 71l10 470q1 188 -41 269t-155 81t-144 -28t-77 -178t-45 -317q0 -167 50 -343q-122 -39 -226 -39t-128 44t-24 152q0 245 80 497t269 545h-125q-43 1 -61 17t-18 88q0 237 -71 237q-10 18 -11 44q0 45 120 79t180 34
t76 -16t16 -63v-177q0 -60 16 -82t182 -23q32 0 42 -9q10 -8 10 -40t-17 -60t-77 -110q-60 -81 -86 -129q162 40 294 40t206 -65t74 -253l-10 -403q0 -212 61 -189q19 -23 19 -52z" />
    <glyph glyph-name="uni12A1" unicode="&#x12a1;" horiz-adv-x="1868" 
d="M1282 -75q0 -49 -118 -77t-180 -29q-61 0 -76 14t-15 71l10 470q1 188 -41 269t-155 81t-144 -28t-77 -178t-45 -317q0 -167 50 -343q-122 -39 -226 -39t-128 44t-24 152q0 245 80 497t269 545h-125q-43 1 -61 17t-18 88q0 237 -71 237q-10 18 -11 44q0 45 120 79t180 34
t76 -16t16 -63v-177q0 -60 16 -82t182 -23q32 0 42 -9q10 -8 10 -40t-17 -60t-77 -110q-60 -81 -86 -129q162 40 283 40q205 0 261 -128q226 5 366 29t162 23q22 0 38 -15t16 -30t-10 -68t-9 -85q0 -46 50 -38q9 -17 9 -49t-30 -48t-132 -27t-146 -11q-68 0 -68 61
q0 41 20 127q-133 -8 -237 -13q1 -22 1 -46l-10 -403q0 -212 61 -189q19 -23 19 -52z" />
    <glyph glyph-name="uni12A2" unicode="&#x12a2;" horiz-adv-x="1863" 
d="M1491 -349q-67 0 -67 61q0 42 19 128q-359 -21 -435 -21t-95 22q-20 22 -20 68l10 465q1 188 -41 269t-155 81t-144 -28t-77 -178t-45 -317q0 -167 50 -343q-122 -39 -226 -39t-128 44t-24 152q0 245 80 497t269 545h-125q-43 1 -61 17t-18 88q0 237 -71 237
q-10 18 -11 44q0 45 120 79t180 34t76 -16t16 -63v-177q0 -60 16 -82t182 -23q32 0 42 -9q10 -8 10 -40t-17 -60t-77 -110q-60 -81 -86 -129q162 40 294 40t206 -65t74 -253l-10 -541q0 -34 10 -47t35 -13q105 0 271 27t188 27t38 -15t16 -30t-10 -68t-10 -85q0 -48 50 -37
q10 -18 10 -50q0 -31 -30 -47t-132 -28t-147 -11z" />
    <glyph glyph-name="uni12A3" unicode="&#x12a3;" horiz-adv-x="1367" 
d="M706 724q-114 0 -144 -28t-76 -131t-45 -179q0 -76 15 -163q-66 -38 -182 -38q-116 -1 -138 23t-23 76q0 128 80 304t269 469h-125q-43 1 -61 17t-18 88q0 237 -71 237q-10 18 -11 44q0 45 120 79t180 34t76 -16t16 -63v-177q0 -60 16 -82t182 -23q32 0 42 -9
q10 -8 10 -40t-17 -60t-77 -110q-60 -81 -86 -129q162 40 294 40t206 -65t74 -253l-10 -403q0 -212 61 -189q19 -23 19 -52q0 -49 -118 -77t-180 -29q-61 0 -76 14t-15 71l10 470q1 188 -41 269t-156 81z" />
    <glyph glyph-name="uni12A4" unicode="&#x12a4;" horiz-adv-x="1838" 
d="M1335 -37q130 0 130 120q-1 59 -37 92t-102 33t-124 -31q0 -115 32 -165t101 -49zM258 1162q0 237 -71 237q-10 18 -11 44q0 45 120 79t180 34t76 -16t16 -63v-177q0 -60 16 -82t182 -23q32 0 42 -9q10 -8 10 -40t-17 -60t-77 -110q-60 -81 -86 -129q162 40 294 40
t206 -65t74 -253q0 -88 -10 -275q176 77 308 77q132 1 198 -51t66 -137q0 -157 -203 -270t-466 -113q-109 0 -161 46t-51 175q0 65 5 145t5 238q1 158 -41 239t-155 81t-144 -28t-77 -178t-45 -317q0 -167 50 -343q-122 -39 -226 -39t-128 44t-24 152q0 245 80 497t269 545
h-125q-43 1 -61 17t-18 88z" />
    <glyph glyph-name="uni12A5" unicode="&#x12a5;" horiz-adv-x="1429" 
d="M770 724q-112 0 -144 -28t-78 -178t-45 -317q0 -167 50 -343q-121 -39 -225 -39t-128 44t-24 152q0 245 80 497t268 545h-132q-26 1 -38 9t-11 39q-1 31 39 115t40 109h-145q-39 1 -57 15t-16 85q1 178 -72 178q-10 17 -10 43q0 46 120 80t179 34t75 -16t17 -72
q0 -56 -19 -199h192q40 0 52 -14q12 -13 13 -43q0 -30 -40 -104t-40 -94q-1 -22 15 -24t94 -3q78 0 90 -9q10 -8 10 -40t-17 -60t-77 -110q-60 -81 -86 -129q163 40 295 40t206 -65t74 -253l-10 -403q0 -211 60 -189q20 -23 20 -52q-1 -49 -119 -77t-180 -29q-62 0 -76 14
q-15 14 -15 71l10 470q1 188 -41 269t-154 81z" />
    <glyph glyph-name="uni12A6" unicode="&#x12a6;" horiz-adv-x="1367" 
d="M1283 290q-1 -49 -119 -77t-179 -28q-61 -1 -77 13t-15 45l10 229q1 120 -41 186t-155 66t-144 -28t-77 -178t-45 -317q0 -167 50 -343q-122 -39 -226 -39t-128 44t-24 152q0 245 80 497t269 545h-125q-43 1 -61 17t-18 88q0 237 -71 237q-10 18 -11 44q0 45 120 79
t180 34t76 -16t16 -63v-177q0 -60 16 -82t182 -23q32 0 42 -9q10 -8 10 -40t-17 -60t-77 -110q-60 -81 -86 -129q162 40 283 40q291 0 291 -261l-9 -216q1 -46 17 -62t44 -6q19 -23 19 -52z" />
    <glyph glyph-name="uni12A7" unicode="&#x12a7;" horiz-adv-x="1760" 
d="M1101 724q-113 0 -145 -28t-76 -178q-46 -150 -46 -317t50 -343q-121 -39 -225 -39t-128 44t-24 152q0 245 80 497t269 545h-125q-43 1 -61 17t-18 63q0 154 -9 343h-18q-144 0 -207 -10q20 -73 20 -106q0 -32 -23 -52t-131 -40t-168 -20q-53 0 -53 57q0 22 10 56
q33 -3 43 8t9 37l-14 133q-1 19 23 32t128 32t126 20t416 1q396 0 562 27t188 27t38 -14t16 -30t-10 -68t-10 -85q0 -49 50 -38q10 -17 10 -49t-30 -48t-132 -28t-147 -11q-67 0 -67 62q0 41 19 126q-168 -9 -329 -14v-185q0 -60 16 -82t182 -23q31 0 41 -9q10 -8 10 -40
t-17 -60t-77 -110q-60 -81 -86 -129q163 40 295 40t206 -65t74 -253l-10 -403q0 -211 61 -189q19 -23 19 -52q0 -49 -118 -77t-180 -29q-62 0 -77 14t-15 71l10 470q0 188 -41 269t-154 81z" />
    <glyph glyph-name="uni12A8" unicode="&#x12a8;" horiz-adv-x="1566" 
d="M266 1148q0 251 -72 251q-10 18 -11 44q1 45 121 79t179 34t75 -16t17 -63v-146q1 -79 13 -103t61 -31q103 36 237 36q262 -1 374 -79t112 -331q0 -139 -10 -307t-10 -320t18 -190q16 -38 43 -29q20 -23 20 -52q-1 -49 -119 -77t-180 -29q-62 0 -76 14q-15 14 -15 109
q-1 95 9 253t10 348q0 313 -53 420t-210 107q-131 0 -177 -142t-46 -461q0 -320 60 -609q-114 -39 -218 -39q-104 1 -128 73t-24 412q0 548 180 758q-45 -5 -94 -5q-50 0 -68 18t-18 73z" />
    <glyph glyph-name="uni12A9" unicode="&#x12a9;" horiz-adv-x="2027" 
d="M266 1148q0 251 -72 251q-10 18 -11 44q1 45 121 79t179 34t75 -16t17 -63v-146q1 -79 13 -103t61 -31q103 36 237 36q262 -1 374 -79t112 -331q0 -31 -1 -63q205 6 341 28t158 23q22 0 38 -15t16 -30t-10 -68t-10 -85q0 -47 50 -38q10 -17 10 -49t-30 -48t-132 -27
t-147 -11q-67 0 -67 61q0 41 19 127q-135 -8 -240 -13q-3 -47 -9 -157t-6 -262t18 -190q16 -38 43 -29q20 -23 20 -52q-1 -49 -119 -77t-180 -29q-62 0 -76 14q-15 14 -15 109q-1 95 9 253t10 348q0 313 -53 420t-210 107q-131 0 -177 -142t-46 -461q0 -320 60 -609
q-114 -39 -218 -39q-104 1 -128 73t-24 412q0 548 180 758q-45 -5 -94 -5q-50 0 -68 18t-18 73z" />
    <glyph glyph-name="uni12AA" unicode="&#x12aa;" horiz-adv-x="2013" 
d="M266 1148q0 251 -72 251q-10 18 -11 44q1 45 121 79t179 34t75 -16t17 -63v-146q1 -79 13 -103t61 -31q103 36 237 36q262 -1 374 -79t112 -331q0 -138 -10 -310t-10 -485q0 -34 10 -47t35 -13q105 0 271 27t188 27t38 -15t16 -30t-10 -68t-9 -85q0 -48 49 -37
q10 -18 10 -50q0 -31 -30 -47t-132 -28t-146 -11q-68 0 -68 61q0 42 19 128q-359 -21 -435 -21t-95 22q-20 22 -20 68q-1 128 9 286t10 348q0 313 -53 420t-210 107q-131 0 -177 -142t-46 -461q0 -320 60 -609q-114 -39 -218 -39q-104 1 -128 73t-24 412q0 548 180 758
q-45 -5 -94 -5q-50 0 -68 18t-18 73z" />
    <glyph glyph-name="uni12AB" unicode="&#x12ab;" horiz-adv-x="1566" 
d="M266 1148q0 251 -72 251q-10 18 -11 44q1 45 121 79t179 34t75 -16t17 -63v-146q1 -79 13 -103t61 -31q103 36 237 36q262 -1 374 -79t112 -331q0 -139 -10 -307t-10 -320t18 -190q16 -38 43 -29q20 -23 20 -52q-1 -49 -119 -77t-180 -29q-62 0 -76 14q-15 14 -15 109
q-1 95 9 253t10 348q0 313 -53 420t-210 107q-131 0 -177 -142t-46 -475q0 -121 26 -230q-76 -38 -175 -38q-99 1 -130 29t-31 154q0 484 180 694q-45 -5 -94 -5q-50 0 -68 18t-18 73z" />
    <glyph glyph-name="uni12AC" unicode="&#x12ac;" horiz-adv-x="1988" 
d="M1485 -37q130 0 130 120q-1 59 -37 92t-102 33t-124 -31q0 -115 32 -165t101 -49zM266 1148q0 251 -72 251q-10 18 -11 44q1 45 121 79t179 34t75 -16t17 -63v-146q1 -79 13 -103t61 -31q103 36 237 36q262 -1 374 -79t112 -331q0 -138 -20 -529q176 77 308 77
q132 1 198 -51t66 -137q0 -157 -203 -270t-466 -113q-109 0 -161 46t-51 165q-1 59 9 201t10 331q0 313 -53 420t-210 107q-131 0 -177 -142t-46 -461q0 -320 60 -609q-114 -39 -218 -39q-104 1 -128 73t-24 412q0 548 180 758q-45 -5 -94 -5q-50 0 -68 18t-18 73z" />
    <glyph glyph-name="uni12AD" unicode="&#x12ad;" horiz-adv-x="1566" 
d="M594 674q70 0 71 -43q1 -27 -15 -153t-16 -308t41 -312q-104 -39 -235 -39q-67 -1 -91 31t-24 212t30 445q-134 0 -152 11t-18 47q0 260 169 464l26 28h-33q-45 0 -63 18t-18 73q0 251 -72 251q-10 18 -11 44q1 45 121 79t179 34t75 -16t17 -63v-146q-1 -79 11 -101
t41 -29q110 32 250 32q271 -1 383 -79t112 -331q0 -139 -10 -307t-10 -320t18 -190q16 -38 43 -29q20 -23 20 -52q-1 -49 -119 -77t-180 -29q-62 0 -76 14q-15 14 -15 109q-1 95 9 253t10 348q0 313 -53 420t-207 107t-230 -100t-77 -246q1 -32 15 -41t84 -9z" />
    <glyph glyph-name="uni12AE" unicode="&#x12ae;" horiz-adv-x="1566" 
d="M266 1148q0 251 -72 251q-10 18 -11 44q1 45 121 79t179 34t75 -16t17 -63v-146q1 -79 13 -103t61 -31q103 36 237 36q262 -1 374 -79t112 -329q0 -99 -10 -201t-10 -168t17 -96q17 -28 44 -18q20 -23 20 -52q-1 -49 -119 -77t-180 -28q-62 -1 -76 13q-15 14 -15 60
q-1 46 9 149t10 222q0 227 -53 334t-210 107q-131 0 -177 -142t-46 -461q0 -320 60 -609q-114 -39 -218 -39q-104 1 -128 73t-24 412q0 548 180 758q-45 -5 -94 -5q-50 0 -68 18t-18 73z" />
    <glyph glyph-name="uni12AF" unicode="&#x12af;" horiz-adv-x="1958" 
d="M658 1148q0 251 -72 251q-10 18 -11 44q0 45 120 79q119 34 179 34t76 -16t17 -63v-146q1 -79 13 -103t61 -31q103 36 237 36q263 -1 374 -79t111 -329q1 -99 -9 -201t-10 -168t16 -96q16 -28 45 -18q19 -23 19 -52q0 -49 -118 -77t-180 -28q-62 -1 -77 13t-15 60t10 149
t10 222q0 227 -54 334t-209 107q-131 0 -177 -142t-47 -461q0 -320 61 -609q-114 -39 -218 -39q-104 1 -128 73t-24 326t16 390q-201 -1 -256 -10q20 -73 20 -106t-23 -52q-23 -20 -131 -40t-168 -20q-53 0 -53 57q0 22 10 56q33 -3 43 8t9 37l-14 133q-1 19 23 32t128 32
t124 20t313 1q44 196 139 306q-44 -5 -94 -5t-68 18t-18 73z" />
    <glyph glyph-name="uni12B0" unicode="&#x12b0;" horiz-adv-x="2481" 
d="M1856 505q0 -53 28 -77t89 -25q63 0 99 32q36 31 36 89q0 124 -122 124q-53 0 -105 -38q-25 -52 -25 -105zM266 1148q0 251 -72 251q-10 18 -11 44q1 45 121 79t179 34t75 -16t17 -63v-146q1 -79 13 -103t61 -31q103 36 237 36q262 -1 374 -79t112 -331q0 -32 -1 -66
q110 1 169 5q60 4 172 27q112 22 149 22t76 -65q139 65 253 65q228 0 227 -182q-1 -157 -193 -273t-440 -116t-248 161q0 99 86 217q-102 -6 -255 -9q-3 -45 -9 -153t-6 -260t18 -190q16 -38 43 -29q20 -23 20 -52q-1 -49 -119 -77t-180 -29q-62 0 -76 14q-15 14 -15 109
q-1 95 9 253t10 348q0 313 -53 420t-210 107q-131 0 -177 -142t-46 -461q0 -320 60 -609q-114 -39 -218 -39q-104 1 -128 73t-24 412q0 548 180 758q-45 -5 -94 -5q-50 0 -68 18t-18 73z" />
    <glyph glyph-name="uni12B2" unicode="&#x12b2;" horiz-adv-x="2356" 
d="M266 1148q0 251 -72 251q-10 18 -11 44q1 45 121 79t179 34t75 -16t17 -63v-146q1 -79 13 -103t61 -31q103 36 237 36q262 -1 374 -79t112 -331q0 -30 -1 -62q143 7 237 25q6 190 20 219q22 46 126 46t209 -39q-51 -264 -51 -456q40 0 152 28t134 27q22 0 39 -15
q16 -15 16 -30t-10 -68t-10 -85q0 -47 50 -38q10 -17 10 -49t-30 -48t-132 -27t-147 -11q-67 0 -67 61q0 41 19 127q-254 -20 -291 -20t-39 24t-3 78q0 54 1 113q-138 -7 -237 -10q-3 -47 -9 -156t-6 -261t18 -190q16 -38 43 -29q20 -23 20 -52q-1 -49 -119 -77t-180 -29
q-62 0 -76 14q-15 14 -15 109q-1 95 9 253t10 348q0 313 -53 420t-210 107q-131 0 -177 -142t-46 -461q0 -320 60 -609q-114 -39 -218 -39q-104 1 -128 73t-24 412q0 548 180 758q-45 -5 -94 -5q-50 0 -68 18t-18 73z" />
    <glyph glyph-name="uni12B3" unicode="&#x12b3;" horiz-adv-x="1897" 
d="M1755 261q78 0 78 -67q0 -44 -54 -179t-54 -169q-1 -34 5 -40q6 -7 27 2q15 -23 15 -50q0 -46 -110 -76t-177 -31q-67 1 -83 13t-16 54t49 170q49 127 49 165t-31 49t-237 11t-268 -10q20 -73 20 -106t-23 -53t-131 -40t-168 -20q-52 0 -52 57q0 23 9 57q33 -3 43 8t9 37
l-14 133q-1 18 23 31t128 32t122 20t134 2q14 161 14 282q0 313 -53 420t-210 107q-131 0 -177 -142t-46 -389q0 -125 26 -216q-90 -38 -182 -38q-92 1 -123 29t-31 111q0 427 180 637q-45 -5 -94 -5q-50 0 -68 18t-18 73q0 251 -72 251q-10 18 -11 44q1 45 121 79t179 34
t75 -16t17 -63v-146q1 -79 13 -103t61 -31q103 36 237 36q262 -1 374 -79t112 -331q0 -119 -8 -289t-11 -273h402z" />
    <glyph glyph-name="uni12B4" unicode="&#x12b4;" horiz-adv-x="1988" 
d="M1485 -37q130 0 130 120q-1 59 -37 92t-102 33t-124 -31q0 -115 32 -165t101 -49zM522 -247l-15 129q-1 18 23 32q24 13 128 32q104 18 122 20t265 2q-2 20 -2 61q-1 41 9 183t10 331q0 313 -53 420t-210 107q-131 0 -177 -142t-46 -475q0 -121 26 -230q-76 -38 -175 -38
q-99 1 -130 29t-31 154q0 484 180 694q-45 -5 -94 -5q-50 0 -68 18t-18 73q0 251 -72 251q-10 18 -11 44q1 45 121 79t179 34t75 -16t17 -63v-146q1 -79 13 -103t61 -31q103 36 237 36q262 -1 374 -79t112 -331q0 -138 -20 -529q176 77 308 77q132 1 198 -51t66 -137
q0 -157 -203 -270t-466 -113q-70 0 -116 19q-272 -1 -324 -9q20 -72 20 -106t-23 -53t-131 -39t-168 -21q-53 0 -53 57q0 23 10 56q32 -3 42 8t10 41z" />
    <glyph glyph-name="uni12B5" unicode="&#x12b5;" horiz-adv-x="2355" 
d="M266 1148q0 251 -72 251q-10 18 -11 44q1 45 121 79t179 34t75 -16t17 -63v-146q1 -79 13 -103t61 -31q103 36 237 36q262 -1 374 -79t112 -331q0 -32 -1 -66h191q4 207 26 251t125 44q104 0 209 -39q-51 -165 -51 -256q80 -1 192 27q113 28 135 28t38 -15t16 -30
t-10 -68t-10 -85q0 -47 50 -38q10 -17 10 -49t-30 -48t-132 -27t-147 -11q-67 0 -67 61q0 41 19 117q-106 -10 -310 -10h-258q-15 -338 -15 -451q1 -203 61 -181q20 -23 20 -52q-1 -49 -119 -77t-180 -29q-62 0 -76 14q-15 14 -15 109q-1 95 9 253t10 348q0 313 -53 420
t-210 107q-131 0 -177 -142t-46 -461q0 -320 60 -609q-114 -39 -218 -39q-104 1 -128 73t-24 412q0 548 180 758q-45 -5 -94 -5q-50 0 -68 18t-18 73z" />
    <glyph glyph-name="uni12B8" unicode="&#x12b8;" horiz-adv-x="1971" 
d="M1298 1311q-68 0 -68 62q0 41 20 126q-152 -8 -270 -13v-194q0 -80 13 -104t61 -30q103 36 237 36q263 0 375 -78t111 -332q1 -138 -9 -287t-10 -301t16 -190t45 -29q19 -23 19 -52q0 -49 -118 -77t-180 -29q-62 0 -77 14t-15 109q0 96 10 234t9 328q0 313 -53 420
t-209 107q-131 1 -177 -141t-47 -442q0 -300 61 -590q-114 -39 -218 -39q-104 1 -128 73t-24 412q0 509 180 719q-46 -5 -95 -5t-67 18t-19 63q0 139 -9 381q-190 -2 -244 -10q20 -73 20 -106q0 -32 -23 -52t-131 -40t-168 -20q-53 0 -53 57q0 22 10 56q33 -3 43 8t9 37
l-14 133q-1 19 23 32t128 32t126 20t396 1t540 27t188 27t38 -14t16 -30t-10 -68t-9 -85q0 -48 50 -38q9 -17 9 -49t-30 -48t-132 -28t-146 -11z" />
    <glyph glyph-name="uni12B9" unicode="&#x12b9;" horiz-adv-x="2433" 
d="M2061 440q-68 0 -68 61q0 41 19 127q-134 -8 -239 -13q-3 -59 -9 -163t-6 -256t16 -190t45 -29q19 -23 19 -52q0 -49 -118 -77t-180 -29q-62 0 -77 14t-15 109t10 253t9 309q0 313 -53 420t-209 107q-131 1 -177 -141t-47 -442q0 -300 61 -590q-114 -39 -218 -39
q-104 1 -128 73t-24 412q0 509 180 719q-46 -5 -95 -5t-67 18t-19 63q0 139 -9 381q-190 -2 -244 -10q20 -73 20 -106q0 -32 -23 -52t-131 -40t-168 -20q-53 0 -53 57q0 22 10 56q33 -3 43 8t9 37l-14 133q-1 19 23 32t128 32t126 20t396 1t540 27t188 27t38 -14t16 -30
t-10 -68t-9 -85q0 -48 50 -38q9 -17 9 -49t-30 -48t-132 -28t-146 -11q-68 0 -68 62q0 41 20 126q-152 -8 -270 -13v-194q0 -80 13 -104t61 -30q103 36 237 36q263 0 375 -78t111 -332v-24q203 6 339 28t158 23q22 0 39 -15q16 -15 16 -30q1 -15 -9 -68t-10 -85
q0 -47 49 -38q10 -17 10 -49t-30 -48t-132 -27t-146 -11z" />
    <glyph glyph-name="uni12BA" unicode="&#x12ba;" horiz-adv-x="2419" 
d="M2047 -349q-68 0 -68 61q0 42 20 128q-360 -21 -435 -21q-76 0 -96 22t-20 68q0 128 10 286t9 309q0 313 -53 420t-209 107q-131 1 -177 -141t-47 -442q0 -300 61 -590q-114 -39 -218 -39q-104 1 -128 73t-24 412q0 509 180 719q-46 -5 -95 -5t-67 18t-19 63
q0 139 -9 381q-190 -2 -244 -10q20 -73 20 -106q0 -32 -23 -52t-131 -40t-168 -20q-53 0 -53 57q0 22 10 56q33 -3 43 8t9 37l-14 133q-1 19 23 32t128 32t126 20t396 1t540 27t188 27t38 -14t16 -30t-10 -68t-9 -85q0 -48 50 -38q9 -17 9 -49t-30 -48t-132 -28t-146 -11
q-68 0 -68 62q0 41 20 126q-152 -8 -270 -13v-194q0 -80 13 -104t61 -30q103 36 237 36q263 0 375 -78t111 -332q1 -138 -9 -290t-10 -466q0 -34 10 -47t34 -13q104 0 270 27t188 27t39 -15q16 -15 16 -30q1 -15 -9 -68t-10 -85q0 -47 50 -37q9 -18 9 -50q0 -31 -30 -47
t-132 -28t-146 -11z" />
    <glyph glyph-name="uni12BB" unicode="&#x12bb;" horiz-adv-x="1971" 
d="M1298 1311q-68 0 -68 62q0 41 20 126q-152 -8 -270 -13v-194q0 -80 13 -104t61 -30q103 36 237 36q263 0 375 -78t111 -332q1 -138 -9 -287t-10 -301t16 -190t45 -29q19 -23 19 -52q0 -49 -118 -77t-180 -29q-62 0 -77 14t-15 109t10 253t9 309q0 313 -53 420t-209 107
q-131 1 -177 -141t-47 -437q0 -121 26 -230q-77 -38 -175 -38q-98 1 -129 29t-31 154q0 445 180 655q-46 -5 -95 -5t-67 18t-19 63q0 139 -9 381q-190 -2 -244 -10q20 -73 20 -106q0 -32 -23 -52t-131 -40t-168 -20q-53 0 -53 57q0 22 10 56q33 -3 43 8t9 37l-14 133
q-1 19 23 32t128 32t126 20t396 1t540 27t188 27t38 -14t16 -30t-10 -68t-9 -85q0 -48 50 -38q9 -17 9 -49t-30 -48t-132 -28t-146 -11z" />
    <glyph glyph-name="uni12BC" unicode="&#x12bc;" horiz-adv-x="2393" 
d="M1890 -37q130 0 130 120q0 59 -36 92t-102 33t-124 -31q0 -115 32 -165t100 -49zM1298 1311q-68 0 -68 62q0 41 20 126q-152 -8 -270 -13v-194q0 -80 13 -104t61 -30q103 36 237 36q263 0 375 -78t111 -332q0 -138 -19 -490q176 77 308 77q132 1 198 -51t66 -137
q0 -157 -203 -270t-467 -113q-108 0 -160 46t-52 165q0 59 10 201t9 292q0 313 -53 420t-209 107q-131 1 -177 -141t-47 -442q0 -300 61 -590q-114 -39 -218 -39q-104 1 -128 73t-24 373q0 548 180 758q-46 -5 -95 -5t-67 18t-19 63q0 139 -9 381q-190 -2 -244 -10
q20 -73 20 -106q0 -32 -23 -52t-131 -40t-168 -20q-53 0 -53 57q0 22 10 56q33 -3 43 8t9 37l-14 133q-1 19 23 32t128 32t126 20t396 1t540 27t188 27t38 -14t16 -30t-10 -68t-9 -85q0 -48 50 -38q9 -17 9 -49t-30 -48t-132 -28t-146 -11z" />
    </font>
</defs>
</svg>
